<svg width="44" height="29" viewBox="0 0 44 29" fill="none" xmlns="http://www.w3.org/2000/svg">
<path fill-rule="evenodd" clip-rule="evenodd" d="M0 1.5C0 0.671573 0.671573 0 1.5 0H42.5C43.3284 0 44 0.671573 44 1.5V27.5C44 28.3284 43.3284 29 42.5 29H1.5C0.671574 29 0 28.3284 0 27.5V1.5Z" fill="url(#paint0_radial_11241_24293)"/>
<mask id="path-2-outside-1_11241_24293" maskUnits="userSpaceOnUse" x="5.59375" y="10.0479" width="33" height="9" fill="black">
<rect fill="white" x="5.59375" y="10.0479" width="33" height="9"/>
<path fill-rule="evenodd" clip-rule="evenodd" d="M10.1191 15.2834L11.04 12.7498H11.0598L11.951 15.2834H10.1191ZM10.2673 11.0479L7.59375 17.9526H9.15825L9.71275 16.415H12.3566L12.8913 17.9526H14.5053L11.8615 11.0479H10.2673ZM15.1187 11.0479V17.9526H16.5742V13.1077H16.594L18.3269 17.9526H19.525L21.2578 13.0593H21.2776V17.9526H22.7332V11.0479H20.5449L18.9804 15.7961H18.9606L17.307 11.0479H15.1187ZM24.1006 11.0479V17.9526H29.4674V16.6761H25.6552V14.9838H29.0812V13.804H25.6552V12.3244H29.3882V11.0479H24.1006ZM32.2498 14.3358L29.7842 17.9526H31.5269L33.1013 15.564L34.646 17.9526H36.4977L34.0321 14.3455L36.2996 11.0479H34.5965L33.1607 13.2527L31.7745 11.0479H29.9723L32.2498 14.3358Z"/>
</mask>
<path fill-rule="evenodd" clip-rule="evenodd" d="M10.1191 15.2834L11.04 12.7498H11.0598L11.951 15.2834H10.1191ZM10.2673 11.0479L7.59375 17.9526H9.15825L9.71275 16.415H12.3566L12.8913 17.9526H14.5053L11.8615 11.0479H10.2673ZM15.1187 11.0479V17.9526H16.5742V13.1077H16.594L18.3269 17.9526H19.525L21.2578 13.0593H21.2776V17.9526H22.7332V11.0479H20.5449L18.9804 15.7961H18.9606L17.307 11.0479H15.1187ZM24.1006 11.0479V17.9526H29.4674V16.6761H25.6552V14.9838H29.0812V13.804H25.6552V12.3244H29.3882V11.0479H24.1006ZM32.2498 14.3358L29.7842 17.9526H31.5269L33.1013 15.564L34.646 17.9526H36.4977L34.0321 14.3455L36.2996 11.0479H34.5965L33.1607 13.2527L31.7745 11.0479H29.9723L32.2498 14.3358Z" fill="#1793C0" fill-opacity="0.01"/>
<path d="M10.1191 15.2834L9.17929 14.9418L8.69169 16.2834H10.1191V15.2834ZM11.04 12.7498V11.7498H10.3395L10.1002 12.4082L11.04 12.7498ZM11.0598 12.7498L12.0032 12.418L11.7681 11.7498H11.0598V12.7498ZM11.951 15.2834V16.2834H13.3628L12.8943 14.9516L11.951 15.2834ZM10.2673 11.0479V10.0479H9.58211L9.33472 10.6868L10.2673 11.0479ZM7.59375 17.9526L6.66121 17.5915L6.13421 18.9526H7.59375V17.9526ZM9.15825 17.9526V18.9526H9.86066L10.0989 18.2919L9.15825 17.9526ZM9.71275 16.415V15.415H9.01034L8.77206 16.0758L9.71275 16.415ZM12.3566 16.415L13.3011 16.0865L13.0676 15.415H12.3566V16.415ZM12.8913 17.9526L11.9467 18.2811L12.1803 18.9526H12.8913V17.9526ZM14.5053 17.9526V18.9526H15.959L15.4392 17.595L14.5053 17.9526ZM11.8615 11.0479L12.7953 10.6903L12.5494 10.0479H11.8615V11.0479ZM15.1187 11.0479V10.0479H14.1187V11.0479H15.1187ZM15.1187 17.9526H14.1187V18.9526H15.1187V17.9526ZM16.5742 17.9526V18.9526H17.5742V17.9526H16.5742ZM16.5742 13.1077V12.1077H15.5742V13.1077H16.5742ZM16.594 13.1077L17.5356 12.7709L17.2984 12.1077H16.594V13.1077ZM18.3269 17.9526L17.3853 18.2894L17.6225 18.9526H18.3269V17.9526ZM19.525 17.9526V18.9526H20.2317L20.4676 18.2864L19.525 17.9526ZM21.2578 13.0593V12.0593H20.5511L20.3152 12.7255L21.2578 13.0593ZM21.2776 13.0593H22.2776V12.0593H21.2776V13.0593ZM21.2776 17.9526H20.2776V18.9526H21.2776V17.9526ZM22.7332 17.9526V18.9526H23.7332V17.9526H22.7332ZM22.7332 11.0479H23.7332V10.0479H22.7332V11.0479ZM20.5449 11.0479V10.0479H19.8215L19.5951 10.7349L20.5449 11.0479ZM18.9804 15.7961V16.7961H19.7038L19.9302 16.109L18.9804 15.7961ZM18.9606 15.7961L18.0162 16.125L18.2499 16.7961H18.9606V15.7961ZM17.307 11.0479L18.2513 10.719L18.0176 10.0479H17.307V11.0479ZM24.1006 11.0479V10.0479H23.1006V11.0479H24.1006ZM24.1006 17.9526H23.1006V18.9526H24.1006V17.9526ZM29.4674 17.9526V18.9526H30.4674V17.9526H29.4674ZM29.4674 16.6761H30.4674V15.6761H29.4674V16.6761ZM25.6552 16.6761H24.6552V17.6761H25.6552V16.6761ZM25.6552 14.9838V13.9838H24.6552V14.9838H25.6552ZM29.0812 14.9838V15.9838H30.0812V14.9838H29.0812ZM29.0812 13.804H30.0812V12.804H29.0812V13.804ZM25.6552 13.804H24.6552V14.804H25.6552V13.804ZM25.6552 12.3244V11.3244H24.6552V12.3244H25.6552ZM29.3882 12.3244V13.3244H30.3882V12.3244H29.3882ZM29.3882 11.0479H30.3882V10.0479H29.3882V11.0479ZM32.2498 14.3358L33.076 14.8991L33.4631 14.3313L33.0718 13.7664L32.2498 14.3358ZM29.7842 17.9526L28.9579 17.3893L27.8922 18.9526H29.7842V17.9526ZM31.5269 17.9526V18.9526H32.0655L32.3619 18.5029L31.5269 17.9526ZM33.1013 15.564L33.941 15.021L33.1093 13.7348L32.2664 15.0137L33.1013 15.564ZM34.646 17.9526L33.8063 18.4956L34.1018 18.9526H34.646V17.9526ZM36.4977 17.9526V18.9526H38.3925L37.3232 17.3883L36.4977 17.9526ZM34.0321 14.3455L33.2081 13.7789L32.8197 14.3438L33.2065 14.9098L34.0321 14.3455ZM36.2996 11.0479L37.1236 11.6144L38.2008 10.0479H36.2996V11.0479ZM34.5965 11.0479V10.0479H34.0543L33.7585 10.5022L34.5965 11.0479ZM33.1607 13.2527L32.3141 13.785L33.1459 15.108L33.9987 13.7984L33.1607 13.2527ZM31.7745 11.0479L32.621 10.5156L32.327 10.0479H31.7745V11.0479ZM29.9723 11.0479V10.0479H28.0632L29.1503 11.6173L29.9723 11.0479ZM11.059 15.625L11.9799 13.0913L10.1002 12.4082L9.17929 14.9418L11.059 15.625ZM11.04 13.7498H11.0598V11.7498H11.04V13.7498ZM10.1165 13.0816L11.0076 15.6152L12.8943 14.9516L12.0032 12.418L10.1165 13.0816ZM11.951 14.2834H10.1191V16.2834H11.951V14.2834ZM9.33472 10.6868L6.66121 17.5915L8.52629 18.3137L11.1998 11.4089L9.33472 10.6868ZM7.59375 18.9526H9.15825V16.9526H7.59375V18.9526ZM10.0989 18.2919L10.6535 16.7542L8.77206 16.0758L8.21755 17.6134L10.0989 18.2919ZM9.71275 17.415H12.3566V15.415H9.71275V17.415ZM11.412 16.7435L11.9467 18.2811L13.8358 17.6242L13.3011 16.0865L11.412 16.7435ZM12.8913 18.9526H14.5053V16.9526H12.8913V18.9526ZM15.4392 17.595L12.7953 10.6903L10.9276 11.4054L13.5714 18.3102L15.4392 17.595ZM11.8615 10.0479H10.2673V12.0479H11.8615V10.0479ZM14.1187 11.0479V17.9526H16.1187V11.0479H14.1187ZM15.1187 18.9526H16.5742V16.9526H15.1187V18.9526ZM17.5742 17.9526V13.1077H15.5742V17.9526H17.5742ZM16.5742 14.1077H16.594V12.1077H16.5742V14.1077ZM15.6524 13.4444L17.3853 18.2894L19.2685 17.6158L17.5356 12.7709L15.6524 13.4444ZM18.3269 18.9526H19.525V16.9526H18.3269V18.9526ZM20.4676 18.2864L22.2005 13.3931L20.3152 12.7255L18.5824 17.6188L20.4676 18.2864ZM21.2578 14.0593H21.2776V12.0593H21.2578V14.0593ZM20.2776 13.0593V17.9526H22.2776V13.0593H20.2776ZM21.2776 18.9526H22.7332V16.9526H21.2776V18.9526ZM23.7332 17.9526V11.0479H21.7332V17.9526H23.7332ZM22.7332 10.0479H20.5449V12.0479H22.7332V10.0479ZM19.5951 10.7349L18.0306 15.4831L19.9302 16.109L21.4947 11.3608L19.5951 10.7349ZM18.9804 14.7961H18.9606V16.7961H18.9804V14.7961ZM19.905 15.4672L18.2513 10.719L16.3626 11.3767L18.0162 16.125L19.905 15.4672ZM17.307 10.0479H15.1187V12.0479H17.307V10.0479ZM23.1006 11.0479V17.9526H25.1006V11.0479H23.1006ZM24.1006 18.9526H29.4674V16.9526H24.1006V18.9526ZM30.4674 17.9526V16.6761H28.4674V17.9526H30.4674ZM29.4674 15.6761H25.6552V17.6761H29.4674V15.6761ZM26.6552 16.6761V14.9838H24.6552V16.6761H26.6552ZM25.6552 15.9838H29.0812V13.9838H25.6552V15.9838ZM30.0812 14.9838V13.804H28.0812V14.9838H30.0812ZM29.0812 12.804H25.6552V14.804H29.0812V12.804ZM26.6552 13.804V12.3244H24.6552V13.804H26.6552ZM25.6552 13.3244H29.3882V11.3244H25.6552V13.3244ZM30.3882 12.3244V11.0479H28.3882V12.3244H30.3882ZM29.3882 10.0479H24.1006V12.0479H29.3882V10.0479ZM31.4235 13.7726L28.9579 17.3893L30.6105 18.5159L33.076 14.8991L31.4235 13.7726ZM29.7842 18.9526H31.5269V16.9526H29.7842V18.9526ZM32.3619 18.5029L33.9363 16.1143L32.2664 15.0137L30.692 17.4023L32.3619 18.5029ZM32.2616 16.107L33.8063 18.4956L35.4857 17.4096L33.941 15.021L32.2616 16.107ZM34.646 18.9526H36.4977V16.9526H34.646V18.9526ZM37.3232 17.3883L34.8577 13.7812L33.2065 14.9098L35.6721 18.5169L37.3232 17.3883ZM34.8561 14.9121L37.1236 11.6144L35.4756 10.4813L33.2081 13.7789L34.8561 14.9121ZM36.2996 10.0479H34.5965V12.0479H36.2996V10.0479ZM33.7585 10.5022L32.3227 12.7071L33.9987 13.7984L35.4345 11.5935L33.7585 10.5022ZM34.0073 12.7205L32.621 10.5156L30.9279 11.5801L32.3141 13.785L34.0073 12.7205ZM31.7745 10.0479H29.9723V12.0479H31.7745V10.0479ZM29.1503 11.6173L31.4277 14.9052L33.0718 13.7664L30.7944 10.4784L29.1503 11.6173Z" fill="white" mask="url(#path-2-outside-1_11241_24293)"/>
<defs>
<radialGradient id="paint0_radial_11241_24293" cx="0" cy="0" r="1" gradientUnits="userSpaceOnUse" gradientTransform="translate(14.7759 5.49684) rotate(90) scale(29 44)">
<stop stop-color="#71C8F2"/>
<stop offset="1" stop-color="#0071BD"/>
</radialGradient>
</defs>
</svg>
