<svg width="32" height="32" viewBox="0 0 32 32" fill="none" xmlns="http://www.w3.org/2000/svg">
<path d="M16 32C24.8366 32 32 24.8366 32 16C32 7.16344 24.8366 0 16 0C7.16344 0 0 7.16344 0 16C0 24.8366 7.16344 32 16 32Z" fill="white"/>
<path d="M24.1178 23H17.4306V22.335H16.7656V16.3516H19.424V21.67H22.1228V16.3516H24.7828V22.335H24.1178V23Z" fill="#23C865"/>
<path d="M16.7646 9H19.423V10.995H20.088V11.66H21.418V10.995H22.083V9H24.743V11.6584H24.078V12.3234H23.413V12.9884H22.083V15.6484H19.423V12.9884H18.093V12.3234H17.4279V11.6584H16.7629V9H16.7646Z" fill="#23C865"/>
<path d="M8.00167 16.3467H10.66V18.3417H11.325V19.0067H12.6551V18.3417H13.3201V16.3467H15.9801V19.005H15.3151V19.6701H14.6501V20.3351H13.3201V22.9951H10.66V20.3351H9.33002V19.6701H8.66501V19.005H8V16.3467H8.00167Z" fill="#23C865"/>
<path d="M8.66539 9.00442H15.3526V9.66943H16.0176V15.6528H13.3592V10.3344H10.6604V15.6528L8.00039 15.6528V9.66943H8.66539V9.00442Z" fill="#23C865"/>
</svg>
