<svg width="26" height="27" viewBox="0 0 26 27" fill="none" xmlns="http://www.w3.org/2000/svg">
<g opacity="0.5">
<g clip-path="url(#clip0_1_1781)">
<path d="M12.4925 25.4821C19.1158 25.4821 24.485 20.1128 24.485 13.4896C24.485 6.8663 19.1158 1.49707 12.4925 1.49707C5.86923 1.49707 0.5 6.8663 0.5 13.4896C0.5 20.1128 5.86923 25.4821 12.4925 25.4821Z" fill="white"/>
<path d="M18.6639 18.9996H13.4097V18.4771H12.8872V13.7759H14.9759V17.9546H17.0964V13.7759H19.1864V18.4771H18.6639V18.9996Z" fill="#1E1E1E"/>
<path d="M12.8866 8H14.9753V9.56752H15.4978V10.09H16.5428V9.56752H17.0653V8H19.1553V10.0887H18.6328V10.6112H18.1103V11.1337H17.0653V13.2238H14.9753V11.1337H13.9303V10.6112H13.4078V10.0887H12.8853V8H12.8866Z" fill="#1E1E1E"/>
<path d="M6.00131 13.7725H8.09003V15.34H8.61253V15.8625H9.65755V15.34H10.1801V13.7725H12.2701V15.8612H11.7476V16.3837H11.2251V16.9062H10.1801V18.9962H8.09003V16.9062H7.04501V16.3837H6.52251V15.8612H6V13.7725H6.00131Z" fill="#1E1E1E"/>
<path d="M6.52309 8.0033H11.7773V8.5258H12.2998V13.2271H10.2111V9.04831H8.09061V13.2271H6.00058L6.00058 8.5258H6.52309V8.0033Z" fill="#1E1E1E"/>
</g>
</g>
<defs>
<clipPath id="clip0_1_1781">
<rect x="0.25" y="0.5" width="25" height="26" fill="white"/>
</clipPath>
</defs>
</svg>
