<svg width="214" height="521" viewBox="0 0 214 521" fill="none" xmlns="http://www.w3.org/2000/svg">
<path d="M181.315 130.976L181.604 130.617C181.587 130.737 181.485 130.856 181.315 130.976Z" fill="#1E1E1E"/>
<path d="M212.301 459.319V519.293H1.71582V496.638H39.9222V462.392L4.9096 459.575L1.71582 459.319L39.7184 455.819L39.9392 462.375L40.1261 462.392H56.027V462.375H40.7716V461.948H40.3469V455.58C40.3469 432.072 40.1431 354.583 39.9222 280.576V277.93C39.9222 216.335 39.9222 157.556 40.16 135.568C40.211 130.907 40.279 127.902 40.3469 126.861L40.7716 126.588V125.547L53.6996 7.18711L54.2942 1.70703L54.4641 7.18711L54.8888 21.1348L55.9251 52.6154L55.4154 2.79963H78.5533L79.1989 7.18711H92.7215L96.0681 25.4711V25.4882L96.5948 25.6418L101.097 52.4276L100.978 52.4447L102.592 61.2709L103.781 67.8094V67.8265L105.14 75.304V75.321L107.382 87.5616L109.268 97.873V99.6314L111.612 112.162L112.479 116.311L112.7 117.642H119.121L126.001 118.086H127.496L134.359 118.513H135.651L136.619 118.615C138.573 118.274 141.104 118.001 144.026 117.779C148.748 117.42 154.524 117.215 160.759 117.215C176.643 117.215 189.52 118.564 189.52 120.288C189.52 121.347 184.305 122.32 176.405 122.866C176.405 122.866 176.405 122.866 176.388 122.866C176.303 122.883 176.184 122.9 176.014 122.917H175.369C173.738 123.02 172.005 123.122 170.171 123.191C166.977 123.669 163.834 124.437 160.776 125.547L159.485 126.11V120.288H159.281L152.401 119.623H150.906L144.026 118.957V127.185C144.535 127.22 145.079 127.271 145.64 127.322C148.052 127.493 150.328 127.715 152.469 127.954C152.945 128.005 153.369 128.056 153.743 128.09C154.032 128.124 154.27 128.159 154.473 128.176C154.813 128.21 155.034 128.244 155.102 128.244C154.117 128.773 153.148 129.336 152.197 129.934L151.551 130.395L150.685 131.044L148.969 132.136L148.663 132.375L144.026 136.097C143.482 136.541 142.972 137.053 142.531 137.616C139.949 139.955 137.502 142.431 135.226 145.094C134.852 145.777 134.325 146.357 133.714 146.852C131.59 149.703 129.433 152.554 127.292 155.849L125.797 158.051C125.458 158.529 125.169 159.042 124.931 159.571C124.897 159.605 124.88 159.673 124.846 159.707L178.291 461.897L209.855 459.097L212.301 459.319Z" fill="#1E1E1E"/>
<path d="M116.555 112.367C146.387 113.682 171.495 116.772 168.93 117.199H168.284" stroke="white" stroke-width="2" stroke-miterlimit="10"/>
<path d="M212.301 496.639H1.71582V519.293H212.301V496.639Z" stroke="white" stroke-width="2" stroke-miterlimit="10"/>
<path d="M77.7547 7.1875H79.1987H92.7213L96.068 25.4715V25.4886L100.978 52.4451L102.591 61.2713L103.781 67.8098V67.8269L105.14 75.3044V75.3214L107.382 87.562L109.268 97.8734V99.6318L111.612 112.163L112.479 116.311L112.699 117.643M81.2203 282.335C79.0628 291.844 77.0582 301.319 75.3594 310.657L76.6845 304.358L81.3562 282.335L81.696 280.73C81.713 280.679 81.73 280.611 81.7469 280.543L82.8512 275.302C82.2906 277.64 81.747 279.996 81.2203 282.335ZM109.472 189.447C109.523 189.447 109.591 189.413 109.625 189.379C109.659 189.328 109.692 189.293 109.692 189.242L109.472 189.447ZM56.8423 448.803L56.0948 433.37V433.285L42.6062 161.978L42.5892 161.791L41.2641 135.21L41.1452 132.785V132.683L40.8394 126.537L40.7715 125.547V462.375H57.5218L56.8423 448.803ZM57.5218 440.199L58.626 430.588L64.1132 382.394L65.0476 374.114C61.3781 400.917 59.0338 424.169 57.5218 440.199ZM66.5425 363.802L68.6661 350.776L72.3015 328.327L73.8475 318.767C71.0444 334.148 68.683 349.53 66.5425 363.802ZM100.893 211.18V211.606L99.6015 215.362V215.789C97.0363 223.266 94.4541 230.949 92.2966 238.853L92.8062 237.368L107.858 193.288L107.977 192.964C105.394 198.888 103.254 204.812 100.893 211.18ZM99.3807 215.362V215.789L100.672 211.606L99.3807 215.362ZM84.1423 269.156L90.5808 243.889C88.2194 252.255 86.0789 260.603 84.1423 269.156Z" stroke="white" stroke-width="2" stroke-miterlimit="10"/>
<path d="M175.386 462.392H155L109.709 189.242C111.867 183.967 114.432 178.913 116.794 173.86L118.305 171.009L121.533 165.307L175.403 462.187V462.392H175.386Z" stroke="white" stroke-width="2" stroke-miterlimit="10"/>
<path d="M40.1438 127.527V1.70703H54.295L54.4648 7.18711L54.8895 21.1348L55.9428 55.4152L57.8115 115.764L57.9304 120.066L57.9474 120.288L58.1683 127.527" stroke="white" stroke-width="2" stroke-miterlimit="10"/>
<path d="M80.5233 2.7998H78.5527H55.4148L55.9244 52.6156L55.9414 55.4154L56.604 120.084L56.6719 127.1" stroke="white" stroke-width="2" stroke-miterlimit="10"/>
<path d="M101.097 52.4276L100.978 52.4447L87.3702 55.2787L83.5139 21.6982L96.0682 25.4882L96.5948 25.6419L101.097 52.4276Z" stroke="white" stroke-width="0.4" stroke-miterlimit="10"/>
<path d="M117.405 117.643L97.8684 7.1875" stroke="white" stroke-width="2" stroke-miterlimit="10"/>
<path d="M124.846 159.708L178.291 461.897L178.308 462.017L178.376 462.375" stroke="white" stroke-width="2" stroke-miterlimit="10"/>
<path d="M97.8689 7.63135L93.1462 8.28008" stroke="white" stroke-width="2" stroke-miterlimit="10"/>
<path d="M159.485 123.345H159.672C159.689 123.345 159.689 123.345 159.706 123.345H160.759C164.055 123.345 167.214 123.293 170.17 123.191C172.005 123.123 173.738 123.02 175.369 122.918C175.725 122.901 176.065 122.884 176.388 122.867C176.405 122.867 176.405 122.867 176.405 122.867C184.304 122.32 189.52 121.347 189.52 120.289C189.52 118.564 176.643 117.216 160.759 117.216C154.524 117.216 148.748 117.421 144.025 117.779C141.104 118.001 138.572 118.274 136.619 118.616" stroke="white" stroke-width="2" stroke-miterlimit="10"/>
<path d="M148.663 132.376C152.061 132.649 156.325 132.785 160.997 132.785C171.19 132.785 179.667 132.085 181.315 130.976C181.484 130.856 181.586 130.737 181.603 130.617V130.6V130.583" stroke="white" stroke-width="2" stroke-miterlimit="10"/>
<path d="M180.991 131.385L181.314 130.976L181.603 130.617V130.6L189.757 120.289" stroke="white" stroke-width="2" stroke-miterlimit="10"/>
<path d="M212.302 496.656V496.639V493.156V459.319L178.308 462.017L175.386 462.256L173.654 462.392" stroke="white" stroke-width="2" stroke-miterlimit="10"/>
<path d="M1.69897 496.656V459.319H1.71596L4.90974 459.575L39.9393 462.375L40.1262 462.392" stroke="white" stroke-width="2" stroke-miterlimit="10"/>
<path d="M1.71582 458.876L40.1431 455.581" stroke="white" stroke-width="2" stroke-miterlimit="10"/>
<path d="M177.323 456.042L209.856 459.097L212.302 459.319" stroke="white" stroke-width="2" stroke-miterlimit="10"/>
<path d="M54.2941 1.70703L53.6995 7.18711L40.7715 125.547" stroke="white" stroke-width="0.4" stroke-miterlimit="10"/>
<path d="M57.0967 119.623L78.5527 2.7998" stroke="white" stroke-width="0.4" stroke-miterlimit="10"/>
<path d="M57.9476 114.774L55.926 52.6156L54.8898 21.135L54.4311 7.18728L54.2952 2.7998" stroke="white" stroke-width="2" stroke-miterlimit="10"/>
<path d="M109.693 189.242V189.464" stroke="white" stroke-width="2" stroke-miterlimit="10"/>
<path d="M97.4613 116.106L97.0026 113.733L96.8157 112.811L96.5949 111.718L96.1702 109.141L95.1339 102.926L79.199 7.18728L78.5535 2.7998" stroke="white" stroke-width="2" stroke-miterlimit="10"/>
<path d="M155.187 462.614V462.392" stroke="white" stroke-width="2" stroke-miterlimit="10"/>
<path d="M159.485 123.362V126.11L160.776 125.547C163.834 124.437 166.977 123.669 170.17 123.191C170.833 123.089 171.479 122.986 172.141 122.918H175.369H176.014C176.184 122.901 176.303 122.884 176.388 122.867C176.405 122.867 176.405 122.867 176.405 122.867C177.407 122.491 171.122 121.296 160.776 120.289H159.706H159.519H159.485H159.281L152.401 119.623H150.906L144.026 118.957H140.594L136.619 118.616L135.65 118.513H134.359L127.496 118.086H127.377H126.001L119.121 117.643H117.405H112.699H108.181H92.7214H91.2264H83.0721L76.1919 118.086H74.7139L66.7634 118.957H65.2515L58.3883 120.067H57.9296H56.6725L56.6045 120.084L56.4516 120.118L50.0131 121.808L48.5011 122.474C46.2757 123.225 44.1182 124.266 42.1476 125.581C42.0287 125.649 41.9437 125.701 41.8588 125.769L41.1623 126.298L40.9924 126.418L40.8395 126.537L40.7885 126.571L40.7715 126.588L40.3468 126.861C40.2789 127.903 40.2109 130.907 40.16 135.568C39.9221 157.557 39.9221 216.335 39.9221 277.931V280.577C40.143 354.583 40.3468 432.073 40.3468 455.581V461.949H40.7715H55.8061C55.8061 461.949 55.891 461.283 56.0269 460.019C56.0949 459.354 56.1628 458.551 56.2308 457.561C56.3667 455.393 56.5535 452.44 56.8423 448.803C57.0972 446.14 57.386 443.118 57.7427 439.772C58.0145 436.938 58.3033 433.865 58.6261 430.587C59.9172 417.425 61.684 400.917 64.1133 382.394C64.47 379.543 64.8608 376.623 65.2515 373.687C65.6932 370.375 66.3387 366.875 66.7634 363.358C67.375 359.21 68.0036 355.01 68.6661 350.776C69.7873 343.418 70.9935 335.907 72.3016 328.327C72.8622 325.015 73.4568 321.686 74.0683 318.34L75.5633 310.435C75.988 308.148 76.3617 306.15 76.6845 304.358C78.859 292.749 79.4366 290.359 81.3223 282.335C81.4412 281.823 81.5601 281.294 81.696 280.73C81.713 280.679 81.73 280.611 81.747 280.543C82.1207 278.904 82.5624 277.043 83.0721 274.858L84.567 268.712C86.5037 260.159 88.6612 251.811 91.0055 243.462L92.5175 238.426C92.6024 238.085 92.7044 237.709 92.8063 237.368C94.8958 229.822 97.3591 222.498 99.8054 215.362V214.918L101.097 211.179V210.736C103.356 204.658 105.429 198.956 107.858 193.288L108.181 192.537L109.472 189.225C109.54 189.225 109.591 189.208 109.625 189.174C109.642 189.157 109.676 189.123 109.676 189.088C109.693 189.054 109.693 189.02 109.693 189.003C110.542 186.886 111.476 184.786 112.462 182.721C113.056 181.406 113.685 180.109 114.296 178.828C115.129 177.087 115.961 175.38 116.777 173.638L118.289 170.787L121.499 165.068C122.553 163.361 123.589 161.432 124.846 159.708C124.88 159.674 124.897 159.605 124.931 159.571C125.169 159.042 125.458 158.53 125.797 158.052L127.292 155.849C129.433 152.555 131.59 149.704 133.714 146.853C134.325 146.357 134.852 145.777 135.226 145.094C137.502 142.431 139.948 139.956 142.531 137.617C142.972 137.053 143.482 136.541 144.026 136.097L148.663 132.376L148.969 132.137L150.685 131.044L151.551 130.395L152.197 129.934C153.148 129.337 154.117 128.773 155.102 128.244C155.034 128.244 154.813 128.21 154.473 128.176C154.236 128.142 153.998 128.108 153.743 128.091C153.335 128.039 152.893 127.988 152.469 127.954C150.328 127.715 148.052 127.493 145.64 127.322C145.079 127.271 144.535 127.22 144.026 127.186" stroke="white" stroke-width="2" stroke-miterlimit="10"/>
<path d="M39.9392 462.375V462.392H39.9222L4.9096 459.575L1.71582 459.319L39.7184 455.819L39.9392 462.375Z" stroke="white" stroke-width="2" stroke-miterlimit="10"/>
<path d="M175.353 462.153H175.387L178.291 461.897L209.856 459.097L212.285 458.875L177.51 455.802" stroke="white" stroke-width="2" stroke-miterlimit="10"/>
<path d="M42.6581 125.581H41.1462L40.5686 460.975H42.0806L42.6581 125.581Z" stroke="white" stroke-width="2" stroke-miterlimit="10"/>
<path d="M56.0273 462.392V462.375V460.019V458.21V458.005L56.0953 433.37V433.285L56.8768 131.317V130.395V128.62V122.474V120.289H57.5223H57.7432H57.947H58.1679H58.3887V122.047L58.3717 131.027L57.5223 440.199V440.216V440.438" stroke="white" stroke-width="2" stroke-miterlimit="10"/>
<path d="M74.4941 118.513H76.006L75.3435 310.64L73.8315 318.545L74.4941 118.513Z" stroke="white" stroke-width="2" stroke-miterlimit="10"/>
<path d="M92.7211 117.643V120.716V123.567L92.2964 238.887V239.109L90.7844 243.923L91.2091 123.567V120.716V117.643H92.7211Z" stroke="white" stroke-width="2" stroke-miterlimit="10"/>
<path d="M108.18 116.311V116.533V120.255V181.082V192.93" stroke="white" stroke-width="2" stroke-miterlimit="10"/>
<path d="M127.275 116.994V117.438L127.496 118.974V154.33" stroke="white" stroke-width="2" stroke-miterlimit="10"/>
<path d="M144.025 118.957V122.764V122.918V127.186" stroke="white" stroke-width="2" stroke-miterlimit="10"/>
<path d="M144.025 136.524V136.08" stroke="white" stroke-width="2" stroke-miterlimit="10"/>
<path d="M144.025 117.779V117.643" stroke="white" stroke-width="2" stroke-miterlimit="10"/>
<path d="M159.486 126.417V126.11V123.361V123.344V122.456V120.288V119.605L159.52 120.288L159.673 123.344V123.361L159.707 124.01V123.361V123.344V120.288V119.844" stroke="white" stroke-width="2" stroke-miterlimit="10"/>
<path d="M174.502 462.392H39.9221V518.217H174.502V462.392Z" stroke="white" stroke-width="2" stroke-miterlimit="10"/>
<path d="M142.531 385.961C142.531 380.908 150.482 376.743 160.335 376.743" stroke="white" stroke-width="0.4" stroke-miterlimit="10"/>
<path d="M143.176 392.79C143.176 387.515 151.126 383.366 160.996 383.366" stroke="white" stroke-width="0.4" stroke-miterlimit="10"/>
<path d="M144.891 398.492C144.891 393.217 152.842 389.034 162.712 389.034" stroke="white" stroke-width="0.4" stroke-miterlimit="10"/>
<path d="M145.538 405.065C145.538 400.011 153.488 395.846 163.341 395.846" stroke="white" stroke-width="0.4" stroke-miterlimit="10"/>
<path d="M146.829 410.801C146.829 405.748 154.983 401.582 164.87 401.582" stroke="white" stroke-width="0.4" stroke-miterlimit="10"/>
<path d="M147.678 417.596C147.678 412.32 155.628 408.155 165.499 408.155" stroke="white" stroke-width="0.4" stroke-miterlimit="10"/>
<path d="M149.394 423.298C149.394 418.022 157.344 413.84 167.197 413.84" stroke="white" stroke-width="0.4" stroke-miterlimit="10"/>
<path d="M150.04 429.904C150.04 424.851 157.99 420.686 167.861 420.686" stroke="white" stroke-width="0.4" stroke-miterlimit="10"/>
<path d="M150.465 436.477C150.465 431.202 158.619 427.019 168.506 427.019" stroke="white" stroke-width="0.4" stroke-miterlimit="10"/>
<path d="M151.331 443.084C151.331 438.031 159.281 433.865 169.151 433.865" stroke="white" stroke-width="0.4" stroke-miterlimit="10"/>
<path d="M153.03 448.786C153.03 443.732 160.98 439.567 170.85 439.567" stroke="white" stroke-width="0.4" stroke-miterlimit="10"/>
<path d="M154.542 456.69C154.542 451.415 162.492 447.25 172.363 447.25" stroke="white" stroke-width="0.4" stroke-miterlimit="10"/>
<path d="M139.745 371.911C139.745 366.858 147.695 362.692 157.565 362.692" stroke="white" stroke-width="0.4" stroke-miterlimit="10"/>
<path d="M140.374 378.74C140.374 373.465 148.324 369.282 158.178 369.282" stroke="white" stroke-width="0.4" stroke-miterlimit="10"/>
<path d="M155.833 462.171C155.833 457.117 163.987 452.952 173.857 452.952" stroke="white" stroke-width="0.4" stroke-miterlimit="10"/>
<path d="M134.173 334.148C134.173 329.095 141.903 324.929 151.144 324.929" stroke="white" stroke-width="0.4" stroke-miterlimit="10"/>
<path d="M134.801 340.96C134.801 335.685 142.53 331.519 151.772 331.519" stroke="white" stroke-width="0.4" stroke-miterlimit="10"/>
<path d="M136.516 346.679C136.516 341.404 144.025 337.238 153.488 337.238" stroke="white" stroke-width="0.4" stroke-miterlimit="10"/>
<path d="M137.163 353.251C137.163 348.198 144.671 344.033 154.134 344.033" stroke="white" stroke-width="0.4" stroke-miterlimit="10"/>
<path d="M138.454 358.954C138.454 353.9 145.962 349.735 155.425 349.735" stroke="white" stroke-width="0.4" stroke-miterlimit="10"/>
<path d="M139.082 365.783C139.082 360.507 146.59 356.342 156.053 356.342" stroke="white" stroke-width="0.4" stroke-miterlimit="10"/>
<path d="M131.573 320.098C131.573 320.029 139.082 310.879 148.544 310.879" stroke="white" stroke-width="0.4" stroke-miterlimit="10"/>
<path d="M132.236 326.909C132.236 326.619 139.745 317.452 149.207 317.452" stroke="white" stroke-width="0.4" stroke-miterlimit="10"/>
<path d="M125.373 282.335C125.373 282.267 132.882 273.116 142.344 273.116" stroke="white" stroke-width="0.4" stroke-miterlimit="10"/>
<path d="M125.984 289.147C125.984 288.857 133.493 279.706 142.956 279.706" stroke="white" stroke-width="0.4" stroke-miterlimit="10"/>
<path d="M127.497 294.848C127.497 294.558 135.006 285.391 144.468 285.391" stroke="white" stroke-width="0.4" stroke-miterlimit="10"/>
<path d="M128.141 301.439C128.141 301.37 135.65 292.22 145.113 292.22" stroke="white" stroke-width="0.4" stroke-miterlimit="10"/>
<path d="M129.432 307.141C129.432 306.85 137.162 297.683 146.404 297.683" stroke="white" stroke-width="0.4" stroke-miterlimit="10"/>
<path d="M130.079 313.952C130.079 313.662 137.808 304.494 147.05 304.494" stroke="white" stroke-width="0.4" stroke-miterlimit="10"/>
<path d="M122.57 268.285C122.57 267.995 130.3 258.844 139.541 258.844" stroke="white" stroke-width="0.4" stroke-miterlimit="10"/>
<path d="M123.215 275.079C123.215 274.789 130.944 265.622 140.186 265.622" stroke="white" stroke-width="0.4" stroke-miterlimit="10"/>
<path d="M116.591 230.897C116.591 230.607 123.199 221.729 132.016 221.729" stroke="white" stroke-width="0.4" stroke-miterlimit="10"/>
<path d="M117.846 237.129C117.846 237.06 123.86 228.524 132.66 228.524" stroke="white" stroke-width="0.4" stroke-miterlimit="10"/>
<path d="M118.9 243.087C118.9 243.019 125.339 234.244 134.139 234.244" stroke="white" stroke-width="0.4" stroke-miterlimit="10"/>
<path d="M119.733 249.779C119.733 249.488 126.002 240.816 134.801 240.816" stroke="white" stroke-width="0.4" stroke-miterlimit="10"/>
<path d="M120.854 255.6C120.854 255.31 127.293 246.535 136.093 246.535" stroke="white" stroke-width="0.4" stroke-miterlimit="10"/>
<path d="M121.738 261.917C121.738 261.849 127.921 253.33 136.721 253.33" stroke="white" stroke-width="0.4" stroke-miterlimit="10"/>
<path d="M114.415 216.608C114.415 216.318 120.853 207.663 129.653 207.663" stroke="white" stroke-width="0.4" stroke-miterlimit="10"/>
<path d="M114.195 223.693C114.195 223.625 121.5 214.457 130.3 214.457" stroke="white" stroke-width="0.4" stroke-miterlimit="10"/>
<path d="M110.762 184.837C110.762 184.974 116.555 176.062 123.639 176.062" stroke="white" stroke-width="0.4" stroke-miterlimit="10"/>
<path d="M110.762 190.335C110.762 190.266 117.201 181.116 124.93 181.116" stroke="white" stroke-width="0.4" stroke-miterlimit="10"/>
<path d="M111.187 197.129C111.187 196.839 117.626 187.706 125.576 187.706" stroke="white" stroke-width="0.4" stroke-miterlimit="10"/>
<path d="M112.479 202.848C112.479 202.558 118.697 193.407 126.648 193.407" stroke="white" stroke-width="0.4" stroke-miterlimit="10"/>
<path d="M112.904 209.438C112.904 209.37 119.343 200.219 127.293 200.219" stroke="white" stroke-width="0.4" stroke-miterlimit="10"/>
<path d="M92.7217 84.4888C92.7217 79.4356 98.7355 75.27 105.82 75.27" stroke="white" stroke-width="0.4" stroke-miterlimit="10"/>
<path d="M93.3677 91.2835C93.3677 86.0083 99.1606 81.8428 106.245 81.8428" stroke="white" stroke-width="0.4" stroke-miterlimit="10"/>
<path d="M94.6587 97.0023C94.6587 91.7271 100.452 87.5615 107.536 87.5615" stroke="white" stroke-width="0.4" stroke-miterlimit="10"/>
<path d="M95.0835 103.592C95.0835 98.5391 100.876 94.3735 107.961 94.3735" stroke="white" stroke-width="0.4" stroke-miterlimit="10"/>
<path d="M96.1528 109.311C96.1528 104.258 101.946 100.092 109.03 100.092" stroke="white" stroke-width="0.4" stroke-miterlimit="10"/>
<path d="M96.5774 116.106C96.5774 110.831 102.37 106.665 109.675 106.665" stroke="white" stroke-width="0.4" stroke-miterlimit="10"/>
<path d="M90.7844 70.4215C90.7844 65.3682 96.5774 61.2026 103.882 61.2026" stroke="white" stroke-width="0.4" stroke-miterlimit="10"/>
<path d="M91.2258 77.2503C91.2258 71.9751 97.0188 67.8096 104.324 67.8096" stroke="white" stroke-width="0.4" stroke-miterlimit="10"/>
<path d="M82.6477 15.9795C84.3635 20.1621 89.7318 21.4766 94.4545 19.2744" stroke="white" stroke-width="0.4" stroke-miterlimit="10"/>
<path d="M81.1521 8.96289C82.8679 13.1455 88.2362 14.46 93.1627 12.2578" stroke="white" stroke-width="0.4" stroke-miterlimit="10"/>
<path d="M39.9221 135.636C39.9901 135.619 40.075 135.585 40.16 135.568C40.3468 135.5 40.5507 135.414 40.7715 135.363H40.7885C40.9074 135.312 41.0094 135.278 41.1453 135.244C41.1792 135.227 41.2302 135.227 41.2642 135.209C41.7059 135.056 42.1815 134.919 42.6402 134.766C47.0232 133.434 51.8138 132.29 56.8763 131.317C57.369 131.198 57.8616 131.112 58.3713 131.027C63.5017 130.054 68.9209 129.286 74.4591 128.62C74.9347 128.569 75.4444 128.517 75.937 128.466C75.954 128.466 75.954 128.466 75.971 128.466C80.9655 127.903 86.079 127.459 91.2094 127.117C91.7021 127.1 92.2117 127.066 92.7044 127.032C94.8788 126.896 97.0703 126.793 99.2448 126.691C102.235 126.554 105.225 126.469 108.181 126.4C110.219 126.349 112.224 126.315 114.211 126.315C115.808 126.298 117.388 126.298 118.951 126.315C121.856 126.315 124.727 126.349 127.496 126.417C130.911 126.503 134.206 126.622 137.383 126.793C139.677 126.895 141.902 127.049 144.026 127.186C144.535 127.22 145.079 127.271 145.64 127.322C147.916 127.51 150.549 127.766 152.469 127.954C152.944 128.005 153.369 128.056 153.743 128.091C154.032 128.125 154.269 128.159 154.473 128.176C154.813 128.21 155.034 128.244 155.102 128.244" stroke="white" stroke-width="2" stroke-miterlimit="10"/>
<path d="M101.096 304.511H128.141" stroke="white" stroke-width="2" stroke-miterlimit="10"/>
<path d="M118.918 354.361H69.3291" stroke="white" stroke-width="2" stroke-miterlimit="10"/>
<path d="M81.1521 282.335H116.776" stroke="white" stroke-width="2" stroke-miterlimit="10"/>
<path d="M100.672 257.956H120.854" stroke="white" stroke-width="2" stroke-miterlimit="10"/>
<path d="M201.768 497.1H12.231V518.815H201.768V497.1Z" stroke="white" stroke-width="2" stroke-miterlimit="10"/>
<path d="M95.5083 331.741H133.069" stroke="white" stroke-width="2" stroke-miterlimit="10"/>
<path d="M120.634 413.43H60.9543" stroke="white" stroke-width="2" stroke-miterlimit="10"/>
<path d="M65.0469 391.236H75.1378" stroke="white" stroke-width="2" stroke-miterlimit="10"/>
<path d="M97.4436 391.236H142.53" stroke="white" stroke-width="2" stroke-miterlimit="10"/>
<path d="M106.04 221.713H114.415" stroke="white" stroke-width="2" stroke-miterlimit="10"/>
<path d="M73.8481 441.53H151.552" stroke="white" stroke-width="2" stroke-miterlimit="10"/>
<path d="M1.71582 493.344L39.0728 495.324" stroke="white" stroke-width="2" stroke-miterlimit="10"/>
<path d="M212.489 493.139L174.928 495.119" stroke="white" stroke-width="2" stroke-miterlimit="10"/>
<path d="M12.231 497.304L200.919 497.083" stroke="white" stroke-width="2" stroke-miterlimit="10"/>
<path d="M12.877 518.832L201.768 519.054" stroke="white" stroke-width="2" stroke-miterlimit="10"/>
</svg>
