<svg width="29" height="29" viewBox="0 0 29 29" fill="none" xmlns="http://www.w3.org/2000/svg">
<path d="M14.5 28C21.9558 28 28 21.9558 28 14.5C28 7.04416 21.9558 1 14.5 1C7.04416 1 1 7.04416 1 14.5C1 21.9558 7.04416 28 14.5 28Z" fill="#8F8F8F" stroke="#1E1E1E" stroke-width="2"/>
<path d="M19.53 13.0411C19.7636 11.4769 18.5726 10.636 16.9441 10.075L17.4724 7.95607L16.1822 7.63463L15.6679 9.69775C15.3291 9.61325 14.9809 9.53353 14.6348 9.45455L15.1528 7.37784L13.8637 7.0564L13.3351 9.17462C13.0544 9.1107 12.7789 9.04751 12.5115 8.98102L12.5129 8.97441L10.7342 8.53026L10.391 9.90788C10.391 9.90788 11.348 10.1272 11.3278 10.1408C11.5063 10.1622 11.6693 10.2527 11.7817 10.393C11.8941 10.5333 11.9469 10.7121 11.9288 10.8909L11.3271 13.3049C11.3727 13.3162 11.4175 13.3306 11.4612 13.3479L11.3252 13.3141L10.4814 16.6957C10.4629 16.7547 10.4328 16.8095 10.3931 16.8568C10.3533 16.9042 10.3045 16.9433 10.2496 16.9717C10.1946 17.0002 10.1346 17.0175 10.073 17.0227C10.0113 17.0279 9.94925 17.0209 9.89032 17.002C9.90318 17.0208 8.95281 16.768 8.95281 16.768L8.3125 18.2448L9.99135 18.6633C10.3036 18.7415 10.6096 18.8234 10.9105 18.9006L10.3767 21.0442L11.6651 21.3656L12.1941 19.2452C12.5456 19.3407 12.8873 19.4289 13.2216 19.5119L12.6948 21.6224L13.9846 21.9438L14.5184 19.8047C16.7178 20.2209 18.372 20.053 19.0675 18.0641C19.6284 16.4624 19.0399 15.5385 17.8827 14.9356C18.7254 14.7405 19.3602 14.1862 19.5296 13.0411L19.53 13.0411ZM16.5826 17.1736C16.1836 18.7753 13.4872 17.9098 12.6125 17.6923L13.3208 14.853C14.1951 15.0712 16.9984 15.5032 16.583 17.1736H16.5826ZM16.9812 13.018C16.6175 14.4749 14.3729 13.7347 13.6444 13.5532L14.2866 10.978C15.015 11.1595 17.3603 11.4982 16.9812 13.018Z" fill="#1E1E1E"/>
</svg>
