<svg width="94" height="81" viewBox="0 0 94 81" fill="none" xmlns="http://www.w3.org/2000/svg">
<rect x="10.6172" y="8.74268" width="82.8727" height="71.8648" fill="#292929"/>
<g clip-path="url(#clip0_1_11277)">
<circle cx="9.40372" cy="10.4306" r="7.80606" fill="#40FF8C"/>
<g filter="url(#filter0_d_1_11277)">
<path d="M5.03125 11.5935L6.92686 13.4398C7.16933 13.676 7.55581 13.676 7.79828 13.4398L13.7737 7.61963" stroke="white" stroke-width="1.87338" stroke-linecap="round" stroke-linejoin="round"/>
</g>
</g>
<g clip-path="url(#clip1_1_11277)">
<path d="M66 31H77" stroke="#EDEDED" stroke-width="1.3" stroke-linecap="round"/>
<path d="M66 35H77" stroke="#EDEDED" stroke-width="1.3" stroke-linecap="round"/>
<rect x="62" y="26" width="19" height="25" rx="1" stroke="#EDEDED" stroke-width="4" mask="url(#path-4-inside-1_1_11277)"/>
<rect x="61.0767" y="74.0123" width="25.7489" height="7.65178" rx="3.82589" transform="rotate(-81.2044 61.0767 74.0123)" fill="#292929" stroke="#EDEDED" stroke-width="2"/>
<g filter="url(#filter1_d_1_11277)">
<path d="M38 51.5C35.5427 49.6151 33.9004 46.6488 33.9004 43.3125C33.9004 37.6171 38.5175 33 44.2129 33C49.9083 33 54.5254 37.6171 54.5254 43.3125C54.5254 46.6488 52.9411 49.6151 50.4837 51.5" stroke="#EDEDED" stroke-width="2" stroke-linecap="round" stroke-linejoin="round"/>
</g>
<g filter="url(#filter2_d_1_11277)">
<path d="M62.6667 63.8878C62.6667 58.2481 57.9376 53.1031 50.5 51.5M26 63.8878C26 58.7697 30.7089 53.2705 38 51.5" stroke="#EDEDED" stroke-width="2" stroke-linecap="round" stroke-linejoin="round"/>
</g>
</g>
<defs>
<filter id="filter0_d_1_11277" x="3.46929" y="6.68286" width="11.8661" height="9.11977" filterUnits="userSpaceOnUse" color-interpolation-filters="sRGB">
<feFlood flood-opacity="0" result="BackgroundImageFix"/>
<feColorMatrix in="SourceAlpha" type="matrix" values="0 0 0 0 0 0 0 0 0 0 0 0 0 0 0 0 0 0 127 0" result="hardAlpha"/>
<feOffset dy="0.62446"/>
<feGaussianBlur stdDeviation="0.31223"/>
<feColorMatrix type="matrix" values="0 0 0 0 0 0 0 0 0 0 0 0 0 0 0 0 0 0 0.1 0"/>
<feBlend mode="normal" in2="BackgroundImageFix" result="effect1_dropShadow_1_11277"/>
<feBlend mode="normal" in="SourceGraphic" in2="effect1_dropShadow_1_11277" result="shape"/>
</filter>
<filter id="filter1_d_1_11277" x="30.6087" y="32" width="27.2083" height="25.0833" filterUnits="userSpaceOnUse" color-interpolation-filters="sRGB">
<feFlood flood-opacity="0" result="BackgroundImageFix"/>
<feColorMatrix in="SourceAlpha" type="matrix" values="0 0 0 0 0 0 0 0 0 0 0 0 0 0 0 0 0 0 127 0" result="hardAlpha"/>
<feOffset dy="2.29167"/>
<feGaussianBlur stdDeviation="1.14583"/>
<feColorMatrix type="matrix" values="0 0 0 0 0 0 0 0 0 0 0 0 0 0 0 0 0 0 0.1 0"/>
<feBlend mode="normal" in2="BackgroundImageFix" result="effect1_dropShadow_1_11277"/>
<feBlend mode="normal" in="SourceGraphic" in2="effect1_dropShadow_1_11277" result="shape"/>
</filter>
<filter id="filter2_d_1_11277" x="22.7083" y="50.4998" width="43.2493" height="18.9715" filterUnits="userSpaceOnUse" color-interpolation-filters="sRGB">
<feFlood flood-opacity="0" result="BackgroundImageFix"/>
<feColorMatrix in="SourceAlpha" type="matrix" values="0 0 0 0 0 0 0 0 0 0 0 0 0 0 0 0 0 0 127 0" result="hardAlpha"/>
<feOffset dy="2.29167"/>
<feGaussianBlur stdDeviation="1.14583"/>
<feColorMatrix type="matrix" values="0 0 0 0 0 0 0 0 0 0 0 0 0 0 0 0 0 0 0.1 0"/>
<feBlend mode="normal" in2="BackgroundImageFix" result="effect1_dropShadow_1_11277"/>
<feBlend mode="normal" in="SourceGraphic" in2="effect1_dropShadow_1_11277" result="shape"/>
</filter>
<clipPath id="clip0_1_11277">
<rect width="17.4849" height="19.9827" fill="white"/>
</clipPath>
<clipPath id="clip1_1_11277">
<rect width="61" height="46" fill="white" transform="translate(25 18)"/>
</clipPath>
</defs>
</svg>
