<svg width="192" height="22" viewBox="0 0 192 22" fill="none" xmlns="http://www.w3.org/2000/svg">
<g clip-path="url(#clip0_12234_24280)">
<path d="M28.622 21.2425H23.2715L26.6181 0.549561H31.9684L28.622 21.2425Z" fill="#00579F"/>
<path d="M48.0189 1.05554C46.9636 0.63685 45.2897 0.174561 43.2199 0.174561C37.9361 0.174561 34.2152 2.99218 34.1924 7.02053C34.1485 9.99264 36.8564 11.6434 38.8817 12.6344C40.9518 13.6471 41.6555 14.308 41.6555 15.2106C41.6344 16.5969 39.9827 17.2359 38.4423 17.2359C36.3061 17.2359 35.1615 16.9065 33.422 16.1352L32.7175 15.8046L31.9688 20.4497C33.2237 21.0214 35.5357 21.5288 37.9361 21.551C43.5503 21.551 47.2053 18.777 47.2486 14.4842C47.2699 12.1285 45.84 10.3236 42.7573 8.84862C40.8859 7.90181 39.7399 7.26338 39.7399 6.29462C39.7618 5.41393 40.7092 4.51188 42.8217 4.51188C44.5611 4.4677 45.8392 4.88581 46.8073 5.30421L47.2913 5.52394L48.0189 1.05554V1.05554Z" fill="#00579F"/>
<path d="M55.1298 13.9118C55.5704 12.723 57.2659 8.12203 57.2659 8.12203C57.2437 8.16621 57.7057 6.9113 57.9699 6.14091L58.3438 7.92395C58.3438 7.92395 59.3571 12.8772 59.5771 13.9118C58.7409 13.9118 56.1866 13.9118 55.1298 13.9118ZM61.7343 0.549561H57.5957C56.3194 0.549561 55.3498 0.923488 54.7991 2.26647L46.8516 21.2423H52.4657C52.4657 21.2423 53.39 18.6883 53.5887 18.1382C54.2046 18.1382 59.666 18.1382 60.4584 18.1382C60.612 18.8647 61.0968 21.2423 61.0968 21.2423H66.0509L61.7343 0.549561V0.549561Z" fill="#00579F"/>
<path d="M18.8018 0.549561L13.5619 14.6602L12.9893 11.7984C12.0205 8.49625 8.9823 4.90853 5.5918 3.12463L10.3914 21.2206H16.0495L24.4596 0.549561H18.8018V0.549561Z" fill="#00579F"/>
<path d="M8.69659 0.549561H0.0880686L0 0.967668C6.71518 2.68487 11.1625 6.82411 12.9897 11.7993L11.1183 2.289C10.8102 0.967376 9.86343 0.593156 8.69659 0.549561Z" fill="#FAA61A"/>
</g>
<path d="M104.181 2.46167H94.8242V19.2728H104.181V2.46167Z" fill="#FF5A00"/>
<path d="M95.4476 10.8673C95.4476 7.45175 97.0533 4.42035 99.5172 2.46171C97.7039 1.03598 95.4165 0.174316 92.9215 0.174316C87.0109 0.174316 82.2285 4.95673 82.2285 10.8673C82.2285 16.7778 87.0109 21.5602 92.9215 21.5602C95.4165 21.5602 97.7039 20.6985 99.5172 19.2728C97.0498 17.3419 95.4476 14.2828 95.4476 10.8673Z" fill="#EB001B"/>
<path d="M116.806 10.8673C116.806 16.7778 112.024 21.5602 106.113 21.5602C103.618 21.5602 101.331 20.6985 99.5176 19.2728C102.013 17.3107 103.587 14.2828 103.587 10.8673C103.587 7.45175 101.981 4.42035 99.5176 2.46171C101.327 1.03598 103.615 0.174316 106.11 0.174316C112.024 0.174316 116.806 4.98787 116.806 10.8673Z" fill="#F79E1B"/>
<path d="M132.16 5.3911L134.398 0.174561H138.267L139.537 3.09666V0.174561H144.347L145.103 2.28656L145.836 0.174561H167.43V1.23633C167.43 1.23633 168.565 0.174561 170.43 0.174561L177.436 0.199045L178.684 3.08289V0.174561H182.71L183.818 1.8311V0.174561H187.88V9.54588H183.818L182.756 7.88397V9.54588H176.842L176.247 8.06862H174.657L174.072 9.54588H170.061C168.456 9.54588 167.43 8.50578 167.43 8.50578V9.54588H161.382L160.182 8.06862V9.54588H137.694L137.1 8.06862H135.515L134.925 9.54588H132.16V5.3911Z" fill="white"/>
<path d="M135.192 1.32983L132.174 8.34679H134.139L134.696 6.94167H137.933L138.487 8.34679H140.495L137.48 1.32983H135.192ZM136.308 2.96289L137.295 5.41825H135.319L136.308 2.96289V2.96289Z" fill="#016FD0"/>
<path d="M140.701 8.34556V1.32861L143.493 1.33899L145.117 5.86307L146.703 1.32861H149.472V8.34556H147.718V3.17518L145.859 8.34556H144.32L142.455 3.17518V8.34556H140.701Z" fill="#016FD0"/>
<path d="M150.672 8.34556V1.32861H156.396V2.8982H152.445V4.09846H156.304V5.57572H152.445V6.82215H156.396V8.34556H150.672Z" fill="#016FD0"/>
<path d="M157.412 1.32983V8.34679H159.166V5.85392H159.905L162.008 8.34679H164.152L161.844 5.7616C162.791 5.68166 163.768 4.8686 163.768 3.60631C163.768 2.1297 162.609 1.32983 161.316 1.32983H157.412V1.32983ZM159.166 2.89941H161.172C161.653 2.89941 162.003 3.27569 162.003 3.63804C162.003 4.10422 161.549 4.37667 161.198 4.37667H159.166V2.89941V2.89941Z" fill="#016FD0"/>
<path d="M166.277 8.34556H164.486V1.32861H166.277V8.34556Z" fill="#016FD0"/>
<path d="M170.524 8.34556H170.137C168.267 8.34556 167.131 6.87178 167.131 4.86594C167.131 2.81055 168.254 1.32861 170.616 1.32861H172.555V2.99052H170.545C169.586 2.99052 168.908 3.73891 168.908 4.88325C168.908 6.24217 169.684 6.81292 170.801 6.81292H171.263L170.524 8.34556Z" fill="#016FD0"/>
<path d="M174.342 1.32983L171.324 8.34679H173.289L173.846 6.94167H177.083L177.637 8.34679H179.645L176.63 1.32983H174.342ZM175.459 2.96289L176.446 5.41825H174.469L175.459 2.96289Z" fill="#016FD0"/>
<path d="M179.85 8.34556V1.32861H182.08L184.928 5.73729V1.32861H186.682V8.34556H184.524L181.604 3.82148V8.34556H179.85Z" fill="#016FD0"/>
<path d="M143.748 21.8254V12.4541H153.671L154.735 13.8419L155.835 12.4541H191.851V21.1791C191.851 21.1791 190.909 21.8161 189.82 21.8254H169.877L168.677 20.3482V21.8254H164.744V19.3037C164.744 19.3037 164.206 19.6557 163.045 19.6557H161.706V21.8254H155.751L154.688 20.4079L153.608 21.8254H143.748Z" fill="white"/>
<path d="M144.949 20.6251V13.6082H150.674V15.1777H146.722V16.378H150.581V17.8553H146.722V19.1017H150.674V20.6251H144.949Z" fill="#016FD0"/>
<path d="M172.998 20.6251V13.6082H178.722V15.1777H174.771V16.378H178.612V17.8553H174.771V19.1017H178.722V20.6251H172.998Z" fill="#016FD0"/>
<path d="M150.896 20.6251L153.684 17.1599L150.83 13.6082H153.04L154.74 15.8038L156.445 13.6082H158.568L155.752 17.1166L158.545 20.6251H156.335L154.685 18.464L153.075 20.6251H150.896Z" fill="#016FD0"/>
<path d="M158.752 13.6094V20.6263H160.552V18.4104H162.399C163.961 18.4104 165.146 17.5815 165.146 15.9695C165.146 14.6341 164.217 13.6094 162.627 13.6094H158.752V13.6094ZM160.552 15.1963H162.497C163.002 15.1963 163.363 15.5056 163.363 16.0041C163.363 16.4725 163.004 16.812 162.491 16.812H160.552V15.1963Z" fill="#016FD0"/>
<path d="M165.906 13.6082V20.6251H167.66V18.1322H168.399L170.502 20.6251H172.646L170.338 18.0399C171.285 17.96 172.262 17.1469 172.262 15.8846C172.262 14.408 171.104 13.6082 169.81 13.6082H165.906V13.6082ZM167.66 15.1777H169.666C170.147 15.1777 170.497 15.554 170.497 15.9164C170.497 16.3825 170.043 16.655 169.692 16.655H167.66V15.1777V15.1777Z" fill="#016FD0"/>
<path d="M179.533 20.6251V19.1017H183.044C183.564 19.1017 183.788 18.821 183.788 18.5131C183.788 18.2181 183.564 17.9199 183.044 17.9199H181.458C180.079 17.9199 179.311 17.0797 179.311 15.8183C179.311 14.6932 180.014 13.6082 182.063 13.6082H185.479L184.741 15.187H181.786C181.221 15.187 181.047 15.4833 181.047 15.7663C181.047 16.0572 181.262 16.378 181.694 16.378H183.356C184.893 16.378 185.56 17.25 185.56 18.3919C185.56 19.6196 184.817 20.6251 183.272 20.6251H179.533Z" fill="#016FD0"/>
<path d="M185.973 20.6251V19.1017H189.484C190.003 19.1017 190.228 18.821 190.228 18.5131C190.228 18.2181 190.004 17.9199 189.484 17.9199H187.897C186.518 17.9199 185.75 17.0797 185.75 15.8183C185.75 14.6932 186.453 13.6082 188.503 13.6082H191.919L191.18 15.187H188.226C187.661 15.187 187.487 15.4833 187.487 15.7663C187.487 16.0572 187.702 16.378 188.133 16.378H189.795C191.332 16.378 191.999 17.25 191.999 18.3919C191.999 19.6196 191.256 20.6251 189.711 20.6251H185.973Z" fill="#016FD0"/>
<defs>
<clipPath id="clip0_12234_24280">
<rect width="66.0505" height="21.3765" fill="white" transform="translate(0 0.174561)"/>
</clipPath>
</defs>
</svg>
