<svg width="270" height="36" viewBox="0 0 270 36" fill="none" xmlns="http://www.w3.org/2000/svg">
<path d="M206.113 6.8418H177.794V10.3988H206.113V6.8418Z" fill="white"/>
<path d="M206.113 6.84192H202.636V34.8801H206.113V6.84192Z" fill="white"/>
<path d="M181.106 6.84204H177.605V34.8802H181.106V6.84204Z" fill="white"/>
<path d="M142.028 6.84192H103.21V10.3993H142.028V6.84192Z" fill="white"/>
<path d="M124.278 7.02686H120.801V35.0644H124.278V7.02686Z" fill="white"/>
<path d="M106.519 6.84192H103.018V34.8801H106.519V6.84192Z" fill="white"/>
<path d="M142.026 7.02686H138.524V35.0651H142.026V7.02686Z" fill="white"/>
<path d="M213.49 6.92285H209.933V35.0318H213.49V6.92285Z" fill="white"/>
<path d="M237.972 6.8822H209.934V10.359H237.972V6.8822Z" fill="white"/>
<path d="M238.149 31.4294H213.022V35.0307H238.149V31.4294Z" fill="white"/>
<path d="M238.148 17.5264H213.443V21.0032H238.148V17.5264Z" fill="white"/>
<path d="M238.148 6.92151H234.671V20.7995H238.148V6.92151Z" fill="white"/>
<path d="M270.001 6.76501H266.443V34.8743H270.001V6.76501Z" fill="white"/>
<path d="M266.913 31.2727H241.786V34.8746H266.913V31.2727Z" fill="white"/>
<path d="M266.49 17.6395H241.786V21.1163H266.49V17.6395Z" fill="white"/>
<path d="M245.264 6.76514H241.787V20.6431H245.264V6.76514Z" fill="white"/>
<path d="M99.4629 31.4393H96.0596V34.8798H99.4629V31.4393Z" fill="white"/>
<path d="M174.288 6.84192H145.97V10.399H174.288V6.84192Z" fill="white"/>
<path d="M174.291 6.84192H170.814V34.8801H174.291V6.84192Z" fill="white"/>
<path d="M149.281 6.84192H145.779V34.8801H149.281V6.84192Z" fill="white"/>
<path d="M174.288 31.2953H145.97V34.852H174.288V31.2953Z" fill="white"/>
<path d="M67.5674 0H64.0273V7.00972V10.5147V35.0486H92.346V7.00972H67.5677V0H67.5674ZM67.5674 10.5168H88.8067V31.5459H67.5674V10.5168Z" fill="white"/>
<path d="M56.9345 7.00972H32.1562V35.0486H60.4749V10.5147V7.00972V0H56.9349V7.00972H56.9345ZM56.9345 31.5459H35.6953V10.5168H56.9345V31.5459Z" fill="white"/>
<path d="M28.5088 6.87744H0.19043V10.4345H28.5088V6.87744Z" fill="#23C865"/>
<path d="M28.5084 6.87744H25.0312V34.9156H28.5084V6.87744Z" fill="#23C865"/>
<path d="M3.50129 6.87744H0V34.9156H3.50129V6.87744Z" fill="#23C865"/>
</svg>
