<svg width="43" height="36" viewBox="0 0 43 36" fill="none" xmlns="http://www.w3.org/2000/svg">
<path d="M22.7683 0.714355H29.4142V5.7019H31.0767V7.36442H34.4018V5.7019H36.0643V0.714355H42.7143V7.36025H41.0518V9.02277H39.3893V10.6853H36.0643V17.3353H29.4142V10.6853H26.0892V9.02277H24.4267V7.36025H22.7642V0.714355H22.7683Z" fill="white"/>
<path d="M0.861101 19.0811H7.50699V24.0686H9.16951V25.7311H12.4945V24.0686H14.1571V19.0811H20.8071V25.7269H19.1446V27.3895H17.4821V29.052H14.1571V35.702H7.50699V29.052H4.18197V27.3895H2.51945V25.7269H0.856934V19.0811H0.861101Z" fill="white"/>
<path d="M41.1514 35.7142H24.4335V34.0517H22.771V19.0933H29.4169V32.3892H36.1638V19.0933H42.8139V34.0517H41.1514V35.7142Z" fill="white"/>
<path d="M2.52049 0.725705L19.2384 0.725705L19.2384 2.38822H20.9009L20.9009 17.3467H14.255L14.255 4.05073L7.50803 4.05073L7.50803 17.3467L0.857971 17.3467L0.857971 2.38822H2.52049V0.725705Z" fill="white"/>
</svg>
