<svg width="41.96" height="35" viewBox="0 0 41.96 35" fill="none" xmlns="http://www.w3.org/2000/svg">
<path d="M349.459 0.714355H455.193V80.0645H481.643V106.514H534.543V80.0645H560.993V0.714355H666.793V106.448H640.343V132.898H613.893V159.348H560.993V265.148H455.193V159.348H402.293V132.898H375.843V106.448H349.393V0.714355H349.459Z" fill="white"/>
<path d="M0.923239 292.924H106.657V372.274H133.107V398.724H186.007V372.274H212.457V292.924H318.257V398.658H291.807V425.108H265.357V451.558H212.457V557.358H106.657V451.558H53.757V425.108H27.307V398.658H0.856934V292.924H0.923239Z" fill="white"/>
<path d="M641.926 557.552H375.95V531.102H349.5V293.118H455.234V504.652H562.575V293.118H668.376V531.102H641.926V557.552Z" fill="white"/>
<path d="M27.3244 0.894257L293.3 0.894257L293.3 27.3443H319.75L319.75 265.328H214.016L214.016 53.7943L106.675 53.7943L106.675 265.328L0.87442 265.328L0.87442 27.3443H27.3244V0.894257Z" fill="white"/>
</svg>
