<svg width="64" height="18" viewBox="0 0 64 18" fill="none" xmlns="http://www.w3.org/2000/svg">
<path d="M11.3114 1.84324C10.8331 1.38221 10.2598 1.02986 9.63124 0.810485C9.00264 0.591112 8.33366 0.509945 7.67045 0.572584H2.84796C2.67943 0.575832 2.51733 0.637497 2.38966 0.74693C2.26199 0.856362 2.17676 1.00669 2.1487 1.17195L0.00268848 13.8306C-0.00412304 13.8911 0.00204429 13.9525 0.0207847 14.0105C0.0395252 14.0685 0.0704137 14.1219 0.111417 14.1672C0.15242 14.2125 0.202607 14.2487 0.258675 14.2733C0.314743 14.2979 0.37542 14.3105 0.436712 14.3101H2.84796C2.99221 14.3039 3.1313 14.2549 3.24733 14.1695C3.36335 14.084 3.451 13.966 3.49899 13.8306L4.02947 10.3782C4.04738 10.2129 4.12635 10.0601 4.25107 9.9494C4.3758 9.83867 4.53741 9.7779 4.70462 9.77886H6.27193C6.96521 9.85851 7.66756 9.79549 8.33529 9.59372C9.00303 9.39195 9.62188 9.05574 10.1534 8.606C10.6848 8.15627 11.1176 7.60263 11.4246 6.97951C11.7317 6.35639 11.9066 5.67711 11.9384 4.98392C12.0742 4.44693 12.0884 3.88663 11.98 3.3435C11.8716 2.80037 11.6432 2.28795 11.3114 1.84324ZM8.24915 5.17572C7.98391 6.94985 6.6095 6.94985 5.30743 6.94985H4.55994L5.06631 3.61737C5.08281 3.51978 5.13254 3.4308 5.20716 3.36533C5.28179 3.29986 5.37678 3.26188 5.47622 3.25775H5.81379C6.70595 3.25775 7.574 3.25775 7.98391 3.76121C8.13402 3.9611 8.23599 4.19257 8.28197 4.4378C8.32796 4.68303 8.31673 4.93548 8.24915 5.17572Z" fill="white"/>
<path d="M22.5719 5.10404H20.1606C20.0625 5.10936 19.9684 5.14435 19.8908 5.20434C19.8132 5.26432 19.756 5.34644 19.7266 5.43969V6.13496L19.5578 5.87123C19.193 5.50596 18.7495 5.22772 18.2608 5.05746C17.7722 4.8872 17.2511 4.82936 16.7367 4.88827C15.4176 4.91866 14.1534 5.41976 13.1751 6.30006C12.1968 7.18037 11.5695 8.38117 11.4078 9.68321C11.2859 10.3226 11.3023 10.9804 11.4562 11.6129C11.61 12.2454 11.8977 12.8381 12.3 13.3513C12.6772 13.7664 13.1449 14.0903 13.6673 14.298C14.1897 14.5058 14.753 14.592 15.314 14.5501C15.9255 14.5566 16.5318 14.4387 17.0957 14.2037C17.6596 13.9687 18.1693 13.6215 18.5933 13.1835V13.8788C18.5865 13.9894 18.6227 14.0985 18.6945 14.1833C18.7664 14.2681 18.8683 14.3222 18.9791 14.3343H21.1251C21.2928 14.3419 21.4573 14.2872 21.5865 14.1809C21.7158 14.0745 21.8006 13.9241 21.8244 13.7589L23.1024 5.58354C23.1295 5.51165 23.1343 5.43333 23.1162 5.35869C23.0981 5.28406 23.0578 5.21655 23.0007 5.1649C22.9436 5.11326 22.8721 5.07984 22.7957 5.06899C22.7192 5.05814 22.6413 5.07036 22.5719 5.10404ZM16.5438 12.0327C16.249 12.0489 15.9542 12.0016 15.6795 11.894C15.4049 11.7864 15.1568 11.6211 14.9524 11.4094C14.7763 11.166 14.6513 10.8898 14.585 10.5974C14.5187 10.3049 14.5125 10.0021 14.5666 9.70718C14.6428 9.05215 14.9567 8.44726 15.4495 8.0059C15.9422 7.56454 16.5799 7.31701 17.243 7.30972C17.5419 7.29623 17.84 7.34953 18.1154 7.4657C18.3908 7.58188 18.6365 7.75796 18.8345 7.981C19.0317 8.2084 19.1717 8.47917 19.243 8.77096C19.3143 9.06276 19.3147 9.36722 19.2444 9.65923C19.1724 10.3182 18.8556 10.9267 18.3561 11.3657C17.8566 11.8047 17.2104 12.0426 16.5438 12.0327Z" fill="white"/>
<path d="M35.2549 5.10404H32.8437C32.7285 5.10258 32.6148 5.13046 32.5135 5.18501C32.4122 5.23957 32.3267 5.31898 32.265 5.41571L28.9616 10.2106L27.563 5.53558C27.5176 5.39197 27.4281 5.26613 27.307 5.17581C27.1858 5.08548 27.0393 5.03522 26.8879 5.03211H24.4766C24.4101 5.03174 24.3446 5.04747 24.2855 5.07792C24.2265 5.10838 24.1758 5.15265 24.1379 5.20692C24.0999 5.2612 24.0758 5.32384 24.0676 5.38945C24.0594 5.45506 24.0674 5.52167 24.0908 5.58353L26.7191 13.3513L24.3078 16.8516C24.2631 16.9128 24.2363 16.9853 24.2306 17.0607C24.2248 17.1362 24.2404 17.2118 24.2754 17.279C24.3105 17.3462 24.3636 17.4024 24.429 17.4413C24.4943 17.4801 24.5693 17.5001 24.6454 17.4989H27.0567C27.17 17.5053 27.283 17.4821 27.3845 17.4316C27.486 17.3812 27.5725 17.3052 27.6354 17.2112L35.5925 5.67943C35.6198 5.62004 35.6323 5.55501 35.629 5.4898C35.6258 5.4246 35.6068 5.36112 35.5737 5.30473C35.5406 5.24833 35.4944 5.20067 35.4389 5.16574C35.3834 5.13082 35.3203 5.10966 35.2549 5.10404Z" fill="white"/>
<path d="M46.8287 1.84354C46.3494 1.38383 45.7761 1.03234 45.1477 0.813058C44.5194 0.593771 43.8508 0.511849 43.1877 0.57288H38.1964C38.0318 0.572431 37.8731 0.634009 37.7523 0.745218C37.6315 0.856428 37.5576 1.00901 37.5454 1.17225L35.4959 13.8309C35.489 13.8914 35.4952 13.9528 35.5139 14.0108C35.5327 14.0688 35.5636 14.1222 35.6046 14.1675C35.6456 14.2128 35.6958 14.249 35.7518 14.2736C35.8079 14.2982 35.8686 14.3108 35.9299 14.3104H38.4858C38.6016 14.3052 38.7116 14.2587 38.7957 14.1795C38.8798 14.1002 38.9325 13.9935 38.9439 13.8788L39.5226 10.2587C39.5454 10.0954 39.6259 9.94549 39.7495 9.83571C39.8732 9.72593 40.0321 9.6634 40.1978 9.65929H41.7892C42.4812 9.73181 43.1808 9.66377 43.8456 9.45928C44.5104 9.25478 45.1264 8.91811 45.6563 8.4697C46.1862 8.02128 46.619 7.47048 46.9283 6.85071C47.2376 6.23095 47.417 5.55515 47.4556 4.86435C47.5627 4.34488 47.5624 3.80917 47.4546 3.28984C47.3468 2.77051 47.1339 2.27842 46.8287 1.84354ZM43.7423 5.24794C43.5012 7.02207 42.1268 7.02207 40.8006 7.02207H40.0531L40.5836 3.68959C40.5866 3.63918 40.5997 3.58987 40.622 3.54449C40.6443 3.49911 40.6753 3.45855 40.7134 3.42514C40.7515 3.39172 40.7959 3.36612 40.8439 3.34978C40.892 3.33345 40.9428 3.32672 40.9935 3.32997H41.3552C42.2473 3.32997 43.0913 3.32997 43.5253 3.83344C43.6565 4.02851 43.7439 4.24944 43.7813 4.48116C43.8188 4.71287 43.8055 4.94989 43.7423 5.17602V5.24794Z" fill="#029CDD"/>
<path d="M58.0655 5.10397H55.6542C55.554 5.10149 55.4561 5.13356 55.377 5.19474C55.2978 5.25593 55.2425 5.34245 55.2202 5.43962V6.13488L55.0514 5.87116C54.6924 5.50487 54.2533 5.22569 53.7682 5.05523C53.2832 4.88477 52.7652 4.82762 52.2544 4.8882C50.9353 4.91859 49.6712 5.41968 48.6928 6.29999C47.7145 7.1803 47.0872 8.38109 46.9255 9.68314C46.7904 10.322 46.8003 10.9829 46.9547 11.6174C47.109 12.252 47.4039 12.8444 47.8177 13.3513C48.1889 13.7674 48.6521 14.0922 49.1709 14.3002C49.6897 14.5082 50.25 14.5937 50.8076 14.55C51.4225 14.5556 52.0322 14.4374 52.5999 14.2025C53.1676 13.9677 53.6816 13.621 54.111 13.1834V13.8787C54.1042 13.9361 54.1097 13.9943 54.1272 14.0494C54.1448 14.1046 54.1739 14.1553 54.2126 14.1984C54.2514 14.2415 54.2989 14.2759 54.3521 14.2993C54.4053 14.3227 54.4628 14.3346 54.521 14.3342H56.667C56.8305 14.3359 56.9891 14.2785 57.1133 14.1727C57.2374 14.0668 57.3188 13.9198 57.3421 13.7588L58.5236 5.58346C58.5357 5.51999 58.5324 5.45458 58.514 5.39262C58.4957 5.33066 58.4628 5.27393 58.418 5.2271C58.3733 5.18026 58.318 5.14468 58.2567 5.12327C58.1954 5.10186 58.1299 5.09525 58.0655 5.10397ZM52.0615 12.0327C51.7629 12.0508 51.464 12.0044 51.1851 11.8968C50.9062 11.7892 50.6541 11.6229 50.446 11.4093C50.2688 11.1668 50.145 10.8898 50.0827 10.5965C50.0204 10.3032 50.0209 10.0002 50.0843 9.70711C50.1499 9.05209 50.4573 8.44448 50.9472 8.00169C51.4371 7.55889 52.0746 7.31233 52.7366 7.30964C53.0436 7.28278 53.3525 7.33035 53.6369 7.44828C53.9213 7.5662 54.1726 7.75096 54.3694 7.98671C54.5662 8.22245 54.7026 8.50215 54.7668 8.80179C54.8309 9.10144 54.8211 9.41209 54.738 9.70711C54.6657 10.3575 54.3506 10.9573 53.8551 11.388C53.3595 11.8186 52.7194 12.0486 52.0615 12.0327Z" fill="#029CDD"/>
<path d="M63.5877 0.500943H61.1764C61.0779 0.494063 60.9804 0.52504 60.9041 0.587488C60.8279 0.649935 60.7786 0.739096 60.7665 0.836589L58.8375 13.8309C58.8268 13.8901 58.8294 13.9509 58.8452 14.009C58.861 14.0671 58.8895 14.121 58.9286 14.1668C58.9678 14.2126 59.0167 14.2493 59.0718 14.2741C59.127 14.2989 59.1869 14.3113 59.2474 14.3104H61.297C61.4605 14.312 61.6191 14.2546 61.7433 14.1488C61.8674 14.043 61.9488 13.8959 61.9721 13.735L63.9976 0.956463C64.0044 0.899055 63.9989 0.840857 63.9814 0.785733C63.9639 0.730608 63.9348 0.679821 63.896 0.636739C63.8572 0.593657 63.8097 0.559268 63.7565 0.535856C63.7034 0.512443 63.6458 0.500541 63.5877 0.500943Z" fill="#029CDD"/>
</svg>
