<svg width="100" height="39" viewBox="0 0 100 39" fill="none" xmlns="http://www.w3.org/2000/svg">
<path fill-rule="evenodd" clip-rule="evenodd" d="M52.5782 13.8088C51.7393 13.1032 50.3075 12.7509 48.2821 12.7509H43.7139V26.8683H47.1297V22.4437H48.6599C50.517 22.4437 51.8789 22.035 52.7456 21.2167C53.7218 20.3001 54.2131 19.0794 54.2131 17.5556C54.2131 15.9755 53.6678 14.7263 52.5782 13.8088ZM48.575 19.2493H47.1297V15.9453H48.4282C50.0075 15.9453 50.7972 16.4993 50.7972 17.6072C50.7972 18.7009 50.0559 19.2485 48.575 19.2485V19.2493ZM60.0583 12.7501H56.4964V26.8675H64.1869V23.6723H60.0583V12.7501ZM71.1655 12.7501L65.5702 26.8675H69.4051L70.1385 24.8151H75.0004L75.671 26.8675H79.5488L73.9932 12.7501H71.1655ZM71.1234 21.9572L72.5908 17.1318L74.0353 21.9572H71.1226H71.1234Z" fill="white"/>
<mask id="mask0_10438_20539" style="mask-type:alpha" maskUnits="userSpaceOnUse" x="0" y="0" width="100" height="39">
<path d="M0 38.5746H100V0.897583H0V38.5746Z" fill="white"/>
</mask>
<g mask="url(#mask0_10438_20539)">
<path fill-rule="evenodd" clip-rule="evenodd" d="M81.3278 26.8678H84.8905V12.7504H81.3278V26.8678ZM98.7222 15.3964C98.2722 14.7439 97.6944 14.1896 97.0238 13.7671C95.9484 13.0893 94.481 12.7512 92.623 12.7512H87.9294V26.8678H93.4198C95.404 26.8678 96.996 26.2194 98.1976 24.921C99.3992 23.6234 99.9992 21.9012 99.9992 19.7559C99.9992 18.0496 99.573 16.5964 98.7214 15.3964H98.7222ZM93.0214 23.6718H91.4921V15.9464H93.0429C94.1325 15.9464 94.9698 16.2877 95.5571 16.9678C96.1444 17.648 96.4381 18.6131 96.4381 19.8623C96.4381 22.402 95.2992 23.6718 93.0214 23.6718ZM14.7913 0.89801L3.24603 3.92182L0.0642857 15.5321L4.04365 19.6179L0 23.6361L2.99444 35.2972L14.4897 38.5091L18.5341 34.4901L22.5135 38.575L34.0587 35.5512L37.2397 23.9401L33.2611 19.8559L37.3048 15.8377L34.3103 4.17579L22.8135 0.963883L18.7706 4.98214L14.7913 0.89801ZM7.70635 6.15515L13.7881 4.5615L16.4476 7.29166L12.569 11.1456L7.70635 6.15515ZM21.0571 7.32817L23.7595 4.64325L29.8151 6.33531L24.873 11.2456L21.0571 7.32817ZM3.70794 14.579L5.38333 8.46388L10.2444 13.4544L6.36667 17.3083L3.70794 14.5782V14.579ZM27.1579 13.5925L32.1 8.68055L33.6762 14.8234L30.9746 17.5091L27.1579 13.5925ZM14.8548 13.4917L18.7333 9.63769L22.5484 13.5552L18.6706 17.4091L14.8548 13.4917ZM8.65317 19.6544L12.531 15.8004L16.3484 19.7178L12.469 23.5718L8.65317 19.6544ZM20.9571 19.7552L24.8349 15.9012L28.6508 19.8186L24.7722 23.6726L20.9571 19.7552ZM3.62698 24.6496L6.33016 21.9631L10.1452 25.8813L5.20476 30.7909L3.62698 24.6496ZM14.7548 25.9179L18.6333 22.0639L22.4492 25.9813L18.5714 29.8353L14.7548 25.9179ZM27.0579 26.0194L30.9365 22.1655L33.596 24.8948L31.9214 31.0099L27.0579 26.0194ZM7.48968 33.1385L12.431 28.2266L16.2484 32.144L13.5452 34.8305L7.48968 33.1377V33.1385ZM20.8571 32.1813L24.7349 28.3274L29.5968 33.3186L23.5159 34.9115L20.8571 32.1813Z" fill="white"/>
</g>
</svg>
