<svg width="24" height="24" viewBox="0 0 24 24" fill="none" xmlns="http://www.w3.org/2000/svg">
<path d="M12 24C18.6273 24 24 18.6273 24 12C24 5.37261 18.6273 -3.74534e-07 12 -2.41281e-07C5.37261 -1.08026e-07 4.53681e-09 5.37261 1.01332e-08 12C1.57296e-08 18.6274 5.37261 24 12 24Z" fill="white"/>
<path d="M11.9458 6C11.1502 6 10.3871 6.31607 9.82449 6.87868C9.26188 7.44128 8.94581 8.20435 8.9458 9C8.94581 9.79565 9.26188 10.5587 9.82449 11.1213C10.3871 11.6839 11.1502 12 11.9458 12C12.7414 12 13.5045 11.6839 14.0671 11.1213C14.6297 10.5587 14.9458 9.79565 14.9458 9C14.9458 8.20435 14.6297 7.44128 14.0671 6.87868C13.5045 6.31607 12.7414 6 11.9458 6ZM11.9458 6.75C12.5425 6.75 13.1148 6.98705 13.5368 7.40901C13.9587 7.83096 14.1958 8.40326 14.1958 9C14.1958 9.59674 13.9587 10.169 13.5368 10.591C13.1148 11.0129 12.5425 11.25 11.9458 11.25C11.3491 11.25 10.7768 11.0129 10.3548 10.591C9.93286 10.169 9.69581 9.59674 9.6958 9C9.69581 8.40326 9.93286 7.83096 10.3548 7.40901C10.7768 6.98705 11.3491 6.75 11.9458 6.75ZM11.9458 12.75C10.4856 12.7517 9.0762 13.2859 7.98164 14.2523C6.88708 15.2188 6.18253 16.5513 6 18H6.75586C6.93606 16.7516 7.55972 15.6097 8.51274 14.7834C9.46576 13.9571 10.6844 13.5015 11.9458 13.5C13.2074 13.5011 14.4264 13.9566 15.3798 14.7829C16.3331 15.6093 16.957 16.7513 17.1372 18H17.8931C17.7105 16.551 17.0057 15.2184 15.9109 14.2519C14.816 13.2854 13.4062 12.7514 11.9458 12.75Z" fill="black"/>
</svg>
