<svg width="203" height="203" viewBox="0 0 203 203" fill="none" xmlns="http://www.w3.org/2000/svg">
<path d="M37.2291 93.293H165.73C177.029 93.293 186.188 102.452 186.188 113.752C186.188 125.051 177.029 134.21 165.73 134.21H37.2291C25.9293 134.21 16.7705 125.051 16.7705 113.752C16.8102 102.452 25.9689 93.293 37.2291 93.293Z" fill="white"/>
<path d="M165.769 135.915H37.2285C24.9771 135.915 15.0254 125.963 15.0254 113.712C15.0254 101.461 24.9771 91.5088 37.2285 91.5088H165.729C177.98 91.5088 187.932 101.461 187.932 113.712C187.932 125.963 177.98 135.915 165.769 135.915ZM37.2285 95.0375C26.9199 95.0375 18.5541 103.403 18.5541 113.712C18.5541 124.021 26.9199 132.386 37.2285 132.386H165.729C176.038 132.386 184.404 124.021 184.404 113.712C184.404 103.403 176.038 95.0375 165.729 95.0375H37.2285Z" fill="#1E1E1E"/>
<path d="M90.7957 42.6621H114.149C141.03 42.6621 162.837 64.4687 162.837 91.3504V122.514C162.837 149.396 141.03 171.202 114.149 171.202H90.7957C63.9141 171.202 42.1074 149.396 42.1074 122.514V91.3504C42.1074 64.4687 63.9141 42.6621 90.7957 42.6621Z" fill="white"/>
<path d="M114.148 172.907H90.7951C63.0016 172.907 40.3623 150.268 40.3623 122.474V91.3107C40.3623 63.5172 63.0016 40.8779 90.7951 40.8779H114.148C141.942 40.8779 164.581 63.5172 164.581 91.3107V122.474C164.581 150.308 141.981 172.907 114.148 172.907ZM90.7951 44.4066C64.9443 44.4066 43.891 65.46 43.891 91.3107V122.474C43.891 148.325 64.9443 169.379 90.7951 169.379H114.148C139.999 169.379 161.052 148.325 161.052 122.474V91.3107C161.052 65.46 139.999 44.4066 114.148 44.4066H90.7951Z" fill="#1E1E1E"/>
<path d="M109.271 128.144H99.5173C98.5261 128.144 97.7727 127.351 97.7727 126.399V84.3325C91.5083 86.9889 74.6973 93.2534 57.8071 91.826C56.8555 91.7467 56.1022 90.8745 56.1815 89.9229C56.2608 88.9317 57.1331 88.218 58.0846 88.2973C77.9882 89.9626 98.5657 80.0901 98.7639 80.0108C99.319 79.7333 99.9534 79.7729 100.469 80.0901C100.984 80.4073 101.301 80.9624 101.301 81.5967V124.615H109.271C110.262 124.615 111.015 125.408 111.015 126.36C111.015 127.311 110.262 128.144 109.271 128.144Z" fill="#1E1E1E"/>
<path d="M145.47 93.2931C128.659 93.2931 117.716 82.8655 117.241 82.3897C116.527 81.7157 116.527 80.6056 117.201 79.8919C117.875 79.1782 118.985 79.1782 119.699 79.8522C119.857 80.0108 131.276 90.7952 147.968 89.685C148.92 89.6057 149.792 90.3591 149.832 91.3106C149.911 92.3018 149.157 93.1345 148.206 93.1741C147.254 93.2931 146.342 93.2931 145.47 93.2931Z" fill="#1E1E1E"/>
<path d="M77.1557 103.007C78.2286 103.007 79.0984 102.137 79.0984 101.064C79.0984 99.9909 78.2286 99.1211 77.1557 99.1211C76.0827 99.1211 75.2129 99.9909 75.2129 101.064C75.2129 102.137 76.0827 103.007 77.1557 103.007Z" fill="white"/>
<path d="M92.4992 148.88C91.9045 148.642 91.508 148.047 91.5476 147.334C91.5873 146.422 92.3406 145.708 93.1732 145.708L113.79 145.827C114.623 145.827 115.297 146.58 115.218 147.492C115.178 148.404 114.425 149.118 113.592 149.118L92.975 148.999C92.8164 148.959 92.6578 148.92 92.4992 148.88Z" fill="black"/>
<path d="M125.09 31.798C142.892 34.851 124.416 65.8164 102.649 64.3098C91.3095 63.5168 88.6531 58.2832 80.1683 55.4285C69.6218 51.8998 60.7406 54.7545 52.2558 67.0455C45.357 76.9973 43.9693 94.9977 43.9693 94.9977L39.6873 94.9184C38.934 84.5305 36.8722 16.6523 125.09 31.798Z" fill="#626160"/>
<path d="M83.7764 31.0845C66.0139 34.5735 81.3182 65.0632 103.125 64.3098C114.504 63.9134 117.319 58.7591 125.962 56.2216C136.628 53.0497 145.43 56.2216 153.478 68.7901C160.02 78.9798 160.813 97.0198 160.813 97.0198L165.016 97.0991C166.206 86.7112 172.629 18.952 83.7764 31.0845Z" fill="#626160"/>
<path d="M73.1109 111.491C72.9919 111.491 72.9126 111.491 72.7937 111.491C68.6306 111.373 65.1019 109.073 63.1591 106.932C62.4455 106.139 62.5248 104.949 63.3177 104.236C64.1107 103.522 65.3001 103.601 66.0138 104.394C67.3222 105.861 69.939 107.606 72.873 107.685C75.4105 107.765 77.8291 106.615 80.1287 104.315C80.882 103.562 82.0714 103.562 82.8248 104.315C83.5781 105.068 83.5781 106.258 82.8248 107.011C79.8908 109.985 76.5999 111.491 73.1109 111.491Z" fill="#1E1E1E"/>
<path d="M132.227 111.491C132.108 111.491 132.029 111.491 131.91 111.491C127.747 111.373 124.218 109.073 122.275 106.932C121.562 106.139 121.641 104.949 122.434 104.236C123.227 103.522 124.416 103.601 125.13 104.394C126.438 105.861 129.055 107.606 131.989 107.685C134.487 107.765 136.945 106.615 139.245 104.315C139.998 103.562 141.188 103.562 141.941 104.315C142.694 105.068 142.694 106.258 141.941 107.011C139.007 109.985 135.716 111.491 132.227 111.491Z" fill="#1E1E1E"/>
<g filter="url(#filter0_d_12326_24375)">
<path d="M101.34 29.5781C102.371 29.5781 103.402 29.5781 104.472 29.6178C111.014 29.6574 116.882 30.2521 122.116 31.283C123.107 31.4416 124.098 31.6002 125.129 31.7588C126.358 31.957 127.389 32.3139 128.301 32.75C164.183 43.2172 166.245 76.8787 165.531 91.4693H165.808C178.06 91.4693 188.012 101.421 188.012 113.672C188.012 125.924 178.06 135.876 165.808 135.876H162.835C156.927 157.167 137.38 172.868 114.226 172.868H90.7936C67.6389 172.868 48.0922 157.167 42.1846 135.876H37.2285C24.9771 135.876 15.0254 125.924 15.0254 113.672C15.0254 101.421 24.9771 91.4693 37.2285 91.4693H39.4885C39.2109 78.2268 41.9467 40.8383 81.6744 31.6398C82.3088 31.402 83.0225 31.2037 83.7758 31.0451C84.648 30.9262 85.5203 30.8072 86.3926 30.7279C90.9521 30.0143 95.9082 29.5781 101.34 29.5781ZM101.34 26.8027C95.9479 26.8027 90.7936 27.1992 86.0357 27.9922C85.0445 28.1111 84.2119 28.2301 83.4189 28.3094C83.3793 28.3094 83.3 28.3094 83.2604 28.349C82.4277 28.5076 81.6744 28.7455 80.9211 28.9834C71.3262 31.2434 63.1189 35.2479 56.4977 40.9176C50.8676 45.715 46.3477 51.7812 43.0568 58.8783C37.9422 69.9402 36.7924 81.4779 36.7131 88.6939C23.193 88.9715 12.25 100.073 12.25 113.672C12.25 127.43 23.4705 138.651 37.2285 138.651H40.0832C43.374 148.841 49.7574 157.96 58.2818 164.541C67.6785 171.797 78.899 175.643 90.7539 175.643H114.107C125.962 175.643 137.182 171.797 146.579 164.541C155.103 157.96 161.526 148.801 164.778 138.651H165.689C179.447 138.651 190.668 127.43 190.668 113.672C190.668 100.787 180.835 90.1213 168.267 88.8129C168.425 80.7643 167.474 69.8609 163.073 59.473C160.218 52.7725 156.213 46.9441 151.138 42.2656C145.271 36.7941 137.896 32.7104 129.213 30.1729C128.103 29.6574 126.874 29.2609 125.526 29.023C124.614 28.8645 123.662 28.7059 122.552 28.5473C117.001 27.4768 110.935 26.882 104.472 26.8424C103.441 26.8424 102.371 26.8027 101.34 26.8027Z" fill="white"/>
</g>
<defs>
<filter id="filter0_d_12326_24375" x="8.28516" y="23.6309" width="186.348" height="156.77" filterUnits="userSpaceOnUse" color-interpolation-filters="sRGB">
<feFlood flood-opacity="0" result="BackgroundImageFix"/>
<feColorMatrix in="SourceAlpha" type="matrix" values="0 0 0 0 0 0 0 0 0 0 0 0 0 0 0 0 0 0 127 0" result="hardAlpha"/>
<feOffset dy="0.792969"/>
<feGaussianBlur stdDeviation="1.98242"/>
<feComposite in2="hardAlpha" operator="out"/>
<feColorMatrix type="matrix" values="0 0 0 0 0 0 0 0 0 0 0 0 0 0 0 0 0 0 0.25 0"/>
<feBlend mode="normal" in2="BackgroundImageFix" result="effect1_dropShadow_12326_24375"/>
<feBlend mode="normal" in="SourceGraphic" in2="effect1_dropShadow_12326_24375" result="shape"/>
</filter>
</defs>
</svg>
