<svg width="1481" height="936" viewBox="0 0 1481 936" fill="none" xmlns="http://www.w3.org/2000/svg">
<path d="M991.373 525.77C983.171 630.068 891.97 707.969 787.672 699.766C683.373 691.564 605.473 600.363 613.675 496.065C621.878 391.766 713.079 313.865 817.377 322.068C921.676 330.271 999.576 421.472 991.373 525.77Z" fill="url(#paint0_linear_12672_24563)"/>
<path d="M950.619 520.142C951.451 594.392 892.78 644.507 819.574 632.078C746.367 619.649 686.347 549.382 685.515 475.132C684.683 400.883 743.354 350.768 816.561 363.197C889.767 375.626 949.787 445.893 950.619 520.142Z" fill="url(#paint1_radial_12672_24563)"/>
<path d="M939.97 569.675C955.233 653.93 902.078 699.333 821.246 671.086C740.413 642.84 662.512 551.639 647.249 467.385C631.986 383.13 685.141 337.727 765.973 365.974C846.806 394.221 924.707 485.421 939.97 569.675Z" fill="url(#paint2_radial_12672_24563)"/>
<path d="M939.588 569.745C947.205 611.791 937.735 644.043 916.391 662.274C895.048 680.505 861.712 684.816 821.374 670.72C781.037 656.625 741.408 626.811 709.954 589.986C678.5 553.162 655.248 509.36 647.631 467.316C640.015 425.27 649.484 393.018 670.828 374.786C692.171 356.555 725.507 352.244 765.845 366.34C806.182 380.436 845.811 410.25 877.265 447.074C908.719 483.898 931.971 527.701 939.588 569.745Z" stroke="url(#paint3_linear_12672_24563)" stroke-opacity="0.2" stroke-width="0.776366"/>
<mask id="path-5-inside-1_12672_24563" fill="white">
<path fill-rule="evenodd" clip-rule="evenodd" d="M905.828 590.489C906.431 581.506 905.65 571.48 903.333 560.537C889.892 497.058 829.872 426.792 769.275 403.593C758.829 399.594 749.048 397.254 740.082 396.446C735.462 336.196 777.49 306.302 839.969 329.143C907.792 353.938 974.031 431.486 987.918 502.352C1000.71 567.633 964.615 604.47 905.828 590.489Z"/>
</mask>
<path fill-rule="evenodd" clip-rule="evenodd" d="M905.828 590.489C906.431 581.506 905.65 571.48 903.333 560.537C889.892 497.058 829.872 426.792 769.275 403.593C758.829 399.594 749.048 397.254 740.082 396.446C735.462 336.196 777.49 306.302 839.969 329.143C907.792 353.938 974.031 431.486 987.918 502.352C1000.71 567.633 964.615 604.47 905.828 590.489Z" fill="url(#paint4_linear_12672_24563)"/>
<path d="M903.333 560.537L902.573 560.698L903.333 560.537ZM905.828 590.489L905.053 590.437L905.009 591.092L905.648 591.244L905.828 590.489ZM769.275 403.593L768.998 404.318L769.275 403.593ZM740.082 396.446L739.308 396.505L739.358 397.16L740.012 397.219L740.082 396.446ZM839.969 329.143L840.235 328.414L839.969 329.143ZM987.918 502.352L987.157 502.501L987.918 502.352ZM902.573 560.698C904.878 571.582 905.651 581.536 905.053 590.437L906.602 590.541C907.211 581.476 906.421 571.377 904.092 560.376L902.573 560.698ZM768.998 404.318C799.145 415.86 829.198 439.134 853.397 467.464C877.596 495.795 895.886 529.116 902.573 560.698L904.092 560.376C897.338 528.479 878.898 494.928 854.578 466.456C830.258 437.983 800.002 414.525 769.553 402.868L768.998 404.318ZM740.012 397.219C748.896 398.02 758.607 400.34 768.998 404.318L769.553 402.868C759.051 398.847 749.2 396.488 740.152 395.673L740.012 397.219ZM740.856 396.387C738.56 366.444 747.86 344.222 765.302 332.276C782.761 320.318 808.6 318.502 839.702 329.872L840.235 328.414C808.858 316.943 782.444 318.653 764.425 330.995C746.388 343.348 736.984 366.198 739.308 396.505L740.856 396.387ZM839.702 329.872C873.458 342.213 906.869 367.704 933.579 398.975C960.29 430.246 980.245 467.231 987.157 502.501L988.68 502.202C981.705 466.607 961.597 429.385 934.76 397.967C907.923 366.548 874.302 340.868 840.235 328.414L839.702 329.872ZM987.157 502.501C993.525 534.998 987.691 560.235 973.151 575.61C958.626 590.97 935.223 596.682 906.007 589.733L905.648 591.244C935.22 598.277 959.259 592.561 974.28 576.677C989.286 560.808 995.105 534.987 988.68 502.202L987.157 502.501Z" fill="url(#paint5_linear_12672_24563)" fill-opacity="0.3" mask="url(#path-5-inside-1_12672_24563)"/>
<g style="mix-blend-mode:lighten">
<ellipse cx="800.218" cy="412.26" rx="231.36" ry="225.349" transform="rotate(-130.503 800.218 412.26)" fill="url(#paint6_radial_12672_24563)" fill-opacity="0.6"/>
</g>
<path d="M903.333 560.539C916.774 624.018 878.546 656.671 817.949 633.472C757.352 610.273 697.332 540.006 683.892 476.528C670.451 413.049 708.678 380.396 769.275 403.595C829.872 426.794 889.892 497.061 903.333 560.539Z" fill="url(#paint7_radial_12672_24563)"/>
<rect x="617.227" y="425.676" width="4.91407" height="4.91407" transform="rotate(-85.5031 617.227 425.676)" fill="#00F0FF" fill-opacity="0.5"/>
<rect x="617.427" y="227.407" width="2.02624" height="2.02623" transform="rotate(-85.5031 617.427 227.407)" fill="#00F0FF"/>
<rect width="2.66099" height="2.66098" transform="matrix(-0.078406 0.996921 0.996922 0.0784061 1017.01 190.031)" fill="#00F0FF"/>
<rect x="690.444" y="174.254" width="3.06445" height="3.06444" transform="rotate(-85.5031 690.444 174.254)" fill="#00F0FF"/>
<rect x="699.238" y="218.919" width="1.81614" height="1.81614" transform="rotate(-85.5031 699.238 218.919)" fill="#00F0FF"/>
<rect x="706.968" y="509.16" width="4.91407" height="4.91407" transform="rotate(-85.5031 706.968 509.16)" fill="#00F0FF"/>
<rect x="564.391" y="596.517" width="4.91407" height="4.91407" transform="rotate(-85.5031 564.391 596.517)" fill="#0500FF" fill-opacity="0.5"/>
<rect x="524.707" y="445.521" width="3.43444" height="3.43443" transform="rotate(-85.5031 524.707 445.521)" fill="#3DFFFB"/>
<rect x="927.593" y="664.725" width="6.3883" height="6.38829" transform="rotate(-85.5031 927.593 664.725)" fill="#0500FF" fill-opacity="0.5"/>
<rect width="6.82082" height="6.82082" transform="matrix(0.078411 -0.996921 0.996922 0.0784011 1215.13 546.516)" fill="#0066FF" fill-opacity="0.5"/>
<rect width="13.7755" height="13.7755" transform="matrix(0.0784036 -0.996922 0.996921 0.0784085 1271.39 403.203)" fill="#0066FF" fill-opacity="0.5"/>
<rect width="6.41004" height="6.41004" transform="matrix(-0.0784061 0.996922 0.996922 0.0784061 1115.04 205.16)" fill="#0066FF" fill-opacity="0.5"/>
<rect width="6.82082" height="6.82082" transform="matrix(0.078411 -0.996921 0.996922 0.0784011 1276.07 206.785)" fill="#0066FF" fill-opacity="0.5"/>
<rect width="6.82082" height="6.82082" transform="matrix(0.0784011 -0.996922 0.996921 0.078411 1300.43 671.258)" fill="#0066FF" fill-opacity="0.5"/>
<rect x="1102.19" y="792.72" width="6.82083" height="6.82083" transform="rotate(-85.503 1102.19 792.72)" fill="#0500FF" fill-opacity="0.5"/>
<rect width="4.77521" height="4.7752" transform="matrix(0.078399 -0.996922 0.996921 0.0784131 1136.43 626.427)" fill="#0500FF" fill-opacity="0.5"/>
<rect x="1156.05" y="686.06" width="8.88223" height="8.88223" transform="rotate(-85.503 1156.05 686.06)" fill="#0500FF" fill-opacity="0.5"/>
<rect width="5.8419" height="5.8419" transform="matrix(-0.958331 -0.28566 0.285693 -0.958321 995.3 401.469)" fill="#0066FF" fill-opacity="0.5"/>
<rect width="4.5702" height="4.5702" transform="matrix(-0.996921 -0.0784134 0.0783987 -0.996922 883.586 323.791)" fill="#00D1FF"/>
<rect width="5.49007" height="5.49007" transform="matrix(0.958326 0.285676 0.285676 -0.958326 691.667 423.979)" fill="#001AFF" fill-opacity="0.5"/>
<rect x="721.92" y="289.508" width="5.8419" height="5.8419" transform="rotate(-163.401 721.92 289.508)" fill="#0066FF" fill-opacity="0.5"/>
<rect width="5.8419" height="5.8419" transform="matrix(-0.958331 -0.28566 0.285693 -0.958321 1114.99 352.471)" fill="#0066FF" fill-opacity="0.5"/>
<rect x="901.881" y="196.331" width="4.22361" height="4.22361" transform="rotate(-175.503 901.881 196.331)" fill="#0500FF" fill-opacity="0.5"/>
<rect width="4.08708" height="4.08708" transform="matrix(-0.958333 -0.285652 0.2857 -0.958319 1048.05 481.67)" fill="#0500FF" fill-opacity="0.5"/>
<rect x="1101.47" y="475.954" width="7.60226" height="7.60226" transform="rotate(-163.401 1101.47 475.954)" fill="#0500FF" fill-opacity="0.5"/>
<rect width="3.27281" height="3.27281" transform="matrix(0.0784165 -0.996921 0.996922 0.0783957 658.858 431.011)" fill="#00FFF0" fill-opacity="0.6"/>
<rect x="630.073" y="646.869" width="3.68718" height="3.68718" transform="rotate(-85.503 630.073 646.869)" fill="#00FFF0"/>
<rect width="4.07109" height="4.07109" transform="matrix(-0.0784062 0.996921 0.996922 0.078406 506.551 388.849)" fill="#00FFF0"/>
<rect x="587.966" y="331.181" width="4.33199" height="4.33199" transform="rotate(-85.503 587.966 331.181)" fill="#00FFF0"/>
<rect width="4.33199" height="4.33199" transform="matrix(0.0783984 -0.996922 0.996921 0.0784138 904.82 500.79)" fill="#00FFF0" fill-opacity="0.5"/>
<rect x="792.142" y="552.562" width="2.37476" height="2.37476" transform="rotate(-85.503 792.142 552.562)" fill="#00FFF0" fill-opacity="0.5"/>
<rect x="714.302" y="699.042" width="4.33199" height="4.33199" transform="rotate(-120.813 714.302 699.042)" fill="#0500FF" fill-opacity="0.5"/>
<rect x="669.98" y="599.772" width="3.02452" height="3.02452" transform="rotate(-85.503 669.98 599.772)" fill="#00D1FF" fill-opacity="0.6"/>
<rect x="699.673" y="623.995" width="8.15041" height="8.15041" transform="rotate(-85.503 699.673 623.995)" fill="#6100FF" fill-opacity="0.5"/>
<g opacity="0.5">
<rect x="495.427" y="315.031" width="3.27281" height="3.27281" transform="rotate(-85.5031 495.427 315.031)" fill="#00FFF0" fill-opacity="0.6"/>
<rect width="3.68718" height="3.68718" transform="matrix(0.0784151 -0.996921 0.996922 0.0783971 466.643 530.888)" fill="#00FFF0"/>
<rect width="3.68718" height="3.68718" transform="matrix(0.0784151 -0.996921 0.996922 0.0783971 1222 646.677)" fill="#00FFF0"/>
<rect width="3.68718" height="3.68718" transform="matrix(0.0784151 -0.996921 0.996922 0.0783971 988 293.676)" fill="#00FFF0"/>
<rect width="3.68718" height="3.68718" transform="matrix(0.0784151 -0.996921 0.996922 0.0783971 1070 420.676)" fill="#00FFF0"/>
<rect width="4.07109" height="4.07109" transform="matrix(-0.078406 0.996922 0.996921 0.0784062 343.121 272.872)" fill="#00FFF0"/>
<rect width="4.33199" height="4.33199" transform="matrix(0.0783982 -0.996922 0.996921 0.078414 424.536 215.201)" fill="#00FFF0"/>
<rect x="741.39" y="384.809" width="4.33199" height="4.33199" transform="rotate(-85.5031 741.39 384.809)" fill="#00FFF0" fill-opacity="0.5"/>
<rect x="628.712" y="436.581" width="2.37476" height="2.37476" transform="rotate(-85.5031 628.712 436.581)" fill="#00FFF0" fill-opacity="0.5"/>
<rect x="550.872" y="583.062" width="4.33199" height="4.33199" transform="rotate(-120.813 550.872 583.062)" fill="#0500FF" fill-opacity="0.5"/>
<rect x="506.551" y="483.792" width="3.02452" height="3.02452" transform="rotate(-85.5031 506.551 483.792)" fill="#00D1FF" fill-opacity="0.6"/>
<rect width="8.15041" height="8.15041" transform="matrix(0.0784018 -0.996922 0.996921 0.0784103 536.243 508.019)" fill="#6100FF" fill-opacity="0.5"/>
</g>
<path d="M907.337 519.103L922.52 492.404L937.703 519.103L922.52 545.802L907.337 519.103Z" fill="url(#paint8_linear_12672_24563)"/>
<path d="M937.7 519.106L922.517 492.406L869.003 519.102L937.7 519.106Z" fill="url(#paint9_linear_12672_24563)"/>
<path d="M937.698 519.113L922.547 545.828L869 519.11L937.698 519.113Z" fill="url(#paint10_linear_12672_24563)"/>
<path d="M640.436 536.208L651.207 526.43L651.001 510.153L640.173 502.687L633.791 518.727L640.436 536.208Z" fill="url(#paint11_linear_12672_24563)" fill-opacity="0.7"/>
<path d="M703.66 519.283L666.725 501.724L651.569 492L703.66 519.283Z" fill="url(#paint12_linear_12672_24563)" fill-opacity="0.8"/>
<path d="M703.662 519.283L667.058 532.764L652.105 546.114L703.662 519.283Z" fill="url(#paint13_linear_12672_24563)"/>
<path d="M652.11 546.111L667.064 532.753L651.208 526.429L640.434 536.209L652.11 546.111Z" fill="url(#paint14_linear_12672_24563)" fill-opacity="0.6"/>
<path d="M666.725 501.728L667.06 532.756L651.203 526.431L650.997 510.156L666.725 501.728Z" fill="url(#paint15_linear_12672_24563)" fill-opacity="0.6"/>
<path d="M666.731 501.724L651.57 492.002L640.172 502.689L651 510.154L666.731 501.724Z" fill="url(#paint16_linear_12672_24563)" fill-opacity="0.8"/>
<path d="M703.66 519.283L641.401 517.947L651.569 492L703.66 519.283Z" fill="url(#paint17_linear_12672_24563)"/>
<path d="M703.66 519.284L641.402 517.95L652.103 546.116L703.66 519.284Z" fill="url(#paint18_linear_12672_24563)"/>
<path d="M651.571 492L641.4 517.948L633.788 518.73L640.177 502.683L651.571 492Z" fill="url(#paint19_linear_12672_24563)" fill-opacity="0.6"/>
<path d="M652.114 546.115L641.405 517.949L633.789 518.727L640.44 536.213L652.114 546.115Z" fill="url(#paint20_linear_12672_24563)" fill-opacity="0.6"/>
<g style="mix-blend-mode:lighten">
<path d="M452.836 405.919C403.646 236.58 526.217 134.848 726.607 178.693C926.996 222.538 1129.32 395.358 1178.51 564.697C1227.7 734.035 1105.13 835.768 904.738 791.923C704.349 748.077 502.025 575.258 452.836 405.919Z" fill="url(#paint21_radial_12672_24563)" fill-opacity="0.8"/>
</g>
<path d="M681.251 881.879C577.279 896.766 495.829 869.55 448.095 813.666C400.361 757.783 386.212 673.08 417.17 572.713C448.129 472.344 518.318 375.403 606.799 299.825C695.279 224.247 802.001 170.075 905.977 155.188C1009.95 140.301 1091.4 167.517 1139.13 223.401C1186.87 279.284 1201.02 363.987 1170.06 464.354C1139.1 564.723 1068.91 661.665 980.429 737.243C891.948 812.821 785.226 866.992 681.251 881.879Z" stroke="url(#paint22_linear_12672_24563)" stroke-width="1.29394"/>
<path d="M1452.3 561.947C1462.97 516.911 1454.25 480.156 1431.69 457.057C1409.13 433.958 1372.6 424.369 1327.32 433.964C1282.04 443.56 1236.68 470.516 1199.97 506.371C1163.25 542.225 1135.23 586.93 1124.56 631.97C1113.89 677.006 1122.61 713.76 1145.17 736.859C1167.73 759.959 1204.26 769.548 1249.54 759.952C1294.82 750.356 1340.18 723.4 1376.89 687.546C1413.61 651.691 1441.63 606.986 1452.3 561.947Z" stroke="url(#paint23_linear_12672_24563)" stroke-width="1.29394"/>
<path d="M669.447 868.49C565.355 883.394 483.705 856.157 435.824 800.101C387.943 744.046 373.805 659.142 404.798 558.659C435.793 458.176 506.048 361.156 594.586 285.53C683.123 209.903 789.933 155.679 894.027 140.774C998.119 125.87 1079.77 153.108 1127.65 209.163C1175.53 265.218 1189.67 350.122 1158.68 450.605C1127.68 551.088 1057.43 648.108 968.888 723.735C880.351 799.361 773.541 853.586 669.447 868.49Z" stroke="url(#paint24_linear_12672_24563)" stroke-width="0.258789"/>
<path d="M658.728 931.474C536.983 946.529 440.619 912.364 383.154 845.088C325.689 777.812 307.008 677.292 340.91 559.397C374.814 441.496 454.872 328.617 556.929 241.443C658.987 154.268 782.993 92.8408 904.744 77.7853C1026.49 62.7306 1122.85 96.8957 1180.32 164.172C1237.78 231.447 1256.46 331.968 1222.56 449.863C1188.66 567.763 1108.6 680.642 1006.54 767.817C904.486 854.991 780.479 916.419 658.728 931.474Z" stroke="url(#paint25_linear_12672_24563)" stroke-width="1.29394"/>
<path d="M658.728 931.474C536.983 946.529 440.619 912.364 383.154 845.088C325.689 777.812 307.008 677.292 340.91 559.397C374.814 441.496 454.872 328.617 556.929 241.443C658.987 154.268 782.993 92.8408 904.744 77.7853C1026.49 62.7306 1122.85 96.8957 1180.32 164.172C1237.78 231.447 1256.46 331.968 1222.56 449.863C1188.66 567.763 1108.6 680.642 1006.54 767.817C904.486 854.991 780.479 916.419 658.728 931.474Z" stroke="url(#paint26_linear_12672_24563)" stroke-opacity="0.2" stroke-width="1.29394"/>
<path d="M1475 554.027C1486.45 501.187 1475.28 457.593 1448.09 429.757C1420.91 401.92 1377.59 389.714 1324.5 399.907C1271.39 410.1 1218.64 440.76 1176.29 482.12C1133.93 523.479 1102.03 575.492 1090.58 628.338C1079.13 681.177 1090.31 724.771 1117.49 752.608C1144.67 780.444 1187.99 792.65 1241.09 782.457C1294.19 772.264 1346.94 741.604 1389.3 700.244C1431.65 658.885 1463.55 606.872 1475 554.027Z" stroke="url(#paint27_linear_12672_24563)" stroke-width="1.29394"/>
<path d="M1475 554.027C1486.45 501.187 1475.28 457.593 1448.09 429.757C1420.91 401.92 1377.59 389.714 1324.5 399.907C1271.39 410.1 1218.64 440.76 1176.29 482.12C1133.93 523.479 1102.03 575.492 1090.58 628.338C1079.13 681.177 1090.31 724.771 1117.49 752.608C1144.67 780.444 1187.99 792.65 1241.09 782.457C1294.19 772.264 1346.94 741.604 1389.3 700.244C1431.65 658.885 1463.55 606.872 1475 554.027Z" stroke="url(#paint28_linear_12672_24563)" stroke-opacity="0.2" stroke-width="1.29394"/>
<path d="M647.943 918.811C521.455 928.305 418.835 886.862 355.117 812.267C291.4 737.672 266.509 629.835 295.661 506.385C324.814 382.928 402.492 267.277 504.539 180.111C606.586 92.945 732.959 34.3022 859.456 24.8073C985.944 15.3131 1088.56 56.7557 1152.28 131.351C1216 205.946 1240.89 313.784 1211.74 437.233C1182.58 560.69 1104.91 676.341 1002.86 763.507C900.813 850.673 774.44 909.316 647.943 918.811Z" stroke="url(#paint29_linear_12672_24563)" stroke-width="1.29394"/>
<path d="M1469.86 548.798C1479.06 493.658 1464.95 447.012 1434.78 416.123C1404.62 385.234 1358.32 370.019 1302.98 377.905C1247.62 385.792 1193.75 415.293 1151.41 456.644C1109.07 497.994 1078.29 551.152 1069.1 606.3C1059.9 661.439 1074.01 708.085 1104.18 738.974C1134.34 769.863 1180.64 785.079 1235.98 777.193C1291.33 769.306 1345.21 739.804 1387.55 698.454C1429.89 657.104 1460.66 603.946 1469.86 548.798Z" stroke="url(#paint30_linear_12672_24563)" stroke-width="1.29394"/>
<path d="M1078.87 591.388L1065.8 569.276L1091.48 569.344L1104.56 591.456L1078.87 591.388Z" fill="url(#paint31_linear_12672_24563)"/>
<path d="M1091.49 569.349L1065.8 569.281L1062.95 619.219L1091.49 569.349Z" fill="url(#paint32_linear_12672_24563)" fill-opacity="0.6"/>
<path d="M1091.49 569.353L1104.59 591.448L1062.95 619.222L1091.49 569.353Z" fill="url(#paint33_linear_12672_24563)"/>
<path d="M1139.15 478.874L1175.48 511.077L1138.13 516.618L1139.15 478.874Z" fill="url(#paint34_linear_12672_24563)"/>
<path d="M1139.16 478.874L1175.48 511.076L1218.58 425.875L1139.16 478.874Z" fill="url(#paint35_linear_12672_24563)"/>
<path d="M1087.43 503.811L1138.14 516.609L1139.16 478.874L1087.43 503.811Z" fill="url(#paint36_linear_12672_24563)"/>
<path d="M1156.92 565.42L1138.14 516.608L1087.43 503.814L1069.32 525.016L1092.08 568.563L1138.04 585.945L1156.92 565.42Z" fill="url(#paint37_linear_12672_24563)" fill-opacity="0.5"/>
<path d="M1133.27 558.686L1176.75 556.831L1175.48 511.075L1139.16 478.872L1093.58 483.093L1096.95 526.483L1133.27 558.686Z" fill="url(#paint38_radial_12672_24563)" fill-opacity="0.5"/>
<path d="M1096.95 526.482L1133.27 558.685L1092.07 568.564L1096.95 526.482Z" fill="url(#paint39_linear_12672_24563)"/>
<path d="M1096.95 526.484L1133.27 558.687L1218.58 425.873L1096.95 526.484Z" fill="url(#paint40_linear_12672_24563)" fill-opacity="0.9"/>
<path d="M1138.04 585.945L1133.27 558.686L1092.07 568.565L1138.04 585.945Z" fill="url(#paint41_linear_12672_24563)" fill-opacity="0.5"/>
<path d="M1069.31 525.013L1096.95 526.483L1092.08 568.568L1069.31 525.013Z" fill="url(#paint42_linear_12672_24563)" fill-opacity="0.5"/>
<path d="M1138.04 585.947L1133.27 558.688L1176.76 556.833L1138.04 585.947Z" fill="url(#paint43_linear_12672_24563)"/>
<path d="M1069.31 525.012L1096.95 526.482L1093.58 483.092L1069.31 525.012Z" fill="url(#paint44_linear_12672_24563)"/>
<path d="M1069.31 525.012L1096.95 526.482L1093.58 483.092L1069.31 525.012Z" fill="url(#paint45_linear_12672_24563)" fill-opacity="0.6"/>
<path d="M1218.58 425.872L1133.27 558.688L1176.76 556.833L1218.58 425.872Z" fill="url(#paint46_linear_12672_24563)" fill-opacity="0.9"/>
<path d="M1218.58 425.871L1096.94 526.48L1093.57 483.09L1218.58 425.871Z" fill="url(#paint47_linear_12672_24563)" fill-opacity="0.9"/>
<g filter="url(#filter0_d_12672_24563)">
<path d="M573.63 313V324.7H586.23V376H600.81V313H573.63ZM635.154 377.08C650.724 377.08 662.154 365.29 662.154 344.5C662.154 323.71 650.724 311.92 635.154 311.92C619.674 311.92 608.154 323.71 608.154 344.5C608.154 365.29 619.674 377.08 635.154 377.08ZM635.154 364.75C627.954 364.75 622.914 358.81 622.914 344.5C622.914 330.19 627.954 324.25 635.154 324.25C642.444 324.25 647.484 330.19 647.484 344.5C647.484 358.81 642.444 364.75 635.154 364.75ZM692.638 377.08C708.208 377.08 719.638 365.29 719.638 344.5C719.638 323.71 708.208 311.92 692.638 311.92C677.158 311.92 665.638 323.71 665.638 344.5C665.638 365.29 677.158 377.08 692.638 377.08ZM692.638 364.75C685.438 364.75 680.398 358.81 680.398 344.5C680.398 330.19 685.438 324.25 692.638 324.25C699.928 324.25 704.968 330.19 704.968 344.5C704.968 358.81 699.928 364.75 692.638 364.75ZM730.35 359.26C725.4 359.26 721.62 362.68 721.62 367.9C721.62 371.59 723.51 374.38 726.48 375.55L722.52 389.86H731.43L736.56 376.9C738.63 371.95 738.99 370.24 738.99 367.9C738.99 362.77 735.39 359.26 730.35 359.26ZM767.792 377.08C783.362 377.08 794.792 365.29 794.792 344.5C794.792 323.71 783.362 311.92 767.792 311.92C752.312 311.92 740.792 323.71 740.792 344.5C740.792 365.29 752.312 377.08 767.792 377.08ZM767.792 364.75C760.592 364.75 755.552 358.81 755.552 344.5C755.552 330.19 760.592 324.25 767.792 324.25C775.082 324.25 780.122 330.19 780.122 344.5C780.122 358.81 775.082 364.75 767.792 364.75ZM825.276 377.08C840.846 377.08 852.276 365.29 852.276 344.5C852.276 323.71 840.846 311.92 825.276 311.92C809.796 311.92 798.276 323.71 798.276 344.5C798.276 365.29 809.796 377.08 825.276 377.08ZM825.276 364.75C818.076 364.75 813.036 358.81 813.036 344.5C813.036 330.19 818.076 324.25 825.276 324.25C832.566 324.25 837.606 330.19 837.606 344.5C837.606 358.81 832.566 364.75 825.276 364.75ZM882.76 377.08C898.33 377.08 909.76 365.29 909.76 344.5C909.76 323.71 898.33 311.92 882.76 311.92C867.28 311.92 855.76 323.71 855.76 344.5C855.76 365.29 867.28 377.08 882.76 377.08ZM882.76 364.75C875.56 364.75 870.52 358.81 870.52 344.5C870.52 330.19 875.56 324.25 882.76 324.25C890.05 324.25 895.09 330.19 895.09 344.5C895.09 358.81 890.05 364.75 882.76 364.75ZM920.471 359.26C915.521 359.26 911.741 362.68 911.741 367.9C911.741 371.59 913.631 374.38 916.601 375.55L912.641 389.86H921.551L926.681 376.9C928.751 371.95 929.111 370.24 929.111 367.9C929.111 362.77 925.511 359.26 920.471 359.26ZM957.913 377.08C973.483 377.08 984.913 365.29 984.913 344.5C984.913 323.71 973.483 311.92 957.913 311.92C942.433 311.92 930.913 323.71 930.913 344.5C930.913 365.29 942.433 377.08 957.913 377.08ZM957.913 364.75C950.713 364.75 945.673 358.81 945.673 344.5C945.673 330.19 950.713 324.25 957.913 324.25C965.203 324.25 970.243 330.19 970.243 344.5C970.243 358.81 965.203 364.75 957.913 364.75ZM1015.4 377.08C1030.97 377.08 1042.4 365.29 1042.4 344.5C1042.4 323.71 1030.97 311.92 1015.4 311.92C999.917 311.92 988.397 323.71 988.397 344.5C988.397 365.29 999.917 377.08 1015.4 377.08ZM1015.4 364.75C1008.2 364.75 1003.16 358.81 1003.16 344.5C1003.16 330.19 1008.2 324.25 1015.4 324.25C1022.69 324.25 1027.73 330.19 1027.73 344.5C1027.73 358.81 1022.69 364.75 1015.4 364.75ZM1072.88 377.08C1088.45 377.08 1099.88 365.29 1099.88 344.5C1099.88 323.71 1088.45 311.92 1072.88 311.92C1057.4 311.92 1045.88 323.71 1045.88 344.5C1045.88 365.29 1057.4 377.08 1072.88 377.08ZM1072.88 364.75C1065.68 364.75 1060.64 358.81 1060.64 344.5C1060.64 330.19 1065.68 324.25 1072.88 324.25C1080.17 324.25 1085.21 330.19 1085.21 344.5C1085.21 358.81 1080.17 364.75 1072.88 364.75Z" fill="#23C865"/>
<path d="M573.63 313V312H572.63V313H573.63ZM573.63 324.7H572.63V325.7H573.63V324.7ZM586.23 324.7H587.23V323.7H586.23V324.7ZM586.23 376H585.23V377H586.23V376ZM600.81 376V377H601.81V376H600.81ZM600.81 313H601.81V312H600.81V313ZM572.63 313V324.7H574.63V313H572.63ZM573.63 325.7H586.23V323.7H573.63V325.7ZM585.23 324.7V376H587.23V324.7H585.23ZM586.23 377H600.81V375H586.23V377ZM601.81 376V313H599.81V376H601.81ZM600.81 312H573.63V314H600.81V312ZM635.154 378.08C643.207 378.08 650.241 375.023 655.249 369.241C660.246 363.471 663.154 355.073 663.154 344.5H661.154C661.154 354.717 658.347 362.609 653.737 367.932C649.138 373.242 642.672 376.08 635.154 376.08V378.08ZM663.154 344.5C663.154 333.927 660.246 325.529 655.249 319.759C650.241 313.977 643.207 310.92 635.154 310.92V312.92C642.672 312.92 649.138 315.758 653.737 321.068C658.347 326.391 661.154 334.283 661.154 344.5H663.154ZM635.154 310.92C627.145 310.92 620.112 313.978 615.094 319.758C610.085 325.527 607.154 333.925 607.154 344.5H609.154C609.154 334.285 611.983 326.393 616.604 321.069C621.216 315.757 627.683 312.92 635.154 312.92V310.92ZM607.154 344.5C607.154 355.075 610.085 363.473 615.094 369.242C620.112 375.022 627.145 378.08 635.154 378.08V376.08C627.683 376.08 621.216 373.243 616.604 367.931C611.983 362.607 609.154 354.715 609.154 344.5H607.154ZM635.154 363.75C631.875 363.75 629.136 362.421 627.169 359.441C625.163 356.4 623.914 351.564 623.914 344.5H621.914C621.914 351.746 623.186 357.035 625.499 360.542C627.853 364.109 631.233 365.75 635.154 365.75V363.75ZM623.914 344.5C623.914 337.436 625.163 332.6 627.169 329.559C629.136 326.579 631.875 325.25 635.154 325.25V323.25C631.233 323.25 627.853 324.891 625.499 328.458C623.186 331.965 621.914 337.254 621.914 344.5H623.914ZM635.154 325.25C638.483 325.25 641.244 326.582 643.22 329.561C645.235 332.601 646.484 337.436 646.484 344.5H648.484C648.484 337.254 647.213 331.964 644.886 328.456C642.52 324.888 639.116 323.25 635.154 323.25V325.25ZM646.484 344.5C646.484 351.564 645.235 356.399 643.22 359.439C641.244 362.418 638.483 363.75 635.154 363.75V365.75C639.116 365.75 642.52 364.112 644.886 360.544C647.213 357.036 648.484 351.746 648.484 344.5H646.484ZM692.638 378.08C700.691 378.08 707.725 375.023 712.733 369.241C717.73 363.471 720.638 355.073 720.638 344.5H718.638C718.638 354.717 715.831 362.609 711.221 367.932C706.622 373.242 700.156 376.08 692.638 376.08V378.08ZM720.638 344.5C720.638 333.927 717.73 325.529 712.733 319.759C707.725 313.977 700.691 310.92 692.638 310.92V312.92C700.156 312.92 706.622 315.758 711.221 321.068C715.831 326.391 718.638 334.283 718.638 344.5H720.638ZM692.638 310.92C684.629 310.92 677.596 313.978 672.578 319.758C667.569 325.527 664.638 333.925 664.638 344.5H666.638C666.638 334.285 669.467 326.393 674.088 321.069C678.7 315.757 685.167 312.92 692.638 312.92V310.92ZM664.638 344.5C664.638 355.075 667.569 363.473 672.578 369.242C677.596 375.022 684.629 378.08 692.638 378.08V376.08C685.167 376.08 678.7 373.243 674.088 367.931C669.467 362.607 666.638 354.715 666.638 344.5H664.638ZM692.638 363.75C689.359 363.75 686.62 362.421 684.653 359.441C682.647 356.4 681.398 351.564 681.398 344.5H679.398C679.398 351.746 680.67 357.035 682.983 360.542C685.337 364.109 688.717 365.75 692.638 365.75V363.75ZM681.398 344.5C681.398 337.436 682.647 332.6 684.653 329.559C686.62 326.579 689.359 325.25 692.638 325.25V323.25C688.717 323.25 685.337 324.891 682.983 328.458C680.67 331.965 679.398 337.254 679.398 344.5H681.398ZM692.638 325.25C695.967 325.25 698.728 326.582 700.704 329.561C702.719 332.601 703.968 337.436 703.968 344.5H705.968C705.968 337.254 704.697 331.964 702.37 328.456C700.004 324.888 696.6 323.25 692.638 323.25V325.25ZM703.968 344.5C703.968 351.564 702.719 356.399 700.704 359.439C698.728 362.418 695.967 363.75 692.638 363.75V365.75C696.6 365.75 700.004 364.112 702.37 360.544C704.697 357.036 705.968 351.746 705.968 344.5H703.968ZM726.48 375.55L727.443 375.817L727.683 374.949L726.846 374.62L726.48 375.55ZM722.52 389.86L721.556 389.593L721.205 390.86H722.52V389.86ZM731.43 389.86V390.86H732.109L732.359 390.228L731.43 389.86ZM736.56 376.9L735.637 376.514L735.633 376.523L735.63 376.532L736.56 376.9ZM730.35 358.26C727.642 358.26 725.202 359.198 723.434 360.903C721.661 362.612 720.62 365.038 720.62 367.9H722.62C722.62 365.542 723.468 363.648 724.822 362.342C726.182 361.032 728.107 360.26 730.35 360.26V358.26ZM720.62 367.9C720.62 371.962 722.726 375.146 726.113 376.48L726.846 374.62C724.293 373.614 722.62 371.218 722.62 367.9H720.62ZM725.516 375.283L721.556 389.593L723.483 390.127L727.443 375.817L725.516 375.283ZM722.52 390.86H731.43V388.86H722.52V390.86ZM732.359 390.228L737.489 377.268L735.63 376.532L730.5 389.492L732.359 390.228ZM737.482 377.286C739.569 372.295 739.99 370.439 739.99 367.9H737.99C737.99 370.041 737.69 371.605 735.637 376.514L737.482 377.286ZM739.99 367.9C739.99 365.094 739 362.67 737.264 360.947C735.529 359.224 733.107 358.26 730.35 358.26V360.26C732.632 360.26 734.53 361.051 735.855 362.366C737.179 363.68 737.99 365.576 737.99 367.9H739.99ZM767.792 378.08C775.844 378.08 782.878 375.023 787.886 369.241C792.884 363.471 795.792 355.073 795.792 344.5H793.792C793.792 354.717 790.984 362.609 786.375 367.932C781.775 373.242 775.309 376.08 767.792 376.08V378.08ZM795.792 344.5C795.792 333.927 792.884 325.529 787.886 319.759C782.878 313.977 775.844 310.92 767.792 310.92V312.92C775.309 312.92 781.775 315.758 786.375 321.068C790.984 326.391 793.792 334.283 793.792 344.5H795.792ZM767.792 310.92C759.783 310.92 752.75 313.978 747.732 319.758C742.723 325.527 739.792 333.925 739.792 344.5H741.792C741.792 334.285 744.62 326.393 749.242 321.069C753.853 315.757 760.32 312.92 767.792 312.92V310.92ZM739.792 344.5C739.792 355.075 742.723 363.473 747.732 369.242C752.75 375.022 759.783 378.08 767.792 378.08V376.08C760.32 376.08 753.853 373.243 749.242 367.931C744.62 362.607 741.792 354.715 741.792 344.5H739.792ZM767.792 363.75C764.513 363.75 761.773 362.421 759.806 359.441C757.8 356.4 756.552 351.564 756.552 344.5H754.552C754.552 351.746 755.823 357.035 758.137 360.542C760.49 364.109 763.871 365.75 767.792 365.75V363.75ZM756.552 344.5C756.552 337.436 757.8 332.6 759.806 329.559C761.773 326.579 764.513 325.25 767.792 325.25V323.25C763.871 323.25 760.49 324.891 758.137 328.458C755.823 331.965 754.552 337.254 754.552 344.5H756.552ZM767.792 325.25C771.12 325.25 773.881 326.582 775.857 329.561C777.873 332.601 779.122 337.436 779.122 344.5H781.122C781.122 337.254 779.85 331.964 777.524 328.456C775.157 324.888 771.753 323.25 767.792 323.25V325.25ZM779.122 344.5C779.122 351.564 777.873 356.399 775.857 359.439C773.881 362.418 771.12 363.75 767.792 363.75V365.75C771.753 365.75 775.157 364.112 777.524 360.544C779.85 357.036 781.122 351.746 781.122 344.5H779.122ZM825.276 378.08C833.328 378.08 840.362 375.023 845.37 369.241C850.368 363.471 853.276 355.073 853.276 344.5H851.276C851.276 354.717 848.468 362.609 843.858 367.932C839.259 373.242 832.793 376.08 825.276 376.08V378.08ZM853.276 344.5C853.276 333.927 850.368 325.529 845.37 319.759C840.362 313.977 833.328 310.92 825.276 310.92V312.92C832.793 312.92 839.259 315.758 843.858 321.068C848.468 326.391 851.276 334.283 851.276 344.5H853.276ZM825.276 310.92C817.267 310.92 810.234 313.978 805.215 319.758C800.207 325.527 797.276 333.925 797.276 344.5H799.276C799.276 334.285 802.104 326.393 806.726 321.069C811.337 315.757 817.804 312.92 825.276 312.92V310.92ZM797.276 344.5C797.276 355.075 800.207 363.473 805.215 369.242C810.234 375.022 817.267 378.08 825.276 378.08V376.08C817.804 376.08 811.337 373.243 806.726 367.931C802.104 362.607 799.276 354.715 799.276 344.5H797.276ZM825.276 363.75C821.997 363.75 819.257 362.421 817.29 359.441C815.284 356.4 814.036 351.564 814.036 344.5H812.036C812.036 351.746 813.307 357.035 815.621 360.542C817.974 364.109 821.355 365.75 825.276 365.75V363.75ZM814.036 344.5C814.036 337.436 815.284 332.6 817.29 329.559C819.257 326.579 821.997 325.25 825.276 325.25V323.25C821.355 323.25 817.974 324.891 815.621 328.458C813.307 331.965 812.036 337.254 812.036 344.5H814.036ZM825.276 325.25C828.604 325.25 831.365 326.582 833.341 329.561C835.357 332.601 836.606 337.436 836.606 344.5H838.606C838.606 337.254 837.334 331.964 835.008 328.456C832.641 324.888 829.237 323.25 825.276 323.25V325.25ZM836.606 344.5C836.606 351.564 835.357 356.399 833.341 359.439C831.365 362.418 828.604 363.75 825.276 363.75V365.75C829.237 365.75 832.641 364.112 835.008 360.544C837.334 357.036 838.606 351.746 838.606 344.5H836.606ZM882.76 378.08C890.812 378.08 897.846 375.023 902.854 369.241C907.852 363.471 910.76 355.073 910.76 344.5H908.76C908.76 354.717 905.952 362.609 901.342 367.932C896.743 373.242 890.277 376.08 882.76 376.08V378.08ZM910.76 344.5C910.76 333.927 907.852 325.529 902.854 319.759C897.846 313.977 890.812 310.92 882.76 310.92V312.92C890.277 312.92 896.743 315.758 901.342 321.068C905.952 326.391 908.76 334.283 908.76 344.5H910.76ZM882.76 310.92C874.751 310.92 867.718 313.978 862.699 319.758C857.691 325.527 854.76 333.925 854.76 344.5H856.76C856.76 334.285 859.588 326.393 864.21 321.069C868.821 315.757 875.288 312.92 882.76 312.92V310.92ZM854.76 344.5C854.76 355.075 857.691 363.473 862.699 369.242C867.718 375.022 874.751 378.08 882.76 378.08V376.08C875.288 376.08 868.821 373.243 864.21 367.931C859.588 362.607 856.76 354.715 856.76 344.5H854.76ZM882.76 363.75C879.481 363.75 876.741 362.421 874.774 359.441C872.768 356.4 871.52 351.564 871.52 344.5H869.52C869.52 351.746 870.791 357.035 873.105 360.542C875.458 364.109 878.839 365.75 882.76 365.75V363.75ZM871.52 344.5C871.52 337.436 872.768 332.6 874.774 329.559C876.741 326.579 879.481 325.25 882.76 325.25V323.25C878.839 323.25 875.458 324.891 873.105 328.458C870.791 331.965 869.52 337.254 869.52 344.5H871.52ZM882.76 325.25C886.088 325.25 888.849 326.582 890.825 329.561C892.841 332.601 894.09 337.436 894.09 344.5H896.09C896.09 337.254 894.818 331.964 892.492 328.456C890.125 324.888 886.721 323.25 882.76 323.25V325.25ZM894.09 344.5C894.09 351.564 892.841 356.399 890.825 359.439C888.849 362.418 886.088 363.75 882.76 363.75V365.75C886.721 365.75 890.125 364.112 892.492 360.544C894.818 357.036 896.09 351.746 896.09 344.5H894.09ZM916.601 375.55L917.565 375.817L917.805 374.949L916.968 374.62L916.601 375.55ZM912.641 389.86L911.677 389.593L911.327 390.86H912.641V389.86ZM921.551 389.86V390.86H922.231L922.481 390.228L921.551 389.86ZM926.681 376.9L925.758 376.514L925.755 376.523L925.751 376.532L926.681 376.9ZM920.471 358.26C917.763 358.26 915.324 359.198 913.556 360.903C911.783 362.612 910.741 365.038 910.741 367.9H912.741C912.741 365.542 913.589 363.648 914.944 362.342C916.303 361.032 918.229 360.26 920.471 360.26V358.26ZM910.741 367.9C910.741 371.962 912.847 375.146 916.234 376.48L916.968 374.62C914.415 373.614 912.741 371.218 912.741 367.9H910.741ZM915.637 375.283L911.677 389.593L913.605 390.127L917.565 375.817L915.637 375.283ZM912.641 390.86H921.551V388.86H912.641V390.86ZM922.481 390.228L927.611 377.268L925.751 376.532L920.621 389.492L922.481 390.228ZM927.604 377.286C929.691 372.295 930.111 370.439 930.111 367.9H928.111C928.111 370.041 927.811 371.605 925.758 376.514L927.604 377.286ZM930.111 367.9C930.111 365.094 929.122 362.67 927.385 360.947C925.65 359.224 923.228 358.26 920.471 358.26V360.26C922.754 360.26 924.652 361.051 925.977 362.366C927.3 363.68 928.111 365.576 928.111 367.9H930.111ZM957.913 378.08C965.966 378.08 973 375.023 978.008 369.241C983.005 363.471 985.913 355.073 985.913 344.5H983.913C983.913 354.717 981.106 362.609 976.496 367.932C971.897 373.242 965.431 376.08 957.913 376.08V378.08ZM985.913 344.5C985.913 333.927 983.005 325.529 978.008 319.759C973 313.977 965.966 310.92 957.913 310.92V312.92C965.431 312.92 971.897 315.758 976.496 321.068C981.106 326.391 983.913 334.283 983.913 344.5H985.913ZM957.913 310.92C949.904 310.92 942.871 313.978 937.853 319.758C932.844 325.527 929.913 333.925 929.913 344.5H931.913C931.913 334.285 934.742 326.393 939.363 321.069C943.975 315.757 950.442 312.92 957.913 312.92V310.92ZM929.913 344.5C929.913 355.075 932.844 363.473 937.853 369.242C942.871 375.022 949.904 378.08 957.913 378.08V376.08C950.442 376.08 943.975 373.243 939.363 367.931C934.742 362.607 931.913 354.715 931.913 344.5H929.913ZM957.913 363.75C954.634 363.75 951.895 362.421 949.928 359.441C947.922 356.4 946.673 351.564 946.673 344.5H944.673C944.673 351.746 945.945 357.035 948.258 360.542C950.612 364.109 953.992 365.75 957.913 365.75V363.75ZM946.673 344.5C946.673 337.436 947.922 332.6 949.928 329.559C951.895 326.579 954.634 325.25 957.913 325.25V323.25C953.992 323.25 950.612 324.891 948.258 328.458C945.945 331.965 944.673 337.254 944.673 344.5H946.673ZM957.913 325.25C961.242 325.25 964.003 326.582 965.979 329.561C967.994 332.601 969.243 337.436 969.243 344.5H971.243C971.243 337.254 969.972 331.964 967.645 328.456C965.279 324.888 961.875 323.25 957.913 323.25V325.25ZM969.243 344.5C969.243 351.564 967.994 356.399 965.979 359.439C964.003 362.418 961.242 363.75 957.913 363.75V365.75C961.875 365.75 965.279 364.112 967.645 360.544C969.972 357.036 971.243 351.746 971.243 344.5H969.243ZM1015.4 378.08C1023.45 378.08 1030.48 375.023 1035.49 369.241C1040.49 363.471 1043.4 355.073 1043.4 344.5H1041.4C1041.4 354.717 1038.59 362.609 1033.98 367.932C1029.38 373.242 1022.91 376.08 1015.4 376.08V378.08ZM1043.4 344.5C1043.4 333.927 1040.49 325.529 1035.49 319.759C1030.48 313.977 1023.45 310.92 1015.4 310.92V312.92C1022.91 312.92 1029.38 315.758 1033.98 321.068C1038.59 326.391 1041.4 334.283 1041.4 344.5H1043.4ZM1015.4 310.92C1007.39 310.92 1000.36 313.978 995.337 319.758C990.328 325.527 987.397 333.925 987.397 344.5H989.397C989.397 334.285 992.226 326.393 996.847 321.069C1001.46 315.757 1007.93 312.92 1015.4 312.92V310.92ZM987.397 344.5C987.397 355.075 990.328 363.473 995.337 369.242C1000.36 375.022 1007.39 378.08 1015.4 378.08V376.08C1007.93 376.08 1001.46 373.243 996.847 367.931C992.226 362.607 989.397 354.715 989.397 344.5H987.397ZM1015.4 363.75C1012.12 363.75 1009.38 362.421 1007.41 359.441C1005.41 356.4 1004.16 351.564 1004.16 344.5H1002.16C1002.16 351.746 1003.43 357.035 1005.74 360.542C1008.1 364.109 1011.48 365.75 1015.4 365.75V363.75ZM1004.16 344.5C1004.16 337.436 1005.41 332.6 1007.41 329.559C1009.38 326.579 1012.12 325.25 1015.4 325.25V323.25C1011.48 323.25 1008.1 324.891 1005.74 328.458C1003.43 331.965 1002.16 337.254 1002.16 344.5H1004.16ZM1015.4 325.25C1018.73 325.25 1021.49 326.582 1023.46 329.561C1025.48 332.601 1026.73 337.436 1026.73 344.5H1028.73C1028.73 337.254 1027.46 331.964 1025.13 328.456C1022.76 324.888 1019.36 323.25 1015.4 323.25V325.25ZM1026.73 344.5C1026.73 351.564 1025.48 356.399 1023.46 359.439C1021.49 362.418 1018.73 363.75 1015.4 363.75V365.75C1019.36 365.75 1022.76 364.112 1025.13 360.544C1027.46 357.036 1028.73 351.746 1028.73 344.5H1026.73ZM1072.88 378.08C1080.93 378.08 1087.97 375.023 1092.98 369.241C1097.97 363.471 1100.88 355.073 1100.88 344.5H1098.88C1098.88 354.717 1096.07 362.609 1091.46 367.932C1086.86 373.242 1080.4 376.08 1072.88 376.08V378.08ZM1100.88 344.5C1100.88 333.927 1097.97 325.529 1092.98 319.759C1087.97 313.977 1080.93 310.92 1072.88 310.92V312.92C1080.4 312.92 1086.86 315.758 1091.46 321.068C1096.07 326.391 1098.88 334.283 1098.88 344.5H1100.88ZM1072.88 310.92C1064.87 310.92 1057.84 313.978 1052.82 319.758C1047.81 325.527 1044.88 333.925 1044.88 344.5H1046.88C1046.88 334.285 1049.71 326.393 1054.33 321.069C1058.94 315.757 1065.41 312.92 1072.88 312.92V310.92ZM1044.88 344.5C1044.88 355.075 1047.81 363.473 1052.82 369.242C1057.84 375.022 1064.87 378.08 1072.88 378.08V376.08C1065.41 376.08 1058.94 373.243 1054.33 367.931C1049.71 362.607 1046.88 354.715 1046.88 344.5H1044.88ZM1072.88 363.75C1069.6 363.75 1066.86 362.421 1064.9 359.441C1062.89 356.4 1061.64 351.564 1061.64 344.5H1059.64C1059.64 351.746 1060.91 357.035 1063.23 360.542C1065.58 364.109 1068.96 365.75 1072.88 365.75V363.75ZM1061.64 344.5C1061.64 337.436 1062.89 332.6 1064.9 329.559C1066.86 326.579 1069.6 325.25 1072.88 325.25V323.25C1068.96 323.25 1065.58 324.891 1063.23 328.458C1060.91 331.965 1059.64 337.254 1059.64 344.5H1061.64ZM1072.88 325.25C1076.21 325.25 1078.97 326.582 1080.95 329.561C1082.96 332.601 1084.21 337.436 1084.21 344.5H1086.21C1086.21 337.254 1084.94 331.964 1082.61 328.456C1080.25 324.888 1076.84 323.25 1072.88 323.25V325.25ZM1084.21 344.5C1084.21 351.564 1082.96 356.399 1080.95 359.439C1078.97 362.418 1076.21 363.75 1072.88 363.75V365.75C1076.84 365.75 1080.25 364.112 1082.61 360.544C1084.94 357.036 1086.21 351.746 1086.21 344.5H1084.21Z" fill="#1E1E1E"/>
</g>
<path d="M1023.54 405H1027.4V396.36H1030.88V393.44H1020.06V396.36H1023.54V405ZM1038.36 405.26C1042.18 405.26 1044.98 402.7 1044.98 399.22C1044.98 395.72 1042.18 393.18 1038.36 393.18C1034.54 393.18 1031.74 395.72 1031.74 399.22C1031.74 402.7 1034.54 405.26 1038.36 405.26ZM1038.36 402.18C1036.78 402.18 1035.62 400.96 1035.62 399.22C1035.62 397.48 1036.78 396.26 1038.36 396.26C1039.94 396.26 1041.08 397.48 1041.08 399.22C1041.08 400.96 1039.94 402.18 1038.36 402.18ZM1055 405H1059.48L1054.52 398.56L1059.24 393.44H1055.02L1051.06 397.72V393.44H1047.26V405H1051.06V402.1L1051.98 401.1L1055 405ZM1064.7 402.16V400.48H1069.7V397.8H1064.7V396.28H1070.38V393.44H1060.9V405H1070.6V402.16H1064.7ZM1080.72 393.44V398.88L1076.14 393.44H1072.96V405H1076.74V399.6L1081.32 405H1084.5V393.44H1080.72ZM1091.64 405.26C1095.24 405.26 1097.14 403.56 1097.14 401.36C1097.14 397.1 1090.6 398.32 1090.6 396.84C1090.6 396.4 1091.08 396.06 1092.16 396.06C1093.24 396.06 1094.38 396.3 1095.46 396.96L1096.64 394.18C1095.44 393.48 1093.82 393.18 1092.3 393.18C1088.84 393.18 1086.8 394.84 1086.8 397.04C1086.8 401.42 1093.34 400.12 1093.34 401.68C1093.34 402.06 1092.96 402.38 1091.84 402.38C1090.42 402.38 1088.96 401.96 1087.86 401.28L1086.58 404.06C1087.74 404.78 1089.74 405.26 1091.64 405.26Z" fill="#23C865"/>
<path d="M778.592 152.096V149.384H784.88V146.624H778.592V144.104H785.696V141.2H774.848V155H785.96V152.096H778.592ZM801.517 155L796.285 147.896L801.253 141.2H797.101L794.221 145.28L791.341 141.2H787.069L792.037 148.016L786.829 155H791.173L794.173 150.68L797.173 155H801.517ZM809.528 155.264C812.096 155.264 814.064 154.52 815.48 152.744L813.032 150.512C812.096 151.64 810.968 152.168 809.672 152.168C807.344 152.168 805.64 150.536 805.64 148.112C805.64 145.664 807.344 144.032 809.672 144.032C810.968 144.032 812.096 144.56 813.032 145.688L815.48 143.456C814.064 141.68 812.12 140.936 809.528 140.936C805.112 140.936 801.824 143.96 801.824 148.112C801.824 152.264 805.112 155.264 809.528 155.264ZM817.856 155H828.392V152.048H821.648V141.2H817.856V155ZM836.615 155.264C840.743 155.264 843.143 152.888 843.143 149.048V141.2H839.399V148.928C839.399 151.064 838.463 152.168 836.663 152.168C834.839 152.168 833.879 151.064 833.879 148.928V141.2H830.087V149.048C830.087 152.888 832.511 155.264 836.615 155.264ZM851.268 155.264C855.252 155.264 857.508 153.416 857.508 150.8C857.508 145.712 849.516 147.416 849.516 145.16C849.516 144.44 850.188 143.888 851.82 143.888C853.116 143.888 854.484 144.176 855.732 144.944L856.956 142.136C855.612 141.296 853.716 140.936 851.964 140.936C848.1 140.936 845.772 142.784 845.772 145.376C845.772 150.608 853.764 148.784 853.764 151.112C853.764 151.784 853.164 152.312 851.484 152.312C849.732 152.312 847.98 151.784 846.756 150.968L845.436 153.776C846.732 154.688 849.06 155.264 851.268 155.264ZM859.903 155H863.695V141.2H859.903V155ZM877.412 141.2L873.38 150.584L869.444 141.2H865.412L871.412 155H875.156L881.156 141.2H877.412ZM886.662 152.096V149.384H892.95V146.624H886.662V144.104H893.766V141.2H882.918V155H894.03V152.096H886.662ZM909.878 141.2H903.59V155H907.382V151.352H909.878C913.67 151.352 916.094 149.456 916.094 146.288C916.094 143.096 913.67 141.2 909.878 141.2ZM909.614 148.424H907.382V144.152H909.614C911.39 144.152 912.278 144.92 912.278 146.288C912.278 147.632 911.39 148.424 909.614 148.424ZM927.559 155H931.639L928.567 150.656C930.343 149.84 931.375 148.328 931.375 146.288C931.375 143.096 928.951 141.2 925.159 141.2H918.871V155H922.663V151.304H924.991L927.559 155ZM927.559 146.288C927.559 147.632 926.671 148.424 924.895 148.424H922.663V144.152H924.895C926.671 144.152 927.559 144.92 927.559 146.288ZM938.061 152.096V149.384H944.349V146.624H938.061V144.104H945.165V141.2H934.317V155H945.429V152.096H938.061ZM947.592 149.744H954.384V146.744H947.592V149.744ZM962.034 155.264C966.018 155.264 968.274 153.416 968.274 150.8C968.274 145.712 960.282 147.416 960.282 145.16C960.282 144.44 960.954 143.888 962.586 143.888C963.882 143.888 965.25 144.176 966.498 144.944L967.722 142.136C966.378 141.296 964.482 140.936 962.73 140.936C958.866 140.936 956.538 142.784 956.538 145.376C956.538 150.608 964.53 148.784 964.53 151.112C964.53 151.784 963.93 152.312 962.25 152.312C960.498 152.312 958.746 151.784 957.522 150.968L956.202 153.776C957.498 154.688 959.826 155.264 962.034 155.264ZM981.012 155H984.756L978.54 141.2H974.796L968.604 155H972.276L973.428 152.264H979.884L981.012 155ZM974.58 149.528L976.668 144.536L978.732 149.528H974.58ZM986.395 155H996.931V152.048H990.187V141.2H986.395V155ZM1002.72 152.096V149.384H1009.01V146.624H1002.72V144.104H1009.83V141.2H998.981V155H1010.09V152.096H1002.72ZM1026.4 155.264C1030.86 155.264 1034.15 152.24 1034.15 148.112C1034.15 143.96 1030.86 140.936 1026.4 140.936C1021.93 140.936 1018.64 143.96 1018.64 148.112C1018.64 152.24 1021.93 155.264 1026.4 155.264ZM1026.4 152.168C1024.14 152.168 1022.46 150.464 1022.46 148.112C1022.46 145.736 1024.14 144.032 1026.4 144.032C1028.65 144.032 1030.31 145.736 1030.31 148.112C1030.31 150.464 1028.65 152.168 1026.4 152.168ZM1047.68 144.104V141.2H1036.83V155H1040.62V150.224H1046.86V147.32H1040.62V144.104H1047.68Z" fill="#23C865"/>
<path d="M827.299 178.4L823.651 196.784L812.515 178.4H804.691L797.971 212H807.283L810.979 193.568L822.067 212H829.891L836.611 178.4H827.299ZM836.643 212H853.827C866.163 212 874.803 204.416 874.803 192.512C874.803 183.824 868.419 178.4 857.955 178.4H843.363L836.643 212ZM847.683 204.416L851.331 185.984H856.899C862.371 185.984 865.203 188.624 865.203 193.088C865.203 199.52 861.219 204.416 854.115 204.416H847.683ZM905.675 194.672C909.323 193.136 911.675 190.304 911.675 186.272C911.675 181.232 907.595 178.4 900.011 178.4H883.019L876.299 212H894.779C903.419 212 910.187 208.64 910.187 201.344C910.187 198.224 908.555 195.92 905.675 194.672ZM897.755 185.264C900.251 185.264 901.739 186.08 901.739 187.904C901.739 190.4 899.915 191.744 896.555 191.744H889.739L891.035 185.264H897.755ZM895.307 205.136H887.051L888.395 198.32H896.795C899.099 198.32 900.731 199.136 900.731 201.152C900.731 203.84 898.619 205.136 895.307 205.136ZM934.263 212H943.767L948.999 185.936H959.271L960.807 178.4H930.711L929.175 185.936H939.495L934.263 212ZM975.303 212.672C987.639 212.672 996.279 204.176 996.279 192.512C996.279 183.824 989.895 177.728 979.575 177.728C967.239 177.728 958.599 186.224 958.599 197.888C958.599 206.576 964.983 212.672 975.303 212.672ZM976.119 204.8C971.079 204.8 968.199 201.776 968.199 197.312C968.199 190.976 972.183 185.6 978.759 185.6C983.799 185.6 986.679 188.624 986.679 193.088C986.679 199.424 982.695 204.8 976.119 204.8ZM1037.45 178.4H1026.26L1011.1 192.128L1013.83 178.4H1004.47L997.752 212H1007.11L1008.74 203.84L1013.11 199.904L1020.84 212H1031.45L1020.17 193.856L1037.45 178.4ZM1065.38 185.744L1066.87 178.4H1040.57L1033.85 212H1060.77L1062.31 204.656H1044.69L1045.89 198.512H1060.87L1062.26 191.408H1047.33L1048.44 185.744H1065.38ZM1095.42 178.4L1091.78 196.784L1080.64 178.4H1072.82L1066.1 212H1075.41L1079.1 193.568L1090.19 212H1098.02L1104.74 178.4H1095.42Z" fill="white"/>
<rect width="4.07109" height="4.07109" transform="matrix(-0.0784062 0.996921 0.996922 0.078406 1161.32 571)" fill="#00FFF0"/>
<rect width="4.07109" height="4.07109" transform="matrix(-0.0784062 0.996921 0.996922 0.078406 1019.32 606)" fill="#00FFF0"/>
<rect width="4.07109" height="4.07109" transform="matrix(-0.0784062 0.996921 0.996922 0.078406 1202.32 432)" fill="#00FFF0"/>
<rect width="4.07109" height="4.07109" transform="matrix(-0.0784062 0.996921 0.996922 0.078406 1183.32 248)" fill="#00FFF0"/>
<g clip-path="url(#clip0_12672_24563)">
<g filter="url(#filter1_d_12672_24563)">
<path d="M581.406 271.965C623.574 242.019 633.122 183.052 602.731 140.258C572.341 97.4636 513.52 87.048 471.352 116.994C429.184 146.94 419.637 205.907 450.027 248.701C480.418 291.496 539.238 301.911 581.406 271.965Z" fill="#23C865"/>
</g>
<path d="M533.23 152.796L518.785 163.054L529.498 178.139L543.943 167.882L533.23 152.796Z" fill="white"/>
<path d="M547.028 171.978L532.467 182.319L543.18 197.405L557.741 187.064L547.028 171.978Z" fill="white"/>
<path d="M560.71 191.244L546.149 201.584L556.862 216.67L571.423 206.329L560.71 191.244Z" fill="white"/>
<path d="M496.87 180.257L482.308 190.598L519.739 243.305L534.3 232.964L496.87 180.257Z" fill="white"/>
<path d="M514.808 165.878L481.533 189.508L492.246 204.593L525.521 180.963L514.808 165.878Z" fill="white"/>
<g style="mix-blend-mode:hard-light">
<ellipse cx="526.414" cy="194.776" rx="94.3004" ry="95.4698" transform="rotate(-33.3807 526.414 194.776)" fill="url(#paint48_linear_12672_24563)" fill-opacity="0.8"/>
</g>
<g style="mix-blend-mode:lighten">
<path d="M596.173 132.494C574.735 106.144 529.693 93.2068 503.271 105.11C495.917 119.227 502.174 130.044 545.546 169.099C588.917 208.155 605.439 247.058 610.568 235.96C626.923 200.569 622.338 164.654 596.173 132.494Z" fill="url(#paint49_linear_12672_24563)" fill-opacity="0.8"/>
</g>
</g>
<defs>
<filter id="filter0_d_12672_24563" x="573.63" y="310.92" width="529.251" height="78.9399" filterUnits="userSpaceOnUse" color-interpolation-filters="sRGB">
<feFlood flood-opacity="0" result="BackgroundImageFix"/>
<feColorMatrix in="SourceAlpha" type="matrix" values="0 0 0 0 0 0 0 0 0 0 0 0 0 0 0 0 0 0 127 0" result="hardAlpha"/>
<feOffset dx="3" dy="-1"/>
<feComposite in2="hardAlpha" operator="out"/>
<feColorMatrix type="matrix" values="0 0 0 0 0.137083 0 0 0 0 0.783333 0 0 0 0 0.395583 0 0 0 1 0"/>
<feBlend mode="normal" in2="BackgroundImageFix" result="effect1_dropShadow_12672_24563"/>
<feBlend mode="normal" in="SourceGraphic" in2="effect1_dropShadow_12672_24563" result="shape"/>
</filter>
<filter id="filter1_d_12672_24563" x="432.257" y="99.8984" width="191.169" height="190.834" filterUnits="userSpaceOnUse" color-interpolation-filters="sRGB">
<feFlood flood-opacity="0" result="BackgroundImageFix"/>
<feColorMatrix in="SourceAlpha" type="matrix" values="0 0 0 0 0 0 0 0 0 0 0 0 0 0 0 0 0 0 127 0" result="hardAlpha"/>
<feOffset dx="2.50747" dy="1.25373"/>
<feGaussianBlur stdDeviation="0.208956"/>
<feComposite in2="hardAlpha" operator="out"/>
<feColorMatrix type="matrix" values="0 0 0 0 0.0734375 0 0 0 0 0.375 0 0 0 0 0.266437 0 0 0 1 0"/>
<feBlend mode="normal" in2="BackgroundImageFix" result="effect1_dropShadow_12672_24563"/>
<feBlend mode="normal" in="SourceGraphic" in2="effect1_dropShadow_12672_24563" result="shape"/>
</filter>
<linearGradient id="paint0_linear_12672_24563" x1="884.581" y1="341.139" x2="749.844" y2="555.916" gradientUnits="userSpaceOnUse">
<stop stop-color="white"/>
<stop offset="0.165772" stop-color="#71FFF6"/>
<stop offset="0.552083" stop-color="#4F75FF"/>
<stop offset="1" stop-color="#5E64FF" stop-opacity="0"/>
</linearGradient>
<radialGradient id="paint1_radial_12672_24563" cx="0" cy="0" r="1" gradientUnits="userSpaceOnUse" gradientTransform="translate(804.717 551.425) rotate(-77.9792) scale(168.746 201.404)">
<stop offset="0.40625" stop-color="#3330B1" stop-opacity="0.1"/>
<stop offset="0.678936" stop-color="#58FFFF" stop-opacity="0.5"/>
<stop offset="1" stop-color="white"/>
</radialGradient>
<radialGradient id="paint2_radial_12672_24563" cx="0" cy="0" r="1" gradientUnits="userSpaceOnUse" gradientTransform="translate(792.313 387.075) rotate(123.323) scale(214.733 367.812)">
<stop stop-color="white"/>
<stop offset="0.298196" stop-color="#5EF5FF"/>
<stop offset="0.538073" stop-color="#3432BD"/>
<stop offset="0.914407" stop-color="#171940"/>
</radialGradient>
<linearGradient id="paint3_linear_12672_24563" x1="785.738" y1="373.089" x2="733.342" y2="602.828" gradientUnits="userSpaceOnUse">
<stop stop-color="white"/>
<stop offset="1" stop-color="white" stop-opacity="0"/>
</linearGradient>
<linearGradient id="paint4_linear_12672_24563" x1="879.506" y1="365.436" x2="861.058" y2="526.524" gradientUnits="userSpaceOnUse">
<stop stop-color="white"/>
<stop offset="0.502014" stop-color="#4FFFF4" stop-opacity="0.1"/>
<stop offset="1" stop-color="#5ECFFF" stop-opacity="0.6"/>
</linearGradient>
<linearGradient id="paint5_linear_12672_24563" x1="864.132" y1="295.203" x2="891.401" y2="657.031" gradientUnits="userSpaceOnUse">
<stop stop-color="white"/>
<stop offset="1" stop-color="white" stop-opacity="0"/>
</linearGradient>
<radialGradient id="paint6_radial_12672_24563" cx="0" cy="0" r="1" gradientUnits="userSpaceOnUse" gradientTransform="translate(800.218 428.233) rotate(80.7781) scale(179.142 184.028)">
<stop offset="0.0729167" stop-color="white"/>
<stop offset="0.507801" stop-color="#C173FF" stop-opacity="0.9"/>
<stop offset="1" stop-color="#0E26FF" stop-opacity="0"/>
</radialGradient>
<radialGradient id="paint7_radial_12672_24563" cx="0" cy="0" r="1" gradientUnits="userSpaceOnUse" gradientTransform="translate(692.112 636.063) rotate(-55.6889) scale(219.402 386.029)">
<stop stop-color="#3330B1"/>
<stop offset="1" stop-color="#0A0926"/>
</radialGradient>
<linearGradient id="paint8_linear_12672_24563" x1="909.17" y1="505.753" x2="935.87" y2="532.453" gradientUnits="userSpaceOnUse">
<stop stop-color="#23C865"/>
<stop offset="1" stop-color="#0C1E5E" stop-opacity="0"/>
</linearGradient>
<linearGradient id="paint9_linear_12672_24563" x1="930.719" y1="494.242" x2="869.003" y2="518.859" gradientUnits="userSpaceOnUse">
<stop offset="0.078125" stop-color="#AE42BD"/>
<stop offset="0.537799" stop-color="#23C865"/>
<stop offset="0.838542" stop-color="white"/>
</linearGradient>
<linearGradient id="paint10_linear_12672_24563" x1="869" y1="519.426" x2="922.884" y2="541.664" gradientUnits="userSpaceOnUse">
<stop offset="0.0833333" stop-color="#23C865"/>
<stop offset="0.427083" stop-color="#23C865" stop-opacity="0.74"/>
<stop offset="1" stop-color="#FF3DF7" stop-opacity="0.74"/>
</linearGradient>
<linearGradient id="paint11_linear_12672_24563" x1="652.038" y1="533.292" x2="633.696" y2="515.59" gradientUnits="userSpaceOnUse">
<stop stop-color="#6587FF"/>
<stop offset="1" stop-color="#D8E0FF" stop-opacity="0.9"/>
</linearGradient>
<linearGradient id="paint12_linear_12672_24563" x1="656.486" y1="519.283" x2="663.86" y2="481.41" gradientUnits="userSpaceOnUse">
<stop offset="0.135417" stop-color="white"/>
<stop offset="0.28125" stop-color="#89F8FF" stop-opacity="0.934673"/>
<stop offset="0.645833" stop-color="#71F6FF" stop-opacity="0.921354"/>
<stop offset="1" stop-color="#4A72FF" stop-opacity="0.9"/>
</linearGradient>
<linearGradient id="paint13_linear_12672_24563" x1="678.731" y1="548.243" x2="684.445" y2="515.013" gradientUnits="userSpaceOnUse">
<stop offset="0.170794" stop-color="#3D3BA9"/>
<stop offset="0.537799" stop-color="#23C865"/>
<stop offset="0.791667" stop-color="white"/>
</linearGradient>
<linearGradient id="paint14_linear_12672_24563" x1="642.879" y1="546.112" x2="649.125" y2="525.342" gradientUnits="userSpaceOnUse">
<stop offset="0.135417" stop-color="white"/>
<stop offset="0.28125" stop-color="#89F8FF" stop-opacity="0.934673"/>
<stop offset="0.645833" stop-color="#71F6FF" stop-opacity="0.921354"/>
<stop offset="1" stop-color="#4A72FF" stop-opacity="0.9"/>
</linearGradient>
<linearGradient id="paint15_linear_12672_24563" x1="658.699" y1="532.756" x2="678.14" y2="521.434" gradientUnits="userSpaceOnUse">
<stop offset="0.135417" stop-color="white"/>
<stop offset="0.28125" stop-color="#89F8FF" stop-opacity="0.934673"/>
<stop offset="0.645833" stop-color="#71F6FF" stop-opacity="0.921354"/>
<stop offset="1" stop-color="#4A72FF" stop-opacity="0.9"/>
</linearGradient>
<linearGradient id="paint16_linear_12672_24563" x1="642.466" y1="504.134" x2="646.307" y2="487.538" gradientUnits="userSpaceOnUse">
<stop offset="0.135417" stop-color="white"/>
<stop offset="0.28125" stop-color="#89F8FF" stop-opacity="0.934673"/>
<stop offset="0.645833" stop-color="#71F6FF" stop-opacity="0.921354"/>
<stop offset="1" stop-color="#4A72FF" stop-opacity="0.9"/>
</linearGradient>
<linearGradient id="paint17_linear_12672_24563" x1="703.415" y1="491.875" x2="661.677" y2="525.761" gradientUnits="userSpaceOnUse">
<stop stop-color="#AE42BD"/>
<stop offset="0.427083" stop-color="#23C865" stop-opacity="0.16"/>
<stop offset="0.977116" stop-color="#AE42BD"/>
</linearGradient>
<linearGradient id="paint18_linear_12672_24563" x1="633.125" y1="537.793" x2="684.898" y2="483.024" gradientUnits="userSpaceOnUse">
<stop offset="0.170794" stop-color="#AE42BD"/>
<stop offset="0.458333" stop-color="#23C865"/>
<stop offset="0.729167" stop-color="white"/>
</linearGradient>
<linearGradient id="paint19_linear_12672_24563" x1="631.832" y1="517.948" x2="648.431" y2="490.658" gradientUnits="userSpaceOnUse">
<stop offset="0.135417" stop-color="white"/>
<stop offset="0.28125" stop-color="#89F8FF" stop-opacity="0.934673"/>
<stop offset="0.645833" stop-color="#71F6FF" stop-opacity="0.921354"/>
<stop offset="1" stop-color="#4A72FF" stop-opacity="0.9"/>
</linearGradient>
<linearGradient id="paint20_linear_12672_24563" x1="652.114" y1="532.032" x2="630.34" y2="532.032" gradientUnits="userSpaceOnUse">
<stop stop-color="#3E5ABE"/>
<stop offset="1" stop-color="#3E5ABE" stop-opacity="0"/>
</linearGradient>
<radialGradient id="paint21_radial_12672_24563" cx="0" cy="0" r="1" gradientUnits="userSpaceOnUse" gradientTransform="translate(809.361 463.575) rotate(-114.774) scale(336.842 291.511)">
<stop offset="0.578125" stop-color="#3E0EFF" stop-opacity="0"/>
<stop offset="1" stop-color="#D24BE4"/>
</radialGradient>
<linearGradient id="paint22_linear_12672_24563" x1="516.382" y1="193.971" x2="817.743" y2="546.781" gradientUnits="userSpaceOnUse">
<stop stop-color="#8FBCFF" stop-opacity="0.6"/>
<stop offset="1" stop-color="#8FBCFF" stop-opacity="0"/>
</linearGradient>
<linearGradient id="paint23_linear_12672_24563" x1="1156.78" y1="462.144" x2="1299.89" y2="608.692" gradientUnits="userSpaceOnUse">
<stop stop-color="#8FBCFF" stop-opacity="0.6"/>
<stop offset="1" stop-color="#8FBCFF" stop-opacity="0"/>
</linearGradient>
<linearGradient id="paint24_linear_12672_24563" x1="578.229" y1="266.381" x2="968.973" y2="723.834" gradientUnits="userSpaceOnUse">
<stop stop-color="#8FBCFF" stop-opacity="0.6"/>
<stop offset="1" stop-color="#8FBCFF" stop-opacity="0"/>
</linearGradient>
<linearGradient id="paint25_linear_12672_24563" x1="434.792" y1="98.4542" x2="847.877" y2="582.062" gradientUnits="userSpaceOnUse">
<stop stop-color="white" stop-opacity="0.6"/>
<stop offset="0.34375" stop-color="#8FBCFF" stop-opacity="0.6"/>
<stop offset="1" stop-color="#8FBCFF" stop-opacity="0"/>
</linearGradient>
<linearGradient id="paint26_linear_12672_24563" x1="812.23" y1="102.938" x2="851.352" y2="272.391" gradientUnits="userSpaceOnUse">
<stop stop-color="#FF48D7"/>
<stop offset="0.234164" stop-color="white" stop-opacity="0.765836"/>
<stop offset="1" stop-color="#FF48D7" stop-opacity="0"/>
</linearGradient>
<linearGradient id="paint27_linear_12672_24563" x1="1118.03" y1="422.468" x2="1314.2" y2="623.345" gradientUnits="userSpaceOnUse">
<stop stop-color="white" stop-opacity="0.6"/>
<stop offset="0.34375" stop-color="#8FBCFF" stop-opacity="0.6"/>
<stop offset="1" stop-color="#8FBCFF" stop-opacity="0"/>
</linearGradient>
<linearGradient id="paint28_linear_12672_24563" x1="1104.97" y1="588.589" x2="1177.91" y2="612.539" gradientUnits="userSpaceOnUse">
<stop stop-color="#FF48D7"/>
<stop offset="0.234164" stop-color="white" stop-opacity="0.765836"/>
<stop offset="1" stop-color="#FF48D7" stop-opacity="0"/>
</linearGradient>
<linearGradient id="paint29_linear_12672_24563" x1="482.429" y1="154.225" x2="781.495" y2="504.348" gradientUnits="userSpaceOnUse">
<stop stop-color="#8FBCFF" stop-opacity="0.6"/>
<stop offset="1" stop-color="#8FBCFF" stop-opacity="0"/>
</linearGradient>
<linearGradient id="paint30_linear_12672_24563" x1="1140.66" y1="445.633" x2="1282.68" y2="591.065" gradientUnits="userSpaceOnUse">
<stop stop-color="#8FBCFF" stop-opacity="0.6"/>
<stop offset="1" stop-color="#8FBCFF" stop-opacity="0"/>
</linearGradient>
<linearGradient id="paint31_linear_12672_24563" x1="1069.94" y1="584.512" x2="1100.41" y2="576.22" gradientUnits="userSpaceOnUse">
<stop stop-color="#6083FF"/>
<stop offset="1" stop-color="#0C1E5E" stop-opacity="0"/>
</linearGradient>
<linearGradient id="paint32_linear_12672_24563" x1="1070.54" y1="564.09" x2="1062.77" y2="619.118" gradientUnits="userSpaceOnUse">
<stop offset="0.173509" stop-color="#23C865"/>
<stop offset="0.395026" stop-color="#FF7BE2" stop-opacity="0.33"/>
<stop offset="0.703125" stop-color="white"/>
</linearGradient>
<linearGradient id="paint33_linear_12672_24563" x1="1063.18" y1="619.353" x2="1106.11" y2="583.119" gradientUnits="userSpaceOnUse">
<stop stop-color="#23C865"/>
<stop offset="0.427083" stop-color="#9D50FF" stop-opacity="0.5"/>
<stop offset="0.977116" stop-color="#A7F8C7"/>
</linearGradient>
<linearGradient id="paint34_linear_12672_24563" x1="1131.92" y1="560.209" x2="1083" y2="525.242" gradientUnits="userSpaceOnUse">
<stop stop-color="white"/>
<stop offset="0.227296" stop-color="#47FFDE" stop-opacity="0.8"/>
<stop offset="1" stop-color="#23C865" stop-opacity="0.8"/>
</linearGradient>
<linearGradient id="paint35_linear_12672_24563" x1="1131.92" y1="560.212" x2="1083" y2="525.245" gradientUnits="userSpaceOnUse">
<stop stop-color="#23C865" stop-opacity="0.91"/>
<stop offset="0.227296" stop-color="#47FFDE" stop-opacity="0.8"/>
<stop offset="1" stop-color="#6D61FF" stop-opacity="0.5"/>
</linearGradient>
<linearGradient id="paint36_linear_12672_24563" x1="1091.73" y1="485.178" x2="1119.56" y2="512.424" gradientUnits="userSpaceOnUse">
<stop stop-color="white"/>
<stop offset="0.227296" stop-color="#47FFDE" stop-opacity="0.8"/>
<stop offset="1" stop-color="#6D61FF" stop-opacity="0.5"/>
</linearGradient>
<linearGradient id="paint37_linear_12672_24563" x1="1149.21" y1="504.119" x2="1081.01" y2="581.052" gradientUnits="userSpaceOnUse">
<stop stop-color="#23C865"/>
<stop offset="1" stop-color="#47FFDE"/>
</linearGradient>
<radialGradient id="paint38_radial_12672_24563" cx="0" cy="0" r="1" gradientUnits="userSpaceOnUse" gradientTransform="translate(1136.21 518.779) rotate(-138.442) scale(82.296 47.1073)">
<stop stop-color="#23C865"/>
<stop offset="1" stop-color="#23C865"/>
</radialGradient>
<linearGradient id="paint39_linear_12672_24563" x1="1131.92" y1="560.209" x2="1093.99" y2="527.844" gradientUnits="userSpaceOnUse">
<stop stop-color="white"/>
<stop offset="0.227296" stop-color="#23C865"/>
<stop offset="0.848958" stop-color="#6D61FF" stop-opacity="0.69"/>
</linearGradient>
<linearGradient id="paint40_linear_12672_24563" x1="1118.62" y1="562.284" x2="1198.16" y2="573.339" gradientUnits="userSpaceOnUse">
<stop offset="0.0729167" stop-color="#23C865" stop-opacity="0.79"/>
<stop offset="0.484375" stop-color="#FCA6EF" stop-opacity="0.8"/>
<stop offset="0.802083" stop-color="white"/>
</linearGradient>
<linearGradient id="paint41_linear_12672_24563" x1="1132.29" y1="557.817" x2="1089.94" y2="570.607" gradientUnits="userSpaceOnUse">
<stop stop-color="#23C865"/>
<stop offset="1" stop-color="#23C865" stop-opacity="0.67"/>
</linearGradient>
<linearGradient id="paint42_linear_12672_24563" x1="1097.93" y1="527.352" x2="1068.57" y2="532.278" gradientUnits="userSpaceOnUse">
<stop stop-color="#7BFFE7" stop-opacity="0.9"/>
<stop offset="1" stop-color="#322994" stop-opacity="0.5"/>
</linearGradient>
<linearGradient id="paint43_linear_12672_24563" x1="1174.91" y1="558.917" x2="1118.3" y2="558.129" gradientUnits="userSpaceOnUse">
<stop stop-color="white"/>
<stop offset="0.586705" stop-color="#47FFDE" stop-opacity="0.9"/>
<stop offset="1" stop-color="#6D61FF" stop-opacity="0.5"/>
</linearGradient>
<linearGradient id="paint44_linear_12672_24563" x1="1070.92" y1="524.552" x2="1101.4" y2="530.285" gradientUnits="userSpaceOnUse">
<stop stop-color="#23C865"/>
<stop offset="0.536458" stop-color="#23C865" stop-opacity="0.8"/>
<stop offset="0.967948" stop-color="white"/>
</linearGradient>
<linearGradient id="paint45_linear_12672_24563" x1="1099.54" y1="497.889" x2="1074.48" y2="541.724" gradientUnits="userSpaceOnUse">
<stop offset="0.197917" stop-color="#FF439D"/>
<stop offset="0.630208" stop-color="#FFF9FE" stop-opacity="0"/>
</linearGradient>
<linearGradient id="paint46_linear_12672_24563" x1="1143.42" y1="593.804" x2="1237.18" y2="579.761" gradientUnits="userSpaceOnUse">
<stop offset="0.348278" stop-color="#23C865" stop-opacity="0.8"/>
<stop offset="0.788703" stop-color="#FCA6EF" stop-opacity="0.8"/>
<stop offset="1" stop-color="white"/>
</linearGradient>
<linearGradient id="paint47_linear_12672_24563" x1="976.804" y1="546.607" x2="991.977" y2="402.148" gradientUnits="userSpaceOnUse">
<stop offset="0.0729167" stop-color="#23C865" stop-opacity="0.44"/>
<stop offset="0.578125" stop-color="#FCA6EF" stop-opacity="0.75"/>
<stop offset="0.786458" stop-color="white"/>
</linearGradient>
<linearGradient id="paint48_linear_12672_24563" x1="438.292" y1="134.368" x2="626.113" y2="243.769" gradientUnits="userSpaceOnUse">
<stop stop-color="#0B0A1B"/>
<stop offset="0.455581" stop-color="#3D3C49" stop-opacity="0.37"/>
<stop offset="0.906885" stop-color="white" stop-opacity="0"/>
</linearGradient>
<linearGradient id="paint49_linear_12672_24563" x1="612.1" y1="96.2242" x2="563.764" y2="153.774" gradientUnits="userSpaceOnUse">
<stop stop-color="white"/>
<stop offset="0.51776" stop-color="white" stop-opacity="0.26"/>
<stop offset="0.912844" stop-color="white" stop-opacity="0"/>
</linearGradient>
<clipPath id="clip0_12672_24563">
<rect width="197.262" height="201.385" fill="white" transform="translate(395 171.216) rotate(-35.3807)"/>
</clipPath>
</defs>
</svg>
