<svg width="1860" height="1002" viewBox="0 0 1860 1002" fill="none" xmlns="http://www.w3.org/2000/svg">
<g clip-path="url(#clip0_12857_25137)">
<path d="M1483.49 754.155C1471.73 903.759 1340.91 1015.5 1191.31 1003.73C1041.7 991.967 929.961 861.151 941.727 711.546C953.493 561.942 1084.31 450.202 1233.91 461.968C1383.52 473.734 1495.26 604.551 1483.49 754.155Z" fill="url(#paint0_linear_12857_25137)"/>
<path d="M1424.51 746.084C1425.7 852.586 1341.54 924.471 1236.54 906.642C1131.53 888.814 1045.44 788.024 1044.25 681.522C1043.05 575.02 1127.21 503.135 1232.22 520.964C1337.22 538.792 1423.31 639.582 1424.51 746.084Z" fill="url(#paint1_radial_12857_25137)"/>
<path d="M1431.76 817.133C1453.65 937.987 1377.41 1003.11 1261.46 962.596C1145.52 922.079 1033.78 791.262 1011.88 670.409C989.992 549.555 1066.24 484.429 1182.18 524.946C1298.13 565.463 1409.87 696.28 1431.76 817.133Z" fill="url(#paint2_radial_12857_25137)"/>
<path d="M1431.21 817.232C1442.14 877.542 1428.55 923.804 1397.94 949.955C1367.32 976.105 1319.51 982.289 1261.65 962.07C1203.79 941.852 1146.95 899.087 1101.83 846.267C1056.71 793.447 1023.36 730.617 1012.43 670.309C1001.51 609.999 1015.09 563.737 1045.71 537.587C1076.32 511.436 1124.14 505.253 1182 525.472C1239.86 545.69 1296.7 588.455 1341.82 641.275C1386.93 694.095 1420.29 756.925 1431.21 817.232Z" stroke="url(#paint3_linear_12857_25137)" stroke-opacity="0.2" stroke-width="1.11361"/>
<mask id="path-5-inside-1_12857_25137" fill="white">
<path fill-rule="evenodd" clip-rule="evenodd" d="M1360.53 840.075C1360.66 829.021 1359.42 816.97 1356.68 804.026C1337.4 712.973 1251.31 612.184 1164.39 578.907C1158.05 576.479 1151.87 574.477 1145.89 572.888C1136.94 483.642 1197.72 438.824 1288.79 472.117C1386.08 507.682 1481.09 618.916 1501.01 720.565C1520.93 822.214 1458.21 875.785 1360.93 840.22C1360.79 840.172 1360.66 840.123 1360.53 840.075Z"/>
</mask>
<path fill-rule="evenodd" clip-rule="evenodd" d="M1360.53 840.075C1360.66 829.021 1359.42 816.97 1356.68 804.026C1337.4 712.973 1251.31 612.184 1164.39 578.907C1158.05 576.479 1151.87 574.477 1145.89 572.888C1136.94 483.642 1197.72 438.824 1288.79 472.117C1386.08 507.682 1481.09 618.916 1501.01 720.565C1520.93 822.214 1458.21 875.785 1360.93 840.22C1360.79 840.172 1360.66 840.123 1360.53 840.075Z" fill="url(#paint4_linear_12857_25137)"/>
<path d="M1356.68 804.026L1357.77 803.795L1357.77 803.795L1356.68 804.026ZM1360.53 840.075L1359.42 840.061L1359.41 840.848L1360.15 841.12L1360.53 840.075ZM1164.39 578.907L1164.79 577.867L1164.79 577.867L1164.39 578.907ZM1145.89 572.888L1144.78 572.999L1144.86 573.766L1145.6 573.964L1145.89 572.888ZM1288.79 472.117L1288.41 473.163L1288.41 473.163L1288.79 472.117ZM1501.01 720.565L1502.1 720.351L1502.1 720.351L1501.01 720.565ZM1360.93 840.22L1360.54 841.266L1360.54 841.266L1360.93 840.22ZM1355.59 804.256C1358.32 817.131 1359.55 829.1 1359.42 840.061L1361.64 840.088C1361.78 828.942 1360.53 816.809 1357.77 803.795L1355.59 804.256ZM1163.99 579.947C1207.24 596.502 1250.34 629.887 1285.05 670.524C1319.76 711.16 1346 758.957 1355.59 804.256L1357.77 803.795C1348.08 758.042 1321.63 709.917 1286.75 669.077C1251.86 628.237 1208.46 594.588 1164.79 577.867L1163.99 579.947ZM1145.6 573.964C1151.55 575.542 1157.68 577.532 1163.99 579.947L1164.79 577.867C1158.41 575.426 1152.2 573.411 1146.18 571.812L1145.6 573.964ZM1147 572.777C1142.55 528.408 1155.45 495.35 1180.48 477.456C1205.54 459.548 1243.07 456.59 1288.41 473.163L1289.17 471.071C1243.44 454.352 1205.05 457.156 1179.19 475.644C1153.3 494.148 1140.28 528.122 1144.78 572.999L1147 572.777ZM1288.41 473.163C1336.83 490.864 1384.75 527.429 1423.07 572.283C1461.38 617.137 1490 670.188 1499.92 720.779L1502.1 720.351C1492.1 669.293 1463.25 615.903 1424.76 570.837C1386.26 525.77 1338.04 488.935 1289.17 471.071L1288.41 473.163ZM1499.92 720.779C1509.83 771.382 1499.13 809.706 1474.2 831.001C1449.26 852.296 1409.74 856.879 1361.31 839.174L1360.54 841.266C1409.4 859.126 1449.87 854.706 1475.64 832.695C1501.41 810.683 1512.1 771.397 1502.1 720.351L1499.92 720.779ZM1361.31 839.174C1361.18 839.126 1361.05 839.078 1360.91 839.03L1360.15 841.12C1360.28 841.169 1360.41 841.217 1360.54 841.266L1361.31 839.174Z" fill="url(#paint5_linear_12857_25137)" fill-opacity="0.3" mask="url(#path-5-inside-1_12857_25137)"/>
<g style="mix-blend-mode:lighten">
<ellipse cx="1251.67" cy="591.339" rx="331.859" ry="323.238" transform="rotate(-130.503 1251.67 591.339)" fill="url(#paint6_radial_12857_25137)" fill-opacity="0.6"/>
</g>
<g style="mix-blend-mode:lighten">
<path d="M710.075 582.243C639.518 339.346 815.333 193.422 1102.77 256.313C1390.2 319.204 1680.41 567.094 1750.97 809.992C1821.53 1052.89 1645.71 1198.81 1358.28 1135.92C1070.84 1073.03 780.631 825.14 710.075 582.243Z" fill="url(#paint7_radial_12857_25137)" fill-opacity="0.8"/>
</g>
<path d="M1399.3 804.029C1418.58 895.082 1363.75 941.919 1276.83 908.642C1189.91 875.366 1103.82 774.577 1084.54 683.524C1065.26 592.471 1120.09 545.634 1207.01 578.91C1293.93 612.187 1380.03 712.976 1399.3 804.029Z" fill="url(#paint8_radial_12857_25137)"/>
<path d="M1080.33 1264.95C931.198 1286.31 814.367 1247.27 745.898 1167.11C677.429 1086.95 657.134 965.455 701.54 821.491C745.947 677.522 846.625 538.471 973.541 430.063C1100.46 321.655 1253.54 243.952 1402.68 222.598C1551.81 201.244 1668.65 240.283 1737.11 320.441C1805.58 400.6 1825.88 522.097 1781.47 666.061C1737.07 810.03 1636.39 949.082 1509.47 1057.49C1382.56 1165.9 1229.48 1243.6 1080.33 1264.95Z" stroke="url(#paint9_linear_12857_25137)" stroke-width="1.85602"/>
<path d="M2183.56 806.047C2198.86 741.448 2186.35 688.728 2154 655.595C2121.64 622.461 2069.23 608.707 2004.29 622.471C1939.34 636.235 1874.28 674.901 1821.61 726.33C1768.95 777.759 1728.75 841.883 1713.45 906.487C1698.15 971.086 1710.66 1023.81 1743.01 1056.94C1775.37 1090.07 1827.78 1103.83 1892.72 1090.06C1957.67 1076.3 2022.73 1037.63 2075.39 986.205C2128.06 934.776 2168.26 870.651 2183.56 806.047Z" stroke="url(#paint10_linear_12857_25137)" stroke-width="1.85602"/>
<path d="M1020.78 1245.75C871.471 1267.13 754.354 1228.06 685.674 1147.65C616.994 1067.25 596.714 945.464 641.171 801.332C685.628 657.2 786.402 518.036 913.399 409.558C1040.4 301.081 1193.6 223.302 1342.91 201.923C1492.22 180.544 1609.34 219.614 1678.02 300.019C1746.7 380.424 1766.98 502.209 1722.52 646.34C1678.07 790.473 1577.29 929.637 1450.29 1038.11C1323.3 1146.59 1170.09 1224.37 1020.78 1245.75Z" stroke="url(#paint11_linear_12857_25137)" stroke-width="0.371203"/>
<path d="M1029 1336.09C854.374 1357.69 716.151 1308.68 633.724 1212.18C551.296 1115.68 524.501 971.497 573.13 802.39C621.761 633.275 736.595 471.363 882.985 346.321C1029.37 221.279 1207.25 133.168 1381.89 111.572C1556.52 89.978 1694.74 138.984 1777.17 235.484C1859.59 331.983 1886.39 476.168 1837.76 645.275C1789.13 814.39 1674.3 976.302 1527.91 1101.34C1381.52 1226.39 1203.64 1314.5 1029 1336.09Z" stroke="url(#paint12_linear_12857_25137)" stroke-width="1.85602"/>
<path d="M1029 1336.09C854.374 1357.69 716.151 1308.68 633.724 1212.18C551.296 1115.68 524.501 971.497 573.13 802.39C621.761 633.275 736.595 471.363 882.985 346.321C1029.37 221.279 1207.25 133.168 1381.89 111.572C1556.52 89.978 1694.74 138.984 1777.17 235.484C1859.59 331.983 1886.39 476.168 1837.76 645.275C1789.13 814.39 1674.3 976.302 1527.91 1101.34C1381.52 1226.39 1203.64 1314.5 1029 1336.09Z" stroke="url(#paint13_linear_12857_25137)" stroke-opacity="0.2" stroke-width="1.85602"/>
<path d="M2173.49 794.687C2189.92 718.894 2173.89 656.364 2134.9 616.435C2095.9 576.507 2033.77 558.999 1957.61 573.619C1881.44 588.241 1805.77 632.219 1745.02 691.544C1684.27 750.87 1638.51 825.477 1622.08 901.278C1605.66 977.07 1621.69 1039.6 1660.68 1079.53C1699.67 1119.46 1761.81 1136.96 1837.97 1122.34C1914.14 1107.72 1989.81 1063.74 2050.56 1004.42C2111.31 945.094 2157.07 870.487 2173.49 794.687Z" stroke="url(#paint14_linear_12857_25137)" stroke-width="1.85602"/>
<path d="M2173.49 794.687C2189.92 718.894 2173.89 656.364 2134.9 616.435C2095.9 576.507 2033.77 558.999 1957.61 573.619C1881.44 588.241 1805.77 632.219 1745.02 691.544C1684.27 750.87 1638.51 825.477 1622.08 901.278C1605.66 977.07 1621.69 1039.6 1660.68 1079.53C1699.67 1119.46 1761.81 1136.96 1837.97 1122.34C1914.14 1107.72 1989.81 1063.74 2050.56 1004.42C2111.31 945.094 2157.07 870.487 2173.49 794.687Z" stroke="url(#paint15_linear_12857_25137)" stroke-opacity="0.2" stroke-width="1.85602"/>
<path d="M991.388 1317.93C809.954 1331.55 662.757 1272.1 571.362 1165.1C479.966 1058.11 444.264 903.425 486.078 726.351C527.895 549.266 639.315 383.377 785.69 258.347C932.065 133.317 1113.33 49.201 1294.78 35.5816C1476.21 21.9632 1623.41 81.408 1714.8 188.407C1806.2 295.405 1841.9 450.086 1800.09 627.159C1758.27 804.245 1646.85 970.134 1500.48 1095.16C1354.1 1220.19 1172.83 1304.31 991.388 1317.93Z" stroke="url(#paint16_linear_12857_25137)" stroke-width="1.85602"/>
<path d="M2166.12 787.187C2179.31 708.095 2159.07 641.187 2115.8 596.88C2072.53 552.574 2006.12 530.748 1926.74 542.06C1847.35 553.373 1770.07 595.69 1709.34 655.002C1648.6 714.314 1604.46 790.563 1591.27 869.667C1578.08 948.758 1598.32 1015.67 1641.59 1059.97C1684.85 1104.28 1751.26 1126.11 1830.65 1114.79C1910.04 1103.48 1987.32 1061.16 2048.05 1001.85C2108.79 942.54 2152.93 866.291 2166.12 787.187Z" stroke="url(#paint17_linear_12857_25137)" stroke-width="1.85602"/>
<rect width="7.04868" height="7.04868" transform="matrix(0.0784072 -0.996921 0.996922 0.0784049 946.294 610.583)" fill="#00F0FF" fill-opacity="0.5"/>
<rect x="946.582" y="326.189" width="2.90641" height="2.9064" transform="rotate(-85.5031 946.582 326.189)" fill="#00F0FF"/>
<rect width="3.81688" height="3.81688" transform="matrix(-0.0784021 0.996922 0.996921 0.0784101 1536.18 272.578)" fill="#00F0FF"/>
<rect width="4.3956" height="4.3956" transform="matrix(0.0784052 -0.996921 0.996922 0.078407 1074.31 249.947)" fill="#00F0FF"/>
<rect width="2.60505" height="2.60505" transform="matrix(0.0784076 -0.996921 0.996922 0.0784045 1086.93 314.013)" fill="#00F0FF"/>
<rect x="1074.42" y="730.332" width="7.04868" height="7.04868" transform="rotate(-85.503 1074.42 730.332)" fill="#00F0FF"/>
<rect x="871.033" y="855.634" width="7.04868" height="7.04868" transform="rotate(-85.503 871.033 855.634)" fill="#0500FF" fill-opacity="0.5"/>
<rect width="4.92631" height="4.92631" transform="matrix(0.0784051 -0.996921 0.996922 0.078407 814.112 639.049)" fill="#3DFFFB"/>
<rect width="9.16329" height="9.16329" transform="matrix(0.0784044 -0.996921 0.996922 0.0784078 1389.9 953.472)" fill="#0500FF" fill-opacity="0.5"/>
<rect width="9.7837" height="9.7837" transform="matrix(0.0784114 -0.996921 0.996922 0.0784008 1825.29 783.914)" fill="#0066FF" fill-opacity="0.5"/>
<rect width="9.19447" height="9.19448" transform="matrix(-0.0784041 0.996922 0.996921 0.078408 1680.18 294.277)" fill="#0066FF" fill-opacity="0.5"/>
<rect width="6.84949" height="6.84949" transform="matrix(0.0783963 -0.996922 0.996921 0.0784158 1689.4 898.536)" fill="#0500FF" fill-opacity="0.5"/>
<rect x="1717.54" y="984.074" width="12.7406" height="12.7406" transform="rotate(-85.5031 1717.54 984.074)" fill="#0500FF" fill-opacity="0.5"/>
<rect width="8.37955" height="8.37955" transform="matrix(-0.958332 -0.285658 0.285695 -0.95832 1528.64 575.859)" fill="#0066FF" fill-opacity="0.5"/>
<rect width="6.55544" height="6.55544" transform="matrix(-0.996921 -0.0784131 0.0783991 -0.996922 1327.16 464.439)" fill="#00D1FF"/>
<rect width="7.87489" height="7.87489" transform="matrix(0.958326 0.285676 0.285677 -0.958326 1076.07 608.147)" fill="#001AFF" fill-opacity="0.5"/>
<rect width="8.37955" height="8.37955" transform="matrix(-0.958326 -0.285675 0.285678 -0.958326 1095.87 415.263)" fill="#0066FF" fill-opacity="0.5"/>
<rect width="8.37955" height="8.37955" transform="matrix(-0.958333 -0.285654 0.285699 -0.95832 1680.1 505.577)" fill="#0066FF" fill-opacity="0.5"/>
<rect width="6.05829" height="6.05829" transform="matrix(-0.996921 -0.0784066 0.0784056 -0.996922 1395.17 281.611)" fill="#0500FF" fill-opacity="0.5"/>
<rect width="5.86246" height="5.86246" transform="matrix(-0.958335 -0.285648 0.285705 -0.958318 1561.08 690.898)" fill="#0500FF" fill-opacity="0.5"/>
<rect width="10.9046" height="10.9046" transform="matrix(-0.958327 -0.285674 0.285679 -0.958325 1680.33 682.699)" fill="#0500FF" fill-opacity="0.5"/>
<rect width="4.69447" height="4.69447" transform="matrix(0.0784153 -0.996921 0.996922 0.078397 1006.01 618.235)" fill="#00FFF0" fill-opacity="0.6"/>
<rect width="5.28885" height="5.28885" transform="matrix(0.0784076 -0.996921 0.996922 0.0784047 964.72 927.859)" fill="#00FFF0"/>
<rect width="5.83952" height="5.83952" transform="matrix(-0.078406 0.996921 0.996922 0.0784063 788.07 557.757)" fill="#00FFF0"/>
<rect x="926.85" y="475.04" width="6.21375" height="6.21375" transform="rotate(-85.5031 926.85 475.04)" fill="#00FFF0"/>
<rect width="6.21375" height="6.21375" transform="matrix(0.0783978 -0.996922 0.996921 0.0784144 1379.76 718.324)" fill="#00FFF0" fill-opacity="0.5"/>
<rect width="3.40632" height="3.40633" transform="matrix(0.0784053 -0.996921 0.996922 0.0784069 1239.21 792.586)" fill="#00FFF0" fill-opacity="0.5"/>
<rect width="6.21375" height="6.21375" transform="matrix(-0.512234 -0.858846 0.858842 -0.51224 1084.94 1002.69)" fill="#0500FF" fill-opacity="0.5"/>
<rect width="4.33834" height="4.33834" transform="matrix(0.078405 -0.996921 0.996921 0.0784073 1021.96 860.304)" fill="#00D1FF" fill-opacity="0.6"/>
<rect width="11.6908" height="11.6909" transform="matrix(0.0784068 -0.996921 0.996922 0.0784054 1087.55 895.048)" fill="#6100FF" fill-opacity="0.5"/>
<g opacity="0.5">
<rect x="790.884" y="451.873" width="4.69447" height="4.69447" transform="rotate(-85.503 790.884 451.873)" fill="#00FFF0" fill-opacity="0.6"/>
<rect width="5.28885" height="5.28885" transform="matrix(0.0784155 -0.996921 0.996922 0.0783967 773.197 761.497)" fill="#00FFF0"/>
<rect width="5.28885" height="5.28885" transform="matrix(0.0784152 -0.996921 0.996922 0.078397 1831.16 927.583)" fill="#00FFF0"/>
<rect width="5.28885" height="5.28885" transform="matrix(0.0784152 -0.996921 0.996922 0.0783971 1476.55 421.243)" fill="#00FFF0"/>
<rect width="5.28885" height="5.28885" transform="matrix(0.0784144 -0.996921 0.996922 0.0783979 1592.57 603.41)" fill="#00FFF0"/>
<rect width="5.83952" height="5.83952" transform="matrix(-0.0784052 0.996921 0.996921 0.078407 552.702 391.402)" fill="#00FFF0"/>
<rect width="6.21375" height="6.21375" transform="matrix(0.0783986 -0.996922 0.996921 0.0784137 671.028 308.679)" fill="#00FFF0"/>
<rect x="1123.79" y="551.962" width="6.21375" height="6.21375" transform="rotate(-85.503 1123.79 551.962)" fill="#00FFF0" fill-opacity="0.5"/>
<rect width="3.40633" height="3.40632" transform="matrix(0.0784037 -0.996922 0.996921 0.0784086 962.769 626.224)" fill="#00FFF0" fill-opacity="0.5"/>
<rect width="6.21375" height="6.21375" transform="matrix(-0.512234 -0.858846 0.858842 -0.51224 851.644 836.333)" fill="#0500FF" fill-opacity="0.5"/>
<rect width="4.33834" height="4.33834" transform="matrix(0.078408 -0.996921 0.996922 0.0784042 788.07 693.941)" fill="#00D1FF" fill-opacity="0.6"/>
<rect width="11.6908" height="11.6908" transform="matrix(0.0784022 -0.996922 0.996921 0.07841 830.66 728.692)" fill="#6100FF" fill-opacity="0.5"/>
</g>
<path d="M1403.85 744.598L1425.63 706.301L1447.41 744.598L1425.63 782.895L1403.85 744.598Z" fill="url(#paint18_linear_12857_25137)"/>
<path d="M1404.78 744.601L1383 706.304L1306.24 744.596L1404.78 744.601Z" fill="url(#paint19_linear_12857_25137)"/>
<path d="M1404.77 744.607L1383.04 782.927L1306.23 744.603L1404.77 744.607Z" fill="url(#paint20_linear_12857_25137)"/>
<path d="M1605.29 848.283L1586.54 816.566L1623.38 816.663L1642.14 848.38L1605.29 848.283Z" fill="url(#paint21_linear_12857_25137)"/>
<path d="M1623.39 816.671L1586.54 816.573L1582.45 888.203L1623.39 816.671Z" fill="url(#paint22_linear_12857_25137)" fill-opacity="0.6"/>
<path d="M1623.38 816.67L1642.18 848.363L1582.45 888.202L1623.38 816.67Z" fill="url(#paint23_linear_12857_25137)"/>
<path d="M979.585 769.128L995.035 755.103L994.739 731.755L979.208 721.046L970.053 744.054L979.585 769.128Z" fill="url(#paint24_linear_12857_25137)" fill-opacity="0.7"/>
<path d="M1070.27 744.851L1017.29 719.664L995.554 705.716L1070.27 744.851Z" fill="url(#paint25_linear_12857_25137)" fill-opacity="0.8"/>
<path d="M1070.28 744.851L1017.77 764.188L996.323 783.337L1070.28 744.851Z" fill="url(#paint26_linear_12857_25137)"/>
<path d="M996.331 783.334L1017.78 764.173L995.036 755.101L979.582 769.129L996.331 783.334Z" fill="url(#paint27_linear_12857_25137)" fill-opacity="0.6"/>
<path d="M1017.29 719.67L1017.77 764.177L995.029 755.105L994.734 731.76L1017.29 719.67Z" fill="url(#paint28_linear_12857_25137)" fill-opacity="0.6"/>
<path d="M1017.3 719.665L995.555 705.72L979.206 721.049L994.737 731.757L1017.3 719.665Z" fill="url(#paint29_linear_12857_25137)" fill-opacity="0.8"/>
<path d="M1070.27 744.851L980.969 742.935L995.554 705.716L1070.27 744.851Z" fill="url(#paint30_linear_12857_25137)"/>
<path d="M1070.27 744.853L980.971 742.939L996.321 783.34L1070.27 744.853Z" fill="url(#paint31_linear_12857_25137)"/>
<path d="M995.557 705.716L980.967 742.936L970.048 744.057L979.214 721.04L995.557 705.716Z" fill="url(#paint32_linear_12857_25137)" fill-opacity="0.6"/>
<path d="M996.336 783.338L980.974 742.937L970.05 744.053L979.59 769.135L996.336 783.338Z" fill="url(#paint33_linear_12857_25137)" fill-opacity="0.6"/>
<path d="M1712.93 686.891L1765.03 733.082L1711.45 741.031L1712.93 686.891Z" fill="url(#paint34_linear_12857_25137)"/>
<path d="M1693.31 686.891L1745.41 733.082L1807.23 610.87L1693.31 686.891Z" fill="url(#paint35_linear_12857_25137)"/>
<path d="M1617.56 722.661L1690.31 741.019L1691.76 686.891L1617.56 722.661Z" fill="url(#paint36_linear_12857_25137)"/>
<path d="M1717.24 811.032L1690.3 741.016L1617.57 722.665L1591.58 753.077L1624.24 815.54L1690.16 840.472L1717.24 811.032Z" fill="url(#paint37_linear_12857_25137)" fill-opacity="0.5"/>
<path d="M1683.32 801.372L1745.69 798.711L1743.87 733.08L1691.76 686.889L1626.39 692.943L1631.22 755.181L1683.32 801.372Z" fill="url(#paint38_radial_12857_25137)" fill-opacity="0.5"/>
<path d="M1631.22 755.179L1683.32 801.371L1624.23 815.54L1631.22 755.179Z" fill="url(#paint39_linear_12857_25137)"/>
<path d="M1673.84 755.182L1725.95 801.374L1848.31 610.868L1673.84 755.182Z" fill="url(#paint40_linear_12857_25137)" fill-opacity="0.9"/>
<path d="M1690.17 840.472L1683.32 801.373L1624.23 815.542L1690.17 840.472Z" fill="url(#paint41_linear_12857_25137)" fill-opacity="0.5"/>
<path d="M1591.58 753.072L1631.22 755.18L1624.23 815.546L1591.58 753.072Z" fill="url(#paint42_linear_12857_25137)" fill-opacity="0.5"/>
<path d="M1691.71 840.476L1684.87 801.376L1747.24 798.716L1691.71 840.476Z" fill="url(#paint43_linear_12857_25137)"/>
<path d="M1591.58 753.072L1631.22 755.18L1626.39 692.941L1591.58 753.072Z" fill="url(#paint44_linear_12857_25137)"/>
<path d="M1591.58 753.072L1631.22 755.18L1626.39 692.941L1591.58 753.072Z" fill="url(#paint45_linear_12857_25137)" fill-opacity="0.6"/>
<path d="M1828.68 610.866L1706.32 801.375L1768.69 798.714L1828.68 610.866Z" fill="url(#paint46_linear_12857_25137)" fill-opacity="0.9"/>
<path d="M1805.68 610.864L1631.21 755.176L1626.38 692.938L1805.68 610.864Z" fill="url(#paint47_linear_12857_25137)" fill-opacity="0.9"/>
<g filter="url(#filter0_d_12857_25137)">
<path d="M925.91 449.129V465.911H943.983V539.495H964.896V449.129H925.91Z" fill="#23C865"/>
<path d="M1014.16 541.044C1036.49 541.044 1052.89 524.133 1052.89 494.312C1052.89 464.491 1036.49 447.58 1014.16 447.58C991.955 447.58 975.431 464.491 975.431 494.312C975.431 524.133 991.955 541.044 1014.16 541.044ZM1014.16 523.358C1003.83 523.358 996.602 514.838 996.602 494.312C996.602 473.786 1003.83 465.266 1014.16 465.266C1024.62 465.266 1031.85 473.786 1031.85 494.312C1031.85 514.838 1024.62 523.358 1014.16 523.358Z" fill="#23C865"/>
<path d="M1096.61 541.044C1118.95 541.044 1135.34 524.133 1135.34 494.312C1135.34 464.491 1118.95 447.58 1096.61 447.58C1074.41 447.58 1057.88 464.491 1057.88 494.312C1057.88 524.133 1074.41 541.044 1096.61 541.044ZM1096.61 523.358C1086.29 523.358 1079.06 514.838 1079.06 494.312C1079.06 473.786 1086.29 465.266 1096.61 465.266C1107.07 465.266 1114.3 473.786 1114.3 494.312C1114.3 514.838 1107.07 523.358 1096.61 523.358Z" fill="#23C865"/>
<path d="M1150.71 515.483C1143.61 515.483 1138.18 520.389 1138.18 527.877C1138.18 533.169 1140.89 537.171 1145.16 538.85L1139.47 559.376H1152.26L1159.61 540.786C1162.58 533.686 1163.1 531.233 1163.1 527.877C1163.1 520.518 1157.94 515.483 1150.71 515.483Z" fill="#23C865"/>
<path d="M1204.41 541.044C1226.75 541.044 1243.14 524.133 1243.14 494.312C1243.14 464.491 1226.75 447.58 1204.41 447.58C1182.21 447.58 1165.68 464.491 1165.68 494.312C1165.68 524.133 1182.21 541.044 1204.41 541.044ZM1204.41 523.358C1194.09 523.358 1186.86 514.838 1186.86 494.312C1186.86 473.786 1194.09 465.266 1204.41 465.266C1214.87 465.266 1222.1 473.786 1222.1 494.312C1222.1 514.838 1214.87 523.358 1204.41 523.358Z" fill="#23C865"/>
<path d="M1286.87 541.044C1309.2 541.044 1325.6 524.133 1325.6 494.312C1325.6 464.491 1309.2 447.58 1286.87 447.58C1264.66 447.58 1248.14 464.491 1248.14 494.312C1248.14 524.133 1264.66 541.044 1286.87 541.044ZM1286.87 523.358C1276.54 523.358 1269.31 514.838 1269.31 494.312C1269.31 473.786 1276.54 465.266 1286.87 465.266C1297.32 465.266 1304.55 473.786 1304.55 494.312C1304.55 514.838 1297.32 523.358 1286.87 523.358Z" fill="#23C865"/>
<path d="M1369.32 541.044C1391.65 541.044 1408.05 524.133 1408.05 494.312C1408.05 464.491 1391.65 447.58 1369.32 447.58C1347.12 447.58 1330.59 464.491 1330.59 494.312C1330.59 524.133 1347.12 541.044 1369.32 541.044ZM1369.32 523.358C1358.99 523.358 1351.76 514.838 1351.76 494.312C1351.76 473.786 1358.99 465.266 1369.32 465.266C1379.78 465.266 1387.01 473.786 1387.01 494.312C1387.01 514.838 1379.78 523.358 1369.32 523.358Z" fill="#23C865"/>
<path d="M1423.41 515.483C1416.31 515.483 1410.89 520.389 1410.89 527.877C1410.89 533.169 1413.6 537.171 1417.86 538.85L1412.18 559.376H1424.96L1432.32 540.786C1435.29 533.686 1435.81 531.233 1435.81 527.877C1435.81 520.518 1430.64 515.483 1423.41 515.483Z" fill="#23C865"/>
<path d="M1477.12 541.044C1499.45 541.044 1515.85 524.133 1515.85 494.312C1515.85 464.491 1499.45 447.58 1477.12 447.58C1454.92 447.58 1438.39 464.491 1438.39 494.312C1438.39 524.133 1454.92 541.044 1477.12 541.044ZM1477.12 523.358C1466.79 523.358 1459.56 514.838 1459.56 494.312C1459.56 473.786 1466.79 465.266 1477.12 465.266C1487.58 465.266 1494.81 473.786 1494.81 494.312C1494.81 514.838 1487.58 523.358 1477.12 523.358Z" fill="#23C865"/>
<path d="M1559.57 541.044C1581.91 541.044 1598.3 524.133 1598.3 494.312C1598.3 464.491 1581.91 447.58 1559.57 447.58C1537.37 447.58 1520.85 464.491 1520.85 494.312C1520.85 524.133 1537.37 541.044 1559.57 541.044ZM1559.57 523.358C1549.25 523.358 1542.02 514.838 1542.02 494.312C1542.02 473.786 1549.25 465.266 1559.57 465.266C1570.03 465.266 1577.26 473.786 1577.26 494.312C1577.26 514.838 1570.03 523.358 1559.57 523.358Z" fill="#23C865"/>
<path d="M1642.03 541.044C1664.36 541.044 1680.76 524.133 1680.76 494.312C1680.76 464.491 1664.36 447.58 1642.03 447.58C1619.82 447.58 1603.3 464.491 1603.3 494.312C1603.3 524.133 1619.82 541.044 1642.03 541.044ZM1642.03 523.358C1631.7 523.358 1624.47 514.838 1624.47 494.312C1624.47 473.786 1631.7 465.266 1642.03 465.266C1652.49 465.266 1659.72 473.786 1659.72 494.312C1659.72 514.838 1652.49 523.358 1642.03 523.358Z" fill="#23C865"/>
</g>
<g filter="url(#filter1_d_12857_25137)">
<path fill-rule="evenodd" clip-rule="evenodd" d="M923.765 446.983H967.042V541.641H941.838V468.056H923.765V446.983ZM925.91 465.911V449.129H964.897V539.495H943.983V465.911H925.91ZM1043.52 530.266C1036.19 538.727 1025.9 543.19 1014.16 543.19C1002.48 543.19 992.191 538.725 984.849 530.267C977.527 521.833 973.286 509.609 973.286 494.312C973.286 479.015 977.527 466.79 984.849 458.356C992.191 449.898 1002.48 445.434 1014.16 445.434C1025.9 445.434 1036.19 449.897 1043.52 458.358C1050.83 466.794 1055.03 479.019 1055.03 494.312C1055.03 509.605 1050.83 521.83 1043.52 530.266ZM1003.3 515.351C1005.98 519.418 1009.68 521.213 1014.16 521.213C1018.71 521.213 1022.44 519.41 1025.14 515.347C1027.92 511.153 1029.7 504.381 1029.7 494.312C1029.7 484.243 1027.92 477.471 1025.14 473.277C1022.44 469.213 1018.71 467.411 1014.16 467.411C1009.68 467.411 1005.98 469.205 1003.3 473.273C1000.53 477.468 998.748 484.244 998.748 494.312C998.748 504.38 1000.53 511.155 1003.3 515.351ZM1125.97 530.266C1118.65 538.727 1108.35 543.19 1096.61 543.19C1084.94 543.19 1074.65 538.725 1067.3 530.267C1059.98 521.833 1055.74 509.609 1055.74 494.312C1055.74 479.015 1059.98 466.79 1067.3 458.356C1074.65 449.898 1084.94 445.434 1096.61 445.434C1108.35 445.434 1118.65 449.897 1125.97 458.358C1133.28 466.794 1137.49 479.019 1137.49 494.312C1137.49 509.605 1133.28 521.83 1125.97 530.266ZM1085.75 515.351C1088.44 519.418 1092.14 521.213 1096.61 521.213C1101.16 521.213 1104.89 519.41 1107.59 515.347C1110.37 511.153 1112.15 504.381 1112.15 494.312C1112.15 484.243 1110.37 477.471 1107.59 473.277C1104.89 469.213 1101.16 467.411 1096.61 467.411C1092.14 467.411 1088.44 469.205 1085.75 473.273C1082.99 477.468 1081.2 484.244 1081.2 494.312C1081.2 504.38 1082.99 511.155 1085.75 515.351ZM1145.16 538.85C1140.9 537.171 1138.18 533.169 1138.18 527.877C1138.18 520.389 1143.61 515.483 1150.71 515.483C1157.94 515.483 1163.1 520.518 1163.1 527.877C1163.1 531.233 1162.58 533.686 1159.61 540.786L1152.26 559.376H1139.48L1145.16 538.85ZM1161.6 541.595C1164.6 534.421 1165.25 531.656 1165.25 527.877C1165.25 523.68 1163.76 520.016 1161.13 517.398C1158.49 514.782 1154.83 513.338 1150.71 513.338C1146.66 513.338 1142.98 514.742 1140.29 517.328C1137.6 519.923 1136.04 523.592 1136.04 527.877C1136.04 533.24 1138.5 537.64 1142.61 540.001L1136.66 561.521H1153.71L1161.6 541.595ZM1233.77 530.266C1226.45 538.727 1216.15 543.19 1204.41 543.19C1192.73 543.19 1182.44 538.725 1175.1 530.267C1167.78 521.833 1163.54 509.609 1163.54 494.312C1163.54 479.015 1167.78 466.79 1175.1 458.356C1182.44 449.898 1192.73 445.434 1204.41 445.434C1216.15 445.434 1226.45 449.897 1233.77 458.358C1241.08 466.794 1245.29 479.019 1245.29 494.312C1245.29 509.605 1241.08 521.83 1233.77 530.266ZM1193.55 515.351C1196.24 519.418 1199.94 521.213 1204.41 521.213C1208.96 521.213 1212.69 519.41 1215.39 515.347C1218.17 511.153 1219.95 504.381 1219.95 494.312C1219.95 484.243 1218.17 477.471 1215.39 473.277C1212.69 469.213 1208.96 467.411 1204.41 467.411C1199.94 467.411 1196.24 469.205 1193.55 473.273C1190.78 477.468 1189 484.244 1189 494.312C1189 504.38 1190.78 511.155 1193.55 515.351ZM1316.23 530.266C1308.9 538.727 1298.61 543.19 1286.87 543.19C1275.19 543.19 1264.9 538.725 1257.56 530.267C1250.23 521.833 1245.99 509.609 1245.99 494.312C1245.99 479.015 1250.23 466.79 1257.56 458.356C1264.9 449.898 1275.19 445.434 1286.87 445.434C1298.61 445.434 1308.9 449.897 1316.23 458.358C1323.53 466.794 1327.74 479.019 1327.74 494.312C1327.74 509.605 1323.53 521.83 1316.23 530.266ZM1276.01 515.351C1278.69 519.418 1282.39 521.213 1286.87 521.213C1291.42 521.213 1295.15 519.41 1297.84 515.347C1300.62 511.153 1302.41 504.381 1302.41 494.312C1302.41 484.243 1300.62 477.471 1297.84 473.277C1295.15 469.213 1291.42 467.411 1286.87 467.411C1282.39 467.411 1278.69 469.205 1276.01 473.273C1273.24 477.468 1271.46 484.244 1271.46 494.312C1271.46 504.38 1273.24 511.155 1276.01 515.351ZM1398.68 530.266C1391.35 538.727 1381.06 543.19 1369.32 543.19C1357.64 543.19 1347.35 538.725 1340.01 530.267C1332.69 521.833 1328.45 509.609 1328.45 494.312C1328.45 479.015 1332.69 466.79 1340.01 458.356C1347.35 449.898 1357.64 445.434 1369.32 445.434C1381.06 445.434 1391.35 449.897 1398.68 458.358C1405.99 466.794 1410.2 479.019 1410.2 494.312C1410.2 509.605 1405.99 521.83 1398.68 530.266ZM1358.46 515.351C1361.14 519.418 1364.85 521.213 1369.32 521.213C1373.87 521.213 1377.6 519.41 1380.3 515.347C1383.08 511.153 1384.86 504.381 1384.86 494.312C1384.86 484.243 1383.08 477.471 1380.3 473.277C1377.6 469.213 1373.87 467.411 1369.32 467.411C1364.85 467.411 1361.14 469.205 1358.46 473.273C1355.69 477.468 1353.91 484.244 1353.91 494.312C1353.91 504.38 1355.69 511.155 1358.46 515.351ZM1417.86 538.85C1413.6 537.171 1410.89 533.169 1410.89 527.877C1410.89 520.389 1416.31 515.483 1423.41 515.483C1430.64 515.483 1435.81 520.518 1435.81 527.877C1435.81 531.233 1435.29 533.686 1432.32 540.786L1424.96 559.376H1412.18L1417.86 538.85ZM1434.31 541.596C1437.31 534.421 1437.95 531.656 1437.95 527.877C1437.95 523.68 1436.47 520.016 1433.83 517.398C1431.2 514.782 1427.54 513.338 1423.41 513.338C1419.37 513.338 1415.68 514.742 1413 517.328C1410.31 519.923 1408.75 523.592 1408.75 527.877C1408.75 533.24 1411.21 537.64 1415.32 540.001L1409.36 561.521H1426.42L1434.3 541.614C1434.3 541.608 1434.31 541.602 1434.31 541.596ZM1506.48 530.266C1499.15 538.727 1488.86 543.19 1477.12 543.19C1465.44 543.19 1455.15 538.725 1447.81 530.267C1440.49 521.833 1436.25 509.609 1436.25 494.312C1436.25 479.015 1440.49 466.79 1447.81 458.356C1455.15 449.898 1465.44 445.434 1477.12 445.434C1488.86 445.434 1499.15 449.897 1506.48 458.358C1513.79 466.794 1517.99 479.019 1517.99 494.312C1517.99 509.605 1513.79 521.83 1506.48 530.266ZM1466.26 515.351C1468.94 519.418 1472.65 521.213 1477.12 521.213C1481.67 521.213 1485.4 519.41 1488.1 515.347C1490.88 511.153 1492.66 504.381 1492.66 494.312C1492.66 484.243 1490.88 477.471 1488.1 473.277C1485.4 469.213 1481.67 467.411 1477.12 467.411C1472.65 467.411 1468.94 469.205 1466.26 473.273C1463.49 477.468 1461.71 484.244 1461.71 494.312C1461.71 504.38 1463.49 511.155 1466.26 515.351ZM1588.94 530.266C1581.61 538.727 1571.32 543.19 1559.58 543.19C1547.9 543.19 1537.61 538.725 1530.26 530.267C1522.94 521.833 1518.7 509.609 1518.7 494.312C1518.7 479.015 1522.94 466.79 1530.26 458.356C1537.61 449.898 1547.9 445.434 1559.58 445.434C1571.32 445.434 1581.61 449.897 1588.94 458.358C1596.24 466.794 1600.45 479.019 1600.45 494.312C1600.45 509.605 1596.24 521.83 1588.94 530.266ZM1548.71 515.351C1551.4 519.418 1555.1 521.213 1559.58 521.213C1564.12 521.213 1567.86 519.41 1570.55 515.347C1573.33 511.153 1575.12 504.381 1575.12 494.312C1575.12 484.243 1573.33 477.471 1570.55 473.277C1567.86 469.213 1564.12 467.411 1559.58 467.411C1555.1 467.411 1551.4 469.205 1548.71 473.273C1545.95 477.468 1544.16 484.244 1544.16 494.312C1544.16 504.38 1545.95 511.155 1548.71 515.351ZM1671.39 530.266C1664.06 538.727 1653.77 543.19 1642.03 543.19C1630.35 543.19 1620.06 538.725 1612.72 530.267C1605.4 521.833 1601.16 509.609 1601.16 494.312C1601.16 479.015 1605.4 466.79 1612.72 458.356C1620.06 449.898 1630.35 445.434 1642.03 445.434C1653.77 445.434 1664.06 449.897 1671.39 458.358C1678.7 466.794 1682.9 479.019 1682.9 494.312C1682.9 509.605 1678.7 521.83 1671.39 530.266ZM1631.17 515.351C1633.85 519.418 1637.55 521.213 1642.03 521.213C1646.58 521.213 1650.31 519.41 1653.01 515.347C1655.79 511.153 1657.57 504.381 1657.57 494.312C1657.57 484.243 1655.79 477.471 1653.01 473.277C1650.31 469.213 1646.58 467.411 1642.03 467.411C1637.55 467.411 1633.85 469.205 1631.17 473.273C1628.4 477.468 1626.62 484.244 1626.62 494.312C1626.62 504.38 1628.4 511.155 1631.17 515.351ZM1052.89 494.312C1052.89 524.133 1036.49 541.044 1014.16 541.044C991.955 541.044 975.431 524.133 975.431 494.312C975.431 464.491 991.955 447.58 1014.16 447.58C1036.49 447.58 1052.89 464.491 1052.89 494.312ZM996.603 494.312C996.603 514.838 1003.83 523.358 1014.16 523.358C1024.62 523.358 1031.85 514.838 1031.85 494.312C1031.85 473.786 1024.62 465.266 1014.16 465.266C1003.83 465.266 996.603 473.786 996.603 494.312ZM1135.34 494.312C1135.34 524.133 1118.95 541.044 1096.61 541.044C1074.41 541.044 1057.89 524.133 1057.89 494.312C1057.89 464.491 1074.41 447.58 1096.61 447.58C1118.95 447.58 1135.34 464.491 1135.34 494.312ZM1079.06 494.312C1079.06 514.838 1086.29 523.358 1096.61 523.358C1107.07 523.358 1114.3 514.838 1114.3 494.312C1114.3 473.786 1107.07 465.266 1096.61 465.266C1086.29 465.266 1079.06 473.786 1079.06 494.312ZM1243.14 494.312C1243.14 524.133 1226.75 541.044 1204.41 541.044C1182.21 541.044 1165.68 524.133 1165.68 494.312C1165.68 464.491 1182.21 447.58 1204.41 447.58C1226.75 447.58 1243.14 464.491 1243.14 494.312ZM1186.86 494.312C1186.86 514.838 1194.09 523.358 1204.41 523.358C1214.87 523.358 1222.1 514.838 1222.1 494.312C1222.1 473.786 1214.87 465.266 1204.41 465.266C1194.09 465.266 1186.86 473.786 1186.86 494.312ZM1325.6 494.312C1325.6 524.133 1309.2 541.044 1286.87 541.044C1264.66 541.044 1248.14 524.133 1248.14 494.312C1248.14 464.491 1264.66 447.58 1286.87 447.58C1309.2 447.58 1325.6 464.491 1325.6 494.312ZM1269.31 494.312C1269.31 514.838 1276.54 523.358 1286.87 523.358C1297.32 523.358 1304.55 514.838 1304.55 494.312C1304.55 473.786 1297.32 465.266 1286.87 465.266C1276.54 465.266 1269.31 473.786 1269.31 494.312ZM1408.05 494.312C1408.05 524.133 1391.66 541.044 1369.32 541.044C1347.12 541.044 1330.59 524.133 1330.59 494.312C1330.59 464.491 1347.12 447.58 1369.32 447.58C1391.66 447.58 1408.05 464.491 1408.05 494.312ZM1351.76 494.312C1351.76 514.838 1358.99 523.358 1369.32 523.358C1379.78 523.358 1387.01 514.838 1387.01 494.312C1387.01 473.786 1379.78 465.266 1369.32 465.266C1358.99 465.266 1351.76 473.786 1351.76 494.312ZM1515.85 494.312C1515.85 524.133 1499.45 541.044 1477.12 541.044C1454.92 541.044 1438.39 524.133 1438.39 494.312C1438.39 464.491 1454.92 447.58 1477.12 447.58C1499.45 447.58 1515.85 464.491 1515.85 494.312ZM1459.56 494.312C1459.56 514.838 1466.79 523.358 1477.12 523.358C1487.58 523.358 1494.81 514.838 1494.81 494.312C1494.81 473.786 1487.58 465.266 1477.12 465.266C1466.79 465.266 1459.56 473.786 1459.56 494.312ZM1598.3 494.312C1598.3 524.133 1581.91 541.044 1559.58 541.044C1537.37 541.044 1520.85 524.133 1520.85 494.312C1520.85 464.491 1537.37 447.58 1559.58 447.58C1581.91 447.58 1598.3 464.491 1598.3 494.312ZM1542.02 494.312C1542.02 514.838 1549.25 523.358 1559.58 523.358C1570.03 523.358 1577.26 514.838 1577.26 494.312C1577.26 473.786 1570.03 465.266 1559.58 465.266C1549.25 465.266 1542.02 473.786 1542.02 494.312ZM1680.76 494.312C1680.76 524.133 1664.36 541.044 1642.03 541.044C1619.83 541.044 1603.3 524.133 1603.3 494.312C1603.3 464.491 1619.83 447.58 1642.03 447.58C1664.36 447.58 1680.76 464.491 1680.76 494.312ZM1624.47 494.312C1624.47 514.838 1631.7 523.358 1642.03 523.358C1652.49 523.358 1659.72 514.838 1659.72 494.312C1659.72 473.786 1652.49 465.266 1642.03 465.266C1631.7 465.266 1624.47 473.786 1624.47 494.312Z" fill="black"/>
</g>
<path d="M1539.44 581.674V567.674H1533.87V565.379H1547.78V567.674H1542.22V581.674H1539.44ZM1558.32 581.903C1556.64 581.903 1555.13 581.54 1553.79 580.813C1552.45 580.086 1551.39 579.092 1550.61 577.83C1549.84 576.548 1549.46 575.104 1549.46 573.498C1549.46 571.91 1549.84 570.486 1550.61 569.223C1551.39 567.961 1552.45 566.967 1553.79 566.24C1555.13 565.513 1556.64 565.15 1558.32 565.15C1560.03 565.15 1561.54 565.513 1562.86 566.24C1564.19 566.967 1565.25 567.961 1566.01 569.223C1566.8 570.486 1567.19 571.91 1567.19 573.498C1567.19 575.104 1566.8 576.548 1566.01 577.83C1565.25 579.092 1564.19 580.086 1562.86 580.813C1561.54 581.54 1560.03 581.903 1558.32 581.903ZM1558.32 579.494C1559.49 579.494 1560.52 579.235 1561.42 578.719C1562.34 578.203 1563.06 577.495 1563.57 576.596C1564.11 575.678 1564.38 574.655 1564.38 573.527C1564.38 572.36 1564.11 571.337 1563.57 570.457C1563.06 569.558 1562.34 568.85 1561.42 568.334C1560.52 567.818 1559.49 567.559 1558.32 567.559C1557.18 567.559 1556.14 567.818 1555.23 568.334C1554.31 568.831 1553.58 569.529 1553.04 570.428C1552.53 571.327 1552.27 572.36 1552.27 573.527C1552.27 574.655 1552.53 575.678 1553.04 576.596C1553.58 577.495 1554.31 578.203 1555.23 578.719C1556.14 579.235 1557.18 579.494 1558.32 579.494ZM1574.28 577.772L1574.13 574.473L1583.11 565.379H1586.21L1579.01 572.953L1577.46 574.559L1574.28 577.772ZM1571.81 581.674V565.379H1574.59V581.674H1571.81ZM1583.37 581.674L1576.89 574.1L1578.69 572.063L1586.67 581.674H1583.37ZM1592.5 572.264H1601.07V574.531H1592.5V572.264ZM1592.95 579.35H1602.39V581.674H1590.17V565.379H1602.08V567.674H1592.95V579.35ZM1607.11 581.674V565.379H1609.4L1619.87 578.231H1618.81V565.379H1621.59V581.674H1619.3L1608.8 568.822H1609.89V581.674H1607.11ZM1639.13 577.026C1639.13 578.021 1638.86 578.882 1638.33 579.608C1637.81 580.335 1637.05 580.899 1636.06 581.301C1635.08 581.703 1633.9 581.903 1632.5 581.903C1631.24 581.903 1630.01 581.731 1628.8 581.387C1627.62 581.024 1626.69 580.545 1626.02 579.953L1627.11 577.772C1627.76 578.289 1628.57 578.719 1629.55 579.063C1630.52 579.388 1631.55 579.551 1632.62 579.551C1633.99 579.551 1634.96 579.331 1635.51 578.891C1636.07 578.432 1636.35 577.897 1636.35 577.285C1636.35 576.749 1636.16 576.328 1635.8 576.022C1635.46 575.697 1634.99 575.449 1634.39 575.276C1633.8 575.085 1633.15 574.913 1632.44 574.76C1631.76 574.607 1631.06 574.435 1630.35 574.244C1629.66 574.052 1629.02 573.794 1628.43 573.469C1627.85 573.144 1627.39 572.704 1627.02 572.149C1626.66 571.576 1626.48 570.859 1626.48 569.998C1626.48 569.023 1626.74 568.171 1627.28 567.445C1627.82 566.718 1628.57 566.154 1629.55 565.752C1630.52 565.35 1631.69 565.15 1633.05 565.15C1634.04 565.15 1635.03 565.264 1636 565.494C1636.98 565.704 1637.82 566.058 1638.53 566.555L1637.52 568.793C1636.83 568.315 1636.09 567.98 1635.28 567.789C1634.5 567.598 1633.73 567.502 1632.96 567.502C1631.66 567.502 1630.71 567.732 1630.12 568.191C1629.55 568.63 1629.26 569.176 1629.26 569.826C1629.26 570.361 1629.44 570.792 1629.8 571.117C1630.17 571.423 1630.64 571.671 1631.21 571.863C1631.8 572.035 1632.45 572.197 1633.16 572.35C1633.87 572.503 1634.57 572.675 1635.26 572.867C1635.94 573.058 1636.58 573.316 1637.18 573.641C1637.77 573.966 1638.24 574.406 1638.58 574.961C1638.95 575.496 1639.13 576.185 1639.13 577.026Z" fill="#23C865"/>
<path d="M1176.6 210.628H1186.17V214.587H1176.6V210.628ZM1177.15 218.477H1187.72V222.642H1171.78V202.848H1187.34V207.013H1177.15V218.477ZM1189 222.642L1197.88 210.731L1197.85 214.483L1189.35 202.848H1195.47L1200.91 210.524H1198.33L1203.74 202.848H1209.69L1201.22 214.242V210.662L1210.07 222.642H1203.81L1198.26 214.621H1200.78L1195.23 222.642H1189ZM1221.56 223.021C1219.45 223.021 1217.56 222.585 1215.88 221.713C1214.23 220.818 1212.92 219.601 1211.96 218.064C1210.99 216.503 1210.51 214.736 1210.51 212.762C1210.51 210.765 1210.99 208.998 1211.96 207.461C1212.92 205.9 1214.23 204.684 1215.88 203.811C1217.56 202.916 1219.45 202.469 1221.56 202.469C1223.42 202.469 1225.05 202.756 1226.45 203.329C1227.87 203.88 1229.09 204.798 1230.1 206.084L1226.59 209.285C1225.92 208.482 1225.19 207.885 1224.38 207.495C1223.58 207.105 1222.71 206.91 1221.77 206.91C1220.64 206.91 1219.65 207.162 1218.77 207.667C1217.9 208.149 1217.21 208.826 1216.71 209.698C1216.23 210.57 1215.98 211.592 1215.98 212.762C1215.98 213.91 1216.23 214.919 1216.71 215.791C1217.21 216.664 1217.9 217.352 1218.77 217.857C1219.65 218.339 1220.64 218.58 1221.77 218.58C1222.71 218.58 1223.58 218.385 1224.38 217.995C1225.19 217.605 1225.92 217.008 1226.59 216.205L1230.1 219.406C1229.09 220.668 1227.87 221.586 1226.45 222.16C1225.05 222.734 1223.42 223.021 1221.56 223.021ZM1233.51 222.642V202.848H1238.95V218.408H1248.62V222.642H1233.51ZM1260.45 223.021C1258.5 223.021 1256.82 222.665 1255.42 221.954C1254.02 221.242 1252.94 220.221 1252.19 218.89C1251.45 217.536 1251.08 215.941 1251.08 214.105V202.848H1256.52V213.932C1256.52 215.47 1256.87 216.629 1257.56 217.409C1258.24 218.19 1259.23 218.58 1260.52 218.58C1261.8 218.58 1262.78 218.19 1263.44 217.409C1264.11 216.629 1264.44 215.47 1264.44 213.932V202.848H1269.81V214.105C1269.81 215.941 1269.44 217.536 1268.71 218.89C1267.98 220.221 1266.91 221.242 1265.51 221.954C1264.11 222.665 1262.42 223.021 1260.45 223.021ZM1290.42 216.618C1290.42 217.857 1290.06 218.959 1289.35 219.922C1288.66 220.886 1287.65 221.644 1286.32 222.195C1285.01 222.745 1283.39 223.021 1281.47 223.021C1279.88 223.021 1278.32 222.826 1276.78 222.436C1275.27 222.045 1274.04 221.529 1273.1 220.886L1274.99 216.859C1275.89 217.455 1276.93 217.926 1278.13 218.27C1279.32 218.614 1280.54 218.786 1281.78 218.786C1282.99 218.786 1283.84 218.614 1284.32 218.27C1284.81 217.926 1285.05 217.524 1285.05 217.065C1285.05 216.606 1284.83 216.239 1284.39 215.964C1283.98 215.688 1283.43 215.47 1282.74 215.31C1282.07 215.126 1281.33 214.954 1280.5 214.793C1279.7 214.632 1278.88 214.426 1278.06 214.173C1277.25 213.921 1276.51 213.588 1275.82 213.175C1275.15 212.739 1274.6 212.177 1274.17 211.488C1273.75 210.777 1273.55 209.893 1273.55 208.838C1273.55 207.598 1273.9 206.508 1274.62 205.567C1275.35 204.603 1276.38 203.846 1277.71 203.295C1279.04 202.744 1280.63 202.469 1282.46 202.469C1283.7 202.469 1284.97 202.607 1286.25 202.882C1287.54 203.157 1288.66 203.593 1289.62 204.19L1287.87 208.218C1286.97 207.667 1286.04 207.277 1285.08 207.047C1284.14 206.818 1283.2 206.703 1282.26 206.703C1281.11 206.703 1280.27 206.875 1279.74 207.22C1279.22 207.564 1278.95 208 1278.95 208.528C1278.95 208.987 1279.16 209.354 1279.57 209.629C1279.99 209.905 1280.53 210.134 1281.19 210.318C1281.88 210.478 1282.64 210.639 1283.46 210.8C1284.29 210.96 1285.1 211.167 1285.91 211.419C1286.71 211.649 1287.46 211.97 1288.14 212.383C1288.83 212.796 1289.38 213.347 1289.8 214.036C1290.21 214.701 1290.42 215.562 1290.42 216.618ZM1293.85 222.642V202.848H1299.29V222.642H1293.85ZM1310.36 222.642L1301.75 202.848H1307.54L1314.84 220.232H1311.5L1318.93 202.848H1324.34L1315.73 222.642H1310.36ZM1331.68 210.628H1341.25V214.587H1331.68V210.628ZM1332.24 218.477H1342.8V222.642H1326.86V202.848H1342.43V207.013H1332.24V218.477ZM1356.52 222.642V202.848H1365.54C1367.37 202.848 1368.94 203.146 1370.25 203.743C1371.58 204.316 1372.62 205.143 1373.35 206.221C1374.08 207.3 1374.45 208.608 1374.45 210.146C1374.45 211.637 1374.08 212.934 1373.35 214.036C1372.62 215.137 1371.58 215.975 1370.25 216.549C1368.94 217.123 1367.37 217.409 1365.54 217.409H1359.51L1361.96 215.034V222.642H1356.52ZM1361.96 215.654L1359.96 213.21H1365.16C1366.42 213.21 1367.37 212.946 1368.01 212.418C1368.66 211.867 1368.98 211.11 1368.98 210.146C1368.98 209.159 1368.66 208.401 1368.01 207.874C1367.37 207.346 1366.42 207.082 1365.16 207.082H1359.96L1361.96 204.638V215.654ZM1378.44 222.642V202.848H1387.46C1389.29 202.848 1390.86 203.146 1392.17 203.743C1393.5 204.316 1394.54 205.143 1395.27 206.221C1396 207.3 1396.37 208.608 1396.37 210.146C1396.37 211.637 1396 212.923 1395.27 214.001C1394.54 215.08 1393.5 215.906 1392.17 216.48C1390.86 217.054 1389.29 217.341 1387.46 217.341H1381.43L1383.87 215.034V222.642H1378.44ZM1390.9 222.642L1385.91 215.447H1391.69L1396.75 222.642H1390.9ZM1383.87 215.654L1381.88 213.21H1387.08C1388.34 213.21 1389.29 212.946 1389.93 212.418C1390.58 211.867 1390.9 211.11 1390.9 210.146C1390.9 209.159 1390.58 208.401 1389.93 207.874C1389.29 207.346 1388.34 207.082 1387.08 207.082H1381.88L1383.87 204.638V215.654ZM1405.41 210.628H1414.98V214.587H1405.41V210.628ZM1405.96 218.477H1416.53V222.642H1400.59V202.848H1416.15V207.013H1405.96V218.477ZM1419.63 215.103V210.8H1429.37V215.103H1419.63ZM1449.3 216.618C1449.3 217.857 1448.94 218.959 1448.23 219.922C1447.54 220.886 1446.53 221.644 1445.2 222.195C1443.89 222.745 1442.27 223.021 1440.35 223.021C1438.76 223.021 1437.2 222.826 1435.67 222.436C1434.15 222.045 1432.92 221.529 1431.98 220.886L1433.87 216.859C1434.77 217.455 1435.81 217.926 1437.01 218.27C1438.2 218.614 1439.42 218.786 1440.66 218.786C1441.87 218.786 1442.72 218.614 1443.2 218.27C1443.69 217.926 1443.93 217.524 1443.93 217.065C1443.93 216.606 1443.71 216.239 1443.27 215.964C1442.86 215.688 1442.31 215.47 1441.62 215.31C1440.96 215.126 1440.21 214.954 1439.38 214.793C1438.58 214.632 1437.76 214.426 1436.94 214.173C1436.14 213.921 1435.39 213.588 1434.7 213.175C1434.04 212.739 1433.48 212.177 1433.05 211.488C1432.64 210.777 1432.43 209.893 1432.43 208.838C1432.43 207.598 1432.78 206.508 1433.5 205.567C1434.23 204.603 1435.26 203.846 1436.59 203.295C1437.93 202.744 1439.51 202.469 1441.35 202.469C1442.58 202.469 1443.85 202.607 1445.13 202.882C1446.42 203.157 1447.54 203.593 1448.51 204.19L1446.75 208.218C1445.85 207.667 1444.93 207.277 1443.96 207.047C1443.02 206.818 1442.08 206.703 1441.14 206.703C1439.99 206.703 1439.15 206.875 1438.63 207.22C1438.1 207.564 1437.83 208 1437.83 208.528C1437.83 208.987 1438.04 209.354 1438.45 209.629C1438.87 209.905 1439.41 210.134 1440.07 210.318C1440.76 210.478 1441.52 210.639 1442.34 210.8C1443.17 210.96 1443.98 211.167 1444.79 211.419C1445.59 211.649 1446.34 211.97 1447.03 212.383C1447.71 212.796 1448.26 213.347 1448.68 214.036C1449.09 214.701 1449.3 215.562 1449.3 216.618ZM1449.77 222.642L1458.65 202.848H1464.02L1472.94 222.642H1467.57L1460.44 205.464H1462.27L1455.04 222.642H1449.77ZM1454.63 218.718L1456.04 214.793H1465.81L1467.23 218.718H1454.63ZM1475.29 222.642V202.848H1480.73V218.408H1490.4V222.642H1475.29ZM1498.16 210.628H1507.73V214.587H1498.16V210.628ZM1498.71 218.477H1509.28V222.642H1493.34V202.848H1508.9V207.013H1498.71V218.477ZM1532.67 223.021C1530.53 223.021 1528.63 222.585 1526.95 221.713C1525.28 220.818 1523.96 219.59 1523 218.029C1522.03 216.468 1521.55 214.701 1521.55 212.728C1521.55 210.754 1522.03 208.998 1523 207.461C1523.96 205.923 1525.28 204.707 1526.95 203.811C1528.63 202.916 1530.53 202.469 1532.67 202.469C1534.8 202.469 1536.71 202.916 1538.38 203.811C1540.06 204.707 1541.38 205.923 1542.34 207.461C1543.31 208.998 1543.79 210.754 1543.79 212.728C1543.79 214.701 1543.31 216.468 1542.34 218.029C1541.38 219.59 1540.06 220.818 1538.38 221.713C1536.71 222.585 1534.8 223.021 1532.67 223.021ZM1532.67 218.58C1533.77 218.58 1534.73 218.339 1535.56 217.857C1536.41 217.352 1537.07 216.652 1537.56 215.757C1538.04 214.862 1538.28 213.864 1538.28 212.762C1538.28 211.615 1538.04 210.605 1537.56 209.733C1537.07 208.86 1536.41 208.172 1535.56 207.667C1534.73 207.162 1533.77 206.91 1532.67 206.91C1531.59 206.91 1530.63 207.162 1529.78 207.667C1528.93 208.172 1528.25 208.86 1527.75 209.733C1527.26 210.605 1527.02 211.603 1527.02 212.728C1527.02 213.852 1527.26 214.862 1527.75 215.757C1528.25 216.652 1528.93 217.352 1529.78 217.857C1530.63 218.339 1531.59 218.58 1532.67 218.58ZM1552.53 211.626H1562.03V215.791H1552.53V211.626ZM1553.08 222.642H1547.64V202.848H1563.2V207.013H1553.08V222.642Z" fill="#23C865"/>
<path d="M1204.95 304.412L1214.59 256.216H1225.81L1245.3 288.438L1240.62 288.301L1247.02 256.216H1260.38L1250.74 304.412H1239.51L1220.1 272.19L1224.71 272.327L1218.31 304.412H1204.95ZM1260.42 304.412L1270.06 256.216H1290.99C1296.04 256.216 1300.35 257.042 1303.93 258.695C1307.56 260.347 1310.34 262.688 1312.27 265.718C1314.19 268.701 1315.16 272.281 1315.16 276.458C1315.16 280.727 1314.42 284.583 1312.95 288.025C1311.49 291.422 1309.42 294.359 1306.76 296.838C1304.1 299.271 1300.93 301.153 1297.26 302.484C1293.58 303.769 1289.52 304.412 1285.07 304.412H1260.42ZM1276.26 293.533H1285.48C1288.93 293.533 1291.82 292.822 1294.16 291.399C1296.5 289.976 1298.29 288.048 1299.53 285.615C1300.77 283.137 1301.39 280.36 1301.39 277.284C1301.39 275.127 1300.93 273.291 1300.01 271.776C1299.14 270.262 1297.81 269.114 1296.02 268.334C1294.27 267.508 1292.09 267.095 1289.48 267.095H1281.49L1276.26 293.533ZM1317.3 304.412L1326.94 256.216H1351.32C1356.78 256.216 1360.93 257.203 1363.78 259.177C1366.62 261.105 1368.05 263.882 1368.05 267.508C1368.05 270.491 1367.22 273.016 1365.57 275.081C1363.92 277.147 1361.69 278.73 1358.89 279.832C1356.09 280.888 1352.95 281.416 1349.46 281.416L1351.38 278.111C1355.84 278.111 1359.37 279.075 1361.99 281.002C1364.6 282.93 1365.91 285.638 1365.91 289.127C1365.91 292.615 1364.93 295.484 1362.95 297.733C1361.02 299.982 1358.38 301.658 1355.03 302.759C1351.73 303.861 1347.99 304.412 1343.81 304.412H1317.3ZM1332.73 294.566H1344.57C1346.96 294.566 1348.84 294.084 1350.21 293.12C1351.64 292.156 1352.35 290.733 1352.35 288.851C1352.35 287.428 1351.82 286.396 1350.77 285.753C1349.71 285.111 1348.36 284.789 1346.7 284.789H1333.55L1335.41 275.357H1346.36C1347.97 275.357 1349.32 275.15 1350.42 274.737C1351.57 274.324 1352.42 273.704 1352.97 272.878C1353.52 272.052 1353.79 271.042 1353.79 269.849C1353.79 268.518 1353.29 267.554 1352.28 266.957C1351.27 266.36 1349.87 266.062 1348.08 266.062H1338.44L1332.73 294.566ZM1400.45 304.412L1407.95 267.026H1393.15L1395.35 256.216H1438.52L1436.32 267.026H1421.58L1414.08 304.412H1400.45ZM1459.31 305.376C1454.36 305.376 1450.09 304.48 1446.51 302.69C1442.93 300.854 1440.17 298.353 1438.24 295.186C1436.32 292.019 1435.35 288.346 1435.35 284.17C1435.35 279.947 1436.09 276.091 1437.56 272.603C1439.03 269.068 1441.09 266.016 1443.75 263.446C1446.41 260.829 1449.58 258.81 1453.25 257.387C1456.97 255.964 1461.03 255.252 1465.44 255.252C1470.4 255.252 1474.67 256.17 1478.25 258.006C1481.83 259.796 1484.58 262.275 1486.51 265.442C1488.44 268.609 1489.4 272.281 1489.4 276.458C1489.4 280.681 1488.67 284.56 1487.2 288.094C1485.73 291.582 1483.66 294.635 1481 297.251C1478.34 299.822 1475.15 301.818 1471.43 303.241C1467.76 304.664 1463.72 305.376 1459.31 305.376ZM1460.48 294.084C1462.87 294.084 1464.98 293.648 1466.82 292.776C1468.7 291.904 1470.28 290.687 1471.57 289.127C1472.9 287.52 1473.91 285.707 1474.6 283.688C1475.29 281.668 1475.63 279.534 1475.63 277.284C1475.63 275.127 1475.17 273.245 1474.25 271.639C1473.38 270.032 1472.1 268.793 1470.4 267.921C1468.75 267.003 1466.7 266.544 1464.27 266.544C1461.93 266.544 1459.82 266.98 1457.94 267.852C1456.05 268.724 1454.45 269.963 1453.12 271.57C1451.83 273.131 1450.84 274.921 1450.16 276.94C1449.47 278.96 1449.12 281.094 1449.12 283.343C1449.12 285.455 1449.56 287.337 1450.43 288.989C1451.35 290.596 1452.63 291.858 1454.29 292.776C1455.99 293.648 1458.05 294.084 1460.48 294.084ZM1505.9 293.946L1507.9 278.386L1532.41 256.216H1548.45L1523.32 278.662L1514.24 286.442L1505.9 293.946ZM1491.51 304.412L1501.15 256.216H1514.58L1504.94 304.412H1491.51ZM1524.63 304.412L1511.89 284.514L1521.81 275.357L1539.85 304.412H1524.63ZM1561.67 274.875H1584.05L1582.05 285.065H1559.67L1561.67 274.875ZM1558.85 293.877H1584.12L1581.91 304.412H1543.29L1552.93 256.216H1590.66L1588.52 266.75H1564.22L1558.85 293.877ZM1589.55 304.412L1599.19 256.216H1610.41L1629.89 288.438L1625.21 288.301L1631.61 256.216H1644.97L1635.33 304.412H1624.11L1604.69 272.19L1609.31 272.327L1602.9 304.412H1589.55Z" fill="white"/>
<path d="M1123.26 822.728L1127.39 813.691H1128.33L1132.46 822.728H1131.45L1127.66 814.246H1128.05L1124.25 822.728H1123.26ZM1124.88 820.313L1125.17 819.539H1130.42L1130.71 820.313H1124.88ZM1137.15 822.805C1136 822.805 1135.09 822.474 1134.43 821.811C1133.76 821.148 1133.43 820.167 1133.43 818.868V813.691H1134.39V818.829C1134.39 819.896 1134.63 820.684 1135.11 821.191C1135.59 821.699 1136.27 821.953 1137.15 821.953C1138.04 821.953 1138.72 821.699 1139.2 821.191C1139.68 820.684 1139.93 819.896 1139.93 818.829V813.691H1140.85V818.868C1140.85 820.167 1140.52 821.148 1139.86 821.811C1139.21 822.474 1138.3 822.805 1137.15 822.805ZM1143.48 822.728V813.691H1147.15C1148.12 813.691 1148.96 813.885 1149.68 814.272C1150.42 814.651 1150.98 815.18 1151.39 815.86C1151.79 816.54 1152 817.323 1152 818.209C1152 819.096 1151.79 819.879 1151.39 820.559C1150.98 821.239 1150.42 821.772 1149.68 822.16C1148.96 822.538 1148.12 822.728 1147.15 822.728H1143.48ZM1144.43 821.901H1147.1C1147.9 821.901 1148.6 821.746 1149.18 821.437C1149.78 821.118 1150.24 820.684 1150.56 820.133C1150.89 819.573 1151.05 818.932 1151.05 818.209C1151.05 817.478 1150.89 816.837 1150.56 816.286C1150.24 815.735 1149.78 815.305 1149.18 814.995C1148.6 814.676 1147.9 814.517 1147.1 814.517H1144.43V821.901ZM1153.88 822.728V813.691H1154.84V822.728H1153.88ZM1159.28 822.728V814.517H1156.1V813.691H1163.41V814.517H1160.23V822.728H1159.28ZM1165.53 817.732H1170.3V818.545H1165.53V817.732ZM1165.63 821.901H1171.06V822.728H1164.67V813.691H1170.87V814.517H1165.63V821.901ZM1173.05 822.728V813.691H1176.73C1177.7 813.691 1178.54 813.885 1179.26 814.272C1179.99 814.651 1180.56 815.18 1180.97 815.86C1181.37 816.54 1181.57 817.323 1181.57 818.209C1181.57 819.096 1181.37 819.879 1180.97 820.559C1180.56 821.239 1179.99 821.772 1179.26 822.16C1178.54 822.538 1177.7 822.728 1176.73 822.728H1173.05ZM1174.01 821.901H1176.68C1177.48 821.901 1178.17 821.746 1178.76 821.437C1179.35 821.118 1179.81 820.684 1180.14 820.133C1180.47 819.573 1180.63 818.932 1180.63 818.209C1180.63 817.478 1180.47 816.837 1180.14 816.286C1179.81 815.735 1179.35 815.305 1178.76 814.995C1178.17 814.676 1177.48 814.517 1176.68 814.517H1174.01V821.901ZM1186.58 822.728V813.691H1190.48C1191.49 813.691 1192.26 813.893 1192.82 814.298C1193.37 814.702 1193.65 815.274 1193.65 816.015C1193.65 816.505 1193.54 816.918 1193.31 817.254C1193.08 817.59 1192.77 817.843 1192.38 818.016C1191.99 818.188 1191.56 818.274 1191.1 818.274L1191.32 817.964C1191.89 817.964 1192.39 818.054 1192.8 818.235C1193.22 818.407 1193.55 818.67 1193.78 819.023C1194.02 819.367 1194.13 819.797 1194.13 820.313C1194.13 821.079 1193.85 821.673 1193.28 822.095C1192.72 822.517 1191.87 822.728 1190.74 822.728H1186.58ZM1187.54 821.94H1190.72C1191.52 821.94 1192.12 821.807 1192.54 821.54C1192.97 821.264 1193.18 820.83 1193.18 820.236C1193.18 819.651 1192.97 819.225 1192.54 818.958C1192.12 818.683 1191.52 818.545 1190.72 818.545H1187.43V817.757H1190.41C1191.14 817.757 1191.7 817.62 1192.09 817.344C1192.5 817.069 1192.7 816.66 1192.7 816.118C1192.7 815.567 1192.5 815.158 1192.09 814.891C1191.7 814.616 1191.14 814.478 1190.41 814.478H1187.54V821.94ZM1198.02 822.728V819.371L1198.24 819.965L1194.41 813.691H1195.43L1198.8 819.203H1198.25L1201.62 813.691H1202.58L1198.74 819.965L1198.96 819.371V822.728H1198.02Z" fill="white"/>
<path fill-rule="evenodd" clip-rule="evenodd" d="M1226.5 813.62V814.642H1219.69V817.646H1225.16V818.684H1219.69V821.687H1226.5V822.71H1218.75V813.62H1226.5Z" fill="white"/>
<path fill-rule="evenodd" clip-rule="evenodd" d="M1216.23 814.595H1209.16C1209.1 814.595 1209.04 814.611 1208.98 814.627C1208.92 814.642 1208.87 814.689 1208.84 814.737C1208.8 814.784 1208.76 814.831 1208.75 814.894C1208.73 814.957 1208.72 815.02 1208.72 815.083V821.137C1208.72 821.2 1208.73 821.263 1208.75 821.326C1208.76 821.389 1208.8 821.436 1208.84 821.483C1208.89 821.53 1208.93 821.562 1208.98 821.593C1209.04 821.609 1209.1 821.625 1209.16 821.625H1216.23V822.647H1209.16C1209.07 822.647 1208.98 822.631 1208.89 822.615C1208.8 822.6 1208.7 822.568 1208.61 822.537C1208.52 822.505 1208.45 822.458 1208.37 822.411C1208.29 822.348 1208.23 822.285 1208.16 822.222C1208.02 822.081 1207.93 821.923 1207.85 821.75C1207.82 821.656 1207.79 821.562 1207.77 821.467C1207.76 821.373 1207.74 821.279 1207.74 821.184V815.098C1207.74 815.004 1207.76 814.91 1207.77 814.815C1207.79 814.721 1207.82 814.627 1207.85 814.532C1207.88 814.438 1207.93 814.344 1207.97 814.265C1208.02 814.186 1208.08 814.108 1208.16 814.045C1208.22 813.982 1208.29 813.919 1208.37 813.856C1208.45 813.809 1208.52 813.762 1208.61 813.73C1208.7 813.699 1208.8 813.667 1208.89 813.652C1208.98 813.636 1209.07 813.62 1209.16 813.62H1216.23V814.595Z" fill="white"/>
<path d="M1237.39 815.162V817.819C1237.39 817.914 1237.37 818.008 1237.36 818.102C1237.34 818.197 1237.31 818.291 1237.28 818.385C1237.25 818.48 1237.2 818.574 1237.16 818.653C1237.1 818.731 1237.05 818.81 1236.98 818.873C1236.92 818.936 1236.84 818.999 1236.76 819.062C1236.69 819.109 1236.61 819.156 1236.52 819.187C1236.43 819.219 1236.34 819.25 1236.24 819.282C1236.15 819.298 1236.06 819.313 1235.97 819.313H1234.68L1237.34 822.694H1236.06L1233.41 819.313H1230.3C1230.15 819.313 1230 819.298 1229.85 819.266V822.694H1228.89V813.636H1235.99C1236.08 813.636 1236.17 813.652 1236.26 813.668C1236.35 813.683 1236.44 813.715 1236.53 813.746C1236.63 813.778 1236.7 813.825 1236.78 813.888C1236.93 813.998 1237.05 814.139 1237.16 814.297C1237.2 814.375 1237.25 814.47 1237.28 814.564C1237.31 814.658 1237.34 814.753 1237.36 814.847C1237.37 814.957 1237.39 815.067 1237.39 815.162ZM1230.29 818.307H1235.97C1236.03 818.307 1236.09 818.291 1236.15 818.275C1236.21 818.26 1236.26 818.228 1236.29 818.165C1236.34 818.118 1236.37 818.071 1236.38 818.008C1236.4 817.945 1236.41 817.882 1236.41 817.819V815.162C1236.41 815.036 1236.37 814.91 1236.29 814.816C1236.21 814.721 1236.09 814.658 1235.97 814.658H1230.29C1230.23 814.658 1230.17 814.674 1230.1 814.69C1230.04 814.706 1230 814.753 1229.97 814.8C1229.92 814.847 1229.89 814.894 1229.88 814.957C1229.86 815.02 1229.85 815.083 1229.85 815.146V817.804C1229.85 817.929 1229.89 818.055 1230 818.15C1230.06 818.244 1230.18 818.307 1230.29 818.307Z" fill="white"/>
<path fill-rule="evenodd" clip-rule="evenodd" d="M1251.07 822.694V813.62H1252.03V822.694H1251.07Z" fill="white"/>
<path fill-rule="evenodd" clip-rule="evenodd" d="M1262.43 813.62H1263.66L1260.11 818.165L1263.68 822.71H1262.43L1259.26 818.684H1256.52V822.71H1255.56V813.636H1256.53V817.662H1259.27L1262.43 813.62Z" fill="white"/>
<path fill-rule="evenodd" clip-rule="evenodd" d="M1239.76 813.62H1248.27V814.642H1244.5V822.694H1243.54V814.642H1239.76V813.62Z" fill="white"/>
<rect width="5.83952" height="5.83952" transform="matrix(-0.0784057 0.996921 0.996921 0.0784065 1725.1 819.036)" fill="#00FFF0"/>
<rect width="5.83952" height="5.83952" transform="matrix(-0.0784057 0.996921 0.996921 0.0784065 1519.87 869.239)" fill="#00FFF0"/>
<rect width="5.83952" height="5.83952" transform="matrix(-0.0784057 0.996921 0.996921 0.0784065 1826.53 619.655)" fill="#00FFF0"/>
<rect width="5.83952" height="5.83952" transform="matrix(-0.078407 0.996921 0.996922 0.0784052 1756.65 355.728)" fill="#00FFF0"/>
<g clip-path="url(#clip1_12857_25137)">
<g filter="url(#filter2_d_12857_25137)">
<path d="M896.04 390.103C956.525 347.149 970.22 262.567 926.629 201.183C883.037 139.8 798.666 124.86 738.18 167.814C677.695 210.768 664 295.35 707.591 356.734C751.183 418.117 835.554 433.057 896.04 390.103Z" fill="#23C865"/>
</g>
<path d="M826.936 219.168L806.217 233.881L821.584 255.519L842.303 240.806L826.936 219.168Z" fill="white"/>
<path d="M846.729 246.683L825.842 261.516L841.209 283.154L862.095 268.321L846.729 246.683Z" fill="white"/>
<path d="M866.354 274.316L845.467 289.149L860.833 310.787L881.72 295.954L866.354 274.316Z" fill="white"/>
<path d="M774.782 258.557L753.896 273.39L807.585 348.993L828.472 334.16L774.782 258.557Z" fill="white"/>
<path d="M800.513 237.932L752.784 271.827L768.15 293.465L815.879 259.57L800.513 237.932Z" fill="white"/>
<g style="mix-blend-mode:hard-light">
<ellipse cx="817.16" cy="279.385" rx="135.263" ry="136.941" transform="rotate(-33.3807 817.16 279.385)" fill="url(#paint48_linear_12857_25137)" fill-opacity="0.8"/>
</g>
<g style="mix-blend-mode:lighten">
<path d="M917.222 190.048C886.471 152.251 821.864 133.695 783.965 150.769C773.416 171.017 782.391 186.533 844.603 242.554C906.814 298.574 930.512 354.377 937.869 338.457C961.329 287.694 954.752 236.177 917.222 190.048Z" fill="url(#paint49_linear_12857_25137)" fill-opacity="0.8"/>
</g>
</g>
<g filter="url(#filter3_d_12857_25137)">
<path d="M1100.84 778.334H1099.41V779.769H1100.84V778.334ZM1100.84 720.6V719.166H1099.41V720.6H1100.84ZM1147.43 724.817L1146.57 725.965L1146.58 725.972L1147.43 724.817ZM1148.33 746.505L1147.4 745.415L1147.4 745.42L1147.39 745.425L1148.33 746.505ZM1135.08 750.622L1133.76 750.065L1132.92 752.056H1135.08V750.622ZM1136.69 746.807V745.372H1135.73L1135.36 746.25L1136.69 746.807ZM1150.84 750.923L1149.96 752.05L1149.96 752.055L1149.97 752.06L1150.84 750.923ZM1149.94 774.117L1150.75 775.299L1150.75 775.299L1149.94 774.117ZM1116.5 767.189H1115.07V768.624H1116.5V767.189ZM1137.69 765.583L1136.89 764.389L1136.88 764.397L1136.87 764.405L1137.69 765.583ZM1137.69 756.145L1136.87 757.322L1136.9 757.342L1136.93 757.361L1137.69 756.145ZM1114.9 754.538H1113.46V755.972H1114.9V754.538ZM1114.9 743.895V742.46H1113.46V743.895H1114.9ZM1134.98 742.389L1134.2 741.187L1134.18 741.195L1134.17 741.204L1134.98 742.389ZM1134.98 733.352L1134.14 734.512L1134.17 734.534L1134.2 734.554L1134.98 733.352ZM1116.5 731.746V730.311H1115.07V731.746H1116.5ZM1102.28 778.334V720.6H1099.41V778.334H1102.28ZM1100.84 722.035H1130.36V719.166H1100.84V722.035ZM1130.36 722.035C1137.86 722.035 1143.18 723.424 1146.57 725.965L1148.29 723.67C1144.18 720.588 1138.12 719.166 1130.36 719.166V722.035ZM1146.58 725.972C1150.05 728.531 1151.72 731.762 1151.72 735.762H1154.59C1154.59 730.792 1152.44 726.727 1148.28 723.663L1146.58 725.972ZM1151.72 735.762C1151.72 739.782 1150.28 742.957 1147.4 745.415L1149.27 747.596C1152.81 744.565 1154.59 740.578 1154.59 735.762H1151.72ZM1147.39 745.425C1144.59 747.87 1140.55 749.188 1135.08 749.188V752.056C1140.99 752.056 1145.79 750.63 1149.28 747.586L1147.39 745.425ZM1136.4 751.179L1138.01 747.363L1135.36 746.25L1133.76 750.065L1136.4 751.179ZM1136.69 748.241C1142.43 748.241 1146.8 749.564 1149.96 752.05L1151.73 749.797C1147.92 746.794 1142.86 745.372 1136.69 745.372V748.241ZM1149.97 752.06C1153.04 754.425 1154.63 757.823 1154.63 762.47H1157.5C1157.5 757.077 1155.61 752.777 1151.72 749.786L1149.97 752.06ZM1154.63 762.47C1154.63 766.951 1152.82 770.392 1149.13 772.936L1150.75 775.299C1155.23 772.22 1157.5 767.896 1157.5 762.47H1154.63ZM1149.13 772.936C1145.39 775.511 1139.73 776.9 1131.97 776.9V779.769C1140 779.769 1146.33 778.346 1150.75 775.299L1149.13 772.936ZM1131.97 776.9H1100.84V779.769H1131.97V776.9ZM1116.5 768.624H1130.86V765.755H1116.5V768.624ZM1130.86 768.624C1134.01 768.624 1136.62 768.072 1138.51 766.76L1136.87 764.405C1135.68 765.235 1133.75 765.755 1130.86 765.755V768.624ZM1138.49 766.776C1140.53 765.416 1141.53 763.376 1141.53 760.864H1138.67C1138.67 762.502 1138.07 763.607 1136.89 764.389L1138.49 766.776ZM1141.53 760.864C1141.53 758.304 1140.54 756.232 1138.45 754.928L1136.93 757.361C1138.06 758.065 1138.67 759.14 1138.67 760.864H1141.53ZM1138.51 754.967C1136.62 753.655 1134.01 753.104 1130.86 753.104V755.972C1133.75 755.972 1135.68 756.492 1136.87 757.322L1138.51 754.967ZM1130.86 753.104H1114.9V755.972H1130.86V753.104ZM1116.33 754.538V743.895H1113.46V754.538H1116.33ZM1114.9 745.329H1128.35V742.46H1114.9V745.329ZM1128.35 745.329C1131.42 745.329 1133.97 744.815 1135.79 743.574L1134.17 741.204C1133.05 741.97 1131.18 742.46 1128.35 742.46V745.329ZM1135.76 743.59C1137.75 742.293 1138.72 740.31 1138.72 737.87H1135.85C1135.85 739.447 1135.29 740.476 1134.2 741.187L1135.76 743.59ZM1138.72 737.87C1138.72 735.431 1137.75 733.447 1135.76 732.151L1134.2 734.554C1135.29 735.265 1135.85 736.294 1135.85 737.87H1138.72ZM1135.82 732.192C1134 730.863 1131.43 730.311 1128.35 730.311V733.18C1131.17 733.18 1133.02 733.699 1134.14 734.512L1135.82 732.192ZM1128.35 730.311H1116.5V733.18H1128.35V730.311ZM1115.07 731.746V767.189H1117.94V731.746H1115.07ZM1181.99 776.326L1182.64 775.048L1181.99 776.326ZM1172.55 767.39L1171.29 768.074L1171.3 768.087L1171.31 768.099L1172.55 767.39ZM1169.34 720.6V719.166H1167.9V720.6H1169.34ZM1185.2 720.6H1186.64V719.166H1185.2V720.6ZM1188.22 763.073L1187.14 764.022L1187.14 764.022L1188.22 763.073ZM1205.39 763.073L1204.29 762.142L1204.29 762.142L1205.39 763.073ZM1208.3 720.6V719.166H1206.86V720.6H1208.3ZM1223.96 720.6H1225.4V719.166H1223.96V720.6ZM1220.75 767.39L1222 768.083L1222.01 768.074L1220.75 767.39ZM1211.41 776.326L1210.76 775.048L1211.41 776.326ZM1196.65 778.005C1191.13 778.005 1186.48 776.999 1182.64 775.048L1181.34 777.605C1185.67 779.804 1190.79 780.873 1196.65 780.873V778.005ZM1182.64 775.048C1178.8 773.096 1175.87 770.313 1173.8 766.681L1171.31 768.099C1173.66 772.232 1177.01 775.406 1181.34 777.605L1182.64 775.048ZM1173.81 766.706C1171.8 763.004 1170.77 758.595 1170.77 753.434H1167.9C1167.9 758.982 1169.02 763.878 1171.29 768.074L1173.81 766.706ZM1170.77 753.434V720.6H1167.9V753.434H1170.77ZM1169.34 722.035H1185.2V719.166H1169.34V722.035ZM1183.77 720.6V752.931H1186.64V720.6H1183.77ZM1183.77 752.931C1183.77 757.603 1184.81 761.383 1187.14 764.022L1189.29 762.124C1187.6 760.21 1186.64 757.23 1186.64 752.931H1183.77ZM1187.14 764.022C1189.48 766.677 1192.8 767.921 1196.85 767.921V765.052C1193.41 765.052 1190.96 764.02 1189.29 762.124L1187.14 764.022ZM1196.85 767.921C1200.9 767.921 1204.2 766.677 1206.48 764.003L1204.29 762.142C1202.69 764.02 1200.29 765.052 1196.85 765.052V767.921ZM1206.48 764.003C1208.73 761.365 1209.73 757.593 1209.73 752.931H1206.86C1206.86 757.24 1205.93 760.228 1204.29 762.142L1206.48 764.003ZM1209.73 752.931V720.6H1206.86V752.931H1209.73ZM1208.3 722.035H1223.96V719.166H1208.3V722.035ZM1222.53 720.6V753.434H1225.4V720.6H1222.53ZM1222.53 753.434C1222.53 758.595 1221.49 763.004 1219.49 766.706L1222.01 768.074C1224.28 763.878 1225.4 758.982 1225.4 753.434H1222.53ZM1219.49 766.697C1217.49 770.319 1214.6 773.098 1210.76 775.048L1212.06 777.605C1216.39 775.404 1219.72 772.226 1222 768.083L1219.49 766.697ZM1210.76 775.048C1206.92 776.997 1202.24 778.005 1196.65 778.005V780.873C1202.58 780.873 1207.73 779.805 1212.06 777.605L1210.76 775.048ZM1255.27 778.334H1253.83V779.769H1255.27V778.334ZM1255.27 754.337L1256.64 753.922L1253.83 754.337H1255.27ZM1258.18 763.976L1256.95 764.718L1259.55 763.561L1258.18 763.976ZM1231.97 720.6V719.166H1229.43L1230.74 721.342L1231.97 720.6ZM1248.74 720.6L1249.97 719.857L1249.55 719.166H1248.74V720.6ZM1268.02 752.429V753.864H1270.56L1269.24 751.686L1268.02 752.429ZM1259.28 752.429L1258.06 751.686L1256.74 753.864H1259.28V752.429ZM1278.56 720.6V719.166H1277.75L1277.33 719.857L1278.56 720.6ZM1294.52 720.6L1295.75 721.344L1297.07 719.166H1294.52V720.6ZM1268.22 763.976L1266.85 763.561L1269.44 764.72L1268.22 763.976ZM1271.13 754.337H1272.56L1269.76 753.922L1271.13 754.337ZM1271.13 778.334V779.769H1272.56V778.334H1271.13ZM1256.7 778.334V754.337H1253.83V778.334H1256.7ZM1253.89 754.752L1256.8 764.391L1259.55 763.561L1256.64 753.922L1253.89 754.752ZM1259.41 763.235L1233.2 719.859L1230.74 721.342L1256.95 764.718L1259.41 763.235ZM1231.97 722.035H1248.74V719.166H1231.97V722.035ZM1247.51 721.343L1266.79 753.173L1269.24 751.686L1249.97 719.857L1247.51 721.343ZM1268.02 750.995H1259.28V753.864H1268.02V750.995ZM1260.51 753.173L1279.79 721.343L1277.33 719.857L1258.06 751.686L1260.51 753.173ZM1278.56 722.035H1294.52V719.166H1278.56V722.035ZM1293.3 719.857L1266.99 763.232L1269.44 764.72L1295.75 721.344L1293.3 719.857ZM1269.59 764.391L1272.5 754.752L1269.76 753.922L1266.85 763.561L1269.59 764.391ZM1269.7 754.337V778.334H1272.56V754.337H1269.7ZM1271.13 776.9H1255.27V779.769H1271.13V776.9Z" fill="#19C3E9"/>
</g>
<g filter="url(#filter4_d_12857_25137)">
<path d="M1095.1 772.597V714.863H1124.62C1132.25 714.863 1137.94 716.268 1141.69 719.08C1145.51 721.891 1147.42 725.539 1147.42 730.024C1147.42 734.442 1145.81 738.023 1142.6 740.768C1139.45 743.512 1135.03 744.884 1129.34 744.884L1130.95 741.069C1136.91 741.069 1141.63 742.441 1145.11 745.186C1148.59 747.863 1150.33 751.712 1150.33 756.732C1150.33 761.686 1148.29 765.568 1144.2 768.38C1140.12 771.191 1134.13 772.597 1126.23 772.597H1095.1ZM1110.77 761.451H1125.13C1128.14 761.451 1130.41 760.916 1131.95 759.845C1133.56 758.774 1134.36 757.201 1134.36 755.126C1134.36 752.984 1133.56 751.411 1131.95 750.407C1130.41 749.336 1128.14 748.8 1125.13 748.8H1109.16V738.157H1122.61C1125.56 738.157 1127.77 737.655 1129.24 736.651C1130.78 735.647 1131.55 734.141 1131.55 732.133C1131.55 730.124 1130.78 728.618 1129.24 727.614C1127.77 726.543 1125.56 726.008 1122.61 726.008H1110.77V761.451ZM1190.91 773.701C1185.22 773.701 1180.34 772.664 1176.25 770.589C1172.17 768.513 1169.02 765.535 1166.81 761.652C1164.67 757.703 1163.6 753.051 1163.6 747.696V714.863H1179.47V747.194C1179.47 751.679 1180.47 755.059 1182.48 757.335C1184.49 759.611 1187.36 760.749 1191.11 760.749C1194.86 760.749 1197.71 759.611 1199.65 757.335C1201.59 755.059 1202.56 751.679 1202.56 747.194V714.863H1218.22V747.696C1218.22 753.051 1217.15 757.703 1215.01 761.652C1212.87 765.535 1209.76 768.513 1205.67 770.589C1201.59 772.664 1196.67 773.701 1190.91 773.701ZM1249.53 772.597V748.599L1252.44 758.238L1226.23 714.863H1243L1262.28 746.692H1253.54L1272.82 714.863H1288.79L1262.48 758.238L1265.39 748.599V772.597H1249.53Z" fill="white"/>
<path d="M1095.1 772.597H1093.67V774.031H1095.1V772.597ZM1095.1 714.863V713.428H1093.67V714.863H1095.1ZM1141.69 719.08L1140.83 720.227L1140.84 720.234L1141.69 719.08ZM1142.6 740.768L1141.66 739.677L1141.66 739.682L1141.65 739.687L1142.6 740.768ZM1129.34 744.884L1128.02 744.328L1127.18 746.319H1129.34V744.884ZM1130.95 741.069V739.634H1130L1129.63 740.512L1130.95 741.069ZM1145.11 745.186L1144.22 746.312L1144.22 746.317L1144.23 746.322L1145.11 745.186ZM1144.2 768.38L1145.02 769.561L1145.02 769.561L1144.2 768.38ZM1110.77 761.451H1109.33V762.886H1110.77V761.451ZM1131.95 759.845L1131.16 758.651L1131.15 758.659L1131.13 758.667L1131.95 759.845ZM1131.95 750.407L1131.13 751.584L1131.16 751.604L1131.19 751.623L1131.95 750.407ZM1109.16 748.8H1107.73V750.235H1109.16V748.8ZM1109.16 738.157V736.723H1107.73V738.157H1109.16ZM1129.24 736.651L1128.46 735.449L1128.45 735.458L1128.43 735.466L1129.24 736.651ZM1129.24 727.614L1128.4 728.774L1128.43 728.796L1128.46 728.816L1129.24 727.614ZM1110.77 726.008V724.573H1109.33V726.008H1110.77ZM1096.54 772.597V714.863H1093.67V772.597H1096.54ZM1095.1 716.297H1124.62V713.428H1095.1V716.297ZM1124.62 716.297C1132.12 716.297 1137.44 717.687 1140.83 720.227L1142.55 717.932C1138.44 714.85 1132.39 713.428 1124.62 713.428V716.297ZM1140.84 720.234C1144.31 722.793 1145.98 726.024 1145.98 730.024H1148.85C1148.85 725.054 1146.7 720.989 1142.54 717.925L1140.84 720.234ZM1145.98 730.024C1145.98 734.044 1144.54 737.219 1141.66 739.677L1143.53 741.858C1147.08 738.827 1148.85 734.84 1148.85 730.024H1145.98ZM1141.65 739.687C1138.85 742.132 1134.81 743.45 1129.34 743.45V746.319C1135.25 746.319 1140.05 744.892 1143.54 741.849L1141.65 739.687ZM1130.66 745.441L1132.27 741.625L1129.63 740.512L1128.02 744.328L1130.66 745.441ZM1130.95 742.503C1136.69 742.503 1141.07 743.826 1144.22 746.312L1145.99 744.059C1142.19 741.056 1137.12 739.634 1130.95 739.634V742.503ZM1144.23 746.322C1147.31 748.687 1148.89 752.085 1148.89 756.732H1151.76C1151.76 751.339 1149.87 747.039 1145.98 744.049L1144.23 746.322ZM1148.89 756.732C1148.89 761.213 1147.08 764.654 1143.39 767.198L1145.02 769.561C1149.49 766.482 1151.76 762.158 1151.76 756.732H1148.89ZM1143.39 767.198C1139.65 769.773 1134 771.162 1126.23 771.162V774.031C1134.26 774.031 1140.59 772.609 1145.02 769.561L1143.39 767.198ZM1126.23 771.162H1095.1V774.031H1126.23V771.162ZM1110.77 762.886H1125.13V760.017H1110.77V762.886ZM1125.13 762.886C1128.27 762.886 1130.89 762.334 1132.77 761.022L1131.13 758.667C1129.94 759.498 1128.01 760.017 1125.13 760.017V762.886ZM1132.75 761.038C1134.79 759.679 1135.8 757.638 1135.8 755.126H1132.93C1132.93 756.764 1132.33 757.869 1131.16 758.651L1132.75 761.038ZM1135.8 755.126C1135.8 752.566 1134.8 750.495 1132.71 749.19L1131.19 751.623C1132.32 752.327 1132.93 753.402 1132.93 755.126H1135.8ZM1132.77 749.229C1130.89 747.917 1128.27 747.366 1125.13 747.366V750.235C1128.01 750.235 1129.94 750.754 1131.13 751.584L1132.77 749.229ZM1125.13 747.366H1109.16V750.235H1125.13V747.366ZM1110.59 748.8V738.157H1107.73V748.8H1110.59ZM1109.16 739.591H1122.61V736.723H1109.16V739.591ZM1122.61 739.591C1125.68 739.591 1128.23 739.077 1130.05 737.836L1128.43 735.466C1127.31 736.233 1125.44 736.723 1122.61 736.723V739.591ZM1130.03 737.852C1132.01 736.556 1132.99 734.572 1132.99 732.133H1130.12C1130.12 733.709 1129.55 734.738 1128.46 735.449L1130.03 737.852ZM1132.99 732.133C1132.99 729.693 1132.01 727.71 1130.03 726.413L1128.46 728.816C1129.55 729.527 1130.12 730.556 1130.12 732.133H1132.99ZM1130.09 726.454C1128.26 725.125 1125.69 724.573 1122.61 724.573V727.442C1125.43 727.442 1127.28 727.961 1128.4 728.774L1130.09 726.454ZM1122.61 724.573H1110.77V727.442H1122.61V724.573ZM1109.33 726.008V761.451H1112.2V726.008H1109.33ZM1176.25 770.589L1176.9 769.31L1176.25 770.589ZM1166.81 761.652L1165.55 762.336L1165.56 762.349L1165.57 762.362L1166.81 761.652ZM1163.6 714.863V713.428H1162.17V714.863H1163.6ZM1179.47 714.863H1180.9V713.428H1179.47V714.863ZM1182.48 757.335L1181.4 758.284L1181.4 758.284L1182.48 757.335ZM1199.65 757.335L1198.56 756.404L1198.56 756.404L1199.65 757.335ZM1202.56 714.863V713.428H1201.13V714.863H1202.56ZM1218.22 714.863H1219.66V713.428H1218.22V714.863ZM1215.01 761.652L1216.27 762.345L1216.27 762.336L1215.01 761.652ZM1205.67 770.589L1205.02 769.31L1205.67 770.589ZM1190.91 772.267C1185.39 772.267 1180.74 771.261 1176.9 769.31L1175.6 771.867C1179.93 774.066 1185.05 775.136 1190.91 775.136V772.267ZM1176.9 769.31C1173.06 767.359 1170.13 764.575 1168.06 760.943L1165.57 762.362C1167.92 766.495 1171.28 769.668 1175.6 771.867L1176.9 769.31ZM1168.08 760.968C1166.07 757.266 1165.04 752.858 1165.04 747.696H1162.17C1162.17 753.244 1163.28 758.14 1165.55 762.336L1168.08 760.968ZM1165.04 747.696V714.863H1162.17V747.696H1165.04ZM1163.6 716.297H1179.47V713.428H1163.6V716.297ZM1178.03 714.863V747.194H1180.9V714.863H1178.03ZM1178.03 747.194C1178.03 751.865 1179.07 755.645 1181.4 758.284L1183.55 756.386C1181.87 754.473 1180.9 751.492 1180.9 747.194H1178.03ZM1181.4 758.284C1183.75 760.939 1187.06 762.183 1191.11 762.183V759.314C1187.67 759.314 1185.23 758.282 1183.55 756.386L1181.4 758.284ZM1191.11 762.183C1195.17 762.183 1198.46 760.939 1200.74 758.266L1198.56 756.404C1196.95 758.282 1194.56 759.314 1191.11 759.314V762.183ZM1200.74 758.266C1202.99 755.628 1203.99 751.855 1203.99 747.194H1201.13C1201.13 751.502 1200.19 754.49 1198.56 756.404L1200.74 758.266ZM1203.99 747.194V714.863H1201.13V747.194H1203.99ZM1202.56 716.297H1218.22V713.428H1202.56V716.297ZM1216.79 714.863V747.696H1219.66V714.863H1216.79ZM1216.79 747.696C1216.79 752.858 1215.76 757.266 1213.75 760.968L1216.27 762.336C1218.55 758.14 1219.66 753.244 1219.66 747.696H1216.79ZM1213.75 760.959C1211.76 764.582 1208.86 767.36 1205.02 769.31L1206.32 771.867C1210.65 769.667 1213.98 766.488 1216.27 762.345L1213.75 760.959ZM1205.02 769.31C1201.19 771.26 1196.5 772.267 1190.91 772.267V775.136C1196.84 775.136 1201.99 774.068 1206.32 771.867L1205.02 769.31ZM1249.53 772.597H1248.09V774.031H1249.53V772.597ZM1249.53 748.599L1250.9 748.185L1248.09 748.599H1249.53ZM1252.44 758.238L1251.21 758.98L1253.81 757.824L1252.44 758.238ZM1226.23 714.863V713.428H1223.69L1225.01 715.604L1226.23 714.863ZM1243 714.863L1244.23 714.119L1243.81 713.428H1243V714.863ZM1262.28 746.692V748.126H1264.83L1263.51 745.949L1262.28 746.692ZM1253.54 746.692L1252.32 745.949L1251 748.126H1253.54V746.692ZM1272.82 714.863V713.428H1272.01L1271.6 714.119L1272.82 714.863ZM1288.79 714.863L1290.01 715.606L1291.33 713.428H1288.79V714.863ZM1262.48 758.238L1261.11 757.824L1263.71 758.982L1262.48 758.238ZM1265.39 748.599H1266.83L1264.02 748.185L1265.39 748.599ZM1265.39 772.597V774.031H1266.83V772.597H1265.39ZM1250.96 772.597V748.599H1248.09V772.597H1250.96ZM1248.15 749.014L1251.07 758.653L1253.81 757.824L1250.9 748.185L1248.15 749.014ZM1253.67 757.497L1227.46 714.121L1225.01 715.604L1251.21 758.98L1253.67 757.497ZM1226.23 716.297H1243V713.428H1226.23V716.297ZM1241.77 715.606L1261.05 747.435L1263.51 745.949L1244.23 714.119L1241.77 715.606ZM1262.28 745.257H1253.54V748.126H1262.28V745.257ZM1254.77 747.435L1274.05 715.606L1271.6 714.119L1252.32 745.949L1254.77 747.435ZM1272.82 716.297H1288.79V713.428H1272.82V716.297ZM1287.56 714.119L1261.25 757.495L1263.71 758.982L1290.01 715.606L1287.56 714.119ZM1263.85 758.653L1266.77 749.014L1264.02 748.185L1261.11 757.824L1263.85 758.653ZM1263.96 748.599V772.597H1266.83V748.599H1263.96ZM1265.39 771.162H1249.53V774.031H1265.39V771.162Z" fill="white"/>
</g>
</g>
<defs>
<filter id="filter0_d_12857_25137" x="925.91" y="446.145" width="759.151" height="113.23" filterUnits="userSpaceOnUse" color-interpolation-filters="sRGB">
<feFlood flood-opacity="0" result="BackgroundImageFix"/>
<feColorMatrix in="SourceAlpha" type="matrix" values="0 0 0 0 0 0 0 0 0 0 0 0 0 0 0 0 0 0 127 0" result="hardAlpha"/>
<feOffset dx="4.30316" dy="-1.43439"/>
<feComposite in2="hardAlpha" operator="out"/>
<feColorMatrix type="matrix" values="0 0 0 0 0.137083 0 0 0 0 0.783333 0 0 0 0 0.395583 0 0 0 1 0"/>
<feBlend mode="normal" in2="BackgroundImageFix" result="effect1_dropShadow_12857_25137"/>
<feBlend mode="normal" in="SourceGraphic" in2="effect1_dropShadow_12857_25137" result="shape"/>
</filter>
<filter id="filter1_d_12857_25137" x="923.765" y="444" width="763.442" height="117.521" filterUnits="userSpaceOnUse" color-interpolation-filters="sRGB">
<feFlood flood-opacity="0" result="BackgroundImageFix"/>
<feColorMatrix in="SourceAlpha" type="matrix" values="0 0 0 0 0 0 0 0 0 0 0 0 0 0 0 0 0 0 127 0" result="hardAlpha"/>
<feOffset dx="4.30316" dy="-1.43439"/>
<feComposite in2="hardAlpha" operator="out"/>
<feColorMatrix type="matrix" values="0 0 0 0 0.137083 0 0 0 0 0.783333 0 0 0 0 0.395583 0 0 0 1 0"/>
<feBlend mode="normal" in2="BackgroundImageFix" result="effect1_dropShadow_12857_25137"/>
<feBlend mode="normal" in="SourceGraphic" in2="effect1_dropShadow_12857_25137" result="shape"/>
</filter>
<filter id="filter2_d_12857_25137" x="682.103" y="143.292" width="274.21" height="273.73" filterUnits="userSpaceOnUse" color-interpolation-filters="sRGB">
<feFlood flood-opacity="0" result="BackgroundImageFix"/>
<feColorMatrix in="SourceAlpha" type="matrix" values="0 0 0 0 0 0 0 0 0 0 0 0 0 0 0 0 0 0 127 0" result="hardAlpha"/>
<feOffset dx="3.59668" dy="1.79834"/>
<feGaussianBlur stdDeviation="0.299723"/>
<feComposite in2="hardAlpha" operator="out"/>
<feColorMatrix type="matrix" values="0 0 0 0 0.0734375 0 0 0 0 0.375 0 0 0 0 0.266437 0 0 0 1 0"/>
<feBlend mode="normal" in2="BackgroundImageFix" result="effect1_dropShadow_12857_25137"/>
<feBlend mode="normal" in="SourceGraphic" in2="effect1_dropShadow_12857_25137" result="shape"/>
</filter>
<filter id="filter3_d_12857_25137" x="1100.84" y="720.601" width="205.159" height="70.3135" filterUnits="userSpaceOnUse" color-interpolation-filters="sRGB">
<feFlood flood-opacity="0" result="BackgroundImageFix"/>
<feColorMatrix in="SourceAlpha" type="matrix" values="0 0 0 0 0 0 0 0 0 0 0 0 0 0 0 0 0 0 127 0" result="hardAlpha"/>
<feOffset dx="5.73755" dy="5.73755"/>
<feGaussianBlur stdDeviation="2.86877"/>
<feComposite in2="hardAlpha" operator="out"/>
<feColorMatrix type="matrix" values="0 0 0 0 0 0 0 0 0 0 0 0 0 0 0 0 0 0 0.25 0"/>
<feBlend mode="normal" in2="BackgroundImageFix" result="effect1_dropShadow_12857_25137"/>
<feBlend mode="normal" in="SourceGraphic" in2="effect1_dropShadow_12857_25137" result="shape"/>
</filter>
<filter id="filter4_d_12857_25137" x="1095.1" y="714.863" width="205.159" height="70.3135" filterUnits="userSpaceOnUse" color-interpolation-filters="sRGB">
<feFlood flood-opacity="0" result="BackgroundImageFix"/>
<feColorMatrix in="SourceAlpha" type="matrix" values="0 0 0 0 0 0 0 0 0 0 0 0 0 0 0 0 0 0 127 0" result="hardAlpha"/>
<feOffset dx="5.73755" dy="5.73755"/>
<feGaussianBlur stdDeviation="2.86877"/>
<feComposite in2="hardAlpha" operator="out"/>
<feColorMatrix type="matrix" values="0 0 0 0 0 0 0 0 0 0 0 0 0 0 0 0 0 0 0.25 0"/>
<feBlend mode="normal" in2="BackgroundImageFix" result="effect1_dropShadow_12857_25137"/>
<feBlend mode="normal" in="SourceGraphic" in2="effect1_dropShadow_12857_25137" result="shape"/>
</filter>
<linearGradient id="paint0_linear_12857_25137" x1="1330.31" y1="489.323" x2="1137.05" y2="797.396" gradientUnits="userSpaceOnUse">
<stop stop-color="white"/>
<stop offset="0.165772" stop-color="#71FFF6"/>
<stop offset="0.552083" stop-color="#4F75FF"/>
<stop offset="1" stop-color="#5E64FF" stop-opacity="0"/>
</linearGradient>
<radialGradient id="paint1_radial_12857_25137" cx="0" cy="0" r="1" gradientUnits="userSpaceOnUse" gradientTransform="translate(1215.23 790.955) rotate(-77.9792) scale(242.047 288.891)">
<stop offset="0.40625" stop-color="#3330B1" stop-opacity="0.1"/>
<stop offset="0.678936" stop-color="#58FFFF" stop-opacity="0.5"/>
<stop offset="1" stop-color="white"/>
</radialGradient>
<radialGradient id="paint2_radial_12857_25137" cx="0" cy="0" r="1" gradientUnits="userSpaceOnUse" gradientTransform="translate(1219.96 555.213) rotate(123.323) scale(308.011 527.585)">
<stop stop-color="white"/>
<stop offset="0.298196" stop-color="#5EF5FF"/>
<stop offset="0.538073" stop-color="#3432BD"/>
<stop offset="0.914407" stop-color="#171940"/>
</radialGradient>
<linearGradient id="paint3_linear_12857_25137" x1="1210.53" y1="535.152" x2="1135.37" y2="864.687" gradientUnits="userSpaceOnUse">
<stop stop-color="white"/>
<stop offset="1" stop-color="white" stop-opacity="0"/>
</linearGradient>
<linearGradient id="paint4_linear_12857_25137" x1="1344.17" y1="525.317" x2="1323.93" y2="764.315" gradientUnits="userSpaceOnUse">
<stop stop-color="white"/>
<stop offset="0.502014" stop-color="#4FFFF4" stop-opacity="0.1"/>
<stop offset="1" stop-color="#5ECFFF" stop-opacity="0.6"/>
</linearGradient>
<linearGradient id="paint5_linear_12857_25137" x1="1324.37" y1="422.649" x2="1379.04" y2="950.736" gradientUnits="userSpaceOnUse">
<stop stop-color="white"/>
<stop offset="1" stop-color="white" stop-opacity="0"/>
</linearGradient>
<radialGradient id="paint6_radial_12857_25137" cx="0" cy="0" r="1" gradientUnits="userSpaceOnUse" gradientTransform="translate(1251.67 614.25) rotate(80.7781) scale(256.959 263.968)">
<stop offset="0.0729167" stop-color="white"/>
<stop offset="0.507801" stop-color="#C173FF" stop-opacity="0.9"/>
<stop offset="1" stop-color="#0E26FF" stop-opacity="0"/>
</radialGradient>
<radialGradient id="paint7_radial_12857_25137" cx="0" cy="0" r="1" gradientUnits="userSpaceOnUse" gradientTransform="translate(1221.47 664.944) rotate(-114.774) scale(483.162 418.14)">
<stop offset="0.578125" stop-color="#3E0EFF" stop-opacity="0"/>
<stop offset="1" stop-color="#D24BE4"/>
</radialGradient>
<radialGradient id="paint8_radial_12857_25137" cx="0" cy="0" r="1" gradientUnits="userSpaceOnUse" gradientTransform="translate(1096.33 912.359) rotate(-55.6889) scale(314.707 553.715)">
<stop stop-color="#3330B1"/>
<stop offset="1" stop-color="#0A0926"/>
</radialGradient>
<linearGradient id="paint9_linear_12857_25137" x1="843.849" y1="278.228" x2="1276.12" y2="784.294" gradientUnits="userSpaceOnUse">
<stop stop-color="#8FBCFF" stop-opacity="0.6"/>
<stop offset="1" stop-color="#8FBCFF" stop-opacity="0"/>
</linearGradient>
<linearGradient id="paint10_linear_12857_25137" x1="1759.66" y1="662.891" x2="1964.94" y2="873.098" gradientUnits="userSpaceOnUse">
<stop stop-color="#8FBCFF" stop-opacity="0.6"/>
<stop offset="1" stop-color="#8FBCFF" stop-opacity="0"/>
</linearGradient>
<linearGradient id="paint11_linear_12857_25137" x1="889.938" y1="382.092" x2="1450.42" y2="1038.26" gradientUnits="userSpaceOnUse">
<stop stop-color="#8FBCFF" stop-opacity="0.6"/>
<stop offset="1" stop-color="#8FBCFF" stop-opacity="0"/>
</linearGradient>
<linearGradient id="paint12_linear_12857_25137" x1="707.793" y1="141.219" x2="1300.32" y2="834.9" gradientUnits="userSpaceOnUse">
<stop stop-color="white" stop-opacity="0.6"/>
<stop offset="0.34375" stop-color="#8FBCFF" stop-opacity="0.6"/>
<stop offset="1" stop-color="#8FBCFF" stop-opacity="0"/>
</linearGradient>
<linearGradient id="paint13_linear_12857_25137" x1="1249.19" y1="147.652" x2="1305.3" y2="390.712" gradientUnits="userSpaceOnUse">
<stop stop-color="#FF48D7"/>
<stop offset="0.234164" stop-color="white" stop-opacity="0.765836"/>
<stop offset="1" stop-color="#FF48D7" stop-opacity="0"/>
</linearGradient>
<linearGradient id="paint14_linear_12857_25137" x1="1661.46" y1="605.98" x2="1942.84" y2="894.117" gradientUnits="userSpaceOnUse">
<stop stop-color="white" stop-opacity="0.6"/>
<stop offset="0.34375" stop-color="#8FBCFF" stop-opacity="0.6"/>
<stop offset="1" stop-color="#8FBCFF" stop-opacity="0"/>
</linearGradient>
<linearGradient id="paint15_linear_12857_25137" x1="1642.73" y1="844.262" x2="1747.35" y2="878.616" gradientUnits="userSpaceOnUse">
<stop stop-color="#FF48D7"/>
<stop offset="0.234164" stop-color="white" stop-opacity="0.765836"/>
<stop offset="1" stop-color="#FF48D7" stop-opacity="0"/>
</linearGradient>
<linearGradient id="paint16_linear_12857_25137" x1="753.976" y1="221.216" x2="1182.95" y2="723.429" gradientUnits="userSpaceOnUse">
<stop stop-color="#8FBCFF" stop-opacity="0.6"/>
<stop offset="1" stop-color="#8FBCFF" stop-opacity="0"/>
</linearGradient>
<linearGradient id="paint17_linear_12857_25137" x1="1693.91" y1="639.209" x2="1897.63" y2="847.815" gradientUnits="userSpaceOnUse">
<stop stop-color="#8FBCFF" stop-opacity="0.6"/>
<stop offset="1" stop-color="#8FBCFF" stop-opacity="0"/>
</linearGradient>
<linearGradient id="paint18_linear_12857_25137" x1="1406.48" y1="725.45" x2="1444.78" y2="763.747" gradientUnits="userSpaceOnUse">
<stop stop-color="#23C865"/>
<stop offset="1" stop-color="#0C1E5E" stop-opacity="0"/>
</linearGradient>
<linearGradient id="paint19_linear_12857_25137" x1="1394.76" y1="708.938" x2="1306.24" y2="744.247" gradientUnits="userSpaceOnUse">
<stop offset="0.078125" stop-color="#AE42BD"/>
<stop offset="0.537799" stop-color="#23C865"/>
<stop offset="0.838542" stop-color="white"/>
</linearGradient>
<linearGradient id="paint20_linear_12857_25137" x1="1306.23" y1="745.055" x2="1383.52" y2="776.954" gradientUnits="userSpaceOnUse">
<stop offset="0.0833333" stop-color="#23C865"/>
<stop offset="0.427083" stop-color="#23C865" stop-opacity="0.74"/>
<stop offset="1" stop-color="#FF3DF7" stop-opacity="0.74"/>
</linearGradient>
<linearGradient id="paint21_linear_12857_25137" x1="1592.48" y1="838.42" x2="1636.19" y2="826.526" gradientUnits="userSpaceOnUse">
<stop stop-color="#6083FF"/>
<stop offset="1" stop-color="#0C1E5E" stop-opacity="0"/>
</linearGradient>
<linearGradient id="paint22_linear_12857_25137" x1="1593.34" y1="809.127" x2="1582.2" y2="888.057" gradientUnits="userSpaceOnUse">
<stop offset="0.173509" stop-color="#23C865"/>
<stop offset="0.395026" stop-color="#FF7BE2" stop-opacity="0.33"/>
<stop offset="0.703125" stop-color="white"/>
</linearGradient>
<linearGradient id="paint23_linear_12857_25137" x1="1582.78" y1="888.39" x2="1644.36" y2="836.416" gradientUnits="userSpaceOnUse">
<stop stop-color="#23C865"/>
<stop offset="0.427083" stop-color="#9D50FF" stop-opacity="0.5"/>
<stop offset="0.977116" stop-color="#A7F8C7"/>
</linearGradient>
<linearGradient id="paint24_linear_12857_25137" x1="996.226" y1="764.945" x2="969.917" y2="739.555" gradientUnits="userSpaceOnUse">
<stop stop-color="#6587FF"/>
<stop offset="1" stop-color="#D8E0FF" stop-opacity="0.9"/>
</linearGradient>
<linearGradient id="paint25_linear_12857_25137" x1="1002.61" y1="744.851" x2="1013.18" y2="690.526" gradientUnits="userSpaceOnUse">
<stop offset="0.135417" stop-color="white"/>
<stop offset="0.28125" stop-color="#89F8FF" stop-opacity="0.934673"/>
<stop offset="0.645833" stop-color="#71F6FF" stop-opacity="0.921354"/>
<stop offset="1" stop-color="#4A72FF" stop-opacity="0.9"/>
</linearGradient>
<linearGradient id="paint26_linear_12857_25137" x1="1034.52" y1="786.391" x2="1042.71" y2="738.727" gradientUnits="userSpaceOnUse">
<stop offset="0.170794" stop-color="#3D3BA9"/>
<stop offset="0.537799" stop-color="#23C865"/>
<stop offset="0.791667" stop-color="white"/>
</linearGradient>
<linearGradient id="paint27_linear_12857_25137" x1="983.089" y1="783.334" x2="992.048" y2="753.543" gradientUnits="userSpaceOnUse">
<stop offset="0.135417" stop-color="white"/>
<stop offset="0.28125" stop-color="#89F8FF" stop-opacity="0.934673"/>
<stop offset="0.645833" stop-color="#71F6FF" stop-opacity="0.921354"/>
<stop offset="1" stop-color="#4A72FF" stop-opacity="0.9"/>
</linearGradient>
<linearGradient id="paint28_linear_12857_25137" x1="1005.78" y1="764.177" x2="1033.67" y2="747.936" gradientUnits="userSpaceOnUse">
<stop offset="0.135417" stop-color="white"/>
<stop offset="0.28125" stop-color="#89F8FF" stop-opacity="0.934673"/>
<stop offset="0.645833" stop-color="#71F6FF" stop-opacity="0.921354"/>
<stop offset="1" stop-color="#4A72FF" stop-opacity="0.9"/>
</linearGradient>
<linearGradient id="paint29_linear_12857_25137" x1="982.497" y1="723.122" x2="988.007" y2="699.317" gradientUnits="userSpaceOnUse">
<stop offset="0.135417" stop-color="white"/>
<stop offset="0.28125" stop-color="#89F8FF" stop-opacity="0.934673"/>
<stop offset="0.645833" stop-color="#71F6FF" stop-opacity="0.921354"/>
<stop offset="1" stop-color="#4A72FF" stop-opacity="0.9"/>
</linearGradient>
<linearGradient id="paint30_linear_12857_25137" x1="1069.92" y1="705.536" x2="1010.05" y2="754.143" gradientUnits="userSpaceOnUse">
<stop stop-color="#AE42BD"/>
<stop offset="0.427083" stop-color="#23C865" stop-opacity="0.16"/>
<stop offset="0.977116" stop-color="#AE42BD"/>
</linearGradient>
<linearGradient id="paint31_linear_12857_25137" x1="969.099" y1="771.402" x2="1043.36" y2="692.842" gradientUnits="userSpaceOnUse">
<stop offset="0.170794" stop-color="#AE42BD"/>
<stop offset="0.458333" stop-color="#23C865"/>
<stop offset="0.729167" stop-color="white"/>
</linearGradient>
<linearGradient id="paint32_linear_12857_25137" x1="967.244" y1="742.936" x2="991.052" y2="703.792" gradientUnits="userSpaceOnUse">
<stop offset="0.135417" stop-color="white"/>
<stop offset="0.28125" stop-color="#89F8FF" stop-opacity="0.934673"/>
<stop offset="0.645833" stop-color="#71F6FF" stop-opacity="0.921354"/>
<stop offset="1" stop-color="#4A72FF" stop-opacity="0.9"/>
</linearGradient>
<linearGradient id="paint33_linear_12857_25137" x1="996.336" y1="763.137" x2="965.103" y2="763.137" gradientUnits="userSpaceOnUse">
<stop stop-color="#3E5ABE"/>
<stop offset="1" stop-color="#3E5ABE" stop-opacity="0"/>
</linearGradient>
<linearGradient id="paint34_linear_12857_25137" x1="1702.55" y1="803.557" x2="1632.39" y2="753.4" gradientUnits="userSpaceOnUse">
<stop stop-color="white"/>
<stop offset="0.227296" stop-color="#47FFDE" stop-opacity="0.8"/>
<stop offset="1" stop-color="#23C865" stop-opacity="0.8"/>
</linearGradient>
<linearGradient id="paint35_linear_12857_25137" x1="1682.93" y1="803.561" x2="1612.76" y2="753.405" gradientUnits="userSpaceOnUse">
<stop stop-color="#23C865" stop-opacity="0.91"/>
<stop offset="0.227296" stop-color="#47FFDE" stop-opacity="0.8"/>
<stop offset="1" stop-color="#6D61FF" stop-opacity="0.5"/>
</linearGradient>
<linearGradient id="paint36_linear_12857_25137" x1="1623.74" y1="695.933" x2="1663.65" y2="735.015" gradientUnits="userSpaceOnUse">
<stop stop-color="white"/>
<stop offset="0.227296" stop-color="#47FFDE" stop-opacity="0.8"/>
<stop offset="1" stop-color="#6D61FF" stop-opacity="0.5"/>
</linearGradient>
<linearGradient id="paint37_linear_12857_25137" x1="1706.19" y1="723.102" x2="1608.35" y2="833.454" gradientUnits="userSpaceOnUse">
<stop stop-color="#23C865"/>
<stop offset="1" stop-color="#47FFDE"/>
</linearGradient>
<radialGradient id="paint38_radial_12857_25137" cx="0" cy="0" r="1" gradientUnits="userSpaceOnUse" gradientTransform="translate(1687.54 744.131) rotate(-138.442) scale(118.044 67.5701)">
<stop stop-color="#23C865"/>
<stop offset="1" stop-color="#23C865"/>
</radialGradient>
<linearGradient id="paint39_linear_12857_25137" x1="1681.38" y1="803.557" x2="1626.97" y2="757.132" gradientUnits="userSpaceOnUse">
<stop stop-color="white"/>
<stop offset="0.227296" stop-color="#23C865"/>
<stop offset="0.848958" stop-color="#6D61FF" stop-opacity="0.69"/>
</linearGradient>
<linearGradient id="paint40_linear_12857_25137" x1="1704.93" y1="806.533" x2="1819.02" y2="822.391" gradientUnits="userSpaceOnUse">
<stop offset="0.0729167" stop-color="#23C865" stop-opacity="0.79"/>
<stop offset="0.484375" stop-color="#FCA6EF" stop-opacity="0.8"/>
<stop offset="0.802083" stop-color="white"/>
</linearGradient>
<linearGradient id="paint41_linear_12857_25137" x1="1681.92" y1="800.126" x2="1621.16" y2="818.473" gradientUnits="userSpaceOnUse">
<stop stop-color="#23C865"/>
<stop offset="1" stop-color="#23C865" stop-opacity="0.67"/>
</linearGradient>
<linearGradient id="paint42_linear_12857_25137" x1="1632.63" y1="756.427" x2="1590.52" y2="763.492" gradientUnits="userSpaceOnUse">
<stop stop-color="#7BFFE7" stop-opacity="0.9"/>
<stop offset="1" stop-color="#322994" stop-opacity="0.5"/>
</linearGradient>
<linearGradient id="paint43_linear_12857_25137" x1="1744.59" y1="801.705" x2="1663.39" y2="800.574" gradientUnits="userSpaceOnUse">
<stop stop-color="white"/>
<stop offset="0.586705" stop-color="#47FFDE" stop-opacity="0.9"/>
<stop offset="1" stop-color="#6D61FF" stop-opacity="0.5"/>
</linearGradient>
<linearGradient id="paint44_linear_12857_25137" x1="1593.89" y1="752.411" x2="1637.6" y2="760.634" gradientUnits="userSpaceOnUse">
<stop stop-color="#23C865"/>
<stop offset="0.536458" stop-color="#23C865" stop-opacity="0.8"/>
<stop offset="0.967948" stop-color="white"/>
</linearGradient>
<linearGradient id="paint45_linear_12857_25137" x1="1634.94" y1="714.167" x2="1598.99" y2="777.043" gradientUnits="userSpaceOnUse">
<stop offset="0.197917" stop-color="#FF439D"/>
<stop offset="0.630208" stop-color="#FFF9FE" stop-opacity="0"/>
</linearGradient>
<linearGradient id="paint46_linear_12857_25137" x1="1720.87" y1="851.746" x2="1855.37" y2="831.602" gradientUnits="userSpaceOnUse">
<stop offset="0.348278" stop-color="#23C865" stop-opacity="0.8"/>
<stop offset="0.788703" stop-color="#FCA6EF" stop-opacity="0.8"/>
<stop offset="1" stop-color="white"/>
</linearGradient>
<linearGradient id="paint47_linear_12857_25137" x1="1458.89" y1="784.046" x2="1480.65" y2="576.837" gradientUnits="userSpaceOnUse">
<stop offset="0.0729167" stop-color="#23C865" stop-opacity="0.44"/>
<stop offset="0.578125" stop-color="#FCA6EF" stop-opacity="0.75"/>
<stop offset="0.786458" stop-color="white"/>
</linearGradient>
<linearGradient id="paint48_linear_12857_25137" x1="690.758" y1="192.736" x2="960.166" y2="349.66" gradientUnits="userSpaceOnUse">
<stop stop-color="#0B0A1B"/>
<stop offset="0.455581" stop-color="#3D3C49" stop-opacity="0.37"/>
<stop offset="0.906885" stop-color="white" stop-opacity="0"/>
</linearGradient>
<linearGradient id="paint49_linear_12857_25137" x1="940.066" y1="138.023" x2="870.735" y2="220.571" gradientUnits="userSpaceOnUse">
<stop stop-color="white"/>
<stop offset="0.51776" stop-color="white" stop-opacity="0.26"/>
<stop offset="0.912844" stop-color="white" stop-opacity="0"/>
</linearGradient>
<clipPath id="clip0_12857_25137">
<rect width="1860" height="1002" fill="white"/>
</clipPath>
<clipPath id="clip1_12857_25137">
<rect width="282.95" height="288.864" fill="white" transform="translate(628.662 245.589) rotate(-35.3807)"/>
</clipPath>
</defs>
</svg>
