<svg width="62" height="26" viewBox="0 0 62 26" fill="none" xmlns="http://www.w3.org/2000/svg">
<path fill-rule="evenodd" clip-rule="evenodd" d="M62.0002 13.4306C62.0002 9.02168 59.8647 5.54279 55.783 5.54279C51.6841 5.54279 49.2041 9.02167 49.2041 13.3961C49.2041 18.58 52.1319 21.1978 56.3341 21.1978C58.3835 21.1978 59.9335 20.7328 61.1047 20.0783V16.6339C59.9335 17.2195 58.5902 17.5811 56.8852 17.5811C55.2147 17.5811 53.7335 16.9956 53.5441 14.9633H61.9658C61.9658 14.7395 62.0002 13.8439 62.0002 13.4306ZM53.4924 11.7945C53.4924 9.84834 54.6808 9.0389 55.7658 9.0389C56.8163 9.0389 57.9358 9.84834 57.9358 11.7945H53.4924Z" fill="#635BFF"/>
<path fill-rule="evenodd" clip-rule="evenodd" d="M42.5563 5.54279C40.8685 5.54279 39.7835 6.33501 39.1807 6.88612L38.9569 5.81834H35.168V25.8995L39.4735 24.9867L39.4907 20.1128C40.1107 20.5606 41.0235 21.1978 42.5391 21.1978C45.6219 21.1978 48.4291 18.7178 48.4291 13.2583C48.4119 8.2639 45.5702 5.54279 42.5563 5.54279ZM41.523 17.4089C40.5069 17.4089 39.9041 17.0472 39.4907 16.5995L39.4735 10.21C39.9213 9.71056 40.5413 9.36612 41.523 9.36612C43.0902 9.36612 44.1752 11.1228 44.1752 13.3789C44.1752 15.6867 43.1074 17.4089 41.523 17.4089Z" fill="#635BFF"/>
<path fill-rule="evenodd" clip-rule="evenodd" d="M29.2432 4.5267L33.5659 3.5967V0.100586L29.2432 1.01336V4.5267Z" fill="#635BFF"/>
<path d="M33.5659 5.83557H29.2432V20.905H33.5659V5.83557Z" fill="#635BFF"/>
<path fill-rule="evenodd" clip-rule="evenodd" d="M24.6108 7.11006L24.3352 5.83561H20.6152V20.9051H24.9208V10.6923C25.9369 9.36617 27.6591 9.60728 28.193 9.79672V5.83561C27.6419 5.62894 25.6269 5.25006 24.6108 7.11006Z" fill="#635BFF"/>
<path fill-rule="evenodd" clip-rule="evenodd" d="M15.9997 2.09839L11.7975 2.99394L11.7803 16.7889C11.7803 19.3378 13.6919 21.2151 16.2408 21.2151C17.6531 21.2151 18.6864 20.9567 19.2547 20.6467V17.1506C18.7036 17.3745 15.9825 18.1667 15.9825 15.6178V9.50394H19.2547V5.83561H15.9825L15.9997 2.09839Z" fill="#635BFF"/>
<path fill-rule="evenodd" clip-rule="evenodd" d="M4.35722 10.21C4.35722 9.53834 4.90833 9.28001 5.82111 9.28001C7.13 9.28001 8.78333 9.67612 10.0922 10.3822V6.33501C8.66278 5.76667 7.25056 5.54279 5.82111 5.54279C2.325 5.54279 0 7.36834 0 10.4167C0 15.17 6.54444 14.4122 6.54444 16.4617C6.54444 17.2539 5.85556 17.5122 4.89111 17.5122C3.46167 17.5122 1.63611 16.9267 0.189444 16.1345V20.2333C1.79111 20.9222 3.41 21.215 4.89111 21.215C8.47333 21.215 10.9361 19.4411 10.9361 16.3583C10.9189 11.2261 4.35722 12.1389 4.35722 10.21Z" fill="#635BFF"/>
</svg>
