<svg width="11" height="11" viewBox="0 0 11 11" fill="none" xmlns="http://www.w3.org/2000/svg">
<path d="M11 5.5C11 8.53757 8.53757 11 5.5 11C2.46243 11 0 8.53757 0 5.5C0 2.46243 2.46243 0 5.5 0C8.53757 0 11 2.46243 11 5.5Z" fill="white"/>
<path d="M7.9992 0.600548C8.64259 0.92875 9.21504 1.38047 9.68387 1.9299C10.1527 2.47934 10.5087 3.11574 10.7316 3.80276C10.9545 4.48978 11.0398 5.21398 10.9828 5.93399C10.9258 6.65401 10.7276 7.35575 10.3994 7.99915C10.0712 8.64254 9.61943 9.21499 9.07 9.68382C8.52056 10.1526 7.88416 10.5086 7.19714 10.7315C6.51012 10.9544 5.78592 11.0398 5.06591 10.9828C4.34589 10.9258 3.64415 10.7275 3.00075 10.3993L3.86617 8.70277C4.28678 8.91732 4.74552 9.04693 5.21621 9.08419C5.68691 9.12146 6.16033 9.06565 6.60945 8.91995C7.05858 8.77425 7.47461 8.54152 7.83379 8.23504C8.19297 7.92856 8.48826 7.55433 8.70282 7.13373C8.91737 6.71312 9.04698 6.25438 9.08424 5.78369C9.12151 5.31299 9.0657 4.83957 8.92 4.39045C8.7743 3.94132 8.54157 3.52529 8.23509 3.16611C7.92861 2.80693 7.55438 2.51164 7.13378 2.29708L7.9992 0.600548Z" fill="#C4C4C4"/>
<path d="M9.16667 5.5C9.16667 7.52504 7.52504 9.16667 5.5 9.16667C3.47496 9.16667 1.83333 7.52504 1.83333 5.5C1.83333 3.47496 3.47496 1.83333 5.5 1.83333C7.52504 1.83333 9.16667 3.47496 9.16667 5.5Z" fill="#959595"/>
</svg>
