<svg width="12" height="13" viewBox="0 0 12 13" fill="none" xmlns="http://www.w3.org/2000/svg">
<path d="M6.00969 6.51246L2.11475 2.61751L4.42603 2.68171L6.00969 1.01245V6.51246Z" fill="#55DFB4"/>
<path d="M6.01408 6.51288L0.505799 6.51288L2.18552 4.92395L2.12499 2.62379L6.01408 6.51288Z" fill="#92DBB1"/>
<path d="M6.0096 6.51246L9.90454 2.61751L7.59325 2.68171L6.0096 1.01245V6.51246Z" fill="#5AD0AC"/>
<path d="M6.0052 6.51288L11.5135 6.51288L9.83376 4.92395L9.89429 2.62379L6.0052 6.51288Z" fill="#23C865"/>
<path d="M6.01423 6.51244L9.90918 10.4074L7.59789 10.3432L6.01423 12.0125V6.51244Z" fill="#2AC670"/>
<path d="M6.0096 6.51202L11.5179 6.51202L9.83816 8.10095L9.89869 10.4011L6.0096 6.51202Z" fill="#7AF5C4"/>
<path d="M6.01409 6.51244L2.11914 10.4074L4.43043 10.3432L6.01409 12.0125V6.51244Z" fill="#23C865"/>
<path d="M6.01872 6.51202L0.510437 6.51202L2.19016 8.10095L2.12963 10.4011L6.01872 6.51202Z" fill="#23C865"/>
<path d="M6.01355 3.71753L7.98079 4.53239L8.79565 6.49963L7.98079 8.46688L6.01355 9.28174L4.0463 8.46688L3.23145 6.49963L4.0463 4.53239L6.01355 3.71753Z" fill="#23C865" style="mix-blend-mode:hard-light"/>
<g opacity="0.3">
<path d="M6.01385 3.71734L4.43019 2.6687L4.04498 4.53057L2.18311 4.91579L3.23174 6.49944L2.18311 8.10451L4.04498 8.46832L4.43019 10.3516L6.01385 9.28155L7.59751 10.3516L7.98272 8.46832L9.86599 8.0831L8.79595 6.49944L9.82319 4.91579L7.98272 4.53057L7.59751 2.6901L6.01385 3.71734Z" fill="#ABFFFF" style="mix-blend-mode:hard-light"/>
</g>
</svg>
