<svg width="13" height="11" viewBox="0 0 13 11" fill="none" xmlns="http://www.w3.org/2000/svg">
<path d="M6.48659 2.51709L8.23643 3.76372L9.88601 4.98692L9.23404 6.97863L8.58755 8.98319L6.48659 9.02735L4.38562 8.98319L3.75016 6.98058L3.08716 4.98692L4.79538 3.76372L6.48659 2.51709Z" fill="#F8D635"/>
<path d="M6.48645 2.51716V0L12.2759 4.20366L9.88462 4.98398L6.48645 2.51716Z" fill="#FADA39"/>
<path d="M6.48652 2.54255V0.0253906L0.671875 4.22905L3.08835 4.9842L6.48652 2.54255Z" fill="#F8D736"/>
<path d="M8.57581 8.98622L10.055 10.9958L12.276 4.20361L9.88473 4.98393L8.57581 8.98622Z" fill="#F2CA2B"/>
<path d="M4.39726 8.98633L2.88696 11.0001H10.0609L8.57575 8.98633H4.39726Z" fill="#D0AB31"/>
<path d="M4.39725 8.9862L2.88695 10.9999L0.697021 4.22876L3.08833 4.98391L4.39725 8.9862Z" fill="#E5B927"/>
<path fill-rule="evenodd" clip-rule="evenodd" d="M6.48595 2.44482L8.27087 3.71644L9.95485 4.96515L9.2898 6.99678L9.28973 6.99703L8.63049 9.0411L6.48654 9.08617L4.34238 9.04109L3.69447 6.99924L3.69422 6.99847L3.01782 4.96456L4.76086 3.71643L6.48595 2.44482ZM6.48713 2.58967L4.82948 3.81156L3.1564 5.00959L3.80602 6.963L4.42878 8.92559L6.48654 8.96885L8.54451 8.92559L9.17818 6.96078L9.17826 6.96054L9.81708 5.009L8.2019 3.81131L6.48713 2.58967Z" fill="#FEE35B"/>
</svg>
