<svg width="12" height="11" viewBox="0 0 12 11" fill="none" xmlns="http://www.w3.org/2000/svg">
<path opacity="0.3" d="M5.73828 0L8.11694 1.38005L10.5014 2.75L10.4956 5.5L10.5014 8.25L8.11694 9.61996L5.73828 11L3.35962 9.61996L0.975142 8.25L0.980968 5.5L0.975142 2.75L3.35962 1.38005L5.73828 0Z" fill="#D2D2D2"/>
<path d="M5.7384 5.52295V0.0229492L7.41132 2.61253L10.5051 2.75003L5.7384 5.52295Z" fill="#D5D9DB"/>
<path d="M5.7384 5.5L10.5051 8.25L9.08424 5.5L10.5051 2.75L5.7384 5.5Z" fill="#B6D0E9"/>
<path d="M5.7384 5.5V11L7.41132 8.3875L10.5051 8.25L5.7384 5.5Z" fill="#DDEBFF"/>
<path d="M5.7384 5.52295V0.0229492L4.06549 2.61253L0.971736 2.75003L5.7384 5.52295Z" fill="#E7EAEF"/>
<path d="M5.7384 5.5L0.971736 8.25L2.39257 5.5L0.971736 2.75L5.7384 5.5Z" fill="#BDC0CA"/>
<path d="M5.7384 5.5V11L4.06549 8.3875L0.971736 8.25L5.7384 5.5Z" fill="#CAD3E8"/>
<g opacity="0.6">
<path d="M4.08114 2.61414L5.7441 4.22408L7.40707 2.61414L6.84429 4.85928L9.07003 5.49447L6.84429 6.12967L7.40707 8.37481L5.7441 6.76486L4.08114 8.37481L4.64391 6.12967L2.41818 5.49447L4.64391 4.85928L4.08114 2.61414Z" fill="#5C7FA7" style="mix-blend-mode:hard-light"/>
</g>
</svg>
