<svg width="823" height="59" viewBox="0 0 823 59" fill="none" xmlns="http://www.w3.org/2000/svg">
<g filter="url(#filter0_dd_7718_11441)">
<path d="M81 8H739" stroke="white" stroke-width="3.5"/>
<circle cx="84.5" cy="7.5" r="7.5" fill="#23C865"/>
<circle cx="512.5" cy="7.5" r="7.5" fill="white"/>
<circle cx="285.5" cy="7.5" r="7.5" fill="white"/>
<circle cx="738.5" cy="7.5" r="7.5" fill="white"/>
<path d="M10.9256 28.6594H12.1096V39.8594H10.9256V28.6594ZM23.1937 27.9874V39.8594H22.1057V38.1954C21.7644 38.7607 21.311 39.1927 20.7457 39.4914C20.191 39.79 19.5617 39.9394 18.8577 39.9394C18.0684 39.9394 17.3537 39.758 16.7137 39.3954C16.0737 39.0327 15.5724 38.526 15.2097 37.8754C14.847 37.2247 14.6657 36.4834 14.6657 35.6514C14.6657 34.8194 14.847 34.078 15.2097 33.4274C15.5724 32.7767 16.0737 32.2754 16.7137 31.9234C17.3537 31.5607 18.0684 31.3794 18.8577 31.3794C19.5404 31.3794 20.1537 31.5234 20.6977 31.8114C21.2524 32.0887 21.7057 32.4994 22.0577 33.0434V27.9874H23.1937ZM18.9537 38.9314C19.5404 38.9314 20.0684 38.798 20.5377 38.5314C21.0177 38.254 21.391 37.8647 21.6577 37.3634C21.935 36.862 22.0737 36.2914 22.0737 35.6514C22.0737 35.0114 21.935 34.4407 21.6577 33.9394C21.391 33.438 21.0177 33.054 20.5377 32.7874C20.0684 32.51 19.5404 32.3714 18.9537 32.3714C18.3564 32.3714 17.8177 32.51 17.3377 32.7874C16.8684 33.054 16.495 33.438 16.2177 33.9394C15.951 34.4407 15.8177 35.0114 15.8177 35.6514C15.8177 36.2914 15.951 36.862 16.2177 37.3634C16.495 37.8647 16.8684 38.254 17.3377 38.5314C17.8177 38.798 18.3564 38.9314 18.9537 38.9314ZM33.6854 36.0034H26.6454C26.7094 36.878 27.0454 37.5874 27.6534 38.1314C28.2614 38.6647 29.0294 38.9314 29.9574 38.9314C30.4801 38.9314 30.9601 38.8407 31.3974 38.6594C31.8348 38.4674 32.2134 38.19 32.5334 37.8274L33.1734 38.5634C32.8001 39.0114 32.3308 39.3527 31.7654 39.5874C31.2108 39.822 30.5974 39.9394 29.9254 39.9394C29.0614 39.9394 28.2934 39.758 27.6214 39.3954C26.9601 39.022 26.4428 38.51 26.0694 37.8594C25.6961 37.2087 25.5094 36.4727 25.5094 35.6514C25.5094 34.83 25.6854 34.094 26.0374 33.4434C26.4001 32.7927 26.8908 32.286 27.5094 31.9234C28.1388 31.5607 28.8428 31.3794 29.6214 31.3794C30.4001 31.3794 31.0988 31.5607 31.7174 31.9234C32.3361 32.286 32.8214 32.7927 33.1734 33.4434C33.5254 34.0834 33.7014 34.8194 33.7014 35.6514L33.6854 36.0034ZM29.6214 32.3554C28.8108 32.3554 28.1281 32.6167 27.5734 33.1394C27.0294 33.6514 26.7201 34.3234 26.6454 35.1554H32.6134C32.5388 34.3234 32.2241 33.6514 31.6694 33.1394C31.1254 32.6167 30.4428 32.3554 29.6214 32.3554ZM40.3017 31.3794C41.3577 31.3794 42.195 31.6887 42.8137 32.3074C43.443 32.9154 43.7577 33.806 43.7577 34.9794V39.8594H42.6217V35.0914C42.6217 34.2167 42.403 33.55 41.9657 33.0914C41.5284 32.6327 40.9044 32.4034 40.0937 32.4034C39.187 32.4034 38.467 32.6754 37.9337 33.2194C37.411 33.7527 37.1497 34.494 37.1497 35.4434V39.8594H36.0137V31.4434H37.1017V32.9954C37.411 32.4834 37.8377 32.0887 38.3817 31.8114C38.9364 31.5234 39.5764 31.3794 40.3017 31.3794ZM51.2738 39.3474C51.0605 39.5394 50.7938 39.6887 50.4738 39.7954C50.1645 39.8914 49.8391 39.9394 49.4978 39.9394C48.7085 39.9394 48.1005 39.726 47.6738 39.2994C47.2471 38.8727 47.0338 38.27 47.0338 37.4914V32.4034H45.5298V31.4434H47.0338V29.6034H48.1698V31.4434H50.7298V32.4034H48.1698V37.4274C48.1698 37.9287 48.2925 38.3127 48.5378 38.5794C48.7938 38.8354 49.1565 38.9634 49.6258 38.9634C49.8605 38.9634 50.0845 38.926 50.2978 38.8514C50.5218 38.7767 50.7138 38.67 50.8738 38.5314L51.2738 39.3474ZM53.3418 31.4434H54.4778V39.8594H53.3418V31.4434ZM53.9178 29.6034C53.6831 29.6034 53.4858 29.5234 53.3258 29.3634C53.1658 29.2034 53.0858 29.0114 53.0858 28.7874C53.0858 28.574 53.1658 28.3874 53.3258 28.2274C53.4858 28.0674 53.6831 27.9874 53.9178 27.9874C54.1525 27.9874 54.3498 28.0674 54.5098 28.2274C54.6698 28.3767 54.7498 28.558 54.7498 28.7714C54.7498 29.006 54.6698 29.2034 54.5098 29.3634C54.3498 29.5234 54.1525 29.6034 53.9178 29.6034ZM62.0707 39.3474C61.8574 39.5394 61.5907 39.6887 61.2707 39.7954C60.9614 39.8914 60.636 39.9394 60.2947 39.9394C59.5054 39.9394 58.8974 39.726 58.4707 39.2994C58.044 38.8727 57.8307 38.27 57.8307 37.4914V32.4034H56.3267V31.4434H57.8307V29.6034H58.9667V31.4434H61.5267V32.4034H58.9667V37.4274C58.9667 37.9287 59.0894 38.3127 59.3347 38.5794C59.5907 38.8354 59.9534 38.9634 60.4227 38.9634C60.6574 38.9634 60.8814 38.926 61.0947 38.8514C61.3187 38.7767 61.5107 38.67 61.6707 38.5314L62.0707 39.3474ZM71.0544 31.4434L66.8464 40.8674C66.5051 41.6567 66.1104 42.2167 65.6624 42.5474C65.2144 42.878 64.6758 43.0434 64.0464 43.0434C63.6411 43.0434 63.2624 42.9794 62.9104 42.8514C62.5584 42.7234 62.2544 42.5314 61.9984 42.2754L62.5264 41.4274C62.9531 41.854 63.4651 42.0674 64.0624 42.0674C64.4464 42.0674 64.7718 41.9607 65.0384 41.7474C65.3158 41.534 65.5718 41.1714 65.8064 40.6594L66.1744 39.8434L62.4144 31.4434H63.5984L66.7664 38.5954L69.9344 31.4434H71.0544ZM84.5218 27.9874V39.8594H83.4338V38.1954C83.0925 38.7607 82.6391 39.1927 82.0738 39.4914C81.5191 39.79 80.8898 39.9394 80.1858 39.9394C79.3965 39.9394 78.6818 39.758 78.0418 39.3954C77.4018 39.0327 76.9005 38.526 76.5378 37.8754C76.1751 37.2247 75.9938 36.4834 75.9938 35.6514C75.9938 34.8194 76.1751 34.078 76.5378 33.4274C76.9005 32.7767 77.4018 32.2754 78.0418 31.9234C78.6818 31.5607 79.3965 31.3794 80.1858 31.3794C80.8685 31.3794 81.4818 31.5234 82.0258 31.8114C82.5805 32.0887 83.0338 32.4994 83.3858 33.0434V27.9874H84.5218ZM80.2818 38.9314C80.8685 38.9314 81.3965 38.798 81.8658 38.5314C82.3458 38.254 82.7191 37.8647 82.9858 37.3634C83.2631 36.862 83.4018 36.2914 83.4018 35.6514C83.4018 35.0114 83.2631 34.4407 82.9858 33.9394C82.7191 33.438 82.3458 33.054 81.8658 32.7874C81.3965 32.51 80.8685 32.3714 80.2818 32.3714C79.6845 32.3714 79.1458 32.51 78.6658 32.7874C78.1965 33.054 77.8231 33.438 77.5458 33.9394C77.2791 34.4407 77.1458 35.0114 77.1458 35.6514C77.1458 36.2914 77.2791 36.862 77.5458 37.3634C77.8231 37.8647 78.1965 38.254 78.6658 38.5314C79.1458 38.798 79.6845 38.9314 80.2818 38.9314ZM91.1256 39.9394C90.3149 39.9394 89.5842 39.758 88.9336 39.3954C88.2829 39.022 87.7709 38.51 87.3976 37.8594C87.0242 37.2087 86.8376 36.4727 86.8376 35.6514C86.8376 34.83 87.0242 34.094 87.3976 33.4434C87.7709 32.7927 88.2829 32.286 88.9336 31.9234C89.5842 31.5607 90.3149 31.3794 91.1256 31.3794C91.9362 31.3794 92.6669 31.5607 93.3176 31.9234C93.9682 32.286 94.4749 32.7927 94.8376 33.4434C95.2109 34.094 95.3976 34.83 95.3976 35.6514C95.3976 36.4727 95.2109 37.2087 94.8376 37.8594C94.4749 38.51 93.9682 39.022 93.3176 39.3954C92.6669 39.758 91.9362 39.9394 91.1256 39.9394ZM91.1256 38.9314C91.7229 38.9314 92.2562 38.798 92.7256 38.5314C93.2056 38.254 93.5789 37.8647 93.8456 37.3634C94.1122 36.862 94.2456 36.2914 94.2456 35.6514C94.2456 35.0114 94.1122 34.4407 93.8456 33.9394C93.5789 33.438 93.2056 33.054 92.7256 32.7874C92.2562 32.51 91.7229 32.3714 91.1256 32.3714C90.5282 32.3714 89.9896 32.51 89.5096 32.7874C89.0402 33.054 88.6669 33.438 88.3896 33.9394C88.1229 34.4407 87.9896 35.0114 87.9896 35.6514C87.9896 36.2914 88.1229 36.862 88.3896 37.3634C88.6669 37.8647 89.0402 38.254 89.5096 38.5314C89.9896 38.798 90.5282 38.9314 91.1256 38.9314ZM101.205 39.9394C100.373 39.9394 99.6261 39.758 98.9648 39.3954C98.3141 39.0327 97.8021 38.526 97.4288 37.8754C97.0555 37.214 96.8688 36.4727 96.8688 35.6514C96.8688 34.83 97.0555 34.094 97.4288 33.4434C97.8021 32.7927 98.3141 32.286 98.9648 31.9234C99.6261 31.5607 100.373 31.3794 101.205 31.3794C101.93 31.3794 102.575 31.5234 103.141 31.8114C103.717 32.0887 104.17 32.4994 104.501 33.0434L103.653 33.6194C103.375 33.2034 103.023 32.894 102.597 32.6914C102.17 32.478 101.706 32.3714 101.205 32.3714C100.597 32.3714 100.047 32.51 99.5568 32.7874C99.0768 33.054 98.6981 33.438 98.4208 33.9394C98.1541 34.4407 98.0208 35.0114 98.0208 35.6514C98.0208 36.302 98.1541 36.878 98.4208 37.3794C98.6981 37.87 99.0768 38.254 99.5568 38.5314C100.047 38.798 100.597 38.9314 101.205 38.9314C101.706 38.9314 102.17 38.83 102.597 38.6274C103.023 38.4247 103.375 38.1154 103.653 37.6994L104.501 38.2754C104.17 38.8194 103.717 39.2354 103.141 39.5234C102.565 39.8007 101.919 39.9394 101.205 39.9394ZM114.316 31.4434V39.8594H113.228V38.3234C112.93 38.8354 112.519 39.2354 111.996 39.5234C111.474 39.8007 110.876 39.9394 110.204 39.9394C109.106 39.9394 108.236 39.6354 107.596 39.0274C106.967 38.4087 106.652 37.5074 106.652 36.3234V31.4434H107.788V36.2114C107.788 37.0967 108.007 37.7687 108.444 38.2274C108.882 38.686 109.506 38.9154 110.316 38.9154C111.202 38.9154 111.9 38.6487 112.412 38.1154C112.924 37.5714 113.18 36.8194 113.18 35.8594V31.4434H114.316ZM127.994 31.3794C129.05 31.3794 129.877 31.6834 130.474 32.2914C131.082 32.8994 131.386 33.7954 131.386 34.9794V39.8594H130.25V35.0914C130.25 34.2167 130.037 33.55 129.61 33.0914C129.194 32.6327 128.602 32.4034 127.834 32.4034C126.959 32.4034 126.271 32.6754 125.77 33.2194C125.269 33.7527 125.018 34.494 125.018 35.4434V39.8594H123.882V35.0914C123.882 34.2167 123.669 33.55 123.242 33.0914C122.826 32.6327 122.229 32.4034 121.45 32.4034C120.586 32.4034 119.898 32.6754 119.386 33.2194C118.885 33.7527 118.634 34.494 118.634 35.4434V39.8594H117.498V31.4434H118.586V32.9794C118.885 32.4674 119.301 32.0727 119.834 31.7954C120.367 31.518 120.981 31.3794 121.674 31.3794C122.378 31.3794 122.986 31.5287 123.498 31.8274C124.021 32.126 124.41 32.5687 124.666 33.1554C124.975 32.6007 125.418 32.1687 125.994 31.8594C126.581 31.5394 127.247 31.3794 127.994 31.3794ZM141.826 36.0034H134.786C134.85 36.878 135.186 37.5874 135.794 38.1314C136.402 38.6647 137.17 38.9314 138.098 38.9314C138.621 38.9314 139.101 38.8407 139.538 38.6594C139.975 38.4674 140.354 38.19 140.674 37.8274L141.314 38.5634C140.941 39.0114 140.471 39.3527 139.906 39.5874C139.351 39.822 138.738 39.9394 138.066 39.9394C137.202 39.9394 136.434 39.758 135.762 39.3954C135.101 39.022 134.583 38.51 134.21 37.8594C133.837 37.2087 133.65 36.4727 133.65 35.6514C133.65 34.83 133.826 34.094 134.178 33.4434C134.541 32.7927 135.031 32.286 135.65 31.9234C136.279 31.5607 136.983 31.3794 137.762 31.3794C138.541 31.3794 139.239 31.5607 139.858 31.9234C140.477 32.286 140.962 32.7927 141.314 33.4434C141.666 34.0834 141.842 34.8194 141.842 35.6514L141.826 36.0034ZM137.762 32.3554C136.951 32.3554 136.269 32.6167 135.714 33.1394C135.17 33.6514 134.861 34.3234 134.786 35.1554H140.754C140.679 34.3234 140.365 33.6514 139.81 33.1394C139.266 32.6167 138.583 32.3554 137.762 32.3554ZM148.442 31.3794C149.498 31.3794 150.336 31.6887 150.954 32.3074C151.584 32.9154 151.898 33.806 151.898 34.9794V39.8594H150.762V35.0914C150.762 34.2167 150.544 33.55 150.106 33.0914C149.669 32.6327 149.045 32.4034 148.234 32.4034C147.328 32.4034 146.608 32.6754 146.074 33.2194C145.552 33.7527 145.29 34.494 145.29 35.4434V39.8594H144.154V31.4434H145.242V32.9954C145.552 32.4834 145.978 32.0887 146.522 31.8114C147.077 31.5234 147.717 31.3794 148.442 31.3794ZM159.414 39.3474C159.201 39.5394 158.934 39.6887 158.614 39.7954C158.305 39.8914 157.98 39.9394 157.638 39.9394C156.849 39.9394 156.241 39.726 155.814 39.2994C155.388 38.8727 155.174 38.27 155.174 37.4914V32.4034H153.67V31.4434H155.174V29.6034H156.31V31.4434H158.87V32.4034H156.31V37.4274C156.31 37.9287 156.433 38.3127 156.678 38.5794C156.934 38.8354 157.297 38.9634 157.766 38.9634C158.001 38.9634 158.225 38.926 158.438 38.8514C158.662 38.7767 158.854 38.67 159.014 38.5314L159.414 39.3474Z" fill="white"/>
<path d="M226.852 28.6594C228.281 28.6594 229.401 29.0007 230.212 29.6834C231.023 30.366 231.428 31.3047 231.428 32.4994C231.428 33.694 231.023 34.6327 230.212 35.3154C229.401 35.9874 228.281 36.3234 226.852 36.3234H223.844V39.8594H222.66V28.6594H226.852ZM226.82 35.2834C227.929 35.2834 228.777 35.0434 229.364 34.5634C229.951 34.0727 230.244 33.3847 230.244 32.4994C230.244 31.5927 229.951 30.8994 229.364 30.4194C228.777 29.9287 227.929 29.6834 226.82 29.6834H223.844V35.2834H226.82ZM234.617 33.0914C234.884 32.526 235.279 32.0994 235.801 31.8114C236.335 31.5234 236.991 31.3794 237.769 31.3794V32.4834L237.497 32.4674C236.612 32.4674 235.919 32.7394 235.417 33.2834C234.916 33.8274 234.665 34.59 234.665 35.5714V39.8594H233.529V31.4434H234.617V33.0914ZM243.188 39.9394C242.377 39.9394 241.647 39.758 240.996 39.3954C240.345 39.022 239.833 38.51 239.46 37.8594C239.087 37.2087 238.9 36.4727 238.9 35.6514C238.9 34.83 239.087 34.094 239.46 33.4434C239.833 32.7927 240.345 32.286 240.996 31.9234C241.647 31.5607 242.377 31.3794 243.188 31.3794C243.999 31.3794 244.729 31.5607 245.38 31.9234C246.031 32.286 246.537 32.7927 246.9 33.4434C247.273 34.094 247.46 34.83 247.46 35.6514C247.46 36.4727 247.273 37.2087 246.9 37.8594C246.537 38.51 246.031 39.022 245.38 39.3954C244.729 39.758 243.999 39.9394 243.188 39.9394ZM243.188 38.9314C243.785 38.9314 244.319 38.798 244.788 38.5314C245.268 38.254 245.641 37.8647 245.908 37.3634C246.175 36.862 246.308 36.2914 246.308 35.6514C246.308 35.0114 246.175 34.4407 245.908 33.9394C245.641 33.438 245.268 33.054 244.788 32.7874C244.319 32.51 243.785 32.3714 243.188 32.3714C242.591 32.3714 242.052 32.51 241.572 32.7874C241.103 33.054 240.729 33.438 240.452 33.9394C240.185 34.4407 240.052 35.0114 240.052 35.6514C240.052 36.2914 240.185 36.862 240.452 37.3634C240.729 37.8647 241.103 38.254 241.572 38.5314C242.052 38.798 242.591 38.9314 243.188 38.9314ZM253.219 39.9394C252.409 39.9394 251.678 39.758 251.027 39.3954C250.377 39.022 249.865 38.51 249.491 37.8594C249.118 37.2087 248.931 36.4727 248.931 35.6514C248.931 34.83 249.118 34.094 249.491 33.4434C249.865 32.7927 250.377 32.286 251.027 31.9234C251.678 31.5607 252.409 31.3794 253.219 31.3794C254.03 31.3794 254.761 31.5607 255.411 31.9234C256.062 32.286 256.569 32.7927 256.931 33.4434C257.305 34.094 257.491 34.83 257.491 35.6514C257.491 36.4727 257.305 37.2087 256.931 37.8594C256.569 38.51 256.062 39.022 255.411 39.3954C254.761 39.758 254.03 39.9394 253.219 39.9394ZM253.219 38.9314C253.817 38.9314 254.35 38.798 254.819 38.5314C255.299 38.254 255.673 37.8647 255.939 37.3634C256.206 36.862 256.339 36.2914 256.339 35.6514C256.339 35.0114 256.206 34.4407 255.939 33.9394C255.673 33.438 255.299 33.054 254.819 32.7874C254.35 32.51 253.817 32.3714 253.219 32.3714C252.622 32.3714 252.083 32.51 251.603 32.7874C251.134 33.054 250.761 33.438 250.483 33.9394C250.217 34.4407 250.083 35.0114 250.083 35.6514C250.083 36.2914 250.217 36.862 250.483 37.3634C250.761 37.8647 251.134 38.254 251.603 38.5314C252.083 38.798 252.622 38.9314 253.219 38.9314ZM262.595 28.8674C262.104 28.8674 261.731 29.0007 261.475 29.2674C261.229 29.534 261.107 29.9287 261.107 30.4514V31.4434H263.699V32.4034H261.139V39.8594H260.003V32.4034H258.499V31.4434H260.003V30.4034C260.003 29.6354 260.221 29.0274 260.659 28.5794C261.107 28.1314 261.736 27.9074 262.547 27.9074C262.867 27.9074 263.176 27.9554 263.475 28.0514C263.773 28.1367 264.024 28.2647 264.227 28.4354L263.843 29.2834C263.512 29.006 263.096 28.8674 262.595 28.8674ZM272.86 39.9394C272.049 39.9394 271.319 39.758 270.668 39.3954C270.017 39.022 269.505 38.51 269.132 37.8594C268.759 37.2087 268.572 36.4727 268.572 35.6514C268.572 34.83 268.759 34.094 269.132 33.4434C269.505 32.7927 270.017 32.286 270.668 31.9234C271.319 31.5607 272.049 31.3794 272.86 31.3794C273.671 31.3794 274.401 31.5607 275.052 31.9234C275.703 32.286 276.209 32.7927 276.572 33.4434C276.945 34.094 277.132 34.83 277.132 35.6514C277.132 36.4727 276.945 37.2087 276.572 37.8594C276.209 38.51 275.703 39.022 275.052 39.3954C274.401 39.758 273.671 39.9394 272.86 39.9394ZM272.86 38.9314C273.457 38.9314 273.991 38.798 274.46 38.5314C274.94 38.254 275.313 37.8647 275.58 37.3634C275.847 36.862 275.98 36.2914 275.98 35.6514C275.98 35.0114 275.847 34.4407 275.58 33.9394C275.313 33.438 274.94 33.054 274.46 32.7874C273.991 32.51 273.457 32.3714 272.86 32.3714C272.263 32.3714 271.724 32.51 271.244 32.7874C270.775 33.054 270.401 33.438 270.124 33.9394C269.857 34.4407 269.724 35.0114 269.724 35.6514C269.724 36.2914 269.857 36.862 270.124 37.3634C270.401 37.8647 270.775 38.254 271.244 38.5314C271.724 38.798 272.263 38.9314 272.86 38.9314ZM282.235 28.8674C281.745 28.8674 281.371 29.0007 281.115 29.2674C280.87 29.534 280.747 29.9287 280.747 30.4514V31.4434H283.339V32.4034H280.779V39.8594H279.643V32.4034H278.139V31.4434H279.643V30.4034C279.643 29.6354 279.862 29.0274 280.299 28.5794C280.747 28.1314 281.377 27.9074 282.187 27.9074C282.507 27.9074 282.817 27.9554 283.115 28.0514C283.414 28.1367 283.665 28.2647 283.867 28.4354L283.483 29.2834C283.153 29.006 282.737 28.8674 282.235 28.8674ZM292.005 31.3794C293.103 31.3794 293.946 31.6567 294.533 32.2114C295.119 32.7554 295.413 33.566 295.413 34.6434V39.8594H294.325V38.5474C294.069 38.9847 293.69 39.326 293.189 39.5714C292.698 39.8167 292.111 39.9394 291.429 39.9394C290.49 39.9394 289.743 39.7154 289.189 39.2674C288.634 38.8194 288.357 38.2274 288.357 37.4914C288.357 36.7767 288.613 36.2007 289.125 35.7634C289.647 35.326 290.474 35.1074 291.605 35.1074H294.277V34.5954C294.277 33.87 294.074 33.3207 293.669 32.9474C293.263 32.5634 292.671 32.3714 291.893 32.3714C291.359 32.3714 290.847 32.462 290.357 32.6434C289.866 32.814 289.445 33.054 289.093 33.3634L288.581 32.5154C289.007 32.1527 289.519 31.8754 290.117 31.6834C290.714 31.4807 291.343 31.3794 292.005 31.3794ZM291.605 39.0434C292.245 39.0434 292.794 38.8994 293.253 38.6114C293.711 38.3127 294.053 37.886 294.277 37.3314V35.9554H291.637C290.197 35.9554 289.477 36.4567 289.477 37.4594C289.477 37.95 289.663 38.3394 290.037 38.6274C290.41 38.9047 290.933 39.0434 291.605 39.0434ZM306.209 27.9874V39.8594H305.121V38.1954C304.78 38.7607 304.327 39.1927 303.761 39.4914C303.207 39.79 302.577 39.9394 301.873 39.9394C301.084 39.9394 300.369 39.758 299.729 39.3954C299.089 39.0327 298.588 38.526 298.225 37.8754C297.863 37.2247 297.681 36.4834 297.681 35.6514C297.681 34.8194 297.863 34.078 298.225 33.4274C298.588 32.7767 299.089 32.2754 299.729 31.9234C300.369 31.5607 301.084 31.3794 301.873 31.3794C302.556 31.3794 303.169 31.5234 303.713 31.8114C304.268 32.0887 304.721 32.4994 305.073 33.0434V27.9874H306.209ZM301.969 38.9314C302.556 38.9314 303.084 38.798 303.553 38.5314C304.033 38.254 304.407 37.8647 304.673 37.3634C304.951 36.862 305.089 36.2914 305.089 35.6514C305.089 35.0114 304.951 34.4407 304.673 33.9394C304.407 33.438 304.033 33.054 303.553 32.7874C303.084 32.51 302.556 32.3714 301.969 32.3714C301.372 32.3714 300.833 32.51 300.353 32.7874C299.884 33.054 299.511 33.438 299.233 33.9394C298.967 34.4407 298.833 35.0114 298.833 35.6514C298.833 36.2914 298.967 36.862 299.233 37.3634C299.511 37.8647 299.884 38.254 300.353 38.5314C300.833 38.798 301.372 38.9314 301.969 38.9314ZM317.053 27.9874V39.8594H315.965V38.1954C315.624 38.7607 315.17 39.1927 314.605 39.4914C314.05 39.79 313.421 39.9394 312.717 39.9394C311.928 39.9394 311.213 39.758 310.573 39.3954C309.933 39.0327 309.432 38.526 309.069 37.8754C308.706 37.2247 308.525 36.4834 308.525 35.6514C308.525 34.8194 308.706 34.078 309.069 33.4274C309.432 32.7767 309.933 32.2754 310.573 31.9234C311.213 31.5607 311.928 31.3794 312.717 31.3794C313.4 31.3794 314.013 31.5234 314.557 31.8114C315.112 32.0887 315.565 32.4994 315.917 33.0434V27.9874H317.053ZM312.813 38.9314C313.4 38.9314 313.928 38.798 314.397 38.5314C314.877 38.254 315.25 37.8647 315.517 37.3634C315.794 36.862 315.933 36.2914 315.933 35.6514C315.933 35.0114 315.794 34.4407 315.517 33.9394C315.25 33.438 314.877 33.054 314.397 32.7874C313.928 32.51 313.4 32.3714 312.813 32.3714C312.216 32.3714 311.677 32.51 311.197 32.7874C310.728 33.054 310.354 33.438 310.077 33.9394C309.81 34.4407 309.677 35.0114 309.677 35.6514C309.677 36.2914 309.81 36.862 310.077 37.3634C310.354 37.8647 310.728 38.254 311.197 38.5314C311.677 38.798 312.216 38.9314 312.813 38.9314ZM321.305 33.0914C321.571 32.526 321.966 32.0994 322.489 31.8114C323.022 31.5234 323.678 31.3794 324.457 31.3794V32.4834L324.185 32.4674C323.299 32.4674 322.606 32.7394 322.105 33.2834C321.603 33.8274 321.353 34.59 321.353 35.5714V39.8594H320.217V31.4434H321.305V33.0914ZM333.764 36.0034H326.724C326.788 36.878 327.124 37.5874 327.732 38.1314C328.34 38.6647 329.108 38.9314 330.036 38.9314C330.558 38.9314 331.038 38.8407 331.476 38.6594C331.913 38.4674 332.292 38.19 332.612 37.8274L333.252 38.5634C332.878 39.0114 332.409 39.3527 331.844 39.5874C331.289 39.822 330.676 39.9394 330.004 39.9394C329.14 39.9394 328.372 39.758 327.7 39.3954C327.038 39.022 326.521 38.51 326.148 37.8594C325.774 37.2087 325.588 36.4727 325.588 35.6514C325.588 34.83 325.764 34.094 326.116 33.4434C326.478 32.7927 326.969 32.286 327.588 31.9234C328.217 31.5607 328.921 31.3794 329.7 31.3794C330.478 31.3794 331.177 31.5607 331.796 31.9234C332.414 32.286 332.9 32.7927 333.252 33.4434C333.604 34.0834 333.78 34.8194 333.78 35.6514L333.764 36.0034ZM329.7 32.3554C328.889 32.3554 328.206 32.6167 327.652 33.1394C327.108 33.6514 326.798 34.3234 326.724 35.1554H332.692C332.617 34.3234 332.302 33.6514 331.748 33.1394C331.204 32.6167 330.521 32.3554 329.7 32.3554ZM338.348 39.9394C337.665 39.9394 337.009 39.8434 336.38 39.6514C335.761 39.4487 335.276 39.198 334.924 38.8994L335.436 38.0034C335.788 38.2807 336.23 38.51 336.764 38.6914C337.297 38.862 337.852 38.9474 338.428 38.9474C339.196 38.9474 339.761 38.83 340.124 38.5954C340.497 38.35 340.684 38.0087 340.684 37.5714C340.684 37.262 340.582 37.022 340.38 36.8514C340.177 36.67 339.921 36.5367 339.612 36.4514C339.302 36.3554 338.892 36.2647 338.38 36.1794C337.697 36.0514 337.148 35.9234 336.732 35.7954C336.316 35.6567 335.958 35.4274 335.66 35.1074C335.372 34.7874 335.228 34.3447 335.228 33.7794C335.228 33.0754 335.521 32.4994 336.108 32.0514C336.694 31.6034 337.51 31.3794 338.556 31.3794C339.1 31.3794 339.644 31.454 340.188 31.6034C340.732 31.742 341.18 31.9287 341.532 32.1634L341.036 33.0754C340.342 32.5954 339.516 32.3554 338.556 32.3554C337.83 32.3554 337.281 32.4834 336.908 32.7394C336.545 32.9954 336.364 33.3314 336.364 33.7474C336.364 34.0674 336.465 34.3234 336.668 34.5154C336.881 34.7074 337.142 34.8514 337.452 34.9474C337.761 35.0327 338.188 35.1234 338.732 35.2194C339.404 35.3474 339.942 35.4754 340.348 35.6034C340.753 35.7314 341.1 35.95 341.388 36.2594C341.676 36.5687 341.82 36.9954 341.82 37.5394C341.82 38.2754 341.51 38.862 340.892 39.2994C340.284 39.726 339.436 39.9394 338.348 39.9394ZM346.176 39.9394C345.493 39.9394 344.837 39.8434 344.208 39.6514C343.589 39.4487 343.104 39.198 342.752 38.8994L343.264 38.0034C343.616 38.2807 344.059 38.51 344.592 38.6914C345.125 38.862 345.68 38.9474 346.256 38.9474C347.024 38.9474 347.589 38.83 347.952 38.5954C348.325 38.35 348.512 38.0087 348.512 37.5714C348.512 37.262 348.411 37.022 348.208 36.8514C348.005 36.67 347.749 36.5367 347.44 36.4514C347.131 36.3554 346.72 36.2647 346.208 36.1794C345.525 36.0514 344.976 35.9234 344.56 35.7954C344.144 35.6567 343.787 35.4274 343.488 35.1074C343.2 34.7874 343.056 34.3447 343.056 33.7794C343.056 33.0754 343.349 32.4994 343.936 32.0514C344.523 31.6034 345.339 31.3794 346.384 31.3794C346.928 31.3794 347.472 31.454 348.016 31.6034C348.56 31.742 349.008 31.9287 349.36 32.1634L348.864 33.0754C348.171 32.5954 347.344 32.3554 346.384 32.3554C345.659 32.3554 345.109 32.4834 344.736 32.7394C344.373 32.9954 344.192 33.3314 344.192 33.7474C344.192 34.0674 344.293 34.3234 344.496 34.5154C344.709 34.7074 344.971 34.8514 345.28 34.9474C345.589 35.0327 346.016 35.1234 346.56 35.2194C347.232 35.3474 347.771 35.4754 348.176 35.6034C348.581 35.7314 348.928 35.95 349.216 36.2594C349.504 36.5687 349.648 36.9954 349.648 37.5394C349.648 38.2754 349.339 38.862 348.72 39.2994C348.112 39.726 347.264 39.9394 346.176 39.9394Z" fill="#929292"/>
<path d="M436.735 39.9554C435.626 39.9554 434.623 39.71 433.727 39.2194C432.842 38.7287 432.143 38.0514 431.631 37.1874C431.13 36.3127 430.879 35.3367 430.879 34.2594C430.879 33.182 431.13 32.2114 431.631 31.3474C432.143 30.4727 432.847 29.79 433.743 29.2994C434.639 28.8087 435.642 28.5634 436.751 28.5634C437.583 28.5634 438.351 28.702 439.055 28.9794C439.759 29.2567 440.356 29.662 440.847 30.1954L440.095 30.9474C439.22 30.062 438.116 29.6194 436.783 29.6194C435.898 29.6194 435.092 29.822 434.367 30.2274C433.642 30.6327 433.071 31.1874 432.655 31.8914C432.25 32.5954 432.047 33.3847 432.047 34.2594C432.047 35.134 432.25 35.9234 432.655 36.6274C433.071 37.3314 433.642 37.886 434.367 38.2914C435.092 38.6967 435.898 38.8994 436.783 38.8994C438.127 38.8994 439.231 38.4514 440.095 37.5554L440.847 38.3074C440.356 38.8407 439.754 39.2514 439.039 39.5394C438.335 39.8167 437.567 39.9554 436.735 39.9554ZM446.571 39.9394C445.76 39.9394 445.03 39.758 444.379 39.3954C443.728 39.022 443.216 38.51 442.843 37.8594C442.47 37.2087 442.283 36.4727 442.283 35.6514C442.283 34.83 442.47 34.094 442.843 33.4434C443.216 32.7927 443.728 32.286 444.379 31.9234C445.03 31.5607 445.76 31.3794 446.571 31.3794C447.382 31.3794 448.112 31.5607 448.763 31.9234C449.414 32.286 449.92 32.7927 450.283 33.4434C450.656 34.094 450.843 34.83 450.843 35.6514C450.843 36.4727 450.656 37.2087 450.283 37.8594C449.92 38.51 449.414 39.022 448.763 39.3954C448.112 39.758 447.382 39.9394 446.571 39.9394ZM446.571 38.9314C447.168 38.9314 447.702 38.798 448.171 38.5314C448.651 38.254 449.024 37.8647 449.291 37.3634C449.558 36.862 449.691 36.2914 449.691 35.6514C449.691 35.0114 449.558 34.4407 449.291 33.9394C449.024 33.438 448.651 33.054 448.171 32.7874C447.702 32.51 447.168 32.3714 446.571 32.3714C445.974 32.3714 445.435 32.51 444.955 32.7874C444.486 33.054 444.112 33.438 443.835 33.9394C443.568 34.4407 443.435 35.0114 443.435 35.6514C443.435 36.2914 443.568 36.862 443.835 37.3634C444.112 37.8647 444.486 38.254 444.955 38.5314C445.435 38.798 445.974 38.9314 446.571 38.9314ZM457.45 31.3794C458.506 31.3794 459.343 31.6887 459.962 32.3074C460.591 32.9154 460.906 33.806 460.906 34.9794V39.8594H459.77V35.0914C459.77 34.2167 459.551 33.55 459.114 33.0914C458.677 32.6327 458.053 32.4034 457.242 32.4034C456.335 32.4034 455.615 32.6754 455.082 33.2194C454.559 33.7527 454.298 34.494 454.298 35.4434V39.8594H453.162V31.4434H454.25V32.9954C454.559 32.4834 454.986 32.0887 455.53 31.8114C456.085 31.5234 456.725 31.3794 457.45 31.3794ZM466.246 39.9394C465.564 39.9394 464.908 39.8434 464.278 39.6514C463.66 39.4487 463.174 39.198 462.822 38.8994L463.334 38.0034C463.686 38.2807 464.129 38.51 464.662 38.6914C465.196 38.862 465.75 38.9474 466.326 38.9474C467.094 38.9474 467.66 38.83 468.022 38.5954C468.396 38.35 468.582 38.0087 468.582 37.5714C468.582 37.262 468.481 37.022 468.278 36.8514C468.076 36.67 467.82 36.5367 467.51 36.4514C467.201 36.3554 466.79 36.2647 466.278 36.1794C465.596 36.0514 465.046 35.9234 464.63 35.7954C464.214 35.6567 463.857 35.4274 463.558 35.1074C463.27 34.7874 463.126 34.3447 463.126 33.7794C463.126 33.0754 463.42 32.4994 464.006 32.0514C464.593 31.6034 465.409 31.3794 466.454 31.3794C466.998 31.3794 467.542 31.454 468.086 31.6034C468.63 31.742 469.078 31.9287 469.43 32.1634L468.934 33.0754C468.241 32.5954 467.414 32.3554 466.454 32.3554C465.729 32.3554 465.18 32.4834 464.806 32.7394C464.444 32.9954 464.262 33.3314 464.262 33.7474C464.262 34.0674 464.364 34.3234 464.566 34.5154C464.78 34.7074 465.041 34.8514 465.35 34.9474C465.66 35.0327 466.086 35.1234 466.63 35.2194C467.302 35.3474 467.841 35.4754 468.246 35.6034C468.652 35.7314 468.998 35.95 469.286 36.2594C469.574 36.5687 469.718 36.9954 469.718 37.5394C469.718 38.2754 469.409 38.862 468.79 39.2994C468.182 39.726 467.334 39.9394 466.246 39.9394ZM479.146 36.0034H472.106C472.17 36.878 472.506 37.5874 473.114 38.1314C473.722 38.6647 474.49 38.9314 475.418 38.9314C475.941 38.9314 476.421 38.8407 476.858 38.6594C477.296 38.4674 477.674 38.19 477.994 37.8274L478.634 38.5634C478.261 39.0114 477.792 39.3527 477.226 39.5874C476.672 39.822 476.058 39.9394 475.386 39.9394C474.522 39.9394 473.754 39.758 473.082 39.3954C472.421 39.022 471.904 38.51 471.53 37.8594C471.157 37.2087 470.97 36.4727 470.97 35.6514C470.97 34.83 471.146 34.094 471.498 33.4434C471.861 32.7927 472.352 32.286 472.97 31.9234C473.6 31.5607 474.304 31.3794 475.082 31.3794C475.861 31.3794 476.56 31.5607 477.178 31.9234C477.797 32.286 478.282 32.7927 478.634 33.4434C478.986 34.0834 479.162 34.8194 479.162 35.6514L479.146 36.0034ZM475.082 32.3554C474.272 32.3554 473.589 32.6167 473.034 33.1394C472.49 33.6514 472.181 34.3234 472.106 35.1554H478.074C478 34.3234 477.685 33.6514 477.13 33.1394C476.586 32.6167 475.904 32.3554 475.082 32.3554ZM485.763 31.3794C486.819 31.3794 487.656 31.6887 488.275 32.3074C488.904 32.9154 489.219 33.806 489.219 34.9794V39.8594H488.083V35.0914C488.083 34.2167 487.864 33.55 487.427 33.0914C486.989 32.6327 486.365 32.4034 485.555 32.4034C484.648 32.4034 483.928 32.6754 483.395 33.2194C482.872 33.7527 482.611 34.494 482.611 35.4434V39.8594H481.475V31.4434H482.563V32.9954C482.872 32.4834 483.299 32.0887 483.843 31.8114C484.397 31.5234 485.037 31.3794 485.763 31.3794ZM496.735 39.3474C496.521 39.5394 496.255 39.6887 495.935 39.7954C495.625 39.8914 495.3 39.9394 494.959 39.9394C494.169 39.9394 493.561 39.726 493.135 39.2994C492.708 38.8727 492.495 38.27 492.495 37.4914V32.4034H490.991V31.4434H492.495V29.6034H493.631V31.4434H496.191V32.4034H493.631V37.4274C493.631 37.9287 493.753 38.3127 493.999 38.5794C494.255 38.8354 494.617 38.9634 495.087 38.9634C495.321 38.9634 495.545 38.926 495.759 38.8514C495.983 38.7767 496.175 38.67 496.335 38.5314L496.735 39.3474ZM512.542 28.6594L507.582 39.8594H506.414L501.454 28.6594H502.734L507.022 38.3874L511.342 28.6594H512.542ZM521.49 36.0034H514.45C514.514 36.878 514.85 37.5874 515.458 38.1314C516.066 38.6647 516.834 38.9314 517.762 38.9314C518.285 38.9314 518.765 38.8407 519.202 38.6594C519.639 38.4674 520.018 38.19 520.338 37.8274L520.978 38.5634C520.605 39.0114 520.135 39.3527 519.57 39.5874C519.015 39.822 518.402 39.9394 517.73 39.9394C516.866 39.9394 516.098 39.758 515.426 39.3954C514.765 39.022 514.247 38.51 513.874 37.8594C513.501 37.2087 513.314 36.4727 513.314 35.6514C513.314 34.83 513.49 34.094 513.842 33.4434C514.205 32.7927 514.695 32.286 515.314 31.9234C515.943 31.5607 516.647 31.3794 517.426 31.3794C518.205 31.3794 518.903 31.5607 519.522 31.9234C520.141 32.286 520.626 32.7927 520.978 33.4434C521.33 34.0834 521.506 34.8194 521.506 35.6514L521.49 36.0034ZM517.426 32.3554C516.615 32.3554 515.933 32.6167 515.378 33.1394C514.834 33.6514 514.525 34.3234 514.45 35.1554H520.418C520.343 34.3234 520.029 33.6514 519.474 33.1394C518.93 32.6167 518.247 32.3554 517.426 32.3554ZM524.906 33.0914C525.173 32.526 525.568 32.0994 526.09 31.8114C526.624 31.5234 527.28 31.3794 528.058 31.3794V32.4834L527.786 32.4674C526.901 32.4674 526.208 32.7394 525.706 33.2834C525.205 33.8274 524.954 34.59 524.954 35.5714V39.8594H523.818V31.4434H524.906V33.0914ZM530.115 31.4434H531.251V39.8594H530.115V31.4434ZM530.691 29.6034C530.457 29.6034 530.259 29.5234 530.099 29.3634C529.939 29.2034 529.859 29.0114 529.859 28.7874C529.859 28.574 529.939 28.3874 530.099 28.2274C530.259 28.0674 530.457 27.9874 530.691 27.9874C530.926 27.9874 531.123 28.0674 531.283 28.2274C531.443 28.3767 531.523 28.558 531.523 28.7714C531.523 29.006 531.443 29.2034 531.283 29.3634C531.123 29.5234 530.926 29.6034 530.691 29.6034ZM537.196 28.8674C536.705 28.8674 536.332 29.0007 536.076 29.2674C535.831 29.534 535.708 29.9287 535.708 30.4514V31.4434H538.3V32.4034H535.74V39.8594H534.604V32.4034H533.1V31.4434H534.604V30.4034C534.604 29.6354 534.823 29.0274 535.26 28.5794C535.708 28.1314 536.337 27.9074 537.148 27.9074C537.468 27.9074 537.777 27.9554 538.076 28.0514C538.375 28.1367 538.625 28.2647 538.828 28.4354L538.444 29.2834C538.113 29.006 537.697 28.8674 537.196 28.8674ZM541.116 31.4434H542.252V39.8594H541.116V31.4434ZM541.692 29.6034C541.457 29.6034 541.26 29.5234 541.1 29.3634C540.94 29.2034 540.86 29.0114 540.86 28.7874C540.86 28.574 540.94 28.3874 541.1 28.2274C541.26 28.0674 541.457 27.9874 541.692 27.9874C541.927 27.9874 542.124 28.0674 542.284 28.2274C542.444 28.3767 542.524 28.558 542.524 28.7714C542.524 29.006 542.444 29.2034 542.284 29.3634C542.124 29.5234 541.927 29.6034 541.692 29.6034ZM548.916 39.9394C548.084 39.9394 547.337 39.758 546.676 39.3954C546.025 39.0327 545.513 38.526 545.14 37.8754C544.766 37.214 544.58 36.4727 544.58 35.6514C544.58 34.83 544.766 34.094 545.14 33.4434C545.513 32.7927 546.025 32.286 546.676 31.9234C547.337 31.5607 548.084 31.3794 548.916 31.3794C549.641 31.3794 550.286 31.5234 550.852 31.8114C551.428 32.0887 551.881 32.4994 552.212 33.0434L551.364 33.6194C551.086 33.2034 550.734 32.894 550.308 32.6914C549.881 32.478 549.417 32.3714 548.916 32.3714C548.308 32.3714 547.758 32.51 547.268 32.7874C546.788 33.054 546.409 33.438 546.132 33.9394C545.865 34.4407 545.732 35.0114 545.732 35.6514C545.732 36.302 545.865 36.878 546.132 37.3794C546.409 37.87 546.788 38.254 547.268 38.5314C547.758 38.798 548.308 38.9314 548.916 38.9314C549.417 38.9314 549.881 38.83 550.308 38.6274C550.734 38.4247 551.086 38.1154 551.364 37.6994L552.212 38.2754C551.881 38.8194 551.428 39.2354 550.852 39.5234C550.276 39.8007 549.63 39.9394 548.916 39.9394ZM557.387 31.3794C558.486 31.3794 559.329 31.6567 559.915 32.2114C560.502 32.7554 560.795 33.566 560.795 34.6434V39.8594H559.707V38.5474C559.451 38.9847 559.073 39.326 558.571 39.5714C558.081 39.8167 557.494 39.9394 556.811 39.9394C555.873 39.9394 555.126 39.7154 554.571 39.2674C554.017 38.8194 553.739 38.2274 553.739 37.4914C553.739 36.7767 553.995 36.2007 554.507 35.7634C555.03 35.326 555.857 35.1074 556.987 35.1074H559.659V34.5954C559.659 33.87 559.457 33.3207 559.051 32.9474C558.646 32.5634 558.054 32.3714 557.275 32.3714C556.742 32.3714 556.23 32.462 555.739 32.6434C555.249 32.814 554.827 33.054 554.475 33.3634L553.963 32.5154C554.39 32.1527 554.902 31.8754 555.499 31.6834C556.097 31.4807 556.726 31.3794 557.387 31.3794ZM556.987 39.0434C557.627 39.0434 558.177 38.8994 558.635 38.6114C559.094 38.3127 559.435 37.886 559.659 37.3314V35.9554H557.019C555.579 35.9554 554.859 36.4567 554.859 37.4594C554.859 37.95 555.046 38.3394 555.419 38.6274C555.793 38.9047 556.315 39.0434 556.987 39.0434ZM568.313 39.3474C568.1 39.5394 567.833 39.6887 567.513 39.7954C567.204 39.8914 566.878 39.9394 566.537 39.9394C565.748 39.9394 565.14 39.726 564.713 39.2994C564.286 38.8727 564.073 38.27 564.073 37.4914V32.4034H562.569V31.4434H564.073V29.6034H565.209V31.4434H567.769V32.4034H565.209V37.4274C565.209 37.9287 565.332 38.3127 565.577 38.5794C565.833 38.8354 566.196 38.9634 566.665 38.9634C566.9 38.9634 567.124 38.926 567.337 38.8514C567.561 38.7767 567.753 38.67 567.913 38.5314L568.313 39.3474ZM570.381 31.4434H571.517V39.8594H570.381V31.4434ZM570.957 29.6034C570.722 29.6034 570.525 29.5234 570.365 29.3634C570.205 29.2034 570.125 29.0114 570.125 28.7874C570.125 28.574 570.205 28.3874 570.365 28.2274C570.525 28.0674 570.722 27.9874 570.957 27.9874C571.192 27.9874 571.389 28.0674 571.549 28.2274C571.709 28.3767 571.789 28.558 571.789 28.7714C571.789 29.006 571.709 29.2034 571.549 29.3634C571.389 29.5234 571.192 29.6034 570.957 29.6034ZM578.118 39.9394C577.307 39.9394 576.576 39.758 575.926 39.3954C575.275 39.022 574.763 38.51 574.39 37.8594C574.016 37.2087 573.83 36.4727 573.83 35.6514C573.83 34.83 574.016 34.094 574.39 33.4434C574.763 32.7927 575.275 32.286 575.926 31.9234C576.576 31.5607 577.307 31.3794 578.118 31.3794C578.928 31.3794 579.659 31.5607 580.31 31.9234C580.96 32.286 581.467 32.7927 581.83 33.4434C582.203 34.094 582.39 34.83 582.39 35.6514C582.39 36.4727 582.203 37.2087 581.83 37.8594C581.467 38.51 580.96 39.022 580.31 39.3954C579.659 39.758 578.928 39.9394 578.118 39.9394ZM578.118 38.9314C578.715 38.9314 579.248 38.798 579.718 38.5314C580.198 38.254 580.571 37.8647 580.838 37.3634C581.104 36.862 581.238 36.2914 581.238 35.6514C581.238 35.0114 581.104 34.4407 580.838 33.9394C580.571 33.438 580.198 33.054 579.718 32.7874C579.248 32.51 578.715 32.3714 578.118 32.3714C577.52 32.3714 576.982 32.51 576.502 32.7874C576.032 33.054 575.659 33.438 575.382 33.9394C575.115 34.4407 574.982 35.0114 574.982 35.6514C574.982 36.2914 575.115 36.862 575.382 37.3634C575.659 37.8647 576.032 38.254 576.502 38.5314C576.982 38.798 577.52 38.9314 578.118 38.9314ZM588.997 31.3794C590.053 31.3794 590.89 31.6887 591.509 32.3074C592.138 32.9154 592.453 33.806 592.453 34.9794V39.8594H591.317V35.0914C591.317 34.2167 591.098 33.55 590.661 33.0914C590.224 32.6327 589.6 32.4034 588.789 32.4034C587.882 32.4034 587.162 32.6754 586.629 33.2194C586.106 33.7527 585.845 34.494 585.845 35.4434V39.8594H584.709V31.4434H585.797V32.9954C586.106 32.4834 586.533 32.0887 587.077 31.8114C587.632 31.5234 588.272 31.3794 588.997 31.3794Z" fill="#929292"/>
<path d="M674.078 29.6834V34.0834H679.87V35.1074H674.078V39.8594H672.894V28.6594H680.574V29.6834H674.078ZM685.723 31.3794C686.822 31.3794 687.665 31.6567 688.251 32.2114C688.838 32.7554 689.131 33.566 689.131 34.6434V39.8594H688.043V38.5474C687.787 38.9847 687.409 39.326 686.907 39.5714C686.417 39.8167 685.83 39.9394 685.147 39.9394C684.209 39.9394 683.462 39.7154 682.907 39.2674C682.353 38.8194 682.075 38.2274 682.075 37.4914C682.075 36.7767 682.331 36.2007 682.843 35.7634C683.366 35.326 684.193 35.1074 685.323 35.1074H687.995V34.5954C687.995 33.87 687.793 33.3207 687.387 32.9474C686.982 32.5634 686.39 32.3714 685.611 32.3714C685.078 32.3714 684.566 32.462 684.075 32.6434C683.585 32.814 683.163 33.054 682.811 33.3634L682.299 32.5154C682.726 32.1527 683.238 31.8754 683.835 31.6834C684.433 31.4807 685.062 31.3794 685.723 31.3794ZM685.323 39.0434C685.963 39.0434 686.513 38.8994 686.971 38.6114C687.43 38.3127 687.771 37.886 687.995 37.3314V35.9554H685.355C683.915 35.9554 683.195 36.4567 683.195 37.4594C683.195 37.95 683.382 38.3394 683.755 38.6274C684.129 38.9047 684.651 39.0434 685.323 39.0434ZM695.736 39.9394C694.904 39.9394 694.157 39.758 693.496 39.3954C692.845 39.0327 692.333 38.526 691.96 37.8754C691.587 37.214 691.4 36.4727 691.4 35.6514C691.4 34.83 691.587 34.094 691.96 33.4434C692.333 32.7927 692.845 32.286 693.496 31.9234C694.157 31.5607 694.904 31.3794 695.736 31.3794C696.461 31.3794 697.107 31.5234 697.672 31.8114C698.248 32.0887 698.701 32.4994 699.032 33.0434L698.184 33.6194C697.907 33.2034 697.555 32.894 697.128 32.6914C696.701 32.478 696.237 32.3714 695.736 32.3714C695.128 32.3714 694.579 32.51 694.088 32.7874C693.608 33.054 693.229 33.438 692.952 33.9394C692.685 34.4407 692.552 35.0114 692.552 35.6514C692.552 36.302 692.685 36.878 692.952 37.3794C693.229 37.87 693.608 38.254 694.088 38.5314C694.579 38.798 695.128 38.9314 695.736 38.9314C696.237 38.9314 696.701 38.83 697.128 38.6274C697.555 38.4247 697.907 38.1154 698.184 37.6994L699.032 38.2754C698.701 38.8194 698.248 39.2354 697.672 39.5234C697.096 39.8007 696.451 39.9394 695.736 39.9394ZM708.451 36.0034H701.411C701.475 36.878 701.811 37.5874 702.419 38.1314C703.027 38.6647 703.795 38.9314 704.723 38.9314C705.246 38.9314 705.726 38.8407 706.163 38.6594C706.6 38.4674 706.979 38.19 707.299 37.8274L707.939 38.5634C707.566 39.0114 707.096 39.3527 706.531 39.5874C705.976 39.822 705.363 39.9394 704.691 39.9394C703.827 39.9394 703.059 39.758 702.387 39.3954C701.726 39.022 701.208 38.51 700.835 37.8594C700.462 37.2087 700.275 36.4727 700.275 35.6514C700.275 34.83 700.451 34.094 700.803 33.4434C701.166 32.7927 701.656 32.286 702.275 31.9234C702.904 31.5607 703.608 31.3794 704.387 31.3794C705.166 31.3794 705.864 31.5607 706.483 31.9234C707.102 32.286 707.587 32.7927 707.939 33.4434C708.291 34.0834 708.467 34.8194 708.467 35.6514L708.451 36.0034ZM704.387 32.3554C703.576 32.3554 702.894 32.6167 702.339 33.1394C701.795 33.6514 701.486 34.3234 701.411 35.1554H707.379C707.304 34.3234 706.99 33.6514 706.435 33.1394C705.891 32.6167 705.208 32.3554 704.387 32.3554ZM724.519 28.6594L719.559 39.8594H718.391L713.431 28.6594H714.711L718.999 38.3874L723.319 28.6594H724.519ZM733.467 36.0034H726.427C726.491 36.878 726.827 37.5874 727.435 38.1314C728.043 38.6647 728.811 38.9314 729.739 38.9314C730.261 38.9314 730.741 38.8407 731.179 38.6594C731.616 38.4674 731.995 38.19 732.315 37.8274L732.955 38.5634C732.581 39.0114 732.112 39.3527 731.547 39.5874C730.992 39.822 730.379 39.9394 729.707 39.9394C728.843 39.9394 728.075 39.758 727.403 39.3954C726.741 39.022 726.224 38.51 725.851 37.8594C725.477 37.2087 725.291 36.4727 725.291 35.6514C725.291 34.83 725.467 34.094 725.819 33.4434C726.181 32.7927 726.672 32.286 727.291 31.9234C727.92 31.5607 728.624 31.3794 729.403 31.3794C730.181 31.3794 730.88 31.5607 731.499 31.9234C732.117 32.286 732.603 32.7927 732.955 33.4434C733.307 34.0834 733.483 34.8194 733.483 35.6514L733.467 36.0034ZM729.403 32.3554C728.592 32.3554 727.909 32.6167 727.355 33.1394C726.811 33.6514 726.501 34.3234 726.427 35.1554H732.395C732.32 34.3234 732.005 33.6514 731.451 33.1394C730.907 32.6167 730.224 32.3554 729.403 32.3554ZM736.883 33.0914C737.15 32.526 737.544 32.0994 738.067 31.8114C738.6 31.5234 739.256 31.3794 740.035 31.3794V32.4834L739.763 32.4674C738.878 32.4674 738.184 32.7394 737.683 33.2834C737.182 33.8274 736.931 34.59 736.931 35.5714V39.8594H735.795V31.4434H736.883V33.0914ZM742.092 31.4434H743.228V39.8594H742.092V31.4434ZM742.668 29.6034C742.433 29.6034 742.236 29.5234 742.076 29.3634C741.916 29.2034 741.836 29.0114 741.836 28.7874C741.836 28.574 741.916 28.3874 742.076 28.2274C742.236 28.0674 742.433 27.9874 742.668 27.9874C742.902 27.9874 743.1 28.0674 743.26 28.2274C743.42 28.3767 743.5 28.558 743.5 28.7714C743.5 29.006 743.42 29.2034 743.26 29.3634C743.1 29.5234 742.902 29.6034 742.668 29.6034ZM749.173 28.8674C748.682 28.8674 748.309 29.0007 748.053 29.2674C747.807 29.534 747.685 29.9287 747.685 30.4514V31.4434H750.277V32.4034H747.717V39.8594H746.581V32.4034H745.077V31.4434H746.581V30.4034C746.581 29.6354 746.799 29.0274 747.237 28.5794C747.685 28.1314 748.314 27.9074 749.125 27.9074C749.445 27.9074 749.754 27.9554 750.053 28.0514C750.351 28.1367 750.602 28.2647 750.805 28.4354L750.421 29.2834C750.09 29.006 749.674 28.8674 749.173 28.8674ZM753.093 31.4434H754.229V39.8594H753.093V31.4434ZM753.669 29.6034C753.434 29.6034 753.237 29.5234 753.077 29.3634C752.917 29.2034 752.837 29.0114 752.837 28.7874C752.837 28.574 752.917 28.3874 753.077 28.2274C753.237 28.0674 753.434 27.9874 753.669 27.9874C753.903 27.9874 754.101 28.0674 754.261 28.2274C754.421 28.3767 754.501 28.558 754.501 28.7714C754.501 29.006 754.421 29.2034 754.261 29.3634C754.101 29.5234 753.903 29.6034 753.669 29.6034ZM760.892 39.9394C760.06 39.9394 759.314 39.758 758.652 39.3954C758.002 39.0327 757.49 38.526 757.116 37.8754C756.743 37.214 756.556 36.4727 756.556 35.6514C756.556 34.83 756.743 34.094 757.116 33.4434C757.49 32.7927 758.002 32.286 758.652 31.9234C759.314 31.5607 760.06 31.3794 760.892 31.3794C761.618 31.3794 762.263 31.5234 762.828 31.8114C763.404 32.0887 763.858 32.4994 764.188 33.0434L763.34 33.6194C763.063 33.2034 762.711 32.894 762.284 32.6914C761.858 32.478 761.394 32.3714 760.892 32.3714C760.284 32.3714 759.735 32.51 759.244 32.7874C758.764 33.054 758.386 33.438 758.108 33.9394C757.842 34.4407 757.708 35.0114 757.708 35.6514C757.708 36.302 757.842 36.878 758.108 37.3794C758.386 37.87 758.764 38.254 759.244 38.5314C759.735 38.798 760.284 38.9314 760.892 38.9314C761.394 38.9314 761.858 38.83 762.284 38.6274C762.711 38.4247 763.063 38.1154 763.34 37.6994L764.188 38.2754C763.858 38.8194 763.404 39.2354 762.828 39.5234C762.252 39.8007 761.607 39.9394 760.892 39.9394ZM769.364 31.3794C770.463 31.3794 771.305 31.6567 771.892 32.2114C772.479 32.7554 772.772 33.566 772.772 34.6434V39.8594H771.684V38.5474C771.428 38.9847 771.049 39.326 770.548 39.5714C770.057 39.8167 769.471 39.9394 768.788 39.9394C767.849 39.9394 767.103 39.7154 766.548 39.2674C765.993 38.8194 765.716 38.2274 765.716 37.4914C765.716 36.7767 765.972 36.2007 766.484 35.7634C767.007 35.326 767.833 35.1074 768.964 35.1074H771.636V34.5954C771.636 33.87 771.433 33.3207 771.028 32.9474C770.623 32.5634 770.031 32.3714 769.252 32.3714C768.719 32.3714 768.207 32.462 767.716 32.6434C767.225 32.814 766.804 33.054 766.452 33.3634L765.94 32.5154C766.367 32.1527 766.879 31.8754 767.476 31.6834C768.073 31.4807 768.703 31.3794 769.364 31.3794ZM768.964 39.0434C769.604 39.0434 770.153 38.8994 770.612 38.6114C771.071 38.3127 771.412 37.886 771.636 37.3314V35.9554H768.996C767.556 35.9554 766.836 36.4567 766.836 37.4594C766.836 37.95 767.023 38.3394 767.396 38.6274C767.769 38.9047 768.292 39.0434 768.964 39.0434ZM780.289 39.3474C780.076 39.5394 779.809 39.6887 779.489 39.7954C779.18 39.8914 778.855 39.9394 778.513 39.9394C777.724 39.9394 777.116 39.726 776.689 39.2994C776.263 38.8727 776.049 38.27 776.049 37.4914V32.4034H774.545V31.4434H776.049V29.6034H777.185V31.4434H779.745V32.4034H777.185V37.4274C777.185 37.9287 777.308 38.3127 777.553 38.5794C777.809 38.8354 778.172 38.9634 778.641 38.9634C778.876 38.9634 779.1 38.926 779.313 38.8514C779.537 38.7767 779.729 38.67 779.889 38.5314L780.289 39.3474ZM782.357 31.4434H783.493V39.8594H782.357V31.4434ZM782.933 29.6034C782.699 29.6034 782.501 29.5234 782.341 29.3634C782.181 29.2034 782.101 29.0114 782.101 28.7874C782.101 28.574 782.181 28.3874 782.341 28.2274C782.501 28.0674 782.699 27.9874 782.933 27.9874C783.168 27.9874 783.365 28.0674 783.525 28.2274C783.685 28.3767 783.765 28.558 783.765 28.7714C783.765 29.006 783.685 29.2034 783.525 29.3634C783.365 29.5234 783.168 29.6034 782.933 29.6034ZM790.094 39.9394C789.284 39.9394 788.553 39.758 787.902 39.3954C787.252 39.022 786.74 38.51 786.366 37.8594C785.993 37.2087 785.806 36.4727 785.806 35.6514C785.806 34.83 785.993 34.094 786.366 33.4434C786.74 32.7927 787.252 32.286 787.902 31.9234C788.553 31.5607 789.284 31.3794 790.094 31.3794C790.905 31.3794 791.636 31.5607 792.286 31.9234C792.937 32.286 793.444 32.7927 793.806 33.4434C794.18 34.094 794.366 34.83 794.366 35.6514C794.366 36.4727 794.18 37.2087 793.806 37.8594C793.444 38.51 792.937 39.022 792.286 39.3954C791.636 39.758 790.905 39.9394 790.094 39.9394ZM790.094 38.9314C790.692 38.9314 791.225 38.798 791.694 38.5314C792.174 38.254 792.548 37.8647 792.814 37.3634C793.081 36.862 793.214 36.2914 793.214 35.6514C793.214 35.0114 793.081 34.4407 792.814 33.9394C792.548 33.438 792.174 33.054 791.694 32.7874C791.225 32.51 790.692 32.3714 790.094 32.3714C789.497 32.3714 788.958 32.51 788.478 32.7874C788.009 33.054 787.636 33.438 787.358 33.9394C787.092 34.4407 786.958 35.0114 786.958 35.6514C786.958 36.2914 787.092 36.862 787.358 37.3634C787.636 37.8647 788.009 38.254 788.478 38.5314C788.958 38.798 789.497 38.9314 790.094 38.9314ZM800.974 31.3794C802.03 31.3794 802.867 31.6887 803.486 32.3074C804.115 32.9154 804.43 33.806 804.43 34.9794V39.8594H803.294V35.0914C803.294 34.2167 803.075 33.55 802.638 33.0914C802.2 32.6327 801.576 32.4034 800.766 32.4034C799.859 32.4034 799.139 32.6754 798.606 33.2194C798.083 33.7527 797.822 34.494 797.822 35.4434V39.8594H796.686V31.4434H797.774V32.9954C798.083 32.4834 798.51 32.0887 799.054 31.8114C799.608 31.5234 800.248 31.3794 800.974 31.3794Z" fill="#929292"/>
</g>
<defs>
<filter id="filter0_dd_7718_11441" x="0" y="0" width="823" height="59" filterUnits="userSpaceOnUse" color-interpolation-filters="sRGB">
<feFlood flood-opacity="0" result="BackgroundImageFix"/>
<feColorMatrix in="SourceAlpha" type="matrix" values="0 0 0 0 0 0 0 0 0 0 0 0 0 0 0 0 0 0 127 0" result="hardAlpha"/>
<feOffset dy="4"/>
<feGaussianBlur stdDeviation="2"/>
<feComposite in2="hardAlpha" operator="out"/>
<feColorMatrix type="matrix" values="0 0 0 0 0 0 0 0 0 0 0 0 0 0 0 0 0 0 0.25 0"/>
<feBlend mode="normal" in2="BackgroundImageFix" result="effect1_dropShadow_7718_11441"/>
<feColorMatrix in="SourceAlpha" type="matrix" values="0 0 0 0 0 0 0 0 0 0 0 0 0 0 0 0 0 0 127 0" result="hardAlpha"/>
<feOffset dy="4"/>
<feGaussianBlur stdDeviation="2"/>
<feComposite in2="hardAlpha" operator="out"/>
<feColorMatrix type="matrix" values="0 0 0 0 0 0 0 0 0 0 0 0 0 0 0 0 0 0 0.25 0"/>
<feBlend mode="normal" in2="effect1_dropShadow_7718_11441" result="effect2_dropShadow_7718_11441"/>
<feBlend mode="normal" in="SourceGraphic" in2="effect2_dropShadow_7718_11441" result="shape"/>
</filter>
</defs>
</svg>
