<svg width="23" height="20" viewBox="0 0 23 20" fill="none" xmlns="http://www.w3.org/2000/svg">
<circle cx="5.91465" cy="4.66075" r="4.28575" fill="#C4C4C4"/>
<path d="M0 11.6037C0 10.6569 0.767518 9.8894 1.7143 9.8894H9.81436C10.7611 9.8894 11.5287 10.6569 11.5287 11.6037V19.7038H0V11.6037Z" fill="#C4C4C4"/>
<path fill-rule="evenodd" clip-rule="evenodd" d="M22.5715 4.28575C22.5715 6.0428 21.5141 7.5529 20.001 8.21446V11.1001H19.1863V12.3H20.001V13.4143H19.1863V14.6145H20.001V15.7288H19.1863V16.9287H20.001V18.043H20L18.2863 19.4572L16.4863 18.0425V8.17657C15.0183 7.4965 14 6.01004 14 4.28575C14 1.91879 15.9188 0 18.2857 0C20.6527 0 22.5715 1.91879 22.5715 4.28575ZM18.2863 3.6856C18.878 3.6856 19.3577 3.2059 19.3577 2.61416C19.3577 2.02242 18.878 1.54272 18.2863 1.54272C17.6945 1.54272 17.2148 2.02242 17.2148 2.61416C17.2148 3.2059 17.6945 3.6856 18.2863 3.6856Z" fill="#C4C4C4"/>
</svg>
