<svg width="173" height="210" viewBox="0 0 163 157" fill="none" xmlns="http://www.w3.org/2000/svg">
<rect x="92.7456" y="114.43" width="64.8673" height="15.6576" rx="7.82881" fill="white" stroke="#1E1E1E" stroke-width="1.4912"/>
<rect x="102.441" y="95.0449" width="46.2272" height="49.2096" rx="18.64" fill="white" stroke="#1E1E1E" stroke-width="1.4912"/>
<path d="M149.202 115.769C149.202 121.707 147.588 97.2293 125.631 99.0833C104.469 97.9709 102.464 123.19 102.464 117.252C94.7434 89.4428 118.715 87.5889 125.224 87.5889C131.733 87.5889 157.737 90.9259 149.202 115.769Z" fill="#626161"/>
<path d="M115.584 99.9973C121.781 96.3423 124.713 98.4744 125.405 99.9973V94.3842H122.638C108.916 93.2355 102.535 106.959 101.059 113.965C93.2026 115.74 94.9271 121.666 96.7714 124.408C98.4313 126.453 102.387 130.674 104.933 131.196C107.478 131.718 108.298 129.151 108.391 127.802C107.007 128.715 106.454 128.715 104.933 126.888C103.411 125.06 101.889 122.189 104.933 120.361C107.976 118.534 107.837 116.053 107.146 114.748C106.454 113.443 105.486 112.92 106.454 110.962C107.422 109.004 112.264 109.527 111.572 106.002C111.019 103.182 114.016 100.824 115.584 99.9973Z" fill="#626161"/>
<path d="M135.225 99.9343C129.028 96.2793 126.096 98.4114 125.404 99.9343V94.3213H128.17C141.892 93.1725 148.274 106.896 149.749 113.902C157.606 115.677 155.882 121.603 154.037 124.345C152.377 126.39 148.421 130.611 145.876 131.133C143.331 131.655 142.51 129.088 142.418 127.739C143.801 128.652 144.354 128.652 145.876 126.825C147.398 124.997 148.919 122.126 145.876 120.298C142.833 118.471 142.971 115.99 143.663 114.685C144.354 113.38 145.323 112.858 144.354 110.899C143.386 108.941 138.545 109.464 139.236 105.939C139.79 103.119 136.793 100.761 135.225 99.9343Z" fill="#626161"/>
<path d="M108.402 109.957H124.433V127.105H128.161" stroke="#1E1E1E" stroke-width="1.4912" stroke-linecap="round"/>
<path d="M132.266 109.957H143.45" stroke="#1E1E1E" stroke-width="1.4912" stroke-linecap="round"/>
<ellipse cx="114.746" cy="118.159" rx="2.6096" ry="3.728" fill="#1E1E1E"/>
<circle cx="115.863" cy="117.413" r="0.745601" fill="white"/>
<ellipse cx="137.11" cy="118.159" rx="2.6096" ry="3.728" fill="#1E1E1E"/>
<circle cx="138.226" cy="117.413" r="0.745601" fill="white"/>
<path d="M121.824 136.053C122.943 137.295 125.925 139.035 128.907 136.053" stroke="#1E1E1E" stroke-width="1.4912" stroke-linecap="round"/>
<path d="M135.558 86.6495C135.558 87.9409 135.263 88.5876 134.849 88.9185C134.421 89.2599 133.759 89.357 132.796 89.2748C132.086 89.2142 131.278 89.064 130.371 88.8953C130.057 88.8369 129.731 88.7763 129.393 88.7164C128.093 88.4861 126.646 88.2732 125.12 88.2732C123.594 88.2732 122.146 88.4861 120.847 88.7164C120.509 88.7763 120.183 88.8369 119.869 88.8953C118.961 89.064 118.154 89.2142 117.443 89.2748C116.481 89.357 115.818 89.2599 115.391 88.9185C114.977 88.5876 114.681 87.9409 114.681 86.6495C114.681 81.5649 119.314 77.3728 125.12 77.3728C130.926 77.3728 135.558 81.5649 135.558 86.6495Z" fill="#626161" stroke="#1E1E1E" stroke-width="0.745601"/>
<rect x="106.113" y="114.123" width="15.7131" height="11.2456" rx="1.2324" fill="black" fill-opacity="0.95"/>
<rect x="128.223" y="114.013" width="16.0212" height="11.4661" rx="1.2324" fill="black" fill-opacity="0.95"/>
<path d="M111.117 113.622L113.665 113.622L121.252 125.676L118.787 125.676L111.117 113.622Z" fill="#626262" fill-opacity="0.5"/>
<path d="M133.41 113.736L135.958 113.736L143.545 125.791L141.08 125.791L133.41 113.736Z" fill="#626262" fill-opacity="0.5"/>
<path d="M114.551 114.007L116.399 114.007L122.302 124.087L121.588 125.107L114.551 114.007Z" fill="#626262" fill-opacity="0.5"/>
<path d="M136.844 114.122L138.692 114.122L144.595 124.201L143.88 125.221L136.844 114.122Z" fill="#626262" fill-opacity="0.5"/>
<path fill-rule="evenodd" clip-rule="evenodd" d="M105.837 115.422V118.994L102.46 116.982C102.29 116.881 102.061 116.922 101.949 117.073C101.836 117.225 101.882 117.429 102.051 117.53L105.837 119.786V124.104C105.837 125.162 106.796 126.019 107.98 126.019H120.642C121.825 126.019 122.784 125.162 122.784 124.104V120.421C122.891 120.421 122.997 120.38 123.07 120.3C124.086 119.184 125.04 119.004 125.796 119.147C126.594 119.298 127.27 119.829 127.645 120.287C127.717 120.375 127.829 120.421 127.942 120.421V124.104C127.942 125.162 128.902 126.019 130.085 126.019H142.747C143.93 126.019 144.889 125.162 144.889 124.104V119.786L148.676 117.53C148.845 117.429 148.891 117.225 148.778 117.073C148.665 116.922 148.436 116.881 148.267 116.982L144.889 118.995V115.422C144.889 114.364 143.93 113.506 142.747 113.506H130.085C128.902 113.506 127.942 114.364 127.942 115.422V119.576C127.475 119.122 126.783 118.661 125.949 118.503C124.961 118.315 123.853 118.567 122.784 119.591V115.422C122.784 114.364 121.825 113.506 120.642 113.506H107.98C106.796 113.506 105.837 114.364 105.837 115.422ZM120.642 114.165H107.98C107.203 114.165 106.574 114.728 106.574 115.422V119.491C106.619 119.577 106.621 119.68 106.574 119.77V124.104C106.574 124.798 107.203 125.361 107.98 125.361H120.642C121.418 125.361 122.048 124.798 122.048 124.104V115.422C122.048 114.728 121.418 114.165 120.642 114.165ZM142.747 114.165H130.085C129.309 114.165 128.679 114.728 128.679 115.422V124.104C128.679 124.798 129.309 125.361 130.085 125.361H142.747C143.523 125.361 144.153 124.798 144.153 124.104V115.422C144.153 114.728 143.523 114.165 142.747 114.165Z" fill="#1E1E1E" stroke="black" stroke-width="1.2324"/>
<rect x="8.03051" y="111.297" width="63.4865" height="15.3243" rx="7.66216" fill="white" stroke="#1E1E1E" stroke-width="1.45946"/>
<rect x="17.511" y="92.3245" width="45.2432" height="48.1622" rx="18.2432" fill="white" stroke="#1E1E1E" stroke-width="1.45946"/>
<path d="M65.963 93.9627C57.0256 81.7094 45.664 83.5778 40.6173 90.4953C40.4361 90.7473 40.2463 91.0862 40.0652 91.4425C39.9444 91.2426 39.815 91.0514 39.6942 90.8863C34.6734 83.9167 23.2687 81.6746 14.2968 93.9714C10.0351 99.8199 6.92945 101.037 2.91797 100.924C4.94528 103.817 7.24865 109.414 9.9661 112.247C13.7274 116.175 20.4305 114.22 23.4757 106.451C27.5562 96.031 33.0947 93.476 40.1342 93.476C47.1737 93.476 52.7035 96.031 56.7926 106.442C59.8379 114.211 66.541 116.175 70.3023 112.238C73.0197 109.397 75.3231 103.8 77.3504 100.915C73.3303 101.028 70.2246 99.8112 65.963 93.9627Z" fill="#626161"/>
<path d="M23.3516 106.919H39.0408V123.703H42.6894" stroke="#1E1E1E" stroke-width="1.45946" stroke-linecap="round"/>
<path d="M46.7031 106.919H57.6491" stroke="#1E1E1E" stroke-width="1.45946" stroke-linecap="round"/>
<ellipse cx="29.5501" cy="114.946" rx="2.55405" ry="3.64865" fill="#1E1E1E"/>
<circle cx="30.6438" cy="114.217" r="0.72973" fill="white"/>
<ellipse cx="51.4486" cy="114.946" rx="2.55405" ry="3.64865" fill="#1E1E1E"/>
<circle cx="52.5422" cy="114.217" r="0.72973" fill="white"/>
<path d="M55.4449 130.876C51.6625 123.644 43.7877 124.156 40.7184 127.58V127.564V127.58C37.6491 124.156 29.7743 123.644 25.9919 130.876C24.0697 134.555 21.8375 134.955 19.5742 134.891C20.2253 136.587 20.6748 138.331 22.4885 139.643C24.2402 140.907 28.0846 140.971 30.0843 136.603C32.9056 130.444 36.6725 130.428 40.7339 130.428C44.7953 130.428 48.5622 130.444 51.3835 136.603C53.3832 140.971 57.2276 140.923 58.9793 139.643C60.7775 138.331 61.2425 136.571 61.8936 134.891C59.5838 134.955 57.3671 134.555 55.4449 130.876Z" fill="#626161"/>
<path d="M37.0898 132.459C38.1844 133.676 41.1034 135.378 44.0223 132.459" stroke="#1E1E1E" stroke-width="1.45946" stroke-linecap="round"/>
<rect x="21.8438" y="111.235" width="15.3786" height="11.0063" rx="1.20616" fill="black" fill-opacity="0.95"/>
<rect x="43.4766" y="111.127" width="15.6801" height="11.2221" rx="1.20616" fill="black" fill-opacity="0.95"/>
<path d="M26.7383 110.745L29.2315 110.745L36.657 122.543L34.2447 122.543L26.7383 110.745Z" fill="#626262" fill-opacity="0.5"/>
<path d="M48.5547 110.856L51.0479 110.856L58.4734 122.654L56.0611 122.654L48.5547 110.856Z" fill="#626262" fill-opacity="0.5"/>
<path d="M30.0977 111.122L31.9069 111.122L37.684 120.987L36.9846 121.985L30.0977 111.122Z" fill="#626262" fill-opacity="0.5"/>
<path d="M51.9141 111.233L53.7233 111.233L59.5004 121.099L58.801 122.097L51.9141 111.233Z" fill="#626262" fill-opacity="0.5"/>
<path fill-rule="evenodd" clip-rule="evenodd" d="M21.5733 112.506V116.003L18.2677 114.033C18.102 113.935 17.8781 113.975 17.7676 114.123C17.6572 114.271 17.7019 114.471 17.8676 114.57L21.5733 116.778V121.004C21.5733 122.039 22.5123 122.879 23.6706 122.879H36.0626C37.2209 122.879 38.1599 122.039 38.1599 121.004V117.4C38.2645 117.4 38.3683 117.359 38.4395 117.281C39.4342 116.188 40.3675 116.012 41.1071 116.152C41.8879 116.301 42.55 116.82 42.917 117.268C42.9876 117.354 43.097 117.4 43.2079 117.4V121.004C43.2079 122.039 44.1469 122.879 45.3052 122.879H57.6972C58.8555 122.879 59.7944 122.039 59.7944 121.004V116.778L63.5002 114.57C63.6659 114.471 63.7107 114.271 63.6002 114.123C63.4897 113.975 63.2659 113.935 63.1002 114.033L59.7944 116.003V112.506C59.7944 111.471 58.8555 110.632 57.6972 110.632H45.3052C44.1469 110.632 43.2079 111.471 43.2079 112.506V116.572C42.7506 116.128 42.0731 115.677 41.257 115.522C40.2897 115.338 39.2059 115.584 38.1599 116.587V112.506C38.1599 111.471 37.2209 110.632 36.0626 110.632H23.6706C22.5123 110.632 21.5733 111.471 21.5733 112.506ZM36.0626 111.276H23.6706C22.9106 111.276 22.2945 111.827 22.2945 112.506V116.489C22.3388 116.574 22.3408 116.674 22.2945 116.762V121.004C22.2945 121.683 22.9106 122.234 23.6706 122.234H36.0626C36.8226 122.234 37.4387 121.683 37.4387 121.004V112.506C37.4387 111.827 36.8226 111.276 36.0626 111.276ZM57.6972 111.276H45.3052C44.5452 111.276 43.9291 111.827 43.9291 112.506V121.004C43.9291 121.683 44.5452 122.234 45.3052 122.234H57.6972C58.4572 122.234 59.0733 121.683 59.0733 121.004V112.506C59.0733 111.827 58.4572 111.276 57.6972 111.276Z" fill="#1E1E1E" stroke="black" stroke-width="1.20616"/>
<rect x="90.7806" y="33.9964" width="67.9109" height="16.3923" rx="8.19614" fill="white" stroke="#1E1E1E" stroke-width="1.56117"/>
<rect x="100.933" y="13.701" width="48.3962" height="51.5186" rx="19.5146" fill="white" stroke="#1E1E1E" stroke-width="1.56117"/>
<path d="M133.713 10.715C140.8 11.8015 133.677 24.2178 125.033 23.7624C120.536 23.5228 119.445 21.4695 116.047 20.3989C111.833 19.0727 108.327 20.2631 105.046 25.1925C102.381 29.1872 101.948 36.3378 101.948 36.3378H100.241C99.8829 32.2312 98.612 5.30613 133.713 10.715Z" fill="#626160"/>
<path d="M117.321 10.7148C110.296 12.2128 116.58 24.2178 125.223 23.7624C129.732 23.5228 130.824 21.4695 134.224 20.3989C138.441 19.0727 141.95 20.2631 145.234 25.1925C147.892 29.1872 148.334 36.3378 148.334 36.3378H150.001C150.393 32.2312 152.484 5.30601 117.321 10.7148Z" fill="#626160"/>
<path d="M107.172 29.3125H123.954V47.2659H127.857" stroke="#1E1E1E" stroke-width="1.56117" stroke-linecap="round"/>
<path d="M132.148 29.3125H143.857" stroke="#1E1E1E" stroke-width="1.56117" stroke-linecap="round"/>
<ellipse cx="113.806" cy="37.8985" rx="2.73205" ry="3.90292" fill="#1E1E1E"/>
<circle cx="114.976" cy="37.1175" r="0.780585" fill="white"/>
<ellipse cx="137.224" cy="37.8985" rx="2.73205" ry="3.90292" fill="#1E1E1E"/>
<circle cx="138.394" cy="37.1175" r="0.780585" fill="white"/>
<path d="M121.223 56.6328C122.394 57.9338 125.516 59.7552 128.638 56.6328" stroke="#1E1E1E" stroke-width="1.56117" stroke-linecap="round"/>
<rect x="104.73" y="33.4634" width="16.4884" height="11.8005" rx="1.29321" fill="black" fill-opacity="0.95"/>
<rect x="127.93" y="33.3477" width="16.8117" height="12.0319" rx="1.29321" fill="black" fill-opacity="0.95"/>
<path d="M109.98 32.938L112.654 32.938L120.615 45.5872L118.029 45.5872L109.98 32.938Z" fill="#626262" fill-opacity="0.5"/>
<path d="M133.375 33.0571L136.048 33.0571L144.009 45.7063L141.423 45.7063L133.375 33.0571Z" fill="#626262" fill-opacity="0.5"/>
<path d="M113.582 33.3418L115.522 33.3418L121.716 43.9191L120.966 44.9888L113.582 33.3418Z" fill="#626262" fill-opacity="0.5"/>
<path d="M136.973 33.4614L138.912 33.4614L145.106 44.0387L144.357 45.1085L136.973 33.4614Z" fill="#626262" fill-opacity="0.5"/>
<path fill-rule="evenodd" clip-rule="evenodd" d="M104.438 34.8267V38.5758L100.894 36.4639C100.716 36.358 100.476 36.4009 100.358 36.5597C100.24 36.7185 100.288 36.933 100.465 37.0389L104.438 39.4063V43.9376C104.438 45.0476 105.445 45.9474 106.687 45.9474H119.973C121.215 45.9474 122.222 45.0476 122.222 43.9376V40.0732C122.334 40.0732 122.445 40.0296 122.522 39.9458C123.588 38.7744 124.589 38.5853 125.382 38.7358C126.219 38.8948 126.929 39.4516 127.322 39.9318C127.398 40.0242 127.515 40.0732 127.634 40.0732V43.9376C127.634 45.0476 128.641 45.9474 129.883 45.9474H143.169C144.411 45.9474 145.418 45.0476 145.418 43.9376V39.4065L149.391 37.039C149.568 36.9331 149.616 36.7186 149.498 36.5598C149.38 36.401 149.14 36.3581 148.962 36.464L145.418 38.5759V34.8267C145.418 33.7167 144.411 32.8169 143.169 32.8169H129.883C128.641 32.8169 127.634 33.7167 127.634 34.8267V39.1855C127.144 38.7095 126.417 38.226 125.542 38.0598C124.505 37.863 123.343 38.1268 122.222 39.2015V34.8267C122.222 33.7167 121.215 32.8169 119.973 32.8169H106.687C105.445 32.8169 104.438 33.7167 104.438 34.8267ZM119.973 33.508H106.687C105.872 33.508 105.211 34.0984 105.211 34.8267V39.0966C105.259 39.1875 105.261 39.295 105.211 39.3896V43.9376C105.211 44.6659 105.872 45.2563 106.687 45.2563H119.973C120.788 45.2563 121.449 44.6659 121.449 43.9376V34.8267C121.449 34.0984 120.788 33.508 119.973 33.508ZM143.169 33.508H129.883C129.068 33.508 128.407 34.0984 128.407 34.8267V43.9376C128.407 44.6659 129.068 45.2563 129.883 45.2563H143.169C143.984 45.2563 144.644 44.6659 144.644 43.9376V34.8267C144.644 34.0984 143.984 33.508 143.169 33.508Z" fill="#1E1E1E" stroke="black" stroke-width="1.29321"/>
<rect x="9.73034" y="36.056" width="63.5393" height="15.3371" rx="7.66854" fill="white" stroke="#1E1E1E" stroke-width="1.46067"/>
<rect x="19.2225" y="17.0682" width="45.2809" height="48.2022" rx="18.2584" fill="white" stroke="#1E1E1E" stroke-width="1.46067"/>
<path d="M53.3501 26.7895C54.635 26.8828 55.5613 26.9501 56.1961 26.89C64.9718 31.8718 63.7682 36.2451 63.0474 38.8642C62.6 40.4898 62.3386 41.4396 64.7647 41.4396C71.196 41.4396 74.0004 33.6757 74.0004 26.5201C74.0004 19.6144 65.7783 11.4108 59.4232 10.8462C58.3182 2.94078 49.7788 1 42.292 1C33.9897 1 26.9385 4.91789 24.4056 10.3638C18.123 10.2653 10.4447 11.02 12.1678 26.1265C12.1678 33.2821 23.0023 54.7888 21.4035 41.046C21.4035 31.6365 21.4035 27.3166 27.3964 21.4379C32.025 24.7754 39.8916 26.5152 46.7127 26.5152C49.5742 26.5152 51.7428 26.6727 53.3501 26.7895Z" fill="#626161"/>
<path d="M25.0742 31.6743H40.7765V48.4721H44.4281" stroke="#1E1E1E" stroke-width="1.46067" stroke-linecap="round"/>
<path d="M48.4375 31.6743H59.3926" stroke="#1E1E1E" stroke-width="1.46067" stroke-linecap="round"/>
<ellipse cx="31.2749" cy="39.7083" rx="2.55618" ry="3.65169" fill="#1E1E1E"/>
<circle cx="32.371" cy="38.9779" r="0.730337" fill="white"/>
<ellipse cx="53.189" cy="39.7083" rx="2.55618" ry="3.65169" fill="#1E1E1E"/>
<circle cx="54.285" cy="38.9779" r="0.730337" fill="white"/>
<path d="M38.2148 57.2363C39.3103 58.4536 42.2317 60.1577 45.153 57.2363" stroke="#1E1E1E" stroke-width="1.46067" stroke-linecap="round"/>
<rect x="22.7891" y="35.4365" width="15.427" height="11.0409" rx="1.20996" fill="black" fill-opacity="0.95"/>
<rect x="44.4883" y="35.3286" width="15.7295" height="11.2574" rx="1.20996" fill="black" fill-opacity="0.95"/>
<path d="M27.6953 34.9448L30.1964 34.9448L37.6452 46.7798L35.2253 46.7798L27.6953 34.9448Z" fill="#626262" fill-opacity="0.5"/>
<path d="M49.5859 35.0566L52.087 35.0566L59.5359 46.8916L57.1159 46.8916L49.5859 35.0566Z" fill="#626262" fill-opacity="0.5"/>
<path d="M31.0625 35.3232L32.8774 35.3232L38.6727 45.2196L37.9711 46.2205L31.0625 35.3232Z" fill="#626262" fill-opacity="0.5"/>
<path d="M52.9531 35.4351L54.7681 35.4351L60.5634 45.3314L59.8618 46.3324L52.9531 35.4351Z" fill="#626262" fill-opacity="0.5"/>
<path fill-rule="evenodd" clip-rule="evenodd" d="M22.5074 36.7119V40.2197L19.1913 38.2438C19.0251 38.1447 18.8005 38.1849 18.6897 38.3334C18.5789 38.482 18.6238 38.6827 18.79 38.7818L22.5074 40.9968V45.2364C22.5074 46.2749 23.4493 47.1168 24.6112 47.1168H37.0423C38.2042 47.1168 39.1461 46.2749 39.1461 45.2364V41.6208C39.2511 41.6207 39.3552 41.58 39.4267 41.5015C40.4244 40.4056 41.3607 40.2286 42.1027 40.3695C42.8859 40.5182 43.5501 41.0392 43.9182 41.4885C43.989 41.5749 44.0988 41.6207 44.2101 41.6208V45.2364C44.2101 46.2749 45.152 47.1168 46.3139 47.1168H58.7449C59.9069 47.1168 60.8488 46.2749 60.8488 45.2364V40.9969L64.5662 38.7818C64.7324 38.6828 64.7774 38.4821 64.6665 38.3335C64.5557 38.1849 64.3312 38.1448 64.1649 38.2438L60.8488 40.2198V36.7119C60.8488 35.6734 59.9069 34.8315 58.7449 34.8315H46.3139C45.152 34.8315 44.2101 35.6734 44.2101 36.7119V40.7902C43.7513 40.3448 43.0717 39.8924 42.253 39.737C41.2827 39.5528 40.1954 39.7997 39.1461 40.8052V36.7119C39.1461 35.6734 38.2042 34.8315 37.0423 34.8315H24.6112C23.4493 34.8315 22.5074 35.6734 22.5074 36.7119ZM37.0423 35.4781H24.6112C23.8488 35.4781 23.2308 36.0305 23.2308 36.7119V40.707C23.2752 40.7921 23.2773 40.8927 23.2308 40.9812V45.2364C23.2308 45.9178 23.8488 46.4702 24.6112 46.4702H37.0423C37.8046 46.4702 38.4227 45.9178 38.4227 45.2364V36.7119C38.4227 36.0305 37.8046 35.4781 37.0423 35.4781ZM58.7449 35.4781H46.3139C45.5515 35.4781 44.9335 36.0305 44.9335 36.7119V45.2364C44.9335 45.9178 45.5515 46.4702 46.3139 46.4702H58.7449C59.5073 46.4702 60.1254 45.9178 60.1254 45.2364V36.7119C60.1254 36.0305 59.5073 35.4781 58.7449 35.4781Z" fill="#1E1E1E" stroke="black" stroke-width="1.20996"/>
</svg>
