<svg width="173" height="210" viewBox="0 0 173 210" fill="none" xmlns="http://www.w3.org/2000/svg">
<path d="M136.964 18.5966C129.523 17.2845 122.398 22.2649 121.085 29.7159C119.772 37.1573 124.753 44.282 132.204 45.5958C139.645 46.9079 146.77 41.9275 148.084 34.4765C149.396 27.0351 144.406 19.9088 136.964 18.5966ZM132.687 42.8577C126.752 41.8114 122.776 36.1327 123.824 30.1891C124.871 24.255 130.549 20.2788 136.493 21.3269C142.427 22.3732 146.403 28.0518 145.355 33.9954C144.299 39.9278 138.621 43.904 132.687 42.8577Z" fill="white"/>
<path d="M135.253 28.3084C134.5 28.1755 133.781 28.6784 133.648 29.4321L132.212 37.5795C132.079 38.3332 132.582 39.0514 133.335 39.1843C134.089 39.3172 134.807 38.8143 134.94 38.0606L136.377 29.9132C136.508 29.1691 136.007 28.4413 135.253 28.3084ZM135.856 25.0012C135.093 24.8667 134.375 25.3696 134.242 26.1233C134.109 26.877 134.621 27.5969 135.375 27.7298C136.129 27.8627 136.847 27.3598 136.98 26.6061C137.113 25.8524 136.61 25.1341 135.856 25.0012Z" fill="white"/>
<g clip-path="url(#clip0_13168_25523)">
<path d="M36.2622 91.5568L123.326 77.842C130.973 76.6213 138.154 81.8631 139.375 89.5104C140.595 97.1577 135.353 104.338 127.706 105.559L40.6423 119.274C32.995 120.494 25.8145 115.253 24.5938 107.605C23.409 99.9222 28.6149 92.7416 36.2622 91.5568Z" fill="white"/>
<path d="M127.921 106.851L40.8216 120.566C32.4563 121.895 24.5936 116.15 23.2652 107.785C21.9368 99.4196 27.6812 91.5569 36.0465 90.2285L123.146 76.5137C131.512 75.1853 139.374 80.9298 140.703 89.2951C142.031 97.6604 136.287 105.559 127.921 106.851ZM36.4774 92.8494C29.5482 93.9265 24.8449 100.461 25.922 107.354C26.9991 114.247 33.5334 118.987 40.4267 117.909L127.526 104.195C134.456 103.118 139.159 96.5833 138.082 89.69C137.005 82.7608 130.47 78.0576 123.577 79.1346L36.4774 92.8494Z" fill="#1E1E1E"/>
<path d="M67.138 51.5253L82.971 49.0481C101.174 46.1759 118.299 58.6341 121.136 76.8367L124.474 97.9475C127.347 116.15 114.888 133.276 96.6858 136.112L80.8528 138.589C62.6501 141.461 45.5246 129.003 42.6883 110.801L39.3493 89.6899C36.4771 71.4872 48.9353 54.3976 67.138 51.5253Z" fill="white"/>
<path d="M96.9004 137.44L81.0673 139.918C62.1466 142.898 44.3389 129.937 41.359 111.016L38.0201 89.9054C35.0402 70.9847 48.001 53.177 66.9217 50.1971L82.7548 47.7198C101.675 44.7399 119.483 57.7007 122.463 76.6214L125.802 97.7322C128.782 116.653 115.821 134.461 96.9004 137.44ZM67.3525 52.8539C49.9038 55.6184 37.9124 72.0618 40.6769 89.5104L44.0158 110.621C46.7803 128.07 63.2237 140.061 80.6724 137.297L96.5055 134.82C113.954 132.055 125.946 115.612 123.181 98.163L119.842 77.0522C117.078 59.6036 100.634 47.6121 83.1856 50.3766L67.3525 52.8539Z" fill="#1E1E1E"/>
<path d="M88.8253 107.606L80.9267 108.862L76.1516 78.5244L49.1169 82.7968C48.3989 82.9045 47.7167 82.4019 47.5731 81.6838C47.4654 80.9658 47.9681 80.2836 48.6861 80.14L78.3776 75.4727L83.1526 105.81L88.4303 104.985C89.1484 104.877 89.8305 105.38 89.9742 106.098C90.1178 106.816 89.5433 107.498 88.8253 107.606Z" fill="#1E1E1E"/>
<path d="M111.084 72.9951L91.3015 76.1186C90.5834 76.2263 89.9013 75.7237 89.7577 75.0056C89.6141 74.2876 90.1526 73.6054 90.8707 73.4618L110.653 70.3383C111.371 70.2306 112.053 70.7332 112.197 71.4513C112.34 72.2052 111.838 72.8874 111.084 72.9951Z" fill="#1E1E1E"/>
<path d="M103 94.5628C105.546 94.1619 107.145 90.8837 106.572 87.2406C105.998 83.5975 103.469 80.9691 100.923 81.3699C98.3766 81.7708 96.7774 85.049 97.3509 88.6921C97.9244 92.3352 100.453 94.9636 103 94.5628Z" fill="#1E1E1E"/>
<path d="M103.925 87.6292C104.649 87.5152 105.144 86.8352 105.03 86.1105C104.916 85.3858 104.236 84.8908 103.511 85.0049C102.787 85.1189 102.292 85.7989 102.406 86.5236C102.52 87.2483 103.2 87.7433 103.925 87.6292Z" fill="white"/>
<path d="M86.8869 127.136C86.8151 127.136 86.7433 127.172 86.6356 127.172C83.5838 127.567 80.7116 126.275 79.0601 124.946C78.4857 124.48 78.4138 123.654 78.8806 123.079C79.3473 122.505 80.1731 122.433 80.7475 122.9C81.9323 123.833 84.0865 124.839 86.3124 124.551C88.2153 124.3 89.9027 123.151 91.3747 121.176C91.8055 120.566 92.6313 120.458 93.2416 120.889C93.852 121.32 93.9597 122.146 93.5289 122.756C91.6619 125.233 89.436 126.705 86.8869 127.136Z" fill="#1E1E1E"/>
<path d="M86.9573 94.8242C87.2445 95.0755 87.6395 95.0396 87.8908 94.7524C88.1421 94.4652 88.1062 94.0702 87.819 93.8189L86.9573 94.8242ZM76.2942 95.5782C76.0788 95.9013 76.1865 96.2962 76.4737 96.5116C76.7969 96.727 77.1918 96.6193 77.4072 96.3321L76.2942 95.5782ZM46.1719 96.368C46.495 96.5116 46.89 96.368 47.0695 96.0449C47.2131 95.7218 47.0695 95.3268 46.7463 95.1473L46.1719 96.368ZM38.8478 91.5212C38.5246 91.3775 38.1297 91.5212 37.9502 91.8443C37.8066 92.1674 37.9502 92.5623 38.2733 92.7418L38.8478 91.5212ZM116.11 84.0175C115.823 84.2688 115.823 84.6997 116.074 84.951C116.326 85.2382 116.756 85.2382 117.008 84.9869L116.11 84.0175ZM123.111 79.3861C123.398 79.1347 123.398 78.7039 123.147 78.4526C122.896 78.1654 122.465 78.1654 122.214 78.4167L123.111 79.3861ZM87.8549 93.8189C86.7778 92.8855 84.9109 91.8443 82.7926 91.7725C80.6025 91.7007 78.2689 92.7059 76.2942 95.6141L77.4072 96.368C79.1305 93.783 81.0693 93.065 82.7567 93.1368C84.48 93.1727 86.0597 94.0343 86.9573 94.8601L87.8549 93.8189ZM76.1147 93.5317C77.3354 101.287 72.0577 108.539 64.3027 109.76L64.5182 111.088C72.9912 109.76 78.7715 101.825 77.4431 93.3522L76.1147 93.5317ZM64.3027 109.76C56.5837 110.98 49.3313 105.703 48.1106 97.9477L46.7823 98.1631C48.1106 106.636 56.0451 112.416 64.5182 111.088L64.3027 109.76ZM48.1106 97.9477C46.89 90.1928 52.1676 82.9404 59.9226 81.7197L59.7072 80.3913C51.2342 81.7197 45.4539 89.6542 46.7823 98.1272L48.1106 97.9477ZM59.8867 81.7197C67.6058 80.499 74.894 85.7767 76.0788 93.5317L77.4072 93.3163C76.0788 84.8433 68.1443 79.0629 59.6713 80.3913L59.8867 81.7197ZM115.679 87.3205C116.9 95.0755 111.622 102.328 103.867 103.549L104.083 104.877C112.556 103.549 118.336 95.6141 117.008 87.141L115.679 87.3205ZM103.903 103.513C96.1843 104.733 88.896 99.4556 87.7113 91.7007L86.3829 91.9161C87.7113 100.389 95.6457 106.169 104.119 104.841L103.903 103.513ZM87.6754 91.7366C86.4547 83.9816 91.7323 76.7293 99.4873 75.5086L99.2719 74.1802C90.7989 75.5086 85.0186 83.4431 86.347 91.9161L87.6754 91.7366ZM99.4873 75.5086C107.206 74.2879 114.495 79.5656 115.679 87.3205L117.008 87.1051C115.679 78.6321 107.745 72.8518 99.2719 74.1802L99.4873 75.5086ZM46.7463 95.1473L38.8478 91.5212L38.2733 92.7418L46.1719 96.368L46.7463 95.1473ZM117.008 84.9869L123.111 79.3502L122.214 78.3808L116.11 84.0175L117.008 84.9869Z" fill="#1E1E1E"/>
<path d="M62.1485 57.1981C53.137 61.7936 47.8234 65.9224 43.551 75.1494C40.0684 82.6171 41.2532 94.824 41.2532 94.824L38.3451 95.2908C36.9449 89.654 30.3747 57.9879 62.3281 46.8581C65.8465 45.6374 69.8317 44.668 74.3554 43.9859C78.7715 43.2319 82.7926 42.9447 86.4187 43.0165C120.167 43.6987 122.68 76.1188 123.039 81.935L120.203 82.3658C120.203 82.3658 117.546 70.4102 111.946 64.3427C105.052 56.8749 99.5591 54.4695 90.009 52.782C84.5877 51.8127 81.3565 51.9204 75.8993 52.7461C70.3343 53.6437 67.1749 54.6131 62.1485 57.1981Z" fill="#626160"/>
<path d="M83.6907 135.753C83.6907 135.753 76.582 131.373 70.6581 130.368C64.7341 129.291 60.354 129.147 60.354 129.147C60.354 129.147 59.0974 135.035 60.1745 140.205C61.1439 145.411 63.6211 154.028 63.6211 154.028C63.6211 154.028 69.7605 152.627 75.3613 149.683C80.998 146.703 84.8755 142.754 84.8755 142.754L83.7625 135.753H83.6907Z" fill="#23C865"/>
<path d="M91.8382 134.46C91.8382 134.46 97.2595 128.106 102.609 125.341C107.923 122.505 112.015 121.033 112.015 121.033C112.015 121.033 114.995 126.239 115.57 131.48C116.216 136.722 116.539 145.698 116.539 145.698C116.539 145.698 110.292 146.272 104.009 145.159C97.7262 143.974 92.8435 141.497 92.8435 141.497L91.7305 134.496L91.8382 134.46Z" fill="#23C865"/>
<path d="M85.5222 138.949C85.5222 138.949 80.6753 137.872 74.4642 137.692C69.7609 137.513 68.0376 145.232 77.3364 142.575C86.5993 139.954 85.5222 138.949 85.5222 138.949Z" fill="#1CA151"/>
<path d="M90.4022 138.194C90.4022 138.194 94.6746 135.681 100.527 133.599C104.943 131.983 108.928 138.805 99.3061 139.128C89.6124 139.487 90.4022 138.194 90.4022 138.194Z" fill="#1CA151"/>
<path d="M91.8413 134.46L83.6914 135.753L84.7685 142.61L92.9184 141.318L91.8413 134.46Z" fill="#1CA151"/>
<path d="M57.9817 99.0963C57.4791 97.0858 59.2024 94.9316 61.7874 94.2853C64.4083 93.6391 66.8856 94.7521 67.3882 96.7626" stroke="black" stroke-width="2.2745" stroke-miterlimit="10" stroke-linecap="round" stroke-linejoin="round"/>
<path d="M42.289 130.619C44.0841 130.619 47.4949 131.301 50.5107 135.897C54.2805 141.677 53.9574 147.063 53.706 150.976C53.5983 152.807 53.4906 154.53 53.9214 155.284C54.2087 155.787 55.0703 156.936 56.0038 158.121C61.6046 165.552 73.1652 180.847 66.6669 191.295C66.7028 191.402 66.7387 191.546 66.7746 191.654C67.0259 192.551 67.4208 193.915 67.2772 195.782C66.99 199.804 65.2308 202.065 63.8306 203.25C62.8253 204.076 61.8559 204.543 61.2097 204.758C60.1685 205.62 57.6194 207.451 54.819 207.451C53.1316 207.451 50.044 206.769 48.3924 202.173C45.9152 195.316 39.2373 187.776 33.7801 183.001C31.8054 181.278 30.9797 180.667 29.9744 179.124C29.7231 179.16 29.4359 179.195 29.1846 179.195C23.2965 179.483 21.0706 170.902 23.7273 162.142C25.5943 155.931 29.9026 153.561 32.4157 153.561C33.7082 153.561 34.7853 155.284 35.288 156.002C35.4675 155.931 35.6829 155.859 35.8624 155.823C36.9754 154.064 39.5963 148.75 36.2214 142.144C34.8212 139.379 34.8212 136.328 36.2932 133.958C37.5857 131.876 39.8117 130.619 42.289 130.619ZM42.289 128.106C38.95 128.106 35.8983 129.829 34.1391 132.666C32.2362 135.789 32.1644 139.738 33.9955 143.293C35.9701 147.206 35.4675 149.324 34.6417 151.443C33.9236 151.191 32.2004 151.443 31.4105 151.443C29.4359 151.838 24.0864 152.161 21.286 161.388C19.3831 167.743 19.6703 174.779 22.2553 178.226C23.476 179.878 25.4866 181.816 28.7178 181.457C29.7949 182.893 30.477 183.504 32.0567 184.868C40.0271 191.833 44.4791 198.798 45.987 202.999C48.2488 209.282 52.8803 209.964 54.7831 209.964C58.0503 209.964 60.8507 208.205 62.4304 206.984C63.2561 206.661 64.3332 206.086 65.4103 205.153C67.1695 203.645 69.3955 200.809 69.7545 195.926C69.8981 194.059 69.6109 192.623 69.3237 191.582C75.4989 179.806 63.7229 164.188 57.9784 156.577C57.3322 155.715 56.4346 154.53 56.1474 154.099C56.0397 153.561 56.1474 152.089 56.1833 151.084C56.4346 147.063 56.7937 140.959 52.593 134.461C48.931 128.932 44.5509 128.106 42.289 128.106Z" fill="white"/>
<path d="M54.8232 206.194C53.1717 206.194 50.9098 205.404 49.5814 201.742C46.3861 192.802 37.3027 184.401 34.61 182.031C28.5784 176.754 23.4999 177.5 23.4999 169.286L22.9988 167C22.8552 164.63 22.9999 150 36.6924 156.864C37.6977 155.428 41.3597 149.288 37.4104 141.533C36.1897 139.128 36.1897 136.579 37.4104 134.568C38.4875 132.845 40.3186 131.804 42.3291 131.804C43.837 131.804 46.8169 132.414 49.4737 136.507C53.0281 141.928 52.705 147.098 52.4895 150.832C52.3459 152.95 52.2382 154.781 52.8845 155.858C53.2076 156.397 53.9975 157.474 55.0386 158.838C60.5676 166.163 71.9847 181.278 65.3786 190.971C65.3786 191.187 65.4863 191.546 65.594 191.941C65.8453 192.802 66.1684 193.987 66.0607 195.639C65.8094 199.229 64.2656 201.204 63.0449 202.245C62.0755 203.07 61.1421 203.465 60.6035 203.609C59.7778 204.363 57.4082 206.194 54.8232 206.194Z" fill="white"/>
<path d="M42.2928 133.096C44.2316 133.096 46.4575 134.281 48.3963 137.261C53.8176 145.554 49.617 152.879 51.7352 156.541C53.8535 160.203 71.8407 179.77 64.1216 190.54C63.7267 191.725 64.9474 192.982 64.732 195.603C64.3011 201.706 59.921 202.532 59.921 202.532C59.921 202.532 57.336 204.937 54.7869 204.937C53.2431 204.937 51.6993 204.076 50.7299 201.311C47.8577 193.305 40.2464 185.335 35.3995 181.098C29.6551 176.072 29.5115 172.194 29.332 169.214C29.1165 165.696 30.0859 159.7 37.4101 157.977C37.4101 157.977 43.4058 150.581 38.4871 140.959C36.4048 136.902 38.8462 133.096 42.2928 133.096ZM42.2928 130.583C39.8155 130.583 37.5896 131.84 36.2971 133.958C34.861 136.327 34.8251 139.379 36.2253 142.144C39.6001 148.75 36.9792 154.063 35.8662 155.823C32.4196 156.864 29.8346 158.91 28.3267 161.782C26.8906 164.547 26.7111 167.455 26.8188 169.394V169.537C26.9983 172.661 27.2855 177.364 33.7121 183.001C39.1693 187.776 45.8831 195.315 48.3245 202.173C49.976 206.768 53.0636 207.451 54.751 207.451C57.5514 207.451 60.1005 205.655 61.1417 204.758C61.7879 204.542 62.7573 204.076 63.7626 203.25C65.1628 202.065 66.922 199.767 67.2092 195.782C67.3529 193.915 66.9579 192.551 66.7066 191.653C66.6707 191.546 66.6348 191.402 66.5989 191.294C73.0973 180.883 61.5725 165.552 55.9358 158.12C55.0023 156.9 54.1407 155.751 53.8535 155.284C53.4226 154.53 53.5303 152.807 53.638 150.976C53.8894 147.062 54.2125 141.677 50.4427 135.897C47.4987 131.265 44.0879 130.583 42.2928 130.583Z" fill="black"/>
<path d="M44.3398 183.54C44.3398 183.54 49.2944 186.519 52.023 192.551C54.7516 198.583 57.7674 204.686 61.4295 203.358" fill="white"/>
<path d="M44.3398 183.54C44.3398 183.54 49.2944 186.519 52.023 192.551C54.7516 198.583 57.7674 204.686 61.4295 203.358" stroke="black" stroke-width="2.51318" stroke-miterlimit="10"/>
<path d="M48.0039 174.528C48.0039 174.528 53.4252 176.933 55.2203 184.652C57.0873 192.659 63.3702 193.7 65.9552 190.11" stroke="black" stroke-width="2.51318" stroke-miterlimit="10"/>
<path d="M35.6526 156.9C35.3653 154.064 27.9335 152.304 24.7023 162.896C21.471 173.523 25.8871 180.775 31.3443 177.221" stroke="black" stroke-width="2.51318" stroke-miterlimit="10"/>
</g>
<defs>
<clipPath id="clip0_13168_25523">
<rect width="140.738" height="177" fill="white" transform="translate(0 33)"/>
</clipPath>
</defs>
</svg>
