<svg width="28" height="28" viewBox="0 0 28 28" fill="none" xmlns="http://www.w3.org/2000/svg">
<path fill-rule="evenodd" clip-rule="evenodd" d="M3.32255 15.6307C2.3514 10.1231 6.02898 4.87093 11.5367 3.89978C15.7537 3.1562 19.8223 5.13816 21.9327 8.58132L20.142 7.83724L19.6239 9.08406L23.4397 10.6697C23.6445 10.7548 23.8781 10.7338 24.0645 10.6136C24.251 10.4934 24.3665 10.2893 24.3735 10.0676L24.502 6.01011L23.1525 5.96737L23.0916 7.88857C20.7024 3.97927 16.0881 1.72622 11.3022 2.57011C5.06017 3.67074 0.892244 9.62316 1.99288 15.8652C3.09352 22.1072 9.04593 26.2751 15.288 25.1745C17.7464 24.741 19.8847 23.5539 21.5049 21.8929L20.5383 20.9501C19.1091 22.4154 17.2243 23.4621 15.0535 23.8448C9.54583 24.816 4.29371 21.1384 3.32255 15.6307Z" fill="#C4C4C4"/>
<circle cx="13.3008" cy="13.9167" r="6" fill="#C4C4C4"/>
<path d="M11.3008 13.9168L13.3008 11.4168L15.3008 13.9169L13.3008 16.4167L11.3008 13.9168Z" fill="#1E1E1E"/>
</svg>
