<svg width="28" height="27" viewBox="0 0 28 27" fill="none" xmlns="http://www.w3.org/2000/svg">
<path d="M18.1471 12.0931V18.4043H8.25977V12.0931L9.96737 12.0931V10.5093C9.99116 9.57529 10.3582 8.70802 10.9585 8.09115C11.261 7.78487 11.6173 7.54104 12.0272 7.35968C12.4372 7.17832 12.8771 7.08765 13.3467 7.08765C14.2605 7.10649 15.0982 7.48267 15.7051 8.07302C16.3458 8.73215 16.5066 9.51649 16.527 10.3621V12.1183L14.8459 12.1444V10.4488C14.8459 9.92054 14.7343 9.45282 14.3667 9.14694C14.0479 8.88166 13.7051 8.7445 13.3467 8.74188C12.9577 8.75416 12.6699 8.77178 12.2064 9.14694C11.743 9.5221 11.6689 10.1464 11.6663 10.5093V12.1173L14.8459 12.1444L18.1471 12.0931Z" fill="#C4C4C4"/>
<path fill-rule="evenodd" clip-rule="evenodd" d="M3.32255 15.4423C2.3514 9.93458 6.02898 4.68245 11.5367 3.7113C15.7537 2.96772 19.8223 4.94968 21.9327 8.39284L20.142 7.64876L19.6239 8.89558L23.4397 10.4812C23.6445 10.5663 23.8781 10.5454 24.0645 10.4252C24.251 10.305 24.3665 10.1009 24.3735 9.87914L24.502 5.82164L23.1525 5.7789L23.0916 7.7001C20.7024 3.79079 16.0881 1.53774 11.3022 2.38163C5.06017 3.48227 0.892244 9.43468 1.99288 15.6767C3.09352 21.9187 9.04593 26.0867 15.288 24.986C17.7464 24.5525 19.8847 23.3654 21.5049 21.7044L20.5383 20.7616C19.1091 22.2269 17.2243 23.2736 15.0535 23.6564C9.54583 24.6275 4.29371 20.9499 3.32255 15.4423Z" fill="#C4C4C4"/>
</svg>
