<svg width="17" height="21" viewBox="0 0 17 21" fill="none" xmlns="http://www.w3.org/2000/svg">
<path fill-rule="evenodd" clip-rule="evenodd" d="M11.891 0.585702C11.891 0.296745 11.6567 0.0625 11.3677 0.0625H0.523202C0.234245 0.0625 0 0.296744 0 0.585701V20.0393C0 20.3283 0.234245 20.5625 0.523201 20.5625H11.3677C11.6567 20.5625 11.891 20.3283 11.891 20.0393V0.585702ZM9.5 2.5C9.5 2.22386 9.27614 2 9 2H3C2.72386 2 2.5 2.22386 2.5 2.5C2.5 2.77614 2.72386 3 3 3H9C9.27614 3 9.5 2.77614 9.5 2.5Z" fill="#C4C4C4"/>
<mask id="path-2-outside-1_9546_18499" maskUnits="userSpaceOnUse" x="5.5" y="6" width="12" height="13" fill="black">
<rect fill="white" x="5.5" y="6" width="12" height="13"/>
<path fill-rule="evenodd" clip-rule="evenodd" d="M11.3524 8.00026C11.3524 8.00032 11.3524 8.00038 11.3523 8.00041L7.60636 10.4488C7.54019 10.4921 7.49949 10.5645 7.50026 10.6436C7.51631 12.2932 8.29477 15.735 11.3522 17.2746C11.3523 17.2746 11.3524 17.2747 11.3524 17.2748C11.3524 17.2749 11.3524 17.2749 11.3525 17.2749C11.3525 17.2749 11.3526 17.2749 11.3526 17.2748C11.3526 17.2748 11.3527 17.2748 11.3527 17.2748C11.3528 17.2749 11.3528 17.2749 11.3529 17.2749C11.3529 17.2749 11.3529 17.2749 11.3529 17.2748C11.3529 17.2747 11.353 17.2746 11.3531 17.2746C14.4106 15.735 15.189 12.2932 15.2051 10.6436C15.2059 10.5645 15.1651 10.4921 15.099 10.4488L11.353 8.0004C11.353 8.00037 11.3529 8.00033 11.3529 8.00028V8.00024C11.3529 8.00014 11.3528 8.00008 11.3527 8.00013L11.3527 8.00016C11.3527 8.00017 11.3527 8.00017 11.3526 8.00016L11.3526 8.00014C11.3525 8.00008 11.3524 8.00015 11.3524 8.00026Z"/>
</mask>
<path fill-rule="evenodd" clip-rule="evenodd" d="M11.3524 8.00026C11.3524 8.00032 11.3524 8.00038 11.3523 8.00041L7.60636 10.4488C7.54019 10.4921 7.49949 10.5645 7.50026 10.6436C7.51631 12.2932 8.29477 15.735 11.3522 17.2746C11.3523 17.2746 11.3524 17.2747 11.3524 17.2748C11.3524 17.2749 11.3524 17.2749 11.3525 17.2749C11.3525 17.2749 11.3526 17.2749 11.3526 17.2748C11.3526 17.2748 11.3527 17.2748 11.3527 17.2748C11.3528 17.2749 11.3528 17.2749 11.3529 17.2749C11.3529 17.2749 11.3529 17.2749 11.3529 17.2748C11.3529 17.2747 11.353 17.2746 11.3531 17.2746C14.4106 15.735 15.189 12.2932 15.2051 10.6436C15.2059 10.5645 15.1651 10.4921 15.099 10.4488L11.353 8.0004C11.353 8.00037 11.3529 8.00033 11.3529 8.00028V8.00024C11.3529 8.00014 11.3528 8.00008 11.3527 8.00013L11.3527 8.00016C11.3527 8.00017 11.3527 8.00017 11.3526 8.00016L11.3526 8.00014C11.3525 8.00008 11.3524 8.00015 11.3524 8.00026Z" fill="#C4C4C4"/>
<path d="M11.3526 8.00014L12.1733 6.74456L11.3526 8.00014ZM11.3527 8.00016L12.1734 9.25575L11.3527 8.00016ZM11.3526 8.00016L12.1733 6.74458L11.3526 8.00016ZM11.3527 8.00013L12.1734 9.25572L11.3527 8.00013ZM11.353 8.0004L10.5323 9.25599L11.353 8.0004ZM15.2051 10.6436L16.705 10.6582L15.2051 10.6436ZM15.099 10.4488L14.2783 11.7044L15.099 10.4488ZM11.3531 17.2746L12.0277 18.6143L11.3531 17.2746ZM11.3529 17.2749L12.0269 15.9349L11.3529 17.2749ZM11.3526 17.2748L12.0267 18.6148L11.3526 17.2748ZM11.3527 17.2748L10.6786 18.6148L11.3527 17.2748ZM11.3525 17.2749L10.6786 15.9348L11.3525 17.2749ZM11.3522 17.2746L10.6776 18.6143L11.3522 17.2746ZM11.3523 8.00041L10.5316 6.74483L11.3523 8.00041ZM8.42703 11.7044L12.173 9.256L10.5316 6.74483L6.78569 9.19325L8.42703 11.7044ZM12.0269 15.9349C9.70667 14.7665 9.01394 12.0424 9.00018 10.629L6.00033 10.6582C6.01868 12.544 6.88287 16.7035 10.6776 18.6143L12.0269 15.9349ZM12.0264 18.615L12.0267 18.6148L10.6785 15.9348L10.6786 15.9348L12.0264 18.615ZM12.0269 15.9349L12.0268 15.9348L10.6786 18.6148L10.6789 18.6149L12.0269 15.9349ZM12.0277 18.6143C15.8225 16.7035 16.6867 12.544 16.705 10.6582L13.7052 10.629C13.6914 12.0424 12.9987 14.7665 10.6785 15.9349L12.0277 18.6143ZM15.9197 9.19325L12.1737 6.74482L10.5323 9.25599L14.2783 11.7044L15.9197 9.19325ZM9.85294 8.00024V8.00028H12.8529V8.00024H9.85294ZM12.1734 9.25575L12.1734 9.25572L10.5321 6.74455L10.532 6.74458L12.1734 9.25575ZM12.1733 6.74458L12.1733 6.74456L10.5319 9.25573L10.532 9.25575L12.1733 6.74458ZM12.1733 6.74456C11.1755 6.0924 9.85239 6.80827 9.85239 8.00026H12.8524C12.8524 9.19202 11.5295 9.90776 10.5319 9.25573L12.1733 6.74456ZM10.532 6.74458C11.0306 6.4187 11.6747 6.4187 12.1733 6.74458L10.532 9.25575C11.0306 9.58164 11.6748 9.58164 12.1734 9.25575L10.532 6.74458ZM12.8529 8.00024C12.8529 6.80826 11.5298 6.0924 10.5321 6.74455L12.1734 9.25572C11.1758 9.90776 9.85294 9.19201 9.85294 8.00024H12.8529ZM12.1737 6.74482C12.5957 7.02065 12.8529 7.49181 12.8529 8.00028H9.85294C9.85294 8.50884 10.1102 8.9801 10.5323 9.25599L12.1737 6.74482ZM16.705 10.6582C16.711 10.0421 16.3922 9.50211 15.9197 9.19325L14.2783 11.7044C13.9381 11.482 13.7007 11.087 13.7052 10.629L16.705 10.6582ZM12.8529 17.2748C12.8529 17.8526 12.5236 18.3646 12.0277 18.6143L10.6785 15.9349C10.1824 16.1846 9.85294 16.6969 9.85294 17.2748H12.8529ZM10.6789 18.6149C11.676 19.1165 12.8529 18.392 12.8529 17.2748H9.85294C9.85294 16.1577 11.0298 15.4334 12.0269 15.9349L10.6789 18.6149ZM12.0267 18.6148C11.6027 18.8282 11.1027 18.8282 10.6786 18.6148L12.0268 15.9348C11.6027 15.7215 11.1026 15.7215 10.6785 15.9348L12.0267 18.6148ZM9.85239 17.2748C9.85239 18.392 11.0293 19.1164 12.0264 18.615L10.6786 15.9348C11.6756 15.4334 12.8524 16.1577 12.8524 17.2748H9.85239ZM10.6776 18.6143C10.1817 18.3646 9.85239 17.8526 9.85239 17.2748H12.8524C12.8524 16.6969 12.5229 16.1846 12.0269 15.9349L10.6776 18.6143ZM12.173 9.256C12.5961 8.97946 12.8524 8.50765 12.8524 8.00026H9.85239C9.85239 7.49299 10.1086 7.0213 10.5316 6.74483L12.173 9.256ZM6.78569 9.19325C6.31313 9.50211 5.99433 10.0421 6.00033 10.6582L9.00018 10.629C9.00464 11.087 8.76725 11.482 8.42703 11.7044L6.78569 9.19325Z" fill="#1E1E1E" mask="url(#path-2-outside-1_9546_18499)"/>
</svg>
