<svg width="28" height="28" viewBox="0 0 28 28" fill="none" xmlns="http://www.w3.org/2000/svg">
<path fill-rule="evenodd" clip-rule="evenodd" d="M3.32255 16.0475C2.3514 10.5398 6.02898 5.28768 11.5367 4.31652C15.7537 3.57295 19.8223 5.55491 21.9327 8.99807L20.142 8.25399L19.6239 9.50081L23.4397 11.0864C23.6445 11.1715 23.8781 11.1506 24.0645 11.0304C24.251 10.9102 24.3665 10.7061 24.3735 10.4844L24.502 6.42686L23.1525 6.38412L23.0916 8.30532C20.7024 4.39602 16.0881 2.14297 11.3022 2.98685C5.06017 4.08749 0.892244 10.0399 1.99288 16.2819C3.09352 22.524 9.04593 26.6919 15.288 25.5913C17.7464 25.1578 19.8847 23.9706 21.5049 22.3096L20.5383 21.3669C19.1091 22.8321 17.2243 23.8788 15.0535 24.2616C9.54583 25.2327 4.29371 21.5552 3.32255 16.0475Z" fill="#C4C4C4"/>
<path fill-rule="evenodd" clip-rule="evenodd" d="M17.75 10.8335H7V18.8335H17.75L20.5 16.0835V13.3335L17.75 10.8335ZM17.75 15.8335C17.0596 15.8335 16.5 15.2739 16.5 14.5835C16.5 13.8931 17.0596 13.3335 17.75 13.3335C18.4404 13.3335 19 13.8931 19 14.5835C19 15.2739 18.4404 15.8335 17.75 15.8335Z" fill="#C4C4C4"/>
</svg>
