<svg width="21" height="23" viewBox="0 0 21 23" fill="none" xmlns="http://www.w3.org/2000/svg">
<path fill-rule="evenodd" clip-rule="evenodd" d="M19.5156 10.3119V21.0984H2.61719V10.3119L5.53563 10.3119V7.60493C5.57629 6.00869 6.20362 4.52644 7.22956 3.47217C7.74659 2.9487 8.35546 2.53197 9.05613 2.22201C9.75685 1.91205 10.5086 1.75708 11.3113 1.75708C12.873 1.78928 14.3047 2.4322 15.342 3.44117C16.437 4.56769 16.7118 5.9082 16.7466 7.35343L13.8735 7.50158C13.8735 6.59875 13.6827 5.79938 13.0545 5.2766C12.5097 4.82321 11.9238 4.58879 11.3113 4.58432C10.6464 4.60531 10.1545 4.63542 9.36237 5.2766C8.57027 5.91778 8.44374 6.98483 8.43933 7.60493V10.3533L16.6946 10.3557L19.5156 10.3119ZM11.3008 17.6338C12.4054 17.6338 13.3008 16.7384 13.3008 15.6338C13.3008 14.5292 12.4054 13.6338 11.3008 13.6338C10.1962 13.6338 9.30078 14.5292 9.30078 15.6338C9.30078 16.7384 10.1962 17.6338 11.3008 17.6338Z" fill="#C4C4C4"/>
</svg>
