<svg width="48" height="48" viewBox="0 0 48 48" fill="none" xmlns="http://www.w3.org/2000/svg">
<path d="M17.54 34.22C16.6503 35.5269 15.6958 36.7885 14.68 38C7.3 37.79 4.5 33 4.5 33C4.6049 26.2131 6.24958 19.5386 9.31 13.48C12.0002 11.3754 15.2781 10.1593 18.69 10L19.69 12.31" stroke="white" stroke-width="1.8" stroke-linecap="round" stroke-linejoin="round"/>
<path d="M12.2001 14.3702C14.7952 13.2379 17.546 12.503 20.3601 12.1902C21.5666 12.0318 22.7836 11.9683 24.0001 12.0002C25.217 11.9749 26.4341 12.0451 27.6401 12.2102C30.4541 12.523 33.205 13.2579 35.8001 14.3902M28.3301 12.3002L29.3301 9.99023C32.7453 10.1582 36.0236 11.3849 38.7101 13.5002C41.7606 19.5544 43.3984 26.2217 43.5001 33.0002C43.5001 33.0002 40.7001 37.7902 33.3201 38.0002C32.3035 36.779 31.349 35.5073 30.4601 34.1902M36.9201 31.2902C34.2422 32.902 31.3261 34.0799 28.2801 34.7802C26.8706 35.0579 25.4366 35.1919 24.0001 35.1802V35.1802C22.5636 35.1919 21.1296 35.0579 19.7201 34.7802C16.674 34.0799 13.758 32.902 11.0801 31.2902M17.8501 22.6702C17.3648 22.682 16.8873 22.7952 16.4484 23.0025C16.0095 23.2098 15.6188 23.5066 15.3014 23.8739C14.984 24.2412 14.747 24.6708 14.6055 25.1352C14.4641 25.5996 14.4213 26.0884 14.4801 26.5702C14.5205 27.4267 14.8849 28.2358 15.4995 28.8336C16.114 29.4315 16.9328 29.7734 17.7901 29.7902C18.278 29.7791 18.7584 29.6669 19.2008 29.4607C19.6432 29.2546 20.038 28.9589 20.3603 28.5924C20.6826 28.2259 20.9255 27.7965 21.0735 27.3314C21.2214 26.8663 21.2714 26.3756 21.2201 25.8902C21.1627 25.0293 20.7849 24.2211 20.1611 23.6251C19.5372 23.029 18.7127 22.6883 17.8501 22.6702V22.6702Z" stroke="white" stroke-width="1.8" stroke-linecap="round" stroke-linejoin="round"/>
<path d="M30.15 22.6699C30.6353 22.6817 31.1128 22.7949 31.5517 23.0022C31.9906 23.2095 32.3814 23.5063 32.6987 23.8736C33.0161 24.2409 33.2531 24.6705 33.3946 25.1349C33.536 25.5992 33.5788 26.0881 33.52 26.5699C33.4796 27.4264 33.1152 28.2354 32.5007 28.8333C31.8861 29.4312 31.0673 29.7731 30.21 29.7899C29.7221 29.7788 29.2417 29.6666 28.7994 29.4604C28.357 29.2543 27.9621 28.9586 27.6398 28.5921C27.3175 28.2256 27.0746 27.7962 26.9267 27.3311C26.7787 26.866 26.7288 26.3753 26.78 25.8899C26.8374 25.029 27.2152 24.2208 27.839 23.6248C28.4629 23.0287 29.2874 22.688 30.15 22.6699Z" stroke="white" stroke-width="1.8" stroke-linecap="round" stroke-linejoin="round"/>
</svg>
