<svg width="16" height="16" viewBox="0 0 16 16" fill="none" xmlns="http://www.w3.org/2000/svg">
<path d="M0.454643 1.07377L0.463684 0.656124H3.43165V0.651855H12.3279V0.656124H15.2959L15.3042 1.07377C15.2968 2.17807 15.1049 3.27293 14.7368 4.31105C14.0629 6.17089 12.864 7.40319 11.2403 7.92613C10.588 9.43165 9.65408 10.4932 8.48998 10.7806V12.3089C8.67496 14.3011 10.5477 14.3488 10.6965 14.3495H10.7069V15.3456H5.05193V14.3495H5.06236C5.21117 14.3495 7.08458 14.3025 7.26886 12.3089V10.7806C6.10476 10.496 5.17084 9.4288 4.51856 7.92613C2.8948 7.40319 1.69663 6.17089 1.02209 4.31105C0.654379 3.27283 0.462478 2.17803 0.454643 1.07377ZM13.9461 4.03642C14.2336 3.22359 14.4055 2.37274 14.4565 1.50991H12.3494C12.3494 2.05065 12.3189 2.83898 12.2201 3.85783C12.1271 4.87227 11.9318 5.87416 11.6374 6.84751C12.6805 6.31745 13.4551 5.37757 13.9461 4.03642ZM1.80441 4.01436C2.29537 5.36619 3.07143 6.31461 4.12148 6.84751C3.82749 5.87454 3.63221 4.87317 3.53874 3.85925C3.43999 2.84253 3.41218 2.0542 3.40939 1.51134H1.30164C1.35244 2.36584 1.52173 3.20861 1.80441 4.01436Z" fill="#23C865"/>
</svg>
