<svg width="18" height="18" viewBox="0 0 18 18" fill="none" xmlns="http://www.w3.org/2000/svg">
<path fill-rule="evenodd" clip-rule="evenodd" d="M9 16.875C13.3492 16.875 16.875 13.3492 16.875 9C16.875 4.65076 13.3492 1.125 9 1.125C4.65076 1.125 1.125 4.65076 1.125 9C1.125 13.3492 4.65076 16.875 9 16.875ZM9 18C13.9706 18 18 13.9706 18 9C18 4.02944 13.9706 0 9 0C4.02944 0 0 4.02944 0 9C0 13.9706 4.02944 18 9 18Z" fill="#8F8F8F"/>
<path d="M8.34961 12.2812H9.51562V13.5H8.34961V12.2812ZM6.375 7.58789C6.375 6.74414 6.61328 6.06641 7.08984 5.55469C7.56641 5.03906 8.2207 4.78125 9.05273 4.78125C9.82227 4.78125 10.4375 5.00195 10.8984 5.44336C11.3633 5.88086 11.5957 6.44141 11.5957 7.125C11.5957 7.53906 11.5098 7.875 11.3379 8.13281C11.1699 8.39062 10.8281 8.76953 10.3125 9.26953C9.9375 9.63281 9.69336 9.94141 9.58008 10.1953C9.4707 10.4453 9.41602 10.8164 9.41602 11.3086H8.37305C8.37305 10.75 8.43945 10.3008 8.57227 9.96094C8.70508 9.61719 8.99609 9.22461 9.44531 8.7832L9.91406 8.32031C10.0547 8.1875 10.168 8.04883 10.2539 7.9043C10.4102 7.65039 10.4883 7.38672 10.4883 7.11328C10.4883 6.73047 10.373 6.39844 10.1426 6.11719C9.91602 5.83594 9.53906 5.69531 9.01172 5.69531C8.35938 5.69531 7.9082 5.9375 7.6582 6.42188C7.51758 6.69141 7.4375 7.08008 7.41797 7.58789H6.375Z" fill="#8F8F8F"/>
<path fill-rule="evenodd" clip-rule="evenodd" d="M8.19922 12.1313H9.66523V13.6501H8.19922V12.1313ZM6.22461 7.73799V7.58799C6.22461 6.7147 6.47206 5.99774 6.97949 5.45276C7.48968 4.90088 8.18701 4.63135 9.05234 4.63135C9.85184 4.63135 10.507 4.86151 11.0013 5.33467C11.4983 5.80263 11.7453 6.40365 11.7453 7.1251C11.7453 7.55869 11.6554 7.92607 11.4628 8.21545C11.2846 8.48864 10.932 8.87747 10.4165 9.37731C10.0456 9.73662 9.81835 10.0289 9.71689 10.256C9.62015 10.4775 9.56562 10.8236 9.56562 11.3087V11.4587H8.22266V11.3087C8.22266 10.7404 8.2899 10.2706 8.43207 9.90667C8.57624 9.53375 8.88472 9.12348 9.33966 8.67643L9.81065 8.21133C9.94266 8.08666 10.0467 7.95868 10.1246 7.82773L10.1258 7.82577C10.2688 7.59329 10.3379 7.35657 10.3379 7.11338C10.3379 6.76325 10.2334 6.46531 10.0262 6.21236L10.0254 6.21139C9.83853 5.97944 9.51489 5.84541 9.01133 5.84541C8.40178 5.84541 8.00977 6.0671 7.79111 6.49077C7.66543 6.73164 7.58665 7.09512 7.56747 7.59375L7.56192 7.73799H6.22461ZM9.44492 8.7833C8.9957 9.22471 8.70469 9.61728 8.57188 9.96103C8.45117 10.2699 8.38531 10.6691 8.37431 11.1587C8.37321 11.2078 8.37266 11.2578 8.37266 11.3087H9.41562C9.41562 10.8165 9.47031 10.4454 9.57969 10.1954C9.69297 9.9415 9.93711 9.63291 10.3121 9.26963C10.8277 8.76963 11.1695 8.39072 11.3375 8.13291C11.5094 7.8751 11.5953 7.53916 11.5953 7.1251C11.5953 6.4415 11.3629 5.88096 10.898 5.44346C10.4371 5.00205 9.82187 4.78135 9.05234 4.78135C8.22031 4.78135 7.56602 5.03916 7.08945 5.55479C6.64147 6.03582 6.40404 6.66355 6.37718 7.43799C6.37547 7.48739 6.37461 7.53739 6.37461 7.58799H7.41758C7.43711 7.08018 7.51719 6.6915 7.65781 6.42197C7.90781 5.9376 8.35898 5.69541 9.01133 5.69541C9.53867 5.69541 9.91562 5.83604 10.1422 6.11729C10.3727 6.39854 10.4879 6.73057 10.4879 7.11338C10.4879 7.38682 10.4098 7.65049 10.2535 7.90439C10.1676 8.04893 10.0543 8.1876 9.91367 8.32041L9.44492 8.7833ZM8.34922 12.2813V13.5001H9.51523V12.2813H8.34922Z" fill="#8F8F8F"/>
</svg>
