<svg width="42" height="42" viewBox="0 0 42 42" fill="none" xmlns="http://www.w3.org/2000/svg">
<path d="M33.8975 14.4813V15.3563C33.8975 24.1675 27.2125 34.265 14.98 34.265C11.3688 34.2728 7.83434 33.2234 4.8125 31.2463C5.3373 31.3175 5.86668 31.3497 6.39625 31.3425C9.38963 31.3508 12.2988 30.3523 14.6562 28.5075C13.2656 28.487 11.9168 28.0287 10.8015 27.1978C9.68621 26.3668 8.86121 25.2055 8.44375 23.8788C8.85798 23.9666 9.28031 24.0106 9.70375 24.01C10.295 24.0102 10.8837 23.9307 11.4538 23.7738C9.94751 23.4735 8.59243 22.6591 7.62037 21.47C6.64832 20.2809 6.11971 18.7909 6.125 17.255V17.1675C7.04655 17.6823 8.07972 17.9646 9.135 17.99C7.73027 17.0656 6.73153 15.6398 6.34285 14.0037C5.95416 12.3677 6.20487 10.6449 7.04375 9.18752C8.71523 11.2433 10.8006 12.9244 13.1644 14.1213C15.5282 15.3183 18.1174 16.0044 20.7637 16.135C20.6328 15.6384 20.5709 15.1261 20.58 14.6125C20.5307 13.2553 20.9009 11.9159 21.6402 10.7767C22.3795 9.63742 23.452 8.75371 24.7116 8.24587C25.9711 7.73802 27.3566 7.63071 28.6794 7.93856C30.0021 8.24641 31.1979 8.95445 32.1037 9.96627C33.5928 9.66577 35.0212 9.11866 36.33 8.34752C35.8337 9.91497 34.7778 11.2449 33.3638 12.0838C34.6847 11.9018 35.9725 11.5305 37.1875 10.9813C36.3069 12.3337 35.1929 13.5188 33.8975 14.4813V14.4813Z" stroke="white" stroke-width="1.3125" stroke-linecap="round" stroke-linejoin="round"/>
</svg>
