<svg width="80" height="43" viewBox="0 0 80 43" fill="none" xmlns="http://www.w3.org/2000/svg">
<path d="M25.538 17.5593C22.362 16.5597 19.5018 16.5217 16.8311 17.6233C14.1504 18.7291 11.5957 21.0097 9.09081 24.773L9.09053 24.7734C7.08714 27.7765 5.90409 32.0043 5.22448 35.5257C4.88622 37.2783 4.67551 38.8403 4.54943 39.9638C4.48641 40.5253 4.4446 40.9767 4.41859 41.287C4.40558 41.4421 4.39653 41.5619 4.39076 41.6425C4.38787 41.6828 4.3858 41.7133 4.38447 41.7335L4.38301 41.756L4.38268 41.7613L4.3826 41.7625L4.38259 41.7627L4.38259 41.7627L4.35414 42.2325H3.88351H1.24326H0.784968L0.745155 41.7759C0.46648 38.5801 -0.178392 26.4424 6.13534 16.1394C9.3014 10.9729 14.212 6.27677 21.764 3.40789C23.155 2.87948 24.6345 2.41346 26.208 2.01795C26.6221 1.85408 27.0708 1.7196 27.5543 1.6165L27.5683 1.61351L27.5826 1.61132C28.1179 1.52898 28.6477 1.45145 29.1721 1.37865C32.4979 0.774079 36.201 0.461815 40.3234 0.503826C44.36 0.46159 47.9838 0.760699 51.2363 1.34269C51.8455 1.42581 52.462 1.51536 53.0857 1.61147L25.538 17.5593ZM25.538 17.5593C26.84 17.9695 27.908 18.4707 28.9052 19.0053C31.8531 21.3697 35.6124 22.9599 39.7322 22.7916C43.8866 22.9593 47.7886 21.2858 50.9061 18.833C51.8117 18.3633 52.7874 17.9252 53.9494 17.5593C57.128 16.5597 59.9907 16.5216 62.6638 17.6234C65.3468 18.7292 67.9034 21.0098 70.4103 24.7729C72.4092 27.7763 73.5932 32.0044 74.275 35.526C74.6143 37.2787 74.8264 38.8408 74.9536 39.9643C75.0172 40.5258 75.0595 40.9772 75.0858 41.2875C75.099 41.4427 75.1082 41.5625 75.1141 41.6431C75.117 41.6834 75.1191 41.7138 75.1205 41.734L75.122 41.7566L75.1223 41.7619L75.1224 41.7631L75.1224 41.7633L75.1514 42.2325H75.6214H78.1993H78.6539L78.6971 41.7799C79.0007 38.597 79.9808 26.4558 73.9811 16.149C70.9715 10.9788 66.211 6.27921 58.7625 3.40859C57.6237 2.96967 56.4227 2.57381 55.1564 2.22563C54.5595 1.93874 53.8694 1.73166 53.0861 1.61153L25.538 17.5593Z" fill="white" stroke="black"/>
</svg>
