<svg width="163" height="23" viewBox="0 0 163 23" fill="none" xmlns="http://www.w3.org/2000/svg">
<path d="M6.636 13.756H1.956L0.948 16H0.024L3.864 7.6H4.74L8.58 16H7.644L6.636 13.756ZM6.312 13.036L4.296 8.524L2.28 13.036H6.312ZM15.1204 9.688V16H14.3044V14.848C14.0804 15.232 13.7724 15.532 13.3804 15.748C12.9884 15.956 12.5404 16.06 12.0364 16.06C11.2124 16.06 10.5604 15.832 10.0804 15.376C9.60838 14.912 9.37238 14.236 9.37238 13.348V9.688H10.2244V13.264C10.2244 13.928 10.3884 14.432 10.7164 14.776C11.0444 15.12 11.5124 15.292 12.1204 15.292C12.7844 15.292 13.3084 15.092 13.6924 14.692C14.0764 14.284 14.2684 13.72 14.2684 13V9.688H15.1204ZM23.0266 7.096V16H22.2106V14.752C21.9546 15.176 21.6146 15.5 21.1906 15.724C20.7746 15.948 20.3026 16.06 19.7746 16.06C19.1826 16.06 18.6466 15.924 18.1666 15.652C17.6866 15.38 17.3106 15 17.0386 14.512C16.7666 14.024 16.6306 13.468 16.6306 12.844C16.6306 12.22 16.7666 11.664 17.0386 11.176C17.3106 10.688 17.6866 10.312 18.1666 10.048C18.6466 9.776 19.1826 9.64 19.7746 9.64C20.2866 9.64 20.7466 9.748 21.1546 9.964C21.5706 10.172 21.9106 10.48 22.1746 10.888V7.096H23.0266ZM19.8466 15.304C20.2866 15.304 20.6826 15.204 21.0346 15.004C21.3946 14.796 21.6746 14.504 21.8746 14.128C22.0826 13.752 22.1866 13.324 22.1866 12.844C22.1866 12.364 22.0826 11.936 21.8746 11.56C21.6746 11.184 21.3946 10.896 21.0346 10.696C20.6826 10.488 20.2866 10.384 19.8466 10.384C19.3986 10.384 18.9946 10.488 18.6346 10.696C18.2826 10.896 18.0026 11.184 17.7946 11.56C17.5946 11.936 17.4946 12.364 17.4946 12.844C17.4946 13.324 17.5946 13.752 17.7946 14.128C18.0026 14.504 18.2826 14.796 18.6346 15.004C18.9946 15.204 19.3986 15.304 19.8466 15.304ZM25.1594 9.688H26.0114V16H25.1594V9.688ZM25.5914 8.308C25.4154 8.308 25.2674 8.248 25.1474 8.128C25.0274 8.008 24.9674 7.864 24.9674 7.696C24.9674 7.536 25.0274 7.396 25.1474 7.276C25.2674 7.156 25.4154 7.096 25.5914 7.096C25.7674 7.096 25.9154 7.156 26.0354 7.276C26.1554 7.388 26.2154 7.524 26.2154 7.684C26.2154 7.86 26.1554 8.008 26.0354 8.128C25.9154 8.248 25.7674 8.308 25.5914 8.308ZM31.4661 15.616C31.3061 15.76 31.1061 15.872 30.8661 15.952C30.6341 16.024 30.3901 16.06 30.1341 16.06C29.5421 16.06 29.0861 15.9 28.7661 15.58C28.4461 15.26 28.2861 14.808 28.2861 14.224V10.408H27.1581V9.688H28.2861V8.308H29.1381V9.688H31.0581V10.408H29.1381V14.176C29.1381 14.552 29.2301 14.84 29.4141 15.04C29.6061 15.232 29.8781 15.328 30.2301 15.328C30.4061 15.328 30.5741 15.3 30.7341 15.244C30.9021 15.188 31.0461 15.108 31.1661 15.004L31.4661 15.616ZM38.0504 13.108H32.7704C32.8184 13.764 33.0704 14.296 33.5264 14.704C33.9824 15.104 34.5584 15.304 35.2544 15.304C35.6464 15.304 36.0064 15.236 36.3344 15.1C36.6624 14.956 36.9464 14.748 37.1864 14.476L37.6664 15.028C37.3864 15.364 37.0344 15.62 36.6104 15.796C36.1944 15.972 35.7344 16.06 35.2304 16.06C34.5824 16.06 34.0064 15.924 33.5024 15.652C33.0064 15.372 32.6184 14.988 32.3384 14.5C32.0584 14.012 31.9184 13.46 31.9184 12.844C31.9184 12.228 32.0504 11.676 32.3144 11.188C32.5864 10.7 32.9544 10.32 33.4184 10.048C33.8904 9.776 34.4184 9.64 35.0024 9.64C35.5864 9.64 36.1104 9.776 36.5744 10.048C37.0384 10.32 37.4024 10.7 37.6664 11.188C37.9304 11.668 38.0624 12.22 38.0624 12.844L38.0504 13.108ZM35.0024 10.372C34.3944 10.372 33.8824 10.568 33.4664 10.96C33.0584 11.344 32.8264 11.848 32.7704 12.472H37.2464C37.1904 11.848 36.9544 11.344 36.5384 10.96C36.1304 10.568 35.6184 10.372 35.0024 10.372ZM45.3166 7.096V16H44.5006V14.752C44.2446 15.176 43.9046 15.5 43.4806 15.724C43.0646 15.948 42.5926 16.06 42.0646 16.06C41.4726 16.06 40.9366 15.924 40.4566 15.652C39.9766 15.38 39.6006 15 39.3286 14.512C39.0566 14.024 38.9206 13.468 38.9206 12.844C38.9206 12.22 39.0566 11.664 39.3286 11.176C39.6006 10.688 39.9766 10.312 40.4566 10.048C40.9366 9.776 41.4726 9.64 42.0646 9.64C42.5766 9.64 43.0366 9.748 43.4446 9.964C43.8606 10.172 44.2006 10.48 44.4646 10.888V7.096H45.3166ZM42.1366 15.304C42.5766 15.304 42.9726 15.204 43.3246 15.004C43.6846 14.796 43.9646 14.504 44.1646 14.128C44.3726 13.752 44.4766 13.324 44.4766 12.844C44.4766 12.364 44.3726 11.936 44.1646 11.56C43.9646 11.184 43.6846 10.896 43.3246 10.696C42.9726 10.488 42.5766 10.384 42.1366 10.384C41.6886 10.384 41.2846 10.488 40.9246 10.696C40.5726 10.896 40.2926 11.184 40.0846 11.56C39.8846 11.936 39.7846 12.364 39.7846 12.844C39.7846 13.324 39.8846 13.752 40.0846 14.128C40.2926 14.504 40.5726 14.796 40.9246 15.004C41.2846 15.204 41.6886 15.304 42.1366 15.304ZM53.602 9.64C54.194 9.64 54.73 9.776 55.21 10.048C55.69 10.312 56.066 10.688 56.338 11.176C56.61 11.664 56.746 12.22 56.746 12.844C56.746 13.468 56.61 14.024 56.338 14.512C56.066 15 55.69 15.38 55.21 15.652C54.73 15.924 54.194 16.06 53.602 16.06C53.074 16.06 52.598 15.948 52.174 15.724C51.758 15.5 51.422 15.176 51.166 14.752V16H50.35V7.096H51.202V10.888C51.466 10.48 51.802 10.172 52.21 9.964C52.626 9.748 53.09 9.64 53.602 9.64ZM53.542 15.304C53.982 15.304 54.382 15.204 54.742 15.004C55.102 14.796 55.382 14.504 55.582 14.128C55.79 13.752 55.894 13.324 55.894 12.844C55.894 12.364 55.79 11.936 55.582 11.56C55.382 11.184 55.102 10.896 54.742 10.696C54.382 10.488 53.982 10.384 53.542 10.384C53.094 10.384 52.69 10.488 52.33 10.696C51.978 10.896 51.698 11.184 51.49 11.56C51.29 11.936 51.19 12.364 51.19 12.844C51.19 13.324 51.29 13.752 51.49 14.128C51.698 14.504 51.978 14.796 52.33 15.004C52.69 15.204 53.094 15.304 53.542 15.304ZM63.3711 9.688L60.2151 16.756C59.9591 17.348 59.6631 17.768 59.3271 18.016C58.9911 18.264 58.5871 18.388 58.1151 18.388C57.8111 18.388 57.5271 18.34 57.2631 18.244C56.9991 18.148 56.7711 18.004 56.5791 17.812L56.9751 17.176C57.2951 17.496 57.6791 17.656 58.1271 17.656C58.4151 17.656 58.6591 17.576 58.8591 17.416C59.0671 17.256 59.2591 16.984 59.4351 16.6L59.7111 15.988L56.8911 9.688H57.7791L60.1551 15.052L62.5311 9.688H63.3711Z" fill="#959595"/>
<g clip-path="url(#clip0_10389_24613)">
<path fill-rule="evenodd" clip-rule="evenodd" d="M91.4934 4.25853L91.607 4.94709C91.6922 5.58056 91.7348 6.21403 91.7206 6.86127C91.7206 8.2797 91.5502 9.68436 91.2093 11.0615C90.7548 12.9206 89.9594 14.697 88.8657 16.2945C87.6015 18.1123 85.7692 19.8888 83.1131 21.3485L82.7864 21.5275L82.4597 21.3485C79.8036 19.9163 77.9713 18.1261 76.7072 16.2945C75.5993 14.697 74.8181 12.9343 74.3636 11.0615C74.0227 9.68436 73.8522 8.2797 73.8522 6.86127C73.8522 6.2278 73.8806 5.58056 73.9659 4.94709L74.0653 4.25853C74.0795 4.20344 74.0795 4.14836 74.0653 4.09328C74.0511 4.03819 74.0369 3.98311 73.9943 3.94179C73.9659 3.90048 73.9232 3.85917 73.8806 3.83163C73.838 3.80408 73.7812 3.79031 73.7386 3.77654C73.6818 3.76277 73.625 3.76277 73.5682 3.77654C73.5113 3.79031 73.4545 3.81785 73.4119 3.8454C73.3693 3.87294 73.3267 3.91425 73.2983 3.95556C73.2699 4.01065 73.2557 4.06573 73.2415 4.12082L73.1278 4.80937C73.0426 5.48416 73 6.17272 73 6.86127C73 8.34856 73.1847 9.82207 73.5397 11.268C73.7812 12.2458 74.1079 13.2098 74.5198 14.1324C74.9317 15.0551 75.4289 15.9365 76.0112 16.7765C77.3464 18.7044 79.2781 20.5911 82.062 22.0784L82.5876 22.3676C82.6586 22.3951 82.7296 22.4089 82.8006 22.4089C82.8717 22.4089 82.9427 22.3951 83.0137 22.3676L83.5392 22.0784C86.309 20.5773 88.2549 18.6907 89.5901 16.7765C90.7548 15.0964 91.5928 13.2235 92.0615 11.268C92.4166 9.82207 92.5871 8.34856 92.5871 6.86127C92.5871 6.17272 92.5445 5.48416 92.4592 4.7956L92.3456 4.10705C92.3314 4.05196 92.3172 3.99688 92.2888 3.94179C92.2604 3.90048 92.2178 3.85917 92.1752 3.83163C92.1325 3.80408 92.0757 3.77654 92.0189 3.76277C91.9621 3.749 91.9053 3.749 91.8485 3.76277C91.7917 3.77654 91.7348 3.79031 91.678 3.81785C91.6354 3.8454 91.5928 3.88671 91.5644 3.92802C91.536 3.96934 91.5076 4.02442 91.4934 4.0795V4.25853Z" fill="white"/>
<path fill-rule="evenodd" clip-rule="evenodd" d="M76.4509 3.79003L82.8142 1.8483L89.3053 3.83134C89.3622 3.84511 89.419 3.84511 89.4758 3.84511C89.5326 3.84511 89.5894 3.83134 89.6462 3.8038C89.703 3.77626 89.7457 3.74871 89.7883 3.69363C89.8309 3.65232 89.8593 3.59723 89.8593 3.54215C89.8735 3.48706 89.8735 3.43198 89.8735 3.37689C89.8735 3.32181 89.8593 3.26673 89.8309 3.21164C89.8025 3.15656 89.7741 3.11524 89.7315 3.07393C89.6888 3.03262 89.632 3.00507 89.5752 3.00507L82.942 0.966946C82.8568 0.939403 82.7716 0.939403 82.6864 0.966946L76.2094 2.94999C76.1526 2.96376 76.11 2.9913 76.0532 3.01884C76.0106 3.06016 75.9679 3.10147 75.9537 3.15655C75.9253 3.21164 75.9111 3.26672 75.9111 3.32181C75.9111 3.37689 75.9111 3.43198 75.9253 3.48706C75.9395 3.54215 75.9679 3.59723 75.9964 3.63854C76.0248 3.67986 76.0816 3.72117 76.1384 3.74871C76.181 3.77626 76.2378 3.79003 76.3088 3.79003C76.3372 3.8038 76.3941 3.8038 76.4509 3.79003Z" fill="white"/>
<path fill-rule="evenodd" clip-rule="evenodd" d="M73.3137 4.38212L82.4183 22.1744C82.4467 22.2433 82.5035 22.2984 82.5604 22.3397C82.7024 22.4223 82.8728 22.4223 83.0149 22.3397C83.0859 22.2984 83.1427 22.2433 83.1853 22.1744L88.739 11.7772L88.7532 11.7634L92.3042 4.36835C92.3326 4.31326 92.3468 4.25818 92.3468 4.2031C92.3468 4.14801 92.3468 4.09293 92.3184 4.03784C92.3042 3.98276 92.2758 3.92767 92.2332 3.88636C92.2048 3.84505 92.1479 3.80373 92.1053 3.77619C92.0627 3.74865 92.0059 3.73488 91.9349 3.73488C91.8781 3.73488 91.8213 3.73488 91.7644 3.74865C91.7076 3.76242 91.6508 3.78996 91.6082 3.83128C91.5656 3.87259 91.523 3.9139 91.5088 3.96899L87.9578 11.3641L82.7876 21.0452L74.0665 3.96899C74.0381 3.92767 73.9955 3.87259 73.9671 3.83128C73.9244 3.78996 73.8676 3.76242 73.8108 3.74865C73.754 3.72111 73.6972 3.7211 73.6404 3.73488C73.5835 3.73488 73.5267 3.74865 73.4699 3.77619C73.4273 3.80373 73.3705 3.84505 73.3421 3.88636C73.3137 3.92767 73.2853 3.98276 73.2711 4.03784C73.2569 4.09293 73.2427 4.14801 73.2569 4.2031C73.2711 4.27195 73.2853 4.32704 73.3137 4.38212Z" fill="white"/>
<path fill-rule="evenodd" clip-rule="evenodd" d="M77.6723 12.3146H87.8138C87.8706 12.3146 87.9275 12.3009 87.9843 12.2871C88.0411 12.2733 88.0837 12.232 88.1121 12.1907C88.1547 12.1494 88.1831 12.1081 88.1973 12.053C88.2399 11.9428 88.2399 11.8327 88.1973 11.7225C88.1831 11.6674 88.1405 11.6261 88.1121 11.5848C88.0695 11.5435 88.0269 11.5159 87.9843 11.4884C87.9275 11.4746 87.8706 11.4608 87.8138 11.4608H77.6723C77.6155 11.4608 77.5587 11.4746 77.5019 11.4884C77.445 11.5022 77.4024 11.5435 77.374 11.5848C77.3314 11.6261 77.303 11.6674 77.2888 11.7225C77.2462 11.8327 77.2462 11.9428 77.2888 12.053C77.303 12.1081 77.3314 12.1494 77.374 12.1907C77.4166 12.232 77.4592 12.2596 77.5019 12.2871C77.5587 12.3009 77.6155 12.3009 77.6723 12.3146ZM105.938 8.61021H99.3473C99.2905 8.61021 99.2337 8.62398 99.1769 8.63776C99.1201 8.65153 99.0775 8.69284 99.0491 8.73416C99.0064 8.77547 98.978 8.81678 98.9638 8.87187C98.9496 8.92695 98.9354 8.98203 98.9354 9.03712V14.339C98.9354 14.3941 98.9496 14.4492 98.9638 14.5043C98.978 14.5593 99.0064 14.6007 99.0491 14.642C99.0917 14.6833 99.1343 14.7108 99.1769 14.7384C99.2337 14.7521 99.2905 14.7659 99.3473 14.7659H105.938V15.661H99.3473C99.2621 15.661 99.1769 15.6473 99.0917 15.6335C99.0064 15.6197 98.9212 15.5922 98.836 15.5646C98.7508 15.5371 98.6798 15.4958 98.6087 15.4545C98.5377 15.3994 98.4809 15.3443 98.4099 15.2892C98.282 15.1653 98.1968 15.0276 98.1258 14.8761C98.0974 14.7935 98.069 14.7108 98.0548 14.6282C98.0406 14.5456 98.0264 14.4629 98.0264 14.3803V9.05089C98.0264 8.96826 98.0406 8.88564 98.0548 8.80301C98.069 8.72038 98.0974 8.63775 98.1258 8.55513C98.1542 8.4725 98.1968 8.38988 98.2394 8.32102C98.282 8.25217 98.3389 8.18331 98.4099 8.12822C98.4667 8.07314 98.5377 8.01806 98.6087 7.96297C98.6798 7.92166 98.7508 7.88034 98.836 7.8528C98.9212 7.82526 99.0064 7.79771 99.0917 7.78394C99.1769 7.77017 99.2621 7.7564 99.3473 7.7564H105.938V8.61021ZM118.309 7.71509V8.61021H111.96V11.2405H117.059V12.1494H111.96V14.7797H118.309V15.6748H111.08V7.71509H118.309Z" fill="white"/>
<path d="M131.393 9.06456V11.3919C131.393 11.4745 131.378 11.5571 131.364 11.6398C131.35 11.7224 131.322 11.805 131.293 11.8876C131.265 11.9703 131.222 12.0529 131.179 12.1218C131.123 12.1906 131.08 12.2595 131.009 12.3145C130.952 12.3696 130.881 12.4247 130.81 12.4798C130.739 12.5211 130.668 12.5624 130.583 12.59C130.498 12.6175 130.412 12.6451 130.327 12.6726C130.242 12.6864 130.157 12.7001 130.072 12.7001H128.864L131.35 15.6609H130.157L127.685 12.7001H124.788C124.646 12.7001 124.504 12.6864 124.362 12.6588V15.6609H123.467V7.72876H130.086C130.171 7.72876 130.256 7.74253 130.341 7.7563C130.427 7.77007 130.512 7.79762 130.597 7.82516C130.682 7.8527 130.753 7.89401 130.824 7.9491C130.966 8.0455 131.08 8.16944 131.179 8.30715C131.222 8.376 131.265 8.45863 131.293 8.54126C131.322 8.62388 131.35 8.70651 131.364 8.78914C131.378 8.88554 131.393 8.98193 131.393 9.06456ZM124.774 11.8188H130.072C130.128 11.8188 130.185 11.805 130.242 11.7912C130.299 11.7775 130.341 11.7499 130.37 11.6948C130.412 11.6535 130.441 11.6122 130.455 11.5571C130.469 11.5021 130.483 11.447 130.483 11.3919V9.06456C130.483 8.95439 130.441 8.84422 130.37 8.76159C130.299 8.67897 130.185 8.62388 130.072 8.62388H124.774C124.717 8.62388 124.66 8.63766 124.603 8.65143C124.546 8.6652 124.504 8.70651 124.475 8.74782C124.433 8.78914 124.404 8.83045 124.39 8.88553C124.376 8.94062 124.362 8.9957 124.362 9.05079V11.3781C124.362 11.4883 124.404 11.5984 124.504 11.6811C124.56 11.7637 124.674 11.8188 124.774 11.8188Z" fill="white"/>
<path fill-rule="evenodd" clip-rule="evenodd" d="M136.135 7.71509H144.06V8.61021H140.552V15.661H139.657V8.61021H136.135V7.71509ZM148.89 15.6748V7.72886H149.785V15.6748H148.89ZM161.702 7.71509H162.852L159.543 11.6949L162.866 15.6748H161.702L158.747 12.1494H156.191V15.6748H155.296V7.72886H156.205V11.2543H158.761L161.702 7.71509Z" fill="white"/>
</g>
<defs>
<clipPath id="clip0_10389_24613">
<rect width="89.9102" height="21.483" fill="white" transform="translate(73 0.925781)"/>
</clipPath>
</defs>
</svg>
