<svg width="173" height="28" viewBox="0 0 173 28" fill="none" xmlns="http://www.w3.org/2000/svg">
<g clip-path="url(#clip0_10389_24614)">
<path d="M135.223 23.9202H142.501V22.2535H137.226V19.1996H141.999V17.5653H137.226V14.3682H142.34V12.7458H135.223V23.9202Z" fill="white"/>
<path d="M131.473 23.9202H133.681L131.195 19.0411C132.233 18.7062 133.447 17.8882 133.447 15.9591C133.447 14.5421 132.732 13.6806 131.736 13.1992C131.063 12.8779 130.288 12.7458 129.528 12.7458H125.271V23.9202H127.275V19.451H129.293L131.473 23.9202ZM127.275 17.8303V14.1629H129.336C130.376 14.1629 131.384 14.6017 131.384 15.9599C131.384 17.3761 130.449 17.8303 129.293 17.8303H127.275Z" fill="white"/>
<path d="M118.321 23.9186H120.269V18.6978C120.269 16.8104 119.419 15.9626 117.677 15.9626C116.402 15.9626 115.583 16.6647 115.23 17.3967H115.201V12.394H113.269V23.9186H115.201V19.3411C115.201 18.1559 115.802 17.3813 116.988 17.3813C117.457 17.3813 117.838 17.5279 118.072 17.8491C118.306 18.1849 118.321 18.6978 118.321 19.2525V23.9186Z" fill="white"/>
<path d="M111.848 18.7272C111.76 16.8261 110.325 15.9485 108.436 15.9485C106.093 15.9485 104.658 17.5862 104.658 20.0428C104.658 22.5582 106.006 24.1081 108.407 24.1081C110.325 24.1081 111.775 23.1137 111.891 21.1837H110.018C109.989 21.8705 109.623 22.7627 108.421 22.7627C107.015 22.7627 106.65 21.476 106.65 19.9993C106.65 18.4783 107.162 17.2505 108.436 17.2505C109.417 17.2505 109.871 17.9228 109.944 18.7272H111.848Z" fill="white"/>
<path d="M101.438 23.9186H103.386V16.1382H102.502H101.438V23.9186Z" fill="white"/>
<path d="M101.422 14.6031H103.398V12.8035H102.43H101.422V14.6031Z" fill="white"/>
<path d="M97.7026 23.9186H99.6507V18.6979C99.6507 16.8105 98.8008 15.9626 97.0584 15.9626C95.7691 15.9626 94.9346 16.6503 94.5387 17.4393H94.5097V16.1382H92.6504V23.9186H94.5831V19.3412C94.5831 18.1559 95.1838 17.3814 96.3698 17.3814C96.8383 17.3814 97.2197 17.5279 97.4535 17.8492C97.6881 18.1849 97.7026 18.6979 97.7026 19.2526V23.9186Z" fill="white"/>
<path d="M85.7686 16.1382H83.8359V21.4322C83.8359 23.26 84.7148 24.0933 86.4572 24.0933C87.7166 24.0933 88.5076 23.4057 88.8882 22.6311H88.9172V23.9186H90.7918V16.1382H88.8438V20.379C88.8438 21.8711 88.2738 22.6754 87.1023 22.6754C86.6185 22.6754 86.2516 22.5289 86.0323 22.1931C85.7985 21.8711 85.7686 21.3436 85.7686 20.788V16.1382Z" fill="white"/>
<path d="M82.0249 23.9193V12.4451H78.9847L78.2483 14.5148L76.8788 18.4302C76.5486 19.4067 76.4001 20.0065 76.4001 20.0065H76.3566C76.3566 20.0065 76.1927 19.3922 75.8668 18.4319L74.4828 14.5037L73.7575 12.4451H70.707V23.9193H72.5501V14.5054H72.5936C72.5936 14.5054 73.0442 15.9736 73.0476 15.9778L75.3762 22.7094H77.1919L79.6135 15.6719C79.675 15.4879 79.9839 14.4909 79.9839 14.4909H80.0274V23.9193H82.0249Z" fill="white"/>
<path d="M149.049 22.252V23.9169H161.117L162.666 22.252H149.049Z" fill="white"/>
<path d="M149.049 12.7432V14.3459H169.937L171.426 12.7432H149.049Z" fill="white"/>
<path d="M169.626 9.44613L167.876 7.82886H149.049V9.44613H169.626Z" fill="white"/>
<path d="M149.049 17.5671V19.2006H165.464L166.979 17.5671H149.049Z" fill="white"/>
<path d="M164.494 4.69188L162.71 3.04224H149.049V4.69188H164.494Z" fill="white"/>
<path d="M172.292 21.5752V19.9255H156.811L158.594 21.5752H172.292Z" fill="white"/>
<path d="M172.294 5.41846H155.882L154.363 7.05192H172.294V5.41846Z" fill="white"/>
<path d="M172.294 16.7906V15.1733H151.687L153.438 16.7906H172.294Z" fill="white"/>
<path d="M151.412 10.2725L149.93 11.8744H172.294V10.2725H151.412Z" fill="white"/>
<path d="M158.684 2.36653H172.293V0.702393H160.225L158.684 2.36653Z" fill="white"/>
</g>
<path d="M1.368 25H2.256V16.6H1.368V25ZM7.78509 18.64C6.69309 18.64 5.84109 19.084 5.38509 19.852V18.688H4.56909V25H5.42109V21.688C5.42109 20.248 6.27309 19.408 7.62909 19.408C8.82909 19.408 9.52509 20.092 9.52509 21.424V25H10.3771V21.34C10.3771 19.528 9.32109 18.64 7.78509 18.64ZM14.1422 25.06C15.7862 25.06 16.7462 24.352 16.7462 23.26C16.7462 20.836 12.6542 22.12 12.6542 20.416C12.6542 19.816 13.1582 19.372 14.2982 19.372C14.9462 19.372 15.6062 19.528 16.1582 19.912L16.5302 19.228C16.0022 18.868 15.1142 18.64 14.2982 18.64C12.6902 18.64 11.8022 19.408 11.8022 20.44C11.8022 22.936 15.8942 21.64 15.8942 23.284C15.8942 23.908 15.4022 24.316 14.2022 24.316C13.3142 24.316 12.4622 24.004 11.9582 23.608L11.5742 24.28C12.0902 24.724 13.0982 25.06 14.1422 25.06ZM22.9173 18.688V22C22.9173 23.44 22.0893 24.292 20.7693 24.292C19.5693 24.292 18.8733 23.608 18.8733 22.264V18.688H18.0213V22.348C18.0213 24.16 19.0773 25.06 20.6853 25.06C21.6933 25.06 22.5093 24.616 22.9533 23.848V25H23.7693V18.688H22.9173ZM26.7315 19.924V18.688H25.9155V25H26.7675V21.784C26.7675 20.296 27.5715 19.456 28.8915 19.456C28.9515 19.456 29.0235 19.468 29.0955 19.468V18.64C27.9315 18.64 27.1275 19.084 26.7315 19.924ZM35.8476 21.844C35.8476 19.948 34.5636 18.64 32.7876 18.64C31.0116 18.64 29.7036 19.972 29.7036 21.844C29.7036 23.716 31.0476 25.06 33.0156 25.06C34.0116 25.06 34.8876 24.7 35.4516 24.028L34.9716 23.476C34.4916 24.028 33.8076 24.304 33.0396 24.304C31.6596 24.304 30.6516 23.428 30.5556 22.108H35.8356C35.8356 22.012 35.8476 21.916 35.8476 21.844ZM32.7876 19.372C34.0236 19.372 34.9236 20.236 35.0316 21.472H30.5556C30.6636 20.236 31.5636 19.372 32.7876 19.372ZM42.2498 16.096V19.888C41.7218 19.072 40.8578 18.64 39.8498 18.64C38.0498 18.64 36.7058 19.936 36.7058 21.844C36.7058 23.752 38.0498 25.06 39.8498 25.06C40.8938 25.06 41.7698 24.604 42.2858 23.752V25H43.1018V16.096H42.2498ZM39.9218 24.304C38.5778 24.304 37.5698 23.32 37.5698 21.844C37.5698 20.368 38.5778 19.384 39.9218 19.384C41.2538 19.384 42.2618 20.368 42.2618 21.844C42.2618 23.32 41.2538 24.304 39.9218 24.304ZM51.3872 18.64C50.3792 18.64 49.5152 19.072 48.9872 19.888V16.096H48.1352V25H48.9512V23.752C49.4672 24.604 50.3432 25.06 51.3872 25.06C53.1872 25.06 54.5312 23.752 54.5312 21.844C54.5312 19.936 53.1872 18.64 51.3872 18.64ZM51.3272 24.304C49.9832 24.304 48.9752 23.32 48.9752 21.844C48.9752 20.368 49.9832 19.384 51.3272 19.384C52.6592 19.384 53.6792 20.368 53.6792 21.844C53.6792 23.32 52.6592 24.304 51.3272 24.304ZM60.3162 18.688L57.9402 24.052L55.5642 18.688H54.6762L57.4962 24.988L57.2202 25.6C56.8602 26.392 56.4762 26.656 55.9122 26.656C55.4562 26.656 55.0722 26.488 54.7602 26.176L54.3642 26.812C54.7482 27.196 55.3122 27.388 55.9002 27.388C56.8002 27.388 57.4722 26.992 58.0002 25.756L61.1562 18.688H60.3162Z" fill="#959595"/>
<defs>
<clipPath id="clip0_10389_24614">
<rect width="103" height="24.8102" fill="white" transform="translate(70)"/>
</clipPath>
</defs>
</svg>
