<svg width="44" height="33" viewBox="0 0 44 33" fill="none" xmlns="http://www.w3.org/2000/svg">
<path fill-rule="evenodd" clip-rule="evenodd" d="M21.6831 32.1474C21.7932 32.1461 21.9034 32.1437 22.0138 32.1402C22.1241 32.1437 22.2344 32.1461 22.3445 32.1474C26.226 32.1021 30.2761 30.6779 33.5171 27.9624C47.4881 16.2563 42.8351 5 35.3841 5L22.0273 5.00004H22.027H22.0005H22.0003L8.64351 5C1.19245 5 -3.46057 16.2563 10.5105 27.9624C13.7515 30.6779 17.8016 32.1021 21.6831 32.1474ZM22.027 10.0184H22.0005L21.7468 10.0184L21.7293 10.0182L11.5006 10.0184C6.65765 10.0184 4.33121 16.3218 14.2612 24.226C16.3678 25.9911 19.0002 26.9167 21.523 26.9462C21.5946 26.9454 21.6663 26.9438 21.7381 26.9415C21.8099 26.9438 21.8816 26.9454 21.9532 26.9462L22.0005 26.9455V26.9451L22.0138 26.9453L22.027 26.9451V26.9455L22.0744 26.9462C22.146 26.9454 22.2177 26.9438 22.2895 26.9415C22.3612 26.9438 22.4329 26.9454 22.5045 26.9462C25.0274 26.9167 27.6598 25.9911 29.7664 24.226C39.6964 16.3218 37.3699 10.0184 32.527 10.0184L22.2983 10.0182L22.2808 10.0184L22.027 10.0184Z" fill="black"></path>
</svg>