<svg width="119" height="143" viewBox="0 0 119 143" fill="none" xmlns="http://www.w3.org/2000/svg">
<path d="M96.7065 78.9446C89.5 78.265 95 78.5 97 69C106.5 70 111.99 62.9103 112.5 57.5C112.892 53.3433 112.5 44.5 101 41.5C100 41.5 94.3724 38.3717 100.478 38.9475C110.269 39.8707 117.361 49.5728 116.319 60.6177C115.278 71.6626 106.497 79.8678 96.7065 78.9446Z" fill="#626161"></path>
<path d="M99.9485 46.9263C91.7544 51.5771 55.4661 41.6944 39.0778 25.9981C37.9072 41.6944 27.0447 51.0992 18.0074 42.8571C16.2514 6.81345 47.7932 1 58.9314 1C70.0695 1 108.728 8.55749 99.9485 46.9263Z" fill="#626161"></path>
</svg>