<svg width="120" height="93" viewBox="0 0 120 93" fill="none" xmlns="http://www.w3.org/2000/svg">
<rect x="7.04594" y="42.67" width="105.27" height="25.41" rx="12.705" fill="white" stroke="#1E1E1E" stroke-width="2.42"/>
<rect x="22.7759" y="11.21" width="75.02" height="79.86" rx="30.25" fill="white" stroke="#1E1E1E" stroke-width="2.42"/>
<path d="M60.2223 11.1978L59.7576 10.4344C59.5731 10.1313 59.3747 9.84032 59.1895 9.58894L59.1873 9.58601C55.2652 4.18129 48.8551 0.61689 41.6823 0.779984C34.5205 0.942828 26.515 4.82585 19.4183 14.4813C15.9933 19.1474 13.0004 22.0117 10.0201 23.6803C7.32372 25.1898 4.67165 25.7018 1.78578 25.7219C2.88324 27.4013 4.02915 29.4975 5.21967 31.6752C5.63754 32.4395 6.06089 33.2139 6.48958 33.9839C8.35925 37.3421 10.3366 40.6295 12.4561 42.823L12.4563 42.8233C15.3118 45.7836 19.276 46.5344 23.1395 45.0635C27.0157 43.5878 30.8215 39.856 33.2152 33.7938L60.2223 11.1978ZM60.2223 11.1978L60.6297 10.4024C60.9155 9.84445 61.2045 9.33471 61.4708 8.96666C65.4098 3.60802 71.8077 0.21016 78.9611 0.519496C86.1075 0.828533 94.0864 4.84348 101.158 14.4675C104.583 19.1336 107.576 21.9979 110.558 23.6665C113.256 25.1762 115.911 25.688 118.803 25.7081M60.2223 11.1978L118.803 25.7081M118.803 25.7081C117.7 27.3912 116.549 29.4956 115.353 31.6823C114.941 32.4363 114.523 33.2001 114.1 33.9598C112.231 37.318 110.253 40.6092 108.133 42.8098L108.133 42.8099C105.278 45.7767 101.314 46.5274 97.4505 45.0549C93.5742 43.5775 89.7683 39.8423 87.3746 33.7799L87.3744 33.7796C84.0861 25.4685 80.1943 20.231 75.6551 17.079C71.1115 13.9239 65.9786 12.8996 60.2949 12.8996C54.6112 12.8996 49.4749 13.9239 44.9296 17.0807C40.3886 20.2345 36.4968 25.4756 33.2153 33.7937L118.803 25.7081Z" fill="white" stroke="#1E1E1E"/>
</svg>
