<svg width="129" height="79" viewBox="0 0 129 79" fill="none" xmlns="http://www.w3.org/2000/svg">
<path d="M104.634 59.0253C89.134 52.0253 88.634 44.0252 88.634 23.0252C79.1341 38.0252 34.6341 26.6253 32.6341 45.0253C31.8555 52.1887 29.9401 54.8354 27.8026 54.8359C24.4496 54.8368 20.416 49.8015 19.5 44C2 56 20.5 69.5 26.5 66.5C28.1677 65.6662 29.673 71.1667 30.0063 72.5C24.0063 84 14.5063 78 13.5063 71.5C9.00635 74.5 -0.993652 70.5 3.00595 60C-4.99408 51 5.50599 46 5.50599 46C-1.99376 37 6.50622 31 10.0061 31.5C10.0061 22 18.7335 21.6835 21.449 23.0252C29.1545 5.3854 52.1664 -5.65918 70.134 3.02518C79.4181 0.123868 100.95 1.51547 107.364 23.0252C110.912 22.0168 118.5 23.5 118.006 31.5C122.506 31 130.506 38.5 122.506 46C127.006 47 131.506 52.8 125.506 60C128.006 65 124.506 75 114.506 71.5C115.006 75.5 105.506 85 98.5063 73C97.604 71.4531 102.006 67 102.506 67.5C114.506 66.5 121 51.5 107.364 44L104.634 59.0253Z" fill="#626161"></path>
</svg>