<svg width="119" height="93" viewBox="0 0 119 93" fill="none" xmlns="http://www.w3.org/2000/svg">
<rect x="6.21" y="42.67" width="105.27" height="25.41" rx="12.705" fill="white" stroke="#1E1E1E" stroke-width="2.42"/>
<rect x="21.94" y="11.21" width="75.02" height="79.86" rx="30.25" fill="white" stroke="#1E1E1E" stroke-width="2.42"/>
<path d="M59.3863 11.1978L58.9216 10.4344C58.7371 10.1313 58.5388 9.84032 58.3535 9.58894L58.3514 9.58601C54.4293 4.18129 48.0191 0.61689 40.8464 0.779984C33.6846 0.942828 25.679 4.82585 18.5824 14.4813C15.1573 19.1474 12.1645 22.0117 9.18412 23.6803C6.48778 25.1898 3.83572 25.7018 0.949842 25.7219C2.0473 27.4013 3.19321 29.4975 4.38374 31.6752C4.8016 32.4395 5.22496 33.2139 5.65365 33.9839C7.52331 37.3421 9.50061 40.6295 11.6201 42.823L11.6204 42.8233C14.4759 45.7836 18.44 46.5344 22.3036 45.0635C26.1798 43.5878 29.9856 39.856 32.3793 33.7938L59.3863 11.1978ZM59.3863 11.1978L59.7938 10.4024C60.0795 9.84445 60.3685 9.33471 60.6349 8.96666C64.5738 3.60802 70.9717 0.21016 78.1251 0.519496C85.2716 0.828533 93.2505 4.84348 100.322 14.4675C103.747 19.1336 106.74 21.9979 109.722 23.6665C112.42 25.1762 115.075 25.688 117.967 25.7081M59.3863 11.1978L117.967 25.7081M117.967 25.7081C116.864 27.3912 115.713 29.4956 114.517 31.6823C114.105 32.4363 113.687 33.2001 113.264 33.9598C111.395 37.318 109.417 40.6092 107.297 42.8098L107.297 42.8099C104.442 45.7767 100.478 46.5274 96.6146 45.0549C92.7383 43.5775 88.9324 39.8423 86.5386 33.7799L86.5385 33.7796C83.2501 25.4685 79.3583 20.231 74.8191 17.079C70.2755 13.9239 65.1427 12.8996 59.459 12.8996C53.7753 12.8996 48.639 13.9239 44.0937 17.0807C39.5527 20.2345 35.6608 25.4756 32.3793 33.7937L117.967 25.7081Z" fill="white" stroke="#1E1E1E"/>
</svg>
