<svg width="151" height="109" viewBox="0 0 151 109" fill="none" xmlns="http://www.w3.org/2000/svg">
<path d="M21.545 83.1917C23.145 83.5917 24.6667 80.6917 25.5 78.6917C23.5 76.6917 20.4721 70.2474 23.5 64.1917C27 57.1917 33 56.1917 38 56.1917C38 41.1918 48.5 24.1918 76.0449 24.6917V15.6917C74.2116 12.6916 69.5449 6.69165 67.5449 6.69165C65.5449 6.69165 67.7116 14.3583 69.0449 18.1917C67.8783 16.3583 64.4449 11.8917 60.0449 8.69169C55.6449 5.49169 55.8783 7.35836 56.5449 8.69169L60.0449 15.6917C56.4449 11.6917 50.2116 9.69171 47.5449 9.19172C44.8783 8.85839 40.5449 8.79172 44.5449 11.1917C48.5449 13.5917 51.2116 17.1917 52.0449 18.6917C48.4449 14.2917 40.8783 12.525 37.5449 12.1917C31.8783 12.1917 22.1449 12.6917 28.5449 14.6917C34.9449 16.6917 40.8783 21.8584 43.0449 24.1918C35.4449 17.7918 24.5448 20.1918 20.0447 22.1918C16.8781 23.6917 12.6449 26.5917 21.0449 26.1917C29.4449 25.7917 34.8783 31.0251 36.5449 33.6917C22.9449 27.6917 12.8783 32.5251 9.54492 35.6917C7.54492 37.5251 5.14492 40.6918 11.5449 38.6918C17.9449 36.6918 23.8783 39.5251 26.0449 41.1918C16.0449 38.7918 7.21149 44.5251 4.04478 47.6918C2.21144 49.6918 -0.0552232 53.0917 5.54478 50.6917C11.1448 48.2917 17.5447 49.3584 20.0447 50.1917C12.5448 51.6917 3.54462 60.6917 4.54462 61.6917C5.34462 62.4917 15.2114 60.0251 20.0447 58.6917C13.5447 61.1917 6.54473 73.1917 8.04473 74.6917C9.24473 75.8917 16.2115 70.5251 19.5449 67.6917C16.8782 70.8584 12.0449 77.4917 14.0449 78.6917C16.0449 79.8917 20.5449 75.5251 22.545 73.1917C21.545 76.3584 19.945 82.7917 21.545 83.1917Z" fill="#626161"></path>
<path d="M130.045 83.1917C128.445 83.5917 127.833 80.1917 127 78.1917C129 75.6917 131.077 68.6917 128 63.6917C124 57.1917 118.667 56.1917 115 56.1917C115.5 50.6917 113 23.6917 76.0449 24.6917L73 20.5L76.0449 15.6917C77.8783 12.6917 82.0449 6.69165 84.0449 6.69165C86.0449 6.69165 83.8783 14.3583 82.5449 18.1917C83.7116 16.3583 87.1449 11.8917 91.5449 8.69169C95.9449 5.49169 95.7116 7.35836 95.0449 8.69169L91.5449 15.6917C95.1449 11.6917 101.378 9.69171 104.045 9.19172C106.712 8.85839 111.045 8.79172 107.045 11.1917C103.045 13.5917 100.378 17.1917 99.5449 18.6917C103.145 14.2917 110.712 12.525 114.045 12.1917C119.712 12.1917 129.445 12.6917 123.045 14.6917C116.645 16.6917 110.712 21.8584 108.545 24.1918C116.145 17.7918 127.045 20.1918 131.545 22.1918C134.712 23.6917 138.945 26.5917 130.545 26.1917C122.145 25.7917 116.712 31.0251 115.045 33.6917C128.645 27.6917 138.712 32.5251 142.045 35.6917C144.045 37.5251 146.445 40.6918 140.045 38.6918C133.645 36.6918 127.712 39.5251 125.545 41.1918C135.545 38.7918 144.378 44.5251 147.545 47.6918C149.378 49.6918 151.645 53.0917 146.045 50.6917C140.445 48.2917 134.045 49.3584 131.545 50.1917C139.045 51.6917 148.045 60.6917 147.045 61.6917C146.245 62.4917 136.378 60.0251 131.545 58.6917C138.045 61.1917 145.045 73.1917 143.545 74.6917C142.345 75.8917 135.378 70.5251 132.045 67.6917C134.712 70.8584 139.545 77.4917 137.545 78.6917C135.545 79.8917 131.5 76.025 129.5 73.6917C130.5 76.8583 131.645 82.7917 130.045 83.1917Z" fill="#626161"></path>
</svg>