<?xml version="1.0" encoding="utf-8"?>
<!-- Generator: Adobe Illustrator 16.0.0, SVG Export Plug-In . SVG Version: 6.00 Build 0)  -->
<!DOCTYPE svg PUBLIC "-//W3C//DTD SVG 1.1//EN" "http://www.w3.org/Graphics/SVG/1.1/DTD/svg11.dtd">
<svg version="1.1" id="Livello_1" xmlns="http://www.w3.org/2000/svg" xmlns:xlink="http://www.w3.org/1999/xlink" x="0px" y="0px"
	 width="119px" height="93px" viewBox="0 0 119 93" enable-background="new 0 0 119 93" xml:space="preserve">
<path fill="#FFFFFF" stroke="#1E1E1E" stroke-width="2.42" d="M18.915,42.67h79.86c7.017,0,12.705,5.688,12.705,12.705l0,0
	c0,7.017-5.688,12.705-12.705,12.705h-79.86c-7.017,0-12.705-5.688-12.705-12.705l0,0C6.21,48.358,11.898,42.67,18.915,42.67z"/>
<path fill="#FFFFFF" stroke="#1E1E1E" stroke-width="2.42" d="M52.19,11.21h14.52c16.706,0,30.25,13.543,30.25,30.25v19.36
	c0,16.706-13.544,30.25-30.25,30.25H52.19c-16.707,0-30.25-13.544-30.25-30.25V41.46C21.94,24.753,35.483,11.21,52.19,11.21z"/>
<path fill="#FFFFFF" stroke="#000000" stroke-miterlimit="10" d="M100.725,14.171C86.445-5.262,68.294-2.299,60.23,8.672
	c-0.289,0.4-0.592,0.938-0.882,1.502c-0.193-0.317-0.399-0.62-0.593-0.882C50.734-1.762,32.514-5.317,18.18,14.185
	C11.371,23.461,6.409,25.391,0,25.211c3.239,4.59,6.919,13.466,11.261,17.959c6.009,6.23,16.718,3.129,21.583-9.193
	c6.52-16.526,15.368-20.578,26.615-20.578c11.246,0,20.082,4.052,26.615,20.564c4.865,12.322,15.574,15.437,21.583,9.193
	c4.342-4.507,8.022-13.383,11.261-17.959C112.495,25.377,107.533,23.447,100.725,14.171z"/>
</svg>
